<svg width="318" height="127" viewBox="0 0 318 127" fill="none" xmlns="http://www.w3.org/2000/svg">
<g clip-path="url(#clip0_380_12718)">
<rect width="318" height="127" fill="#F5FAFE"/>
<g clip-path="url(#clip1_380_12718)">
<path d="M148.111 31.4637C168.336 35.4489 178.662 58.3546 211.237 78.7362C243.812 99.1178 236.64 178.708 185.197 165.728C136.124 153.345 133.853 154.323 101.714 155.466C61.4815 156.898 84.1054 18.8558 148.111 31.4637Z" fill="url(#paint0_linear_380_12718)"/>
<path d="M202.964 65.0434C193.472 57.4894 185.567 44.3075 190.062 31.606C194.557 18.9045 203.838 42.5465 211.306 50.4195C222.112 61.8174 222.83 80.8515 202.964 65.0434Z" fill="url(#paint1_linear_380_12718)"/>
<mask id="mask0_380_12718" style="mask-type:luminance" maskUnits="userSpaceOnUse" x="81" y="30" width="150" height="138">
<path d="M148.111 31.4637C168.336 35.4489 178.662 58.3546 211.237 78.7362C243.812 99.1178 236.64 178.708 185.197 165.728C136.124 153.345 133.853 154.323 101.714 155.466C61.4815 156.898 84.1054 18.8558 148.111 31.4637Z" fill="white"/>
</mask>
<g mask="url(#mask0_380_12718)">
<path d="M114.194 72.756V67.5026H122.907V42.3956H125.309V67.5026H134.695V72.756H139.722V178.027H103.467V72.756H114.194Z" fill="#CBD3EB"/>
<path d="M103.468 167.451H108.494L108.494 72.755H103.468L103.468 167.451Z" fill="#D6DCF0"/>
<path d="M121.595 178.026H157.849V97.8314H121.595V178.026Z" fill="#CBD3EB"/>
<path d="M121.594 178.026H126.621L126.621 97.8314H121.594L121.594 178.026Z" fill="#D6DCF0"/>
<path d="M147.588 103.408H152.79V101.248H147.588V103.408Z" fill="#D6DCF0"/>
<path d="M138.829 103.408H144.031V101.248H138.829V103.408Z" fill="#D6DCF0"/>
<path d="M147.588 111.268H152.79V109.109H147.588V111.268Z" fill="#D6DCF0"/>
<path d="M138.829 111.268H144.031V109.109H138.829V111.268Z" fill="#D6DCF0"/>
<path d="M130.07 111.268H135.271V109.109H130.07V111.268Z" fill="#D6DCF0"/>
<path d="M147.588 119.132H152.79V116.972H147.588V119.132Z" fill="#D6DCF0"/>
<path d="M130.07 119.132H135.271V116.972H130.07V119.132Z" fill="#D6DCF0"/>
<path d="M138.829 123.062H144.031V120.902H138.829V123.062Z" fill="#D6DCF0"/>
<path d="M147.588 126.992H152.79V124.833H147.588V126.992Z" fill="#D6DCF0"/>
<path d="M208.339 178.026H244.593V97.8314H208.339V178.026Z" fill="#CBD3EB"/>
<path d="M208.34 178.026H213.367V97.8314H208.34V178.026Z" fill="#D6DCF0"/>
<path d="M156.84 178.027H205.482L205.482 59.6878H156.84V178.027Z" fill="#CBD3EB"/>
<path d="M156.84 178.027H161.866L161.866 59.6878H156.84V178.027Z" fill="#D6DCF0"/>
<path d="M192.762 68.5091H200.359V65.3557H192.762V68.5091Z" fill="#D6DCF0"/>
<path d="M179.97 68.5091H187.567V65.3557H179.97V68.5091Z" fill="#D6DCF0"/>
<path d="M192.762 79.9891H200.359V76.8357H192.762V79.9891Z" fill="#D6DCF0"/>
<path d="M179.97 79.9891H187.567V76.8357H179.97V79.9891Z" fill="#D6DCF0"/>
<path d="M167.181 79.9891H174.778V76.8357H167.181V79.9891Z" fill="#D6DCF0"/>
<path d="M192.762 91.4692H200.359V88.3158H192.762V91.4692Z" fill="#D6DCF0"/>
<path d="M167.181 91.4692H174.778V88.3158H167.181V91.4692Z" fill="#D6DCF0"/>
<path d="M179.97 97.2098H187.567V94.0564H179.97V97.2098Z" fill="#D6DCF0"/>
<path d="M192.762 102.95H200.359V99.7968H192.762V102.95Z" fill="#D6DCF0"/>
<path d="M179.97 108.69H187.567V105.536H179.97V108.69Z" fill="#D6DCF0"/>
<path d="M192.762 114.429H200.359V111.276H192.762V114.429Z" fill="#D6DCF0"/>
<path d="M167.181 114.429H174.778V111.276H167.181V114.429Z" fill="#D6DCF0"/>
<path d="M192.762 125.038H200.359V121.885H192.762V125.038Z" fill="#D6DCF0"/>
<path d="M179.97 125.038H187.567V121.885H179.97V125.038Z" fill="#D6DCF0"/>
<path d="M79.2426 178.027H109.948L109.948 103.327H79.2426L79.2426 178.027Z" fill="#CBD3EB"/>
<path d="M79.2427 178.027H82.4161L82.4161 103.327H79.2427L79.2427 178.027Z" fill="#D6DCF0"/>
<path d="M101.918 108.895H106.713V106.905H101.918V108.895Z" fill="#D6DCF0"/>
<path d="M93.8446 108.895H98.6396V106.905H93.8446V108.895Z" fill="#D6DCF0"/>
<path d="M101.918 116.143H106.713V114.152H101.918V116.143Z" fill="#D6DCF0"/>
<path d="M93.8446 116.143H98.6396V114.152H93.8446V116.143Z" fill="#D6DCF0"/>
<path d="M85.7701 116.143H90.5652V114.152H85.7701V116.143Z" fill="#D6DCF0"/>
<path d="M101.918 123.389H106.713V121.399H101.918V123.389Z" fill="#D6DCF0"/>
<path d="M85.7701 123.389H90.5652V121.399H85.7701V123.389Z" fill="#D6DCF0"/>
<path d="M93.8446 127.011H98.6396V125.021H93.8446V127.011Z" fill="#D6DCF0"/>
<path opacity="0.35" d="M188.77 23.435H58.6433V171.802H188.77V23.435Z" fill="white"/>
<path opacity="0.5" d="M104.802 169.067H94.7031L148.842 25.0767H158.941L104.802 169.067Z" fill="white"/>
<path opacity="0.5" d="M86.9696 169.067H81.9196L136.059 25.0767H141.109L86.9696 169.067Z" fill="white"/>
<path opacity="0.5" d="M147.265 169.067H142.214L188.63 40.5353V50.8913L147.265 169.067Z" fill="white"/>
<path opacity="0.35" d="M320.941 20.443H190.814V168.81H320.941V20.443Z" fill="white"/>
<path opacity="0.5" d="M212.334 169.067H202.235L256.374 25.0767H266.473L212.334 169.067Z" fill="white"/>
<path opacity="0.5" d="M194.502 169.067H189.452L243.591 25.0767H248.641L194.502 169.067Z" fill="white"/>
<path d="M326.368 50.1406V48.4427H321.688V21.6816H58.5793V25.0767H61.4147V26.279H145.331V48.4427H58.5793V50.1406H145.331V93.7106H58.5793V95.4086H145.331V138.979H58.5793V140.677H145.331V169.067H61.4404V170.048H58.5754V173.975H321.692V173.66V140.677H326.372V138.979H321.692V95.4086H326.372V93.7106H321.692V50.1406H326.368ZM191.566 95.4076H232.094V138.979H191.566V95.4076ZM191.566 93.7096V50.1406H232.094V93.7106L191.566 93.7096ZM191.566 48.4427V26.279H232.094V48.4427H191.566ZM191.566 140.677H232.094V169.067H191.579V170.048H191.566V140.677ZM234.941 169.067V140.677H275.47V169.067H234.941ZM234.941 138.979V95.4086H275.47V138.979H234.941ZM234.941 93.7116V50.1406H275.47V93.7106L234.941 93.7116ZM234.941 48.4446V26.279H275.47V48.4427L234.941 48.4446ZM278.317 26.279H318.844V48.4427H278.317V26.279ZM148.178 26.279H188.707V48.4427H148.178V26.279ZM148.178 50.1445H188.707V93.7144H148.178V50.1445ZM148.178 95.4115H188.707V138.979H148.178V95.4115ZM148.178 140.678H188.707V170.049H188.691V169.069H148.178V140.678ZM318.844 170.048H318.83V169.067H278.317V140.677H318.844V170.048ZM318.844 138.979H278.317V95.4086H318.844V138.979ZM318.844 93.7116H278.317V50.1406H318.844V93.7116Z" fill="url(#paint2_linear_380_12718)"/>
</g>
<path d="M143.387 165.996C131.867 162.157 123.81 149.497 124.515 134.756C125.217 120.115 134.339 108.091 146.074 104.925L146.12 103.893L152.982 104.119C167.865 104.611 179.258 119.126 178.423 136.539C177.589 153.951 164.843 167.672 149.959 167.176L143.337 167.118L143.387 165.996Z" fill="#D25927"/>
<path d="M117.656 134.527C116.819 151.941 128.452 166.624 143.337 167.117C158.223 167.609 170.727 153.724 171.563 136.311C172.4 118.899 161.005 104.385 146.12 103.892C131.236 103.399 118.486 117.116 117.656 134.527Z" fill="url(#paint3_linear_380_12718)"/>
<path d="M122.469 134.702C121.784 149.003 131.337 161.06 143.563 161.466C155.789 161.872 166.063 150.467 166.746 136.166C167.43 121.865 158.075 109.943 145.849 109.539C133.623 109.135 123.153 120.401 122.469 134.702Z" fill="url(#paint4_linear_380_12718)"/>
<path d="M147.254 161.496C146.03 161.692 144.789 161.77 143.55 161.729C137.547 161.532 132.007 158.594 127.952 153.455C123.897 148.317 121.858 141.663 122.192 134.693C122.525 127.722 125.166 121.227 129.625 116.434C134.097 111.62 139.863 109.08 145.86 109.271C158.218 109.681 167.711 121.748 167.021 136.171C166.687 143.17 164.083 149.678 159.691 154.497C156.189 158.345 151.867 160.755 147.254 161.496ZM122.745 134.711C122.418 141.562 124.425 148.106 128.396 153.137C132.351 158.148 137.741 161.013 143.575 161.203C149.383 161.394 154.96 158.895 159.275 154.16C163.591 149.425 166.141 143.037 166.47 136.157C167.146 122.023 157.891 110.201 145.837 109.799C140.011 109.608 134.398 112.084 130.037 116.776C125.663 121.484 123.073 127.854 122.745 134.709V134.711Z" fill="white"/>
<path d="M153.104 136.267C152.367 135.326 151.388 134.706 150.167 134.408C150.955 133.862 151.546 133.102 151.94 132.13C152.336 131.143 152.481 130.074 152.361 129.017C152.278 128.064 151.978 127.142 151.485 126.322C151.005 125.542 150.443 124.937 149.799 124.507C149.167 124.081 148.438 123.818 147.679 123.743C147.366 123.715 147.052 123.702 146.738 123.705L146.251 118.952L144.124 119.17L144.601 123.825L144.23 123.86L141.779 124.111L141.301 119.458L139.174 119.676L139.651 124.329L137.001 124.599L136.497 124.652L134.109 124.895L134.289 126.649L136.676 126.405L138.732 146.46L136.344 146.704L136.524 148.459L138.911 148.215L139.416 148.163L142.065 147.892L142.507 152.196L144.634 151.979L144.194 147.673L145.497 147.541C146.051 147.48 146.547 147.422 147.012 147.366L147.455 151.69L149.583 151.471L149.134 147.086C149.605 147.016 149.96 146.953 150.192 146.895C151.217 146.651 152.052 146.19 152.697 145.512C153.341 144.834 153.817 143.967 154.123 142.913C154.428 141.879 154.528 140.795 154.417 139.722C154.279 138.361 153.841 137.21 153.104 136.267ZM146.396 127.678C147.057 127.709 147.576 127.934 147.953 128.355C148.33 128.776 148.556 129.351 148.63 130.081C148.708 130.845 148.58 131.478 148.248 131.98C147.916 132.483 147.418 132.818 146.754 132.986C146.39 133.081 145.446 133.2 143.925 133.357L141.365 133.621L140.806 128.171L143.049 127.943C144.888 127.752 146.004 127.663 146.396 127.678ZM150.015 141.969C149.726 142.483 149.254 142.871 148.692 143.054C148.324 143.19 147.435 143.329 146.028 143.473L142.411 143.839L141.766 137.536L144.917 137.214C146.694 137.032 147.86 137.026 148.416 137.196C148.954 137.357 149.423 137.693 149.747 138.151C150.079 138.616 150.282 139.202 150.355 139.91C150.442 140.747 150.329 141.433 150.015 141.969Z" fill="white"/>
<path d="M239.445 28.9597V81.1982C239.445 81.6947 239.248 82.171 238.897 82.5224C238.547 82.8738 238.071 83.0714 237.574 83.0719H164.829C164.333 83.0714 163.858 82.874 163.507 82.5232C163.157 82.1724 162.961 81.6968 162.961 81.2011V28.9626C162.961 28.3294 163.212 27.7221 163.66 27.2744C164.108 26.8266 164.715 26.5751 165.348 26.5751H237.058C237.691 26.5753 238.297 26.8266 238.745 27.2737C239.192 27.7208 239.444 28.3272 239.445 28.9597Z" fill="url(#paint5_linear_380_12718)"/>
<path d="M239.444 34.7966H162.96V28.9616C162.96 28.3284 163.211 27.7211 163.659 27.2734C164.107 26.8256 164.714 26.5741 165.347 26.5741H237.056C237.69 26.5741 238.297 26.8256 238.745 27.2734C239.192 27.7211 239.444 28.3284 239.444 28.9616V34.7966Z" fill="url(#paint6_linear_380_12718)"/>
<path d="M176.115 30.6854C176.115 30.4354 176.189 30.191 176.328 29.9831C176.466 29.7752 176.664 29.6131 176.895 29.5173C177.125 29.4216 177.38 29.3965 177.625 29.4452C177.87 29.4939 178.095 29.6143 178.272 29.791C178.449 29.9678 178.569 30.193 178.618 30.4382C178.666 30.6833 178.641 30.9375 178.546 31.1684C178.45 31.3993 178.288 31.5966 178.08 31.7354C177.872 31.8741 177.627 31.9481 177.378 31.9479C177.043 31.9476 176.722 31.8145 176.485 31.5778C176.248 31.3411 176.115 31.0201 176.115 30.6854Z" fill="#B5CBE9"/>
<path d="M171.254 30.6854C171.254 30.4355 171.328 30.1911 171.466 29.9832C171.605 29.7753 171.802 29.6132 172.033 29.5174C172.264 29.4216 172.518 29.3965 172.763 29.4451C173.009 29.4938 173.234 29.614 173.411 29.7907C173.587 29.9673 173.708 30.1925 173.757 30.4376C173.805 30.6827 173.78 30.9368 173.685 31.1677C173.589 31.3986 173.427 31.596 173.22 31.7349C173.012 31.8738 172.767 31.9479 172.517 31.9479C172.183 31.9476 171.862 31.8146 171.625 31.5779C171.388 31.3412 171.255 31.0202 171.254 30.6854Z" fill="url(#paint7_linear_380_12718)"/>
<path d="M166.395 30.6854C166.395 30.4354 166.469 30.191 166.608 29.9831C166.746 29.7752 166.944 29.6131 167.175 29.5173C167.405 29.4216 167.66 29.3965 167.905 29.4452C168.15 29.4939 168.375 29.6143 168.552 29.791C168.729 29.9678 168.849 30.193 168.898 30.4382C168.946 30.6833 168.921 30.9375 168.826 31.1684C168.73 31.3993 168.568 31.5966 168.36 31.7354C168.152 31.8741 167.907 31.9481 167.658 31.9479C167.323 31.9476 167.002 31.8145 166.765 31.5778C166.528 31.3411 166.395 31.0201 166.395 30.6854Z" fill="white"/>
<path d="M233.425 29.7619L234.051 29.1364L234.944 30.0302L235.837 29.1364L236.461 29.7619L235.568 30.6548L236.461 31.5477L235.837 32.1733L234.944 31.2803L234.051 32.1733L233.425 31.5477L234.318 30.6548L233.425 29.7619Z" fill="white"/>
<path d="M105.858 99.114C106.854 94.5233 109.576 91.4549 110.492 90.6766C111.997 89.3988 116.191 89.5239 117.888 93.0115C119.585 96.4992 120.212 98.6078 119.739 104.888C119.265 111.168 114.066 132.621 114.054 137.33C114.043 142.039 104.255 141.532 104.777 134.783C105.298 128.034 104.708 104.424 105.858 99.114Z" fill="#413C97"/>
<path d="M119.878 100.456C119.775 97.3128 119.107 95.5184 117.888 93.0067C116.94 91.0604 115.214 90.1618 113.614 89.9689C113.512 89.9574 113.411 89.9469 113.309 89.9402C113.208 89.9335 113.133 89.9307 113.046 89.9297C112.791 89.9244 112.535 89.9378 112.282 89.9698C111.972 90.0086 111.667 90.08 111.372 90.1828C111.238 90.2306 111.106 90.2867 110.979 90.3509C110.918 90.3824 110.859 90.4149 110.802 90.4464C110.692 90.5118 110.587 90.5862 110.489 90.6689C110.431 90.7186 110.365 90.7778 110.294 90.8456C110.254 90.8828 110.213 90.922 110.171 90.964L110.128 91.007L110.033 91.1025L109.982 91.155C109.948 91.1903 109.913 91.2285 109.877 91.2667C109.861 91.2839 109.845 91.3011 109.829 91.3193C109.724 91.4329 109.614 91.558 109.499 91.6936L109.448 91.7538C109.406 91.8034 109.363 91.855 109.321 91.9075L109.261 91.9811C109.217 92.0355 109.173 92.0909 109.129 92.1482L109.075 92.2169C108.95 92.3783 108.822 92.5512 108.693 92.7327L108.639 92.8091C108.592 92.8769 108.544 92.9456 108.496 93.0163C108.474 93.0468 108.454 93.0784 108.432 93.1118C108.384 93.1825 108.337 93.255 108.289 93.3286C108.27 93.3572 108.251 93.3859 108.233 93.4155C108.1 93.6208 107.967 93.8366 107.836 94.062C107.817 94.0935 107.798 94.126 107.78 94.1575L107.638 94.4077C107.617 94.4469 107.596 94.486 107.574 94.5252C107.528 94.6102 107.478 94.6952 107.437 94.783C107.417 94.8193 107.398 94.8556 107.379 94.8919C107.316 95.0151 107.253 95.1402 107.188 95.2682C107.126 95.3952 107.065 95.526 107.005 95.6578C106.986 95.697 106.969 95.7371 106.951 95.7762L106.825 96.0627C106.806 96.1095 106.786 96.1582 106.767 96.2031C106.727 96.2986 106.687 96.3989 106.647 96.4992C106.629 96.5422 106.613 96.5851 106.596 96.6291C106.541 96.7704 106.488 96.914 106.436 97.0598C106.385 97.2059 106.334 97.3539 106.286 97.5048C106.271 97.5516 106.257 97.6003 106.241 97.6471C106.208 97.7531 106.177 97.8601 106.146 97.968C106.131 98.0224 106.114 98.0759 106.099 98.1322C106.069 98.2411 106.04 98.349 106.011 98.4598C105.998 98.5114 105.985 98.561 105.972 98.6126C105.932 98.7711 105.895 98.9306 105.859 99.0901C105.859 99.0901 105.859 99.0901 105.859 99.0949V99.1016C105.839 99.1904 105.821 99.2849 105.803 99.3881C105.796 99.4215 105.791 99.4568 105.785 99.4921C105.772 99.5628 105.76 99.6344 105.749 99.7099C105.741 99.7519 105.735 99.7958 105.729 99.8388C105.718 99.9123 105.707 99.9868 105.696 100.063C105.689 100.11 105.684 100.159 105.677 100.206C105.667 100.286 105.656 100.369 105.646 100.454C105.646 100.501 105.635 100.549 105.629 100.595C105.618 100.691 105.606 100.796 105.596 100.899L105.584 101.009C105.554 101.302 105.526 101.611 105.5 101.938L105.492 102.033C105.482 102.166 105.472 102.3 105.462 102.436C105.462 102.481 105.456 102.525 105.453 102.57C105.443 102.703 105.434 102.837 105.426 102.973L105.417 103.108C105.409 103.252 105.399 103.394 105.392 103.548C105.392 103.585 105.387 103.623 105.385 103.661C105.374 103.844 105.364 104.031 105.355 104.22C105.355 104.22 105.355 104.225 105.355 104.227C105.325 104.837 105.297 105.481 105.273 106.151C105.273 106.167 105.273 106.183 105.273 106.198C105.265 106.406 105.258 106.617 105.252 106.83C105.252 106.848 105.252 106.863 105.252 106.879C105.244 107.103 105.237 107.328 105.231 107.556C109.391 110.523 116.556 110.467 116.325 112.582C116.221 113.537 113.189 133.907 112.833 134.702C112.794 134.791 113.387 137.708 114.036 137.685C114.052 137.558 114.06 137.43 114.061 137.303C114.072 132.67 119.105 111.827 119.718 105.175C119.718 105.175 119.718 105.167 119.718 105.161C119.728 105.058 119.737 104.958 119.743 104.86C119.818 103.879 119.865 103 119.885 102.201C119.896 101.589 119.896 101.003 119.878 100.456Z" fill="#2A276F"/>
<path d="M128.581 99.9171C127.346 95.1144 124.482 91.6239 123.533 90.7071C121.973 89.2029 117.825 88.7598 116.332 92.0756C114.839 95.3913 114.333 97.4494 115.143 103.899C115.953 110.35 119.284 132.436 119.55 137.229C119.817 142.022 129.048 139.36 128.861 132.376C128.653 124.655 130.009 105.473 128.581 99.9171Z" fill="#413C97"/>
<path d="M117.867 108.048C120.083 107.953 123.542 107.783 124.298 108.117C125.874 108.81 126.98 110.409 126.781 112.176C126.552 114.221 127.694 133.21 127.694 133.21L128.561 137.221L128.826 133.306C128.857 132.995 128.867 132.683 128.859 132.371C128.652 124.653 130.005 105.47 128.579 99.9143C127.46 95.5624 125.003 92.2867 123.845 91.0328C123.726 90.9029 123.62 90.7941 123.531 90.7081C121.971 89.204 117.823 88.7609 116.33 92.0766C114.837 95.3924 114.331 97.4504 115.141 103.9C115.18 104.215 115.405 105.3 115.619 106.306C115.726 106.816 116.011 107.271 116.423 107.59C116.835 107.909 117.346 108.071 117.867 108.048Z" fill="#2A276F"/>
<path d="M121.021 50.2896C121.403 53.4526 117.509 54.6655 117.509 54.6655C117.228 52.319 114.602 50.962 113.776 48.0979C112.917 45.1307 114.731 42.0165 118.885 42.1884C121.433 42.2944 120.643 47.1267 121.021 50.2896Z" fill="#2A276F"/>
<path d="M97.868 74.6268C99.3005 73.0167 100.84 71.9958 105.35 68.5979C105.521 68.4337 105.698 68.2694 105.883 68.1099C109.239 65.222 111.995 60.9598 112.645 60.4757C115.083 58.6554 121.345 60.1891 118.602 66.1655C116.107 71.609 107.005 79.3589 102.749 79.8593C101.153 80.0503 98.4191 78.2854 97.996 76.9494C97.8117 76.3315 97.4536 75.0948 97.868 74.6268Z" fill="#413C97"/>
<path d="M123.814 59.6085C126.033 59.895 130.081 60.8987 131.287 63.014C132.493 65.1294 131.612 85.3324 130.078 98.5515C130.078 98.5515 111.717 106.31 105.201 97.9785C105.201 97.9785 109.745 63.9328 112.345 60.7746C114.514 58.134 121.596 59.322 123.814 59.6085Z" fill="#6669B0"/>
<path d="M124.271 59.6639C124.271 59.6639 116.521 70.4391 115.62 71.3215C115.62 71.3215 115.907 62.0733 116.07 59.301L124.271 59.6639Z" fill="url(#paint8_linear_380_12718)"/>
<path d="M122.848 55.1028C122.938 54.694 123.015 54.4286 123.015 54.4286C123.015 54.4286 118.615 50.9218 118.031 54.4811L122.848 55.1028Z" fill="url(#paint9_linear_380_12718)"/>
<path d="M118.134 61.9138L116.797 59.3707C116.797 59.3707 118.175 58.4405 117.991 56.0072C117.54 50.0642 123.013 54.4285 123.013 54.4285C123.013 54.4285 122.019 59.3735 123.814 59.6085L118.134 61.9138Z" fill="#FED2A7"/>
<path d="M118.166 60.7478C121.248 61.1461 121.095 57.2859 121.244 56.5621C121.384 55.8802 123.015 54.4286 123.015 54.4286C123.015 54.4286 122.019 59.3736 123.814 59.6085L118.134 61.9177L117.344 60.4145C117.582 60.6002 117.867 60.7156 118.166 60.7478Z" fill="#FBBB8F"/>
<path d="M131.785 70.5193L129.731 75.4118C129.111 77.3218 125.027 69.6818 125.027 70.7992L126.173 82.0405C126.173 82.0405 129.277 101.337 109.181 100.854C117.193 103.99 130.082 98.5457 130.082 98.5457C130.814 92.2103 131.988 77.9559 131.785 70.5193Z" fill="#413C97"/>
<path d="M135.219 73.8676C133.824 69.9597 132.458 64.3883 132.13 63.6615C130.888 60.9254 124.299 59.2475 124.271 65.7348C124.245 71.4247 128.913 82.453 131.433 85.1213C132.522 86.273 135.804 87.4496 137.25 84.9504C137.579 84.5798 138.184 83.1015 135.219 73.8676Z" fill="#6669B0"/>
<path d="M125.051 45.592L126.491 52.4737C126.736 54.525 124.574 56.4694 122.412 56.7282C120.25 56.987 118.299 55.5335 118.054 53.4812L118.034 53.3112C118.034 53.3112 115.775 53.4211 115.504 51.1453C115.233 48.8695 116.835 49.6173 116.835 49.6173L116.719 48.6442C116.687 48.3774 116.708 48.107 116.78 47.8483C116.853 47.5897 116.976 47.3479 117.142 47.1367C117.308 46.9256 117.514 46.7492 117.749 46.6177C117.983 46.4862 118.241 46.4021 118.507 46.3703L125.051 45.592Z" fill="#FED2A7"/>
<path d="M116.835 49.6211L116.708 48.5572C116.647 48.0426 116.792 47.5246 117.113 47.1172C117.433 46.7098 117.902 46.4463 118.417 46.3846L119.521 46.2528C119.521 46.2757 119.521 46.2977 119.521 46.3197L120.461 54.1917C120.626 55.5669 122.085 56.4837 123.415 56.2736C123.829 56.2096 124.639 55.8601 124.95 55.63C124.03 56.351 123.196 56.6337 122.408 56.7282C120.246 56.987 118.295 55.5335 118.049 53.4812L118.029 53.3112C118.029 53.3112 115.77 53.421 115.499 51.1453C115.228 48.8695 116.835 49.6211 116.835 49.6211Z" fill="#FBBB8F"/>
<path d="M117.467 58.5981C117.296 60.1873 118.135 61.911 118.135 61.911C118.135 61.911 117.229 61.361 116.257 62.3952C115.844 62.8345 115.456 62.8422 115.456 62.8422C115.456 62.8422 115.469 61.5701 116.084 59.195L117.467 58.5981Z" fill="#CBD3EB"/>
<path d="M138.168 84.0174C139.975 87.9892 141.672 98.9908 141.956 101.661C142.124 103.237 138.679 103.152 138.578 101.852C138.343 98.8648 133.388 90.0635 131.964 85.9169C130.75 82.3796 136.945 81.33 138.168 84.0174Z" fill="#FED2A7"/>
<path d="M122.869 58.4673C121.87 60.0096 118.134 61.9139 118.134 61.9139C118.134 61.9139 119.28 61.6713 120.375 63.1554C120.684 63.5487 121.099 63.8445 121.572 64.0072C121.572 64.0072 123.945 62.187 124.271 59.6639L122.869 58.4673Z" fill="#CBD3EB"/>
<path d="M119.296 45.5863C119.296 45.5863 120.992 47.3339 123.785 46.7208C126.577 46.1077 126.993 47.5631 126.993 47.5631C126.993 47.5631 127.709 42.259 123.89 40.86C120.071 39.4609 118.124 42.197 118.124 42.197L119.296 45.5863Z" fill="#2A276F"/>
<path d="M148.62 104.614C145.644 103.934 143.804 106.158 141.557 104.595C139.31 103.031 138.149 102.821 138.701 100.952C139.253 99.0834 140.883 99.6154 144.256 100.387C147.548 101.14 153.037 105.624 148.62 104.614Z" fill="#FED2A7"/>
<path d="M101.701 72.883C106.103 73.3185 115.811 78.8479 118.462 78.231C119.674 77.9445 123.571 79.6434 122.658 80.8859C122.213 81.4904 118.189 81.5639 116.526 81.4436C113.496 81.224 104.684 80.3931 100.325 79.5336C96.6055 78.7983 98.7228 72.5879 101.701 72.883Z" fill="#FED2A7"/>
<path d="M127.721 79.377C124.683 79.0905 123.643 76.3936 121.015 77.1662C118.388 77.9388 117.221 77.7707 117.153 79.7179C117.085 81.6652 118.802 81.6757 122.245 82.0099C125.606 82.3375 132.232 79.8201 127.721 79.377Z" fill="#FED2A7"/>
<path d="M231.351 73.1112H173.116C173.003 73.1112 172.911 73.2031 172.911 73.3165V98.7023C172.911 98.8157 173.003 98.9077 173.116 98.9077H231.351C231.465 98.9077 231.556 98.8157 231.556 98.7023V73.3165C231.556 73.2031 231.465 73.1112 231.351 73.1112Z" fill="#CBD3EB"/>
<path d="M227.531 86.0974C227.483 90.8981 223.51 94.7516 218.657 94.7516C213.805 94.7516 209.833 90.8981 209.784 86.0974C209.735 81.2421 213.708 77.2665 218.657 77.2665C223.607 77.2665 227.581 81.2421 227.531 86.0974Z" fill="url(#paint10_linear_380_12718)"/>
<path d="M222.165 86.3771C221.897 86.0347 221.522 85.7922 221.1 85.6886C221.432 85.5448 221.717 85.31 221.922 85.0115C222.126 84.7204 222.241 84.3764 222.253 84.0211C222.27 83.7083 222.199 83.397 222.048 83.1225C221.909 82.8672 221.713 82.6478 221.475 82.4817C221.234 82.3185 220.96 82.2109 220.672 82.1665C220.567 82.1493 220.443 82.135 220.3 82.1245L220.354 80.564H219.495L219.443 82.092H219.294H218.306L218.356 80.564H217.496L217.449 82.092H216.382H216.182H215.219L215.204 82.665H216.165L215.974 89.1695H215.019L215.004 89.733H215.959H216.16H217.216L217.173 91.111H218.021L218.065 89.732H218.586L219.191 89.7234L219.144 91.1082H219.992L220.04 89.7034C220.231 89.6957 220.373 89.6862 220.467 89.6757C220.844 89.643 221.207 89.5184 221.525 89.3128C221.819 89.1129 222.058 88.844 222.223 88.5297C222.395 88.2197 222.493 87.8743 222.51 87.5202C222.532 87.1107 222.41 86.7063 222.165 86.3771ZM219.956 83.4013C220.178 83.4134 220.386 83.5093 220.54 83.6697C220.67 83.831 220.733 84.036 220.717 84.2427C220.718 84.3545 220.696 84.4652 220.652 84.5682C220.609 84.6713 220.545 84.7645 220.465 84.8424C220.288 85.0031 220.062 85.1005 219.823 85.1194C219.674 85.1385 219.294 85.148 218.683 85.1509H217.656L217.71 83.388H218.612C219.353 83.3797 219.801 83.3841 219.956 83.4013ZM220.647 88.1047C220.494 88.2662 220.293 88.3735 220.074 88.4103C219.718 88.4538 219.359 88.4707 219.001 88.4609L217.557 88.4667L217.621 86.4315H218.885C219.596 86.4315 220.058 86.4659 220.269 86.5347C220.463 86.5939 220.631 86.7159 220.747 86.8814C220.859 87.0712 220.91 87.2908 220.892 87.5104C220.875 87.7301 220.791 87.9392 220.651 88.1095L220.647 88.1047Z" fill="white"/>
<path d="M176.262 77.4555L176.277 78.8899H191.462L191.481 77.4555H176.262Z" fill="white"/>
<path d="M176.309 81.7636L176.324 83.1885H203.665L203.698 81.7636H176.309Z" fill="white"/>
<path d="M176.355 86.0429L176.37 87.4592H201.67L201.699 86.0429H176.355Z" fill="white"/>
<path d="M193.051 78.8899H197.738L197.764 77.4555H193.072L193.051 78.8899Z" fill="white"/>
<path d="M189.714 90.4731H176.439C176.392 90.4731 176.355 90.5107 176.355 90.5571V95.1354C176.355 95.1818 176.392 95.2194 176.439 95.2194H189.714C189.761 95.2194 189.798 95.1818 189.798 95.1354V90.5571C189.798 90.5107 189.761 90.4731 189.714 90.4731Z" fill="url(#paint11_linear_380_12718)"/>
<path d="M178.999 91.4596H180.186C180.362 91.4562 180.537 91.4661 180.711 91.4893C180.822 91.5077 180.928 91.5493 181.022 91.6115C181.115 91.6765 181.192 91.7613 181.249 91.8598C181.312 91.9647 181.345 92.085 181.344 92.2074C181.345 92.3436 181.305 92.4768 181.231 92.5911C181.157 92.7053 181.052 92.7957 180.927 92.8511C181.092 92.8931 181.239 92.9881 181.344 93.1213C181.442 93.2495 181.494 93.4071 181.49 93.5683C181.488 93.7053 181.456 93.8403 181.394 93.9627C181.335 94.0847 181.247 94.1899 181.136 94.2683C181.017 94.3488 180.879 94.3972 180.735 94.4087C180.64 94.4192 180.393 94.4259 180.012 94.4287H179.001L178.999 91.4596ZM179.599 91.9543V92.641H179.992C180.225 92.641 180.374 92.641 180.427 92.6305C180.517 92.6242 180.603 92.5867 180.668 92.5245C180.698 92.4939 180.722 92.4576 180.737 92.4177C180.752 92.3777 180.759 92.3351 180.757 92.2924C180.76 92.2112 180.734 92.1316 180.682 92.0689C180.622 92.0072 180.541 91.9698 180.455 91.9639C180.396 91.9582 180.225 91.9543 179.944 91.9543H179.599ZM179.599 93.1347V93.9293H180.154C180.291 93.9336 180.429 93.9272 180.565 93.9102C180.649 93.897 180.726 93.8551 180.782 93.7917C180.841 93.7216 180.872 93.6314 180.867 93.5396C180.869 93.4593 180.847 93.3802 180.802 93.3133C180.755 93.2485 180.688 93.2009 180.611 93.1777C180.436 93.14 180.258 93.1255 180.079 93.1347H179.599Z" fill="white"/>
<path d="M181.993 91.4597H182.593V93.0679C182.588 93.2337 182.595 93.3997 182.615 93.5645C182.637 93.6813 182.703 93.7855 182.798 93.8567C182.914 93.9363 183.054 93.9753 183.194 93.9675C183.33 93.9762 183.464 93.9396 183.576 93.8634C183.659 93.8002 183.714 93.7086 183.732 93.6065C183.754 93.4393 183.763 93.2708 183.759 93.1023V91.4597H184.358V93.0192C184.365 93.2719 184.349 93.5249 184.309 93.7746C184.281 93.912 184.219 94.0403 184.129 94.148C184.034 94.2547 183.914 94.3374 183.781 94.3896C183.597 94.456 183.403 94.4865 183.208 94.4794C182.989 94.4912 182.769 94.4587 182.563 94.3839C182.428 94.328 182.309 94.2405 182.216 94.1289C182.135 94.0337 182.077 93.9213 182.047 93.8004C182.001 93.552 181.981 93.2994 181.988 93.0469L181.993 91.4597Z" fill="white"/>
<path d="M185.767 94.4287V93.1796L184.679 91.4606H185.382L186.08 92.6362L186.765 91.4606H187.456L186.364 93.1796V94.4211L185.767 94.4287Z" fill="white"/>
<path d="M231.351 41.2954H173.116C173.003 41.2954 172.911 41.3873 172.911 41.5007V66.8866C172.911 66.9999 173.003 67.0919 173.116 67.0919H231.351C231.465 67.0919 231.556 66.9999 231.556 66.8866V41.5007C231.556 41.3873 231.465 41.2954 231.351 41.2954Z" fill="#CBD3EB"/>
<path d="M227.531 54.2815C227.483 59.0823 223.51 62.9357 218.657 62.9357C213.805 62.9357 209.833 59.0823 209.784 54.2815C209.735 49.4263 213.708 45.4506 218.657 45.4506C223.607 45.4506 227.581 49.4263 227.531 54.2815Z" fill="url(#paint12_linear_380_12718)"/>
<path d="M222.368 57.2344L217.702 57.2402L218.263 53.6417L219.85 52.6963L220.253 51.1301L218.491 52.172L218.925 49.3891L216.779 49.391L216.141 53.5634L214.371 54.611L214.033 56.162L215.915 55.0408L215.364 58.6421L217.485 58.6402L222.001 58.6345L222.368 57.2344Z" fill="white"/>
<path d="M176.262 45.6397L176.277 47.0751H191.462L191.481 45.6397H176.262Z" fill="white"/>
<path d="M176.309 49.9477L176.324 51.3726H203.665L203.698 49.9477H176.309Z" fill="white"/>
<path d="M176.355 54.2271L176.37 55.6434H201.67L201.699 54.2271H176.355Z" fill="white"/>
<path d="M193.051 47.0751H197.738L197.764 45.6397H193.072L193.051 47.0751Z" fill="white"/>
<path d="M189.714 58.6573H176.439C176.392 58.6573 176.355 58.695 176.355 58.7414V63.3197C176.355 63.3661 176.392 63.4037 176.439 63.4037H189.714C189.761 63.4037 189.798 63.3661 189.798 63.3197V58.7414C189.798 58.695 189.761 58.6573 189.714 58.6573Z" fill="url(#paint13_linear_380_12718)"/>
<path d="M178.999 59.6448H180.186C180.362 59.6409 180.537 59.6508 180.711 59.6744C180.822 59.692 180.928 59.7337 181.022 59.7967C181.115 59.8611 181.193 59.9461 181.249 60.045C181.312 60.1496 181.345 60.2695 181.344 60.3916C181.345 60.5278 181.305 60.6611 181.231 60.7753C181.157 60.8896 181.052 60.9799 180.927 61.0353C181.092 61.0777 181.238 61.1726 181.344 61.3056C181.442 61.4337 181.494 61.5913 181.49 61.7525C181.488 61.8895 181.456 62.0245 181.394 62.1469C181.335 62.269 181.247 62.3741 181.136 62.4525C181.017 62.5331 180.879 62.5814 180.735 62.5929C180.64 62.6034 180.393 62.6101 180.012 62.613H179.001L178.999 59.6448ZM179.599 60.1385V60.8252H179.992C180.225 60.8252 180.374 60.8252 180.427 60.8147C180.517 60.8084 180.603 60.7709 180.668 60.7087C180.698 60.6781 180.722 60.6418 180.737 60.6019C180.752 60.562 180.759 60.5193 180.757 60.4766C180.76 60.3954 180.734 60.3158 180.682 60.2532C180.622 60.1914 180.541 60.1542 180.455 60.1491C180.396 60.1424 180.225 60.1385 179.944 60.1385H179.599ZM179.599 61.3189V62.1135H180.154C180.291 62.1178 180.429 62.1115 180.565 62.0944C180.653 62.0818 180.733 62.0367 180.789 61.9681C180.844 61.8994 180.872 61.8122 180.867 61.7239C180.869 61.6435 180.847 61.5644 180.802 61.4975C180.755 61.4328 180.688 61.3851 180.611 61.3619C180.436 61.3242 180.258 61.3097 180.079 61.3189H179.599Z" fill="white"/>
<path d="M181.993 59.6448H182.593V61.252C182.588 61.4179 182.595 61.5839 182.615 61.7486C182.637 61.8655 182.703 61.9697 182.798 62.0409C182.914 62.1205 183.054 62.1594 183.194 62.1517C183.33 62.1604 183.464 62.1237 183.576 62.0476C183.659 61.9844 183.714 61.8927 183.732 61.7907C183.754 61.6235 183.763 61.4549 183.759 61.2864V59.6448H184.358V61.2033C184.365 61.4561 184.349 61.709 184.309 61.9587C184.281 62.0962 184.219 62.2246 184.129 62.3321C184.034 62.4388 183.914 62.5216 183.781 62.5738C183.597 62.6402 183.403 62.6707 183.208 62.6635C182.989 62.6754 182.769 62.6429 182.563 62.568C182.429 62.5122 182.309 62.4247 182.216 62.313C182.135 62.2179 182.078 62.1055 182.048 61.9845C182.003 61.7363 181.984 61.4841 181.993 61.232V59.6448Z" fill="white"/>
<path d="M185.767 62.6129V61.3638L184.679 59.6448H185.382L186.08 60.8194L186.765 59.6448H187.456L186.364 61.3638V62.6053L185.767 62.6129Z" fill="white"/>
<path d="M231.351 104.927H173.116C173.003 104.927 172.911 105.019 172.911 105.132V130.518C172.911 130.632 173.003 130.723 173.116 130.723H231.351C231.465 130.723 231.556 130.632 231.556 130.518V105.132C231.556 105.019 231.465 104.927 231.351 104.927Z" fill="#CBD3EB"/>
<path d="M227.531 117.913C227.483 122.714 223.51 126.567 218.657 126.567C213.805 126.567 209.833 122.714 209.784 117.913C209.735 113.058 213.708 109.082 218.657 109.082C223.607 109.082 227.581 113.058 227.531 117.913Z" fill="url(#paint14_linear_380_12718)"/>
<path d="M218.502 111.372L214.647 119.084L218.504 116.922L218.502 111.372Z" fill="white"/>
<path d="M218.504 124.503L214.646 119.535L218.503 121.307L218.504 124.503Z" fill="white"/>
<path d="M218.747 111.372L222.607 119.367L218.749 116.922L218.747 111.372Z" fill="white"/>
<path d="M218.843 124.503L222.698 119.818L218.843 121.307L218.843 124.503Z" fill="white"/>
<path d="M214.8 119.225L218.656 117.063L222.515 119.509L218.658 120.933L214.8 119.225Z" fill="white"/>
<path d="M176.262 110.51L176.277 111.945H191.462L191.481 110.51H176.262Z" fill="white"/>
<path d="M176.309 114.818L176.324 116.244H203.665L203.698 114.818H176.309Z" fill="white"/>
<path d="M176.355 119.097L176.37 120.514H201.67L201.699 119.097H176.355Z" fill="white"/>
<path d="M193.051 111.945H197.738L197.764 110.51H193.072L193.051 111.945Z" fill="white"/>
<path d="M189.622 123.193H176.346C176.3 123.193 176.262 123.231 176.262 123.277V127.856C176.262 127.902 176.3 127.94 176.346 127.94H189.622C189.668 127.94 189.706 127.902 189.706 127.856V123.277C189.706 123.231 189.668 123.193 189.622 123.193Z" fill="url(#paint15_linear_380_12718)"/>
<path d="M178.906 124.18H180.093C180.269 124.176 180.445 124.186 180.619 124.21C180.73 124.227 180.836 124.269 180.929 124.332C181.022 124.397 181.1 124.481 181.156 124.58C181.219 124.685 181.252 124.805 181.252 124.928C181.252 125.064 181.212 125.197 181.138 125.311C181.064 125.425 180.959 125.516 180.835 125.571C180.999 125.613 181.146 125.708 181.252 125.841C181.35 125.969 181.401 126.126 181.397 126.288C181.396 126.425 181.363 126.56 181.302 126.682C181.243 126.804 181.154 126.909 181.044 126.988C180.924 127.068 180.786 127.116 180.643 127.128C180.547 127.139 180.301 127.146 179.92 127.148H178.908L178.906 124.18ZM179.506 124.674V125.36H179.9C180.133 125.36 180.282 125.36 180.334 125.35C180.424 125.344 180.51 125.307 180.576 125.245C180.606 125.214 180.629 125.178 180.644 125.138C180.659 125.098 180.666 125.055 180.665 125.013C180.668 124.931 180.641 124.851 180.589 124.788C180.529 124.726 180.449 124.689 180.363 124.684C180.304 124.677 180.133 124.674 179.851 124.674H179.506ZM179.506 125.854V126.65H180.061C180.198 126.654 180.336 126.647 180.473 126.631C180.556 126.617 180.632 126.575 180.689 126.513C180.748 126.443 180.779 126.353 180.774 126.261C180.777 126.18 180.754 126.101 180.709 126.034C180.662 125.969 180.595 125.921 180.518 125.898C180.344 125.86 180.165 125.846 179.986 125.855L179.506 125.854Z" fill="white"/>
<path d="M181.897 124.18H182.497V125.79C182.493 125.956 182.5 126.122 182.519 126.287C182.542 126.404 182.608 126.508 182.703 126.58C182.819 126.659 182.958 126.697 183.099 126.69C183.234 126.699 183.369 126.662 183.481 126.585C183.564 126.523 183.62 126.432 183.638 126.33C183.659 126.162 183.668 125.994 183.664 125.825V124.183H184.263V125.741C184.271 125.994 184.254 126.248 184.214 126.498C184.186 126.635 184.124 126.763 184.035 126.87C183.939 126.977 183.82 127.06 183.686 127.112C183.503 127.18 183.309 127.213 183.113 127.207C182.894 127.219 182.675 127.186 182.469 127.112C182.334 127.055 182.215 126.968 182.121 126.856C182.04 126.761 181.983 126.648 181.953 126.527C181.906 126.279 181.886 126.026 181.894 125.774L181.897 124.18Z" fill="white"/>
<path d="M185.675 127.148V125.899L184.587 124.18H185.29L185.988 125.355L186.673 124.18H187.363L186.271 125.899V127.14L185.675 127.148Z" fill="white"/>
<path d="M110.969 10.8568H80.8586C79.983 10.8568 79.1432 11.2046 78.5241 11.8237C77.905 12.4429 77.5571 13.2826 77.5571 14.1582V33.8875C77.5571 34.321 77.6425 34.7503 77.8085 35.1508C77.9744 35.5513 78.2176 35.9152 78.5242 36.2217C78.8307 36.5281 79.1947 36.7712 79.5952 36.937C79.9958 37.1029 80.4251 37.1881 80.8586 37.188H102.359L107.347 43.1825C107.428 43.2909 107.541 43.371 107.67 43.4117C107.799 43.4524 107.937 43.4516 108.065 43.4094C108.194 43.3672 108.306 43.2857 108.385 43.1764C108.465 43.0672 108.508 42.9357 108.509 42.8005L106.998 37.1899H110.969C111.844 37.1899 112.684 36.8422 113.303 36.2233C113.922 35.6044 114.27 34.7649 114.27 33.8894V14.1582C114.27 13.2826 113.922 12.4429 113.303 11.8237C112.684 11.2046 111.844 10.8568 110.969 10.8568Z" fill="url(#paint16_linear_380_12718)"/>
<path d="M95.5083 28.7944H90.3331V33.5522H95.5083V28.7944Z" fill="white"/>
<path d="M88.0659 30.6118H82.8917V33.5513H88.0659V30.6118Z" fill="url(#paint17_linear_380_12718)"/>
<path d="M102.593 25.7824H97.4191V33.5523H102.593V25.7824Z" fill="#CBD3EB"/>
<path d="M109.678 22.8257H104.504V33.5513H109.678V22.8257Z" fill="url(#paint18_linear_380_12718)"/>
<path d="M82.3397 28.6856C82.2517 28.6931 82.1639 28.6705 82.0904 28.6216C82.0517 28.5965 82.0188 28.5636 81.9936 28.525C81.9684 28.4863 81.9516 28.4429 81.9442 28.3974C81.9368 28.3518 81.9391 28.3053 81.9507 28.2607C81.9624 28.2161 81.9833 28.1744 82.0121 28.1384L85.6478 23.4732C85.6996 23.4092 85.7705 23.3632 85.8501 23.3419C85.9297 23.3206 86.014 23.3251 86.0909 23.3548L90.3884 25.0194L93.7681 19.5539C93.7956 19.51 93.832 19.4723 93.8749 19.4434C93.9179 19.4144 93.9664 19.3948 94.0174 19.3858C94.0685 19.3753 94.1213 19.3754 94.1723 19.3861C94.2234 19.3968 94.2718 19.4178 94.3144 19.4479L98.5861 22.4982L101.104 16.9124C101.125 16.868 101.155 16.8282 101.192 16.7954C101.228 16.7626 101.271 16.7375 101.317 16.7214C101.413 16.6871 101.518 16.6916 101.61 16.7338L105.593 18.5435L108.286 14.459C108.341 14.379 108.423 14.3224 108.517 14.3003C108.612 14.2782 108.711 14.2922 108.795 14.3396C108.836 14.3612 108.872 14.3912 108.901 14.4277C108.93 14.4642 108.951 14.5063 108.962 14.5513C108.973 14.5964 108.975 14.6433 108.967 14.6891C108.96 14.7349 108.942 14.7785 108.916 14.8171L106.046 19.1738C105.995 19.2494 105.919 19.3045 105.832 19.3292C105.744 19.3539 105.651 19.3465 105.568 19.3085L101.636 17.515L99.0885 23.1772C99.0652 23.2272 99.031 23.2715 98.9883 23.3065C98.9457 23.3416 98.8957 23.3665 98.8421 23.3796C98.7876 23.3937 98.7306 23.3958 98.6752 23.3858C98.6198 23.3757 98.5673 23.3537 98.5212 23.3214L94.1998 20.2386L90.8678 25.6277C90.8199 25.7027 90.7473 25.7586 90.6626 25.7858C90.5779 25.813 90.4863 25.8098 90.4037 25.7767L86.0708 24.0997L82.609 28.5424C82.5763 28.5835 82.5356 28.6174 82.4892 28.642C82.4429 28.6667 82.392 28.6815 82.3397 28.6856Z" fill="url(#paint19_linear_380_12718)"/>
<path d="M109.545 16.538C109.46 16.5475 109.374 16.5265 109.302 16.4788C109.231 16.4311 109.179 16.3597 109.155 16.2773L108.69 14.4561L106.465 15.1628C106.374 15.1933 106.276 15.1879 106.189 15.1477C106.102 15.1076 106.034 15.0357 105.999 14.947C105.984 14.9026 105.979 14.8556 105.983 14.809C105.987 14.7625 106.001 14.7172 106.023 14.676C106.045 14.6348 106.075 14.5986 106.112 14.5695C106.149 14.5404 106.191 14.519 106.236 14.5067L108.84 13.6778C108.938 13.6469 109.044 13.6551 109.136 13.7007C109.18 13.7225 109.219 13.7535 109.251 13.7915C109.282 13.8295 109.305 13.8738 109.318 13.9213L109.877 16.1083C109.887 16.1539 109.888 16.2011 109.88 16.2471C109.872 16.2931 109.854 16.337 109.829 16.3761C109.803 16.4153 109.77 16.4489 109.731 16.4751C109.693 16.5012 109.649 16.5194 109.603 16.5285L109.545 16.538Z" fill="url(#paint20_linear_380_12718)"/>
</g>
</g>
<defs>
<linearGradient id="paint0_linear_380_12718" x1="81.6301" y1="98.901" x2="230.951" y2="98.901" gradientUnits="userSpaceOnUse">
<stop stop-color="white"/>
<stop offset="1" stop-color="#D4DBEA"/>
</linearGradient>
<linearGradient id="paint1_linear_380_12718" x1="185.027" y1="56.9297" x2="256.348" y2="29.4716" gradientUnits="userSpaceOnUse">
<stop stop-color="white"/>
<stop offset="1" stop-color="#D4DBEA"/>
</linearGradient>
<linearGradient id="paint2_linear_380_12718" x1="58.5793" y1="97.8286" x2="326.368" y2="97.8286" gradientUnits="userSpaceOnUse">
<stop stop-color="white"/>
<stop offset="1" stop-color="#D4DBEA"/>
</linearGradient>
<linearGradient id="paint3_linear_380_12718" x1="117.642" y1="138.477" x2="171.622" y2="132.556" gradientUnits="userSpaceOnUse">
<stop stop-color="#FBAD18"/>
<stop offset="1" stop-color="#F47820"/>
</linearGradient>
<linearGradient id="paint4_linear_380_12718" x1="122.461" y1="137.945" x2="166.796" y2="133.082" gradientUnits="userSpaceOnUse">
<stop stop-color="#FBAD18"/>
<stop offset="1" stop-color="#F47820"/>
</linearGradient>
<linearGradient id="paint5_linear_380_12718" x1="154.881" y1="73.3567" x2="268.282" y2="28.1862" gradientUnits="userSpaceOnUse">
<stop stop-color="white"/>
<stop offset="1" stop-color="#D4DBEA"/>
</linearGradient>
<linearGradient id="paint6_linear_380_12718" x1="162.96" y1="30.6854" x2="239.444" y2="30.6854" gradientUnits="userSpaceOnUse">
<stop stop-color="#6669B0"/>
<stop offset="1" stop-color="#33308E"/>
</linearGradient>
<linearGradient id="paint7_linear_380_12718" x1="163.236" y1="21.1074" x2="165.748" y2="20.8318" gradientUnits="userSpaceOnUse">
<stop stop-color="#FBAD18"/>
<stop offset="1" stop-color="#F47820"/>
</linearGradient>
<linearGradient id="paint8_linear_380_12718" x1="120.936" y1="72.3635" x2="119.185" y2="60.2235" gradientUnits="userSpaceOnUse">
<stop stop-color="white"/>
<stop offset="1" stop-color="#D4DBEA"/>
</linearGradient>
<linearGradient id="paint9_linear_380_12718" x1="108.63" y1="52.3611" x2="135.733" y2="55.8571" gradientUnits="userSpaceOnUse">
<stop stop-color="#FFD10A"/>
<stop offset="1" stop-color="#F47521"/>
</linearGradient>
<linearGradient id="paint10_linear_380_12718" x1="207.568" y1="71.9004" x2="225.211" y2="69.965" gradientUnits="userSpaceOnUse">
<stop stop-color="#FBAD18"/>
<stop offset="1" stop-color="#F47820"/>
</linearGradient>
<linearGradient id="paint11_linear_380_12718" x1="175.084" y1="82.3424" x2="188.447" y2="80.8765" gradientUnits="userSpaceOnUse">
<stop stop-color="#FBAD18"/>
<stop offset="1" stop-color="#F47820"/>
</linearGradient>
<linearGradient id="paint12_linear_380_12718" x1="204.099" y1="40.2742" x2="221.742" y2="38.3389" gradientUnits="userSpaceOnUse">
<stop stop-color="#FBAD18"/>
<stop offset="1" stop-color="#F47820"/>
</linearGradient>
<linearGradient id="paint13_linear_380_12718" x1="171.615" y1="50.7163" x2="184.978" y2="49.2505" gradientUnits="userSpaceOnUse">
<stop stop-color="#FBAD18"/>
<stop offset="1" stop-color="#F47820"/>
</linearGradient>
<linearGradient id="paint14_linear_380_12718" x1="211.037" y1="103.526" x2="228.68" y2="101.591" gradientUnits="userSpaceOnUse">
<stop stop-color="#FBAD18"/>
<stop offset="1" stop-color="#F47820"/>
</linearGradient>
<linearGradient id="paint15_linear_380_12718" x1="178.56" y1="114.877" x2="191.923" y2="113.411" gradientUnits="userSpaceOnUse">
<stop stop-color="#FBAD18"/>
<stop offset="1" stop-color="#F47820"/>
</linearGradient>
<linearGradient id="paint16_linear_380_12718" x1="75.5067" y1="32.7339" x2="124.362" y2="18.1128" gradientUnits="userSpaceOnUse">
<stop stop-color="#6669B0"/>
<stop offset="1" stop-color="#33308E"/>
</linearGradient>
<linearGradient id="paint17_linear_380_12718" x1="75.5526" y1="32.1312" x2="80.6959" y2="31.567" gradientUnits="userSpaceOnUse">
<stop stop-color="#FBAD18"/>
<stop offset="1" stop-color="#F47820"/>
</linearGradient>
<linearGradient id="paint18_linear_380_12718" x1="96.6117" y1="25.9043" x2="101.755" y2="25.3401" gradientUnits="userSpaceOnUse">
<stop stop-color="#FBAD18"/>
<stop offset="1" stop-color="#F47820"/>
</linearGradient>
<linearGradient id="paint19_linear_380_12718" x1="73.452" y1="21.7062" x2="100.319" y2="18.759" gradientUnits="userSpaceOnUse">
<stop stop-color="#FBAD18"/>
<stop offset="1" stop-color="#F47820"/>
</linearGradient>
<linearGradient id="paint20_linear_380_12718" x1="96.6511" y1="12.7313" x2="100.534" y2="12.3054" gradientUnits="userSpaceOnUse">
<stop stop-color="#FBAD18"/>
<stop offset="1" stop-color="#F47820"/>
</linearGradient>
<clipPath id="clip0_380_12718">
<rect width="318" height="127" fill="white"/>
</clipPath>
<clipPath id="clip1_380_12718">
<rect width="191" height="191" fill="white" transform="translate(63 -6)"/>
</clipPath>
</defs>
</svg>
