<svg width="318" height="127" viewBox="0 0 318 127" fill="none" xmlns="http://www.w3.org/2000/svg">
<g clip-path="url(#clip0_380_12721)">
<rect width="318" height="127" fill="#F5FAFE"/>
<path fill-rule="evenodd" clip-rule="evenodd" d="M157.551 10.8021C176.768 10.8021 184.864 24.5517 198.738 35.2413C217.1 49.3877 235.461 40.1791 238.401 87.9774C241.017 130.52 208.366 92.5827 162.328 107.822C116.291 123.061 69.4022 129.199 83.316 79.8928C97.2288 30.5871 112.899 10.8021 157.551 10.8021Z" fill="#E0E8F5"/>
<path fill-rule="evenodd" clip-rule="evenodd" d="M228.565 65.9863H195.186C195.425 64.9714 196.336 64.2176 197.423 64.2176C197.475 64.2176 197.527 64.2196 197.579 64.2237C198.107 62.9334 199.375 62.0236 200.855 62.0236C201.502 62.0236 202.108 62.198 202.631 62.5019C203.267 60.4038 205.216 58.8748 207.523 58.8748C207.993 58.8748 208.448 58.9391 208.879 59.0574C209.996 56.5921 212.478 54.8774 215.36 54.8774C218.779 54.8774 221.634 57.2908 222.316 60.5068C222.374 60.5048 222.431 60.5027 222.488 60.5027C224.678 60.5027 226.485 62.1409 226.753 64.2574C227.646 64.4246 228.358 65.108 228.565 65.9863Z" fill="white"/>
<path d="M217.694 41.1421H216.819V90.3163H217.694V41.1421Z" fill="#A1775A"/>
<path d="M216.841 41.007L201.947 90.1783L202.785 90.432L217.678 41.2607L216.841 41.007Z" fill="#A1775A"/>
<path d="M217.67 40.9928L216.842 41.2755L233.624 90.4484L234.452 90.1658L217.67 40.9928Z" fill="#A1775A"/>
<path fill-rule="evenodd" clip-rule="evenodd" d="M237.019 89.4402C237.019 96.1293 228.595 101.552 218.202 101.552C207.809 101.552 199.385 96.1293 199.385 89.4402H237.019Z" fill="#EAC5A7"/>
<path fill-rule="evenodd" clip-rule="evenodd" d="M233.774 96.2414L199.413 90.101C199.399 89.9276 199.39 89.7542 199.387 89.5798C199.388 89.54 199.388 89.4951 199.388 89.441H237.019C237.019 89.4614 237.019 89.4818 237.019 89.5022C236.987 90.1928 236.905 90.8119 236.782 91.3688C236.377 92.9998 235.465 94.5227 234.156 95.867C234.042 95.9803 233.93 96.0904 233.821 96.1985C233.806 96.2118 233.79 96.2271 233.774 96.2414Z" fill="#E5BB9A"/>
<path fill-rule="evenodd" clip-rule="evenodd" d="M153.85 84.0096H120.47C120.71 82.9957 121.621 82.2409 122.708 82.2409C122.76 82.2409 122.812 82.2429 122.864 82.247C123.392 80.9567 124.66 80.0469 126.14 80.0469C126.787 80.0469 127.393 80.2213 127.915 80.5253C128.552 78.4271 130.501 76.8981 132.808 76.8981C133.278 76.8981 133.732 76.9624 134.164 77.0807C135.281 74.6154 137.763 72.9008 140.645 72.9008C144.064 72.9008 146.919 75.3141 147.6 78.5291C147.659 78.5271 147.716 78.525 147.773 78.525C149.963 78.525 151.77 80.1632 152.037 82.2797C152.931 82.448 153.643 83.1314 153.85 84.0096Z" fill="white"/>
<path fill-rule="evenodd" clip-rule="evenodd" d="M165.615 31.2766H119.102C119.436 29.8629 120.705 28.8123 122.22 28.8123C122.292 28.8123 122.366 28.8154 122.438 28.8205C123.173 27.0222 124.939 25.7544 127.003 25.7544C127.905 25.7544 128.75 25.9981 129.477 26.4204C130.365 23.4961 133.081 21.3673 136.295 21.3673C136.949 21.3673 137.582 21.4561 138.184 21.6223C139.739 18.187 143.198 15.7971 147.214 15.7971C151.977 15.7971 155.955 19.1601 156.906 23.6409C156.987 23.6379 157.066 23.6348 157.147 23.6348C160.199 23.6348 162.717 25.9165 163.088 28.8664C164.334 29.101 165.326 30.0537 165.615 31.2766Z" fill="white"/>
<path fill-rule="evenodd" clip-rule="evenodd" d="M156.561 33.3289C156.561 33.3289 156.792 34.664 157.059 35.3566C157.327 36.0492 158.951 33.8399 158.951 33.8399L156.561 33.3289Z" fill="#F9AF79"/>
<path fill-rule="evenodd" clip-rule="evenodd" d="M159.608 33.8868C159.608 33.8868 161.094 32.4608 161.314 32.2364C161.534 32.012 161.694 31.1481 161.791 30.1403C161.889 29.1326 161.568 27.728 161.433 27.6179C161.297 27.5087 161.211 27.3343 160.765 27.3017C160.318 27.269 159.921 27.4863 159.921 27.4863C159.921 27.4863 159.39 27.1885 158.923 27.4934C158.923 27.4934 158.409 27.2354 157.935 27.6689C157.935 27.6689 157.427 27.4302 157.11 27.7739C157.11 27.7739 156.948 28.6399 156.797 28.9429C156.644 29.2458 156.497 31.551 156.562 33.3309C156.561 33.3289 157.126 34.508 159.608 33.8868Z" fill="#F9AF79"/>
<path fill-rule="evenodd" clip-rule="evenodd" d="M177.45 122.871C177.45 122.871 182.152 126.264 182.893 127.272C183.958 128.731 174.928 131.452 175.913 129.747C176.139 129.358 176.789 128.032 176.818 127.908C176.967 127.21 175.054 125.345 175.054 125.345L177.45 122.871Z" fill="#F9AF79"/>
<path fill-rule="evenodd" clip-rule="evenodd" d="M173.471 132.601L176.664 128.085C176.664 128.085 178.654 127.625 180.704 125.319C180.704 125.319 182.542 126.017 183.673 127.545C183.673 127.545 181.535 129.843 178.241 132.441C178.241 132.441 176.289 134.165 173.593 135.084C170.893 135.995 173.471 132.601 173.471 132.601Z" fill="#0E2952"/>
<path fill-rule="evenodd" clip-rule="evenodd" d="M184.642 88.0306L183.899 91.7077L165.204 108.712L178.584 122.261L174.973 125.946C174.973 125.946 155.208 111.433 154.496 109.534C153.396 106.609 168.664 87.2095 168.664 87.2095L184.642 88.0306Z" fill="#0E2952"/>
<path fill-rule="evenodd" clip-rule="evenodd" d="M184.002 89.7359L183.163 112.945L198.97 132.327L195.266 135.738C195.266 135.738 176.913 119.988 174.9 115.605C173.649 112.875 169.444 88.2865 169.444 88.2865L184.002 89.7359Z" fill="#20386F"/>
<path fill-rule="evenodd" clip-rule="evenodd" d="M168.921 87.8356C170.441 84.3972 170.267 59.8009 176.185 54.0389C178.266 54.3837 179.751 54.5867 180.099 54.6754C180.407 57.2122 180.746 66.5095 180.957 75.0295C181.095 80.7119 180.951 86.6687 181.65 89.8063C182.085 91.7514 167.534 90.965 168.921 87.8356Z" fill="white"/>
<path fill-rule="evenodd" clip-rule="evenodd" d="M184.941 55.9484C186.539 56.3054 187.729 57.0388 189.754 59.957C193.011 64.2043 198.635 72.4378 198.644 72.8733C198.653 73.4323 196.937 87.24 196.937 87.24L192.457 87.3267L191.568 75.7048C189.372 73.3639 186.707 69.5481 186.414 69.1595C186.322 69.0361 186.762 77.7764 186.762 79.1647C186.762 80.5437 189.02 91.6617 189.02 91.6617C189.02 91.6617 182.312 93.3141 181.001 90.3092C176.988 81.118 180.069 54.6653 180.069 54.6653C180.069 54.6653 183.743 55.6741 184.941 55.9484Z" fill="#223F81"/>
<path fill-rule="evenodd" clip-rule="evenodd" d="M174.812 55.4711C174.812 55.4711 172.093 62.7447 170.115 61.7635C168.138 60.7741 157.351 49.0186 157.239 48.4708C157.13 47.9231 156.361 34.0297 156.361 34.0297L160.753 33.1464L163.699 44.4235C163.699 44.4235 171.407 52.2979 173.056 53.067C174.703 53.836 174.812 55.4711 174.812 55.4711Z" fill="#223F81"/>
<path fill-rule="evenodd" clip-rule="evenodd" d="M168.328 89.4797C166.997 89.4797 166.505 89.2941 165.621 89.0289C165.621 89.0289 168.152 74.755 169.624 60.5964C170.207 55.0017 170.747 52.7128 173.054 53.1198C173.721 53.2351 175.527 53.9246 176.183 54.0388C170.387 70.4333 170.368 83.0629 169.547 86.7217C169.135 88.5607 168.777 89.4889 168.328 89.4797Z" fill="#223F81"/>
<path fill-rule="evenodd" clip-rule="evenodd" d="M176.794 51.5563L176.188 54.04C176.188 54.04 176.049 56.1962 177.051 56.3911C178.259 56.6206 180.053 54.8182 180.053 54.8182L181.092 47.8271L176.794 51.5563Z" fill="#F7A390"/>
<path fill-rule="evenodd" clip-rule="evenodd" d="M176.794 51.5563L176.188 54.04C176.188 54.04 176.049 56.1962 177.051 56.3911C178.259 56.6206 180.053 54.8182 180.053 54.8182L181.092 47.8271L176.794 51.5563Z" fill="#F9AF79"/>
<path fill-rule="evenodd" clip-rule="evenodd" d="M181.693 48.7379L176.839 50.9891L176.452 52.9617C178.132 53.078 179.945 51.7061 181.693 48.7379Z" fill="#ED7D57"/>
<path fill-rule="evenodd" clip-rule="evenodd" d="M179.539 41.3113C178.55 40.9972 177.446 41.397 176.785 42.2722C176.238 42.9974 175.482 44.0929 174.807 45.4087C173.56 47.8322 174.275 50.6372 175.481 51.2329C176.693 51.8214 179.983 51.9397 181.805 48.5217C182.585 47.0631 183.612 45.1363 182.674 43.6604C181.943 42.5108 180.674 41.6724 179.539 41.3113Z" fill="#F9AF79"/>
<path fill-rule="evenodd" clip-rule="evenodd" d="M180.592 51.1881C180.592 51.1881 186.254 48.5922 187.44 45.5373C188.625 42.4916 186.277 39.9089 183.846 39.0348C182.746 38.6482 181.976 38.4595 180.786 38.2382C178.223 37.7669 176.28 38.3453 176.2 40.5464C176.092 43.4983 181.935 42.8323 182.711 44.0063C183.352 44.9804 180.019 46.0085 180.656 46.9061C181.251 47.7629 181.86 47.6008 181.24 48.6554C180.616 49.7101 180.592 51.1881 180.592 51.1881Z" fill="#20386F"/>
<path fill-rule="evenodd" clip-rule="evenodd" d="M183.386 48.0986C183.039 48.8044 182.406 49.2155 181.973 49.0033C181.544 48.7932 181.476 48.0476 181.826 47.3336C182.175 46.6196 182.806 46.2167 183.235 46.4278C183.668 46.6389 183.733 47.3835 183.386 48.0986Z" fill="#F9AF79"/>
<path fill-rule="evenodd" clip-rule="evenodd" d="M178.653 46.9673C178.873 47.1192 179.637 46.3695 179.104 46.0013C178.819 45.8045 178.296 46.7184 178.653 46.9673Z" fill="#20386F"/>
<path fill-rule="evenodd" clip-rule="evenodd" d="M175.857 45.1069C175.637 44.9549 176.057 43.9696 176.589 44.3378C176.874 44.5347 176.217 45.3578 175.857 45.1069Z" fill="#20386F"/>
<path fill-rule="evenodd" clip-rule="evenodd" d="M179.444 45.1048C179.082 44.8733 178.892 45.1742 179.095 45.4312C179.154 45.5067 180.394 46.7827 180.39 46.6501C180.396 46.3808 180.129 45.5444 179.444 45.1048Z" fill="#20386F"/>
<path fill-rule="evenodd" clip-rule="evenodd" d="M177.501 43.7105C177.858 43.9522 177.661 44.249 177.345 44.1623C177.196 44.1215 175.573 43.5065 175.742 43.4422C176.022 43.3392 176.851 43.2678 177.501 43.7105Z" fill="#20386F"/>
<path fill-rule="evenodd" clip-rule="evenodd" d="M175.697 47.0856C176.417 47.769 176.52 47.3274 176.258 47.2488C175.387 46.9887 176.384 46.9296 176.971 45.4893C177.03 45.3374 176.861 45.2711 176.794 45.3894C176.749 45.472 176.616 45.7882 176.56 45.8718C175.884 46.9122 175.467 46.8653 175.697 47.0856Z" fill="#ED7D57"/>
<path fill-rule="evenodd" clip-rule="evenodd" d="M175.161 47.5957C175.155 50.2844 177.336 49.0145 177.038 48.786C175.521 47.6293 175.16 47.2672 175.161 47.5957Z" fill="white"/>
<path fill-rule="evenodd" clip-rule="evenodd" d="M185.108 92.4807L183.465 111.891L204.807 112.375L204.503 94.9675L185.108 92.4807Z" fill="#E5BB9A"/>
<path fill-rule="evenodd" clip-rule="evenodd" d="M180.259 109.063C181.875 109.904 182.748 110.884 183.464 111.891L185.107 92.4808L184.163 92.3359L180.259 109.063Z" fill="#9C7357"/>
<path fill-rule="evenodd" clip-rule="evenodd" d="M185.108 92.4807L186.564 100.539C186.806 101.442 187.071 102.24 188.514 102.304L202.138 103.179C203.353 103.258 203.459 102.652 203.575 101.828L204.455 94.9603L185.108 92.4807Z" fill="#9C7357"/>
<path fill-rule="evenodd" clip-rule="evenodd" d="M193.855 101.592L197.321 101.812C197.512 101.824 197.685 101.98 197.689 102.173L197.765 105.286C197.77 105.478 197.628 105.636 197.441 105.631L193.818 105.534C193.628 105.528 193.445 105.366 193.451 105.173L193.531 101.938C193.535 101.744 193.665 101.58 193.855 101.592Z" fill="white"/>
<path fill-rule="evenodd" clip-rule="evenodd" d="M194.386 102.496L194.331 104.678L196.884 104.746L196.832 102.65L194.386 102.496Z" fill="#9C7357"/>
<path fill-rule="evenodd" clip-rule="evenodd" d="M189.147 92.9989C189.454 92.2767 190.026 91.7158 190.755 91.3129C191.068 91.1395 191.411 90.9966 191.775 90.8834C192.046 90.3826 193.324 90.095 194.823 90.2286C196.412 90.3704 197.671 90.9344 197.728 91.5097C197.822 91.5658 197.914 91.624 198.003 91.6852C198.929 92.3206 199.569 93.2111 199.668 94.3474L198.941 94.2545C198.813 93.4141 198.312 92.749 197.606 92.2655C197.511 92.2003 197.412 92.138 197.31 92.0799C196.769 92.3706 195.762 92.5103 194.629 92.4083C193.441 92.3023 192.438 91.9606 191.983 91.5536C191.665 91.6525 191.367 91.778 191.094 91.9279C190.574 92.2155 190.153 92.6042 189.893 93.0938L189.147 92.9989Z" fill="#9C7357"/>
<path fill-rule="evenodd" clip-rule="evenodd" d="M197.076 93.21C197.076 93.21 197.308 92.7204 197.305 92.4552C197.305 92.4552 197.263 91.9748 197.254 91.6311C197.251 91.5219 197.252 91.4271 197.258 91.3649C197.285 91.1099 197.421 90.5539 197.314 89.9195C197.233 89.4452 196.873 88.0906 196.697 87.4419C196.679 87.3991 196.665 87.3297 196.65 87.2461L192.804 87.3206C192.434 88.2579 191.495 90.6896 191.522 91.1731C191.526 91.2312 191.53 91.2894 191.54 91.3434C191.617 91.8514 191.888 92.1962 191.957 92.4573C191.985 92.5532 192.312 93.4885 192.589 93.5915C192.973 93.7353 193.299 93.6782 193.527 93.5109C193.527 93.5109 194.294 93.7578 194.798 93.5589C194.798 93.5589 195.499 93.8098 196.056 93.3834C196.054 93.3855 196.792 93.5609 197.076 93.21Z" fill="#F9AF79"/>
<path d="M105.813 40.7698L104.976 41.0231L119.846 90.2014L120.684 89.9481L105.813 40.7698Z" fill="#A1775A"/>
<path d="M104.973 40.7602L88.1909 89.9331L89.0201 90.2161L105.802 41.0432L104.973 40.7602Z" fill="#A1775A"/>
<path d="M105.823 40.8973H104.948V90.0715H105.823V40.8973Z" fill="#A1775A"/>
<path fill-rule="evenodd" clip-rule="evenodd" d="M85.6233 89.1953C85.6233 95.8845 94.0475 101.307 104.44 101.307C114.832 101.307 123.257 95.8845 123.257 89.1953H85.6233Z" fill="#EAC5A7"/>
<path fill-rule="evenodd" clip-rule="evenodd" d="M104.219 39.2917C104.219 39.9353 104.742 40.4586 105.387 40.4586C106.03 40.4586 106.555 39.9353 106.555 39.2917C106.555 38.6481 106.03 38.1248 105.387 38.1248C104.742 38.1238 104.219 38.6481 104.219 39.2917ZM103.344 39.2917C103.344 38.1656 104.261 37.2487 105.387 37.2487C106.513 37.2487 107.384 38.1656 107.43 39.2917C107.473 40.3413 106.536 41.293 105.387 41.3348C104.26 41.3348 103.344 40.4178 103.344 39.2917Z" fill="#A1775A"/>
<path fill-rule="evenodd" clip-rule="evenodd" d="M229.45 32.9239C229.31 32.4292 228.933 31.8866 228.423 31.9559C228.122 31.9967 227.889 32.2487 227.757 32.5231C227.625 32.7974 227.567 33.1004 227.456 33.3839C227.238 33.9378 226.804 34.4029 226.268 34.6589C226.229 34.6773 226.19 34.6957 226.153 34.714C222.589 35.3311 211.772 36.8958 193.508 31.9488C181.452 28.6838 171.516 27.9004 165.985 27.7546C164.314 28.0942 162.492 28.2819 160.586 28.2819C158.613 28.2819 156.732 28.082 155.013 27.7189C149.327 27.8953 140.145 28.7215 129.136 31.704C110.871 36.65 100.054 35.0863 96.4903 34.4682C96.4526 34.4488 96.4138 34.4305 96.3751 34.4121C95.8385 34.1561 95.404 33.691 95.1857 33.1371C95.0746 32.8536 95.0174 32.5506 94.8848 32.2762C94.7533 32.0029 94.5197 31.7499 94.2188 31.7091C93.7088 31.6408 93.3314 32.1824 93.1916 32.6771C92.8448 33.9001 93.1763 35.2934 94.0362 36.2287C94.1831 36.3879 94.3442 36.5357 94.5207 36.6602C95.0276 37.0172 96.2547 37.3446 96.2547 37.3446C96.2547 37.3446 110.822 40.0925 128.564 35.9839C132.371 35.1016 137.662 34.5121 142.886 34.2051C145.339 32.2834 152.665 30.888 161.32 30.888C170.249 30.888 177.761 32.3721 179.971 34.3887C185.118 34.7395 190.316 35.3587 194.077 36.2298C211.82 40.3393 226.386 37.5914 226.386 37.5914C226.386 37.5914 227.613 37.264 228.12 36.9081C228.298 36.7836 228.458 36.6357 228.605 36.4766C229.466 35.5392 229.797 34.1469 229.45 32.9239Z" fill="#A1775A"/>
<path fill-rule="evenodd" clip-rule="evenodd" d="M120.014 95.9967H120.012C120.028 95.9824 120.043 95.9681 120.058 95.9528C120.042 95.9671 120.028 95.9824 120.014 95.9967ZM120.395 95.6193C121.705 94.2749 122.616 92.7531 123.02 91.1231C122.529 93.3651 121.402 94.6146 120.395 95.6193ZM85.6507 89.8563L85.6467 89.8552C85.613 89.5839 85.6212 89.537 85.6242 89.3361C85.6273 89.5105 85.6365 89.6839 85.6507 89.8563ZM123.256 89.2565C123.256 89.2361 123.256 89.2157 123.256 89.1953H123.258C123.258 89.2157 123.257 89.2361 123.256 89.2565Z" fill="url(#paint0_radial_380_12721)"/>
<path fill-rule="evenodd" clip-rule="evenodd" d="M120.012 95.9967L85.6508 89.8563C85.6365 89.6839 85.6273 89.5105 85.6243 89.3361C85.6253 89.2963 85.6253 89.2504 85.6253 89.1953H123.256C123.256 89.2157 123.256 89.2361 123.256 89.2565C123.225 89.9481 123.142 90.5652 123.02 91.1231C122.615 92.7531 121.704 94.2759 120.394 95.6193C120.28 95.7335 120.168 95.8437 120.056 95.9528C120.042 95.9671 120.027 95.9814 120.012 95.9967Z" fill="#E5BB9A"/>
<path fill-rule="evenodd" clip-rule="evenodd" d="M233.776 96.2415H233.774C233.789 96.2272 233.806 96.2119 233.821 96.1966C233.807 96.2119 233.792 96.2272 233.776 96.2415ZM234.156 95.8661C235.465 94.5218 236.377 92.9989 236.782 91.3679C236.291 93.6109 235.162 94.8604 234.156 95.8661Z" fill="#859CA8"/>
<path fill-rule="evenodd" clip-rule="evenodd" d="M199.413 90.1011L199.409 90.1001C199.376 89.8288 199.384 89.7818 199.387 89.5789C199.39 89.7543 199.399 89.9277 199.413 90.1011Z" fill="url(#paint1_radial_380_12721)"/>
<path fill-rule="evenodd" clip-rule="evenodd" d="M237.019 89.5027C237.019 89.4819 237.019 89.461 237.019 89.4402H237.022C237.021 89.461 237.02 89.4819 237.019 89.5027Z" fill="url(#paint2_radial_380_12721)"/>
<path fill-rule="evenodd" clip-rule="evenodd" d="M217.256 38.3697C216.613 38.3697 216.089 38.893 216.089 39.5366C216.089 40.1802 216.613 40.7035 217.256 40.7035C217.9 40.7035 218.424 40.1792 218.424 39.5366C218.424 38.893 217.9 38.3697 217.256 38.3697ZM217.256 41.5796C216.13 41.5796 215.213 40.6627 215.213 39.5366C215.213 38.4105 216.13 37.4935 217.256 37.4935C218.382 37.4935 219.299 38.4105 219.299 39.5366C219.299 40.6627 218.382 41.5796 217.256 41.5796Z" fill="#A1775A"/>
<path fill-rule="evenodd" clip-rule="evenodd" d="M161.417 27.8821C161.417 27.8821 161.108 30.4301 160.692 30.4311C160.276 30.4321 160.122 30.1802 160.122 30.1802L159.519 31.1716C159.519 31.1716 158.749 31.6031 158.505 30.6381C158.505 30.6381 157.827 31.1155 157.704 30.1557C157.704 30.1557 157.116 30.272 156.979 29.8374C156.843 29.4039 157.11 27.7719 157.11 27.7719C157.11 27.7719 157.304 27.3935 157.918 27.6077C157.918 27.6077 158.357 27.1793 158.915 27.4476C158.915 27.4476 159.309 27.1426 159.91 27.4374C159.91 27.4374 160.865 26.8856 161.433 27.6159C161.433 27.6169 161.431 27.775 161.417 27.8821Z" fill="#F9AF79"/>
<path fill-rule="evenodd" clip-rule="evenodd" d="M161.333 32.1569C161.333 32.1569 160.723 30.5045 159.995 29.7476C159.829 29.5763 159.639 29.4406 159.418 29.5304C159.197 29.6181 159.045 30.0516 159.271 30.7809C159.499 31.5112 159.458 32.5567 159.458 32.5567C159.458 32.5567 159.913 33.237 161.333 32.1569Z" fill="#F9AF79"/>
</g>
<defs>
<radialGradient id="paint0_radial_380_12721" cx="0" cy="0" r="1" gradientUnits="userSpaceOnUse" gradientTransform="translate(142.078 85.7943) scale(78.1873 78.1872)">
<stop stop-color="#9CADB7"/>
<stop offset="1" stop-color="#859CA8"/>
</radialGradient>
<radialGradient id="paint1_radial_380_12721" cx="0" cy="0" r="1" gradientUnits="userSpaceOnUse" gradientTransform="translate(199.368 89.3184) scale(50.5204 50.524)">
<stop stop-color="#9CADB7"/>
<stop offset="1" stop-color="#859CA8"/>
</radialGradient>
<radialGradient id="paint2_radial_380_12721" cx="0" cy="0" r="1" gradientUnits="userSpaceOnUse" gradientTransform="translate(237.018 89.4094) scale(87.947 87.8576)">
<stop stop-color="#9CADB7"/>
<stop offset="1" stop-color="#859CA8"/>
</radialGradient>
<clipPath id="clip0_380_12721">
<rect width="318" height="127" fill="white"/>
</clipPath>
</defs>
</svg>
