<svg width="318" height="127" viewBox="0 0 318 127" fill="none" xmlns="http://www.w3.org/2000/svg">
<g clip-path="url(#clip0_380_12709)">
<rect width="318" height="127" fill="#F5FAFE"/>
<path fill-rule="evenodd" clip-rule="evenodd" d="M158.82 118.441C201.147 118.441 235.669 116.929 235.669 115.075C235.669 113.221 201.147 111.709 158.82 111.709C116.493 111.709 81.9713 113.221 81.9713 115.075C81.9713 116.929 116.493 118.441 158.82 118.441Z" fill="#D0D9EE"/>
<path fill-rule="evenodd" clip-rule="evenodd" d="M158.82 111.71C176.696 111.71 193.146 111.977 206.201 112.425C238.149 94.1646 227.086 58.5702 215.616 38.4368C199.651 10.4164 161.928 0.345688 146.325 22.702C125.146 53.0475 104.715 42.4576 93.6823 65.5048C82.6501 88.551 99.405 110.645 111.441 112.425C124.493 111.977 140.944 111.71 158.82 111.71ZM130.827 34.0049C122.65 40.2286 109.125 45.0513 104.634 38.4348C101.279 33.4919 105.411 24.217 113.507 17.1854C121.597 10.1578 132.435 5.90473 138.342 11.08C145.353 17.2187 137.124 29.2115 130.827 34.0049Z" fill="#E9EFF8"/>
<path fill-rule="evenodd" clip-rule="evenodd" d="M183.602 18.8024C202.795 23.0787 215.009 40.7295 216.205 49.2519C216.696 52.7485 215.786 44.5655 205.995 37.1137C197.245 30.4548 190.432 29.2205 180.022 28.4156C172.665 27.8469 164.962 26.943 165.508 22.5556C165.942 19.0902 171.211 16.0421 183.602 18.8024ZM133.414 11.6637C136.718 11.8627 138.729 14.5755 138.868 17.7045C138.926 19.0357 137.881 15.5552 134.218 15.0704C131.945 14.7705 131.605 15.4391 130.79 14.5018C129.977 13.5645 130.75 11.5031 133.414 11.6637Z" fill="white"/>
<path fill-rule="evenodd" clip-rule="evenodd" d="M109.316 103.954C108.439 102.858 107.207 101.951 106.845 100.594C106.417 98.9933 107.358 97.3076 107.124 95.6664C106.832 93.6009 104.843 92.2627 103.763 90.478C102.707 88.7307 103.202 88.1419 103.105 86.1017C102.959 83.0273 100.438 79.1468 97.078 80.1871C93.6672 81.2456 94.2237 84.416 94.8246 86.8016C95.2519 88.5004 94.9731 88.7449 94.557 90.4467C94.055 92.5021 92.437 94.4897 93.1127 96.4946C93.5308 97.7339 94.7469 98.5712 95.1862 99.8044C95.6852 101.2 95.0812 102.715 94.8489 104.181C94.359 107.265 95.062 109.83 97.3022 112.376C97.5426 112.604 97.793 112.817 98.0526 113.014C101.191 112.837 104.723 112.674 108.593 112.527L108.622 112.497C110.675 110.259 111.286 106.418 109.316 103.954Z" fill="#D0D9EE"/>
<path fill-rule="evenodd" clip-rule="evenodd" d="M98.6282 82.9647C98.5756 82.8253 98.4191 82.7566 98.2807 82.8091C98.1413 82.8616 98.0717 83.0182 98.1252 83.1576C98.3918 83.8545 98.615 84.5847 98.8069 85.3432C98.7302 85.2735 98.6504 85.2048 98.5676 85.1392C98.2019 84.8443 97.7858 84.5887 97.3212 84.3686C97.1869 84.3049 97.0263 84.3625 96.9627 84.4968C96.9001 84.6322 96.9566 84.7918 97.092 84.8554C97.5192 85.0574 97.8989 85.2917 98.2322 85.5594C98.5464 85.8129 98.8211 86.0957 99.0524 86.4088C99.3968 88.0541 99.622 89.8226 99.825 91.688C99.5129 91.2032 99.1796 90.7669 98.8251 90.3821C98.21 89.7125 97.5283 89.1923 96.7809 88.8227C96.6476 88.757 96.486 88.8116 96.4203 88.9439C96.3547 89.0772 96.4092 89.2388 96.5415 89.3044C97.2263 89.6438 97.8555 90.1256 98.4282 90.7477C98.9978 91.3669 99.5099 92.1233 99.9644 93.0182L100.017 93.5232C100.131 94.6352 100.249 95.7745 100.389 96.94C100.39 96.9511 100.391 96.9623 100.393 96.9734C100.538 98.1894 100.708 99.4327 100.923 100.696C100.34 99.7973 99.7139 99.0025 99.0423 98.3116C98.0585 97.2986 96.9798 96.5108 95.8062 95.9442C95.6719 95.8795 95.5113 95.9361 95.4467 96.0704C95.382 96.2048 95.4386 96.3664 95.5729 96.43C96.689 96.9683 97.7171 97.7208 98.6554 98.6863C99.5917 99.6509 100.441 100.829 101.202 102.219C101.534 103.892 101.956 105.598 102.517 107.322V107.323L102.519 107.329V107.33C102.794 108.175 103.102 109.026 103.45 109.878C102.635 109.178 101.768 108.573 100.852 108.063C99.5766 107.353 98.205 106.828 96.7395 106.489C96.595 106.454 96.4496 106.545 96.4153 106.69C96.3809 106.835 96.4718 106.98 96.6173 107.014C98.0363 107.342 99.3604 107.848 100.59 108.533C101.806 109.211 102.933 110.063 103.969 111.092C104.208 111.622 104.463 112.155 104.736 112.687L105.329 112.662C104.374 110.828 103.629 108.997 103.038 107.189C102.937 105.873 103.092 104.558 103.504 103.245C103.924 101.913 104.607 100.578 105.555 99.2428C105.641 99.1216 105.612 98.953 105.491 98.8671C105.37 98.7813 105.202 98.8095 105.115 98.9307C104.136 100.312 103.428 101.697 102.992 103.084C102.745 103.872 102.585 104.659 102.513 105.446C101.704 102.526 101.256 99.6721 100.928 96.9481C101.244 95.7937 101.598 94.816 101.988 94.0171C102.376 93.2222 102.798 92.6092 103.253 92.1789C103.361 92.0769 103.365 91.9062 103.264 91.7981C103.162 91.6901 102.991 91.686 102.883 91.788C102.379 92.2647 101.919 92.9293 101.503 93.7818C101.244 94.312 101.001 94.918 100.773 95.5988C100.695 94.8796 100.622 94.1696 100.549 93.4717L100.494 92.9293C100.494 92.9192 100.493 92.9091 100.491 92.899C100.11 89.1943 99.723 85.826 98.6282 82.9647Z" fill="white"/>
<path fill-rule="evenodd" clip-rule="evenodd" d="M100.293 105.401C99.3575 104.896 98.2294 104.63 97.5759 103.792C96.8042 102.803 96.9598 101.351 96.3114 100.276C95.4953 98.9247 93.7137 98.5813 92.433 97.6581C91.1786 96.7542 91.3502 96.1977 90.6786 94.8049C89.6666 92.7061 86.7608 90.7497 84.7287 92.4708C82.6663 94.2181 83.9934 96.2623 85.1185 97.746C85.9205 98.8035 85.7973 99.056 86.0124 100.365C86.272 101.946 85.7326 103.809 86.7982 105.005C87.4577 105.744 88.5526 105.967 89.2232 106.696C89.9837 107.521 90.013 108.755 90.2847 109.844C90.6453 111.289 91.2755 112.451 92.2724 113.391C94.961 113.187 98.1213 112.997 101.688 112.823C101.961 112.432 102.184 112.006 102.343 111.556C103.107 109.389 102.395 106.533 100.293 105.401Z" fill="#BCC9E7"/>
<path fill-rule="evenodd" clip-rule="evenodd" d="M86.6295 93.9464C86.5507 93.8656 86.4214 93.8626 86.3406 93.9414C86.2598 94.0192 86.2578 94.1484 86.3356 94.2302C86.7274 94.6363 87.1001 95.0787 87.4587 95.5503C87.3839 95.5241 87.3082 95.5008 87.2314 95.4786C86.889 95.3827 86.5234 95.3271 86.1346 95.311C86.0225 95.3059 85.9275 95.3948 85.9235 95.5059C85.9194 95.618 86.0073 95.7139 86.1194 95.718C86.477 95.7321 86.8103 95.7826 87.1213 95.8705C87.4163 95.9533 87.691 96.0695 87.9445 96.2189C88.6717 97.2623 89.3524 98.4278 90.0463 99.6671C89.6847 99.4206 89.3241 99.2166 88.9626 99.053C88.3354 98.7692 87.7071 98.6086 87.0769 98.5722C86.9648 98.5652 86.8678 98.652 86.8618 98.7631C86.8547 98.8752 86.9405 98.9712 87.0527 98.9783C87.6304 99.0116 88.2111 99.1611 88.7939 99.4247C89.3736 99.6863 89.9554 100.062 90.5372 100.551L90.723 100.887C91.132 101.628 91.5522 102.387 91.9936 103.158C91.9976 103.165 92.0017 103.173 92.0067 103.179C92.4683 103.984 92.9551 104.799 93.4783 105.615C92.8066 105.161 92.134 104.794 91.4623 104.511C90.4776 104.097 89.4918 103.867 88.5071 103.821C88.3949 103.816 88.299 103.903 88.2939 104.016C88.2889 104.128 88.3758 104.224 88.4879 104.229C89.4251 104.273 90.3634 104.493 91.3037 104.888C92.242 105.282 93.1813 105.85 94.1237 106.594C94.8499 107.661 95.6498 108.723 96.5517 109.758V109.759L96.5547 109.763C96.9971 110.27 97.4637 110.771 97.9586 111.262C97.183 111.015 96.4002 110.851 95.6114 110.767C94.5115 110.651 93.4015 110.691 92.2804 110.888C92.1693 110.907 92.0956 111.013 92.1148 111.125C92.134 111.235 92.24 111.309 92.3511 111.29C93.4369 111.099 94.5095 111.059 95.569 111.171C96.6163 111.282 97.6546 111.543 98.6818 111.953C99.0363 112.28 99.4039 112.602 99.7867 112.918L100.395 112.886C99.0605 111.82 97.9021 110.683 96.8769 109.509C96.4174 108.623 96.1356 107.66 96.0346 106.624C95.9316 105.572 96.0124 104.439 96.276 103.227C96.3002 103.117 96.2305 103.009 96.1204 102.985C96.0103 102.961 95.9013 103.03 95.878 103.14C95.6053 104.394 95.5225 105.568 95.6296 106.662C95.6902 107.285 95.8124 107.88 95.9952 108.45C94.5671 106.655 93.4086 104.8 92.3733 102.999C92.2521 102.101 92.2087 101.316 92.2441 100.644C92.2784 99.9751 92.3905 99.4227 92.5804 98.9884C92.6248 98.8853 92.5784 98.7652 92.4753 98.7207C92.3723 98.6753 92.2521 98.7227 92.2067 98.8257C91.9966 99.3065 91.8734 99.9065 91.836 100.625C91.8128 101.07 91.8229 101.564 91.8673 102.106C91.5987 101.628 91.3371 101.156 91.0805 100.691L90.8806 100.33C90.8775 100.323 90.8735 100.317 90.8694 100.31C89.507 97.8471 88.2404 95.615 86.6295 93.9464Z" fill="#E9EFF8"/>
<path fill-rule="evenodd" clip-rule="evenodd" d="M204.931 102.914C205.887 101.716 207.233 100.728 207.628 99.2469C208.093 97.4996 207.067 95.6614 207.321 93.8706C207.641 91.6173 209.811 90.1559 210.99 88.2086C212.143 86.3017 211.603 85.6593 211.708 83.4343C211.866 80.0791 214.618 75.8442 218.284 76.9794C222.006 78.1338 221.398 81.5941 220.743 84.1979C220.277 86.0522 220.582 86.3179 221.034 88.1753C221.582 90.4185 223.349 92.5869 222.61 94.7746C222.153 96.127 220.826 97.041 220.346 98.3853C219.803 99.9094 220.462 101.563 220.715 103.162C221.249 106.527 220.483 109.326 218.038 112.104C217.742 112.385 217.433 112.645 217.11 112.881C213.729 112.709 209.956 112.552 205.852 112.413C205.795 112.356 205.74 112.296 205.684 112.236C203.449 109.793 202.782 105.603 204.931 102.914Z" fill="#D0D9EE"/>
<path fill-rule="evenodd" clip-rule="evenodd" d="M216.593 80.0084C216.651 79.8569 216.822 79.7812 216.973 79.8398C217.125 79.8973 217.2 80.068 217.143 80.2185C216.852 80.979 216.607 81.7749 216.398 82.6041C216.483 82.5284 216.57 82.4536 216.66 82.3819C217.059 82.0608 217.513 81.78 218.019 81.5406C218.166 81.4709 218.342 81.5335 218.41 81.681C218.48 81.8274 218.416 82.0022 218.27 82.0719C217.804 82.292 217.389 82.5486 217.027 82.8395C216.683 83.1152 216.384 83.4253 216.131 83.7666C215.755 85.5614 215.509 87.4915 215.287 89.5267C215.628 88.9964 215.991 88.5217 216.378 88.1016C217.05 87.3713 217.794 86.8037 218.609 86.3997C218.755 86.328 218.93 86.3876 219.003 86.533C219.075 86.6785 219.015 86.8542 218.871 86.9259C218.123 87.2966 217.437 87.8218 216.811 88.5015C216.19 89.1762 215.632 90.0024 215.135 90.9791L215.078 91.5315C214.953 92.7445 214.825 93.9889 214.673 95.2584C214.672 95.2716 214.671 95.2837 214.669 95.2948C214.51 96.6229 214.325 97.9783 214.092 99.357C214.727 98.3763 215.411 97.5087 216.143 96.7542C217.216 95.6493 218.393 94.7878 219.674 94.1717C219.82 94.101 219.996 94.1626 220.067 94.309C220.137 94.4545 220.076 94.6302 219.929 94.7009C218.711 95.2877 217.59 96.1088 216.565 97.1633C215.543 98.2157 214.617 99.5004 213.786 101.018C213.425 102.845 212.963 104.705 212.351 106.587V106.588L212.349 106.595C212.049 107.518 211.712 108.445 211.333 109.375C212.223 108.612 213.168 107.951 214.168 107.395C215.561 106.619 217.057 106.046 218.656 105.676C218.814 105.638 218.973 105.737 219.009 105.896C219.047 106.054 218.948 106.213 218.789 106.249C217.241 106.608 215.795 107.161 214.454 107.908C213.127 108.647 211.897 109.577 210.766 110.7C210.487 111.318 210.188 111.939 209.868 112.559L209.218 112.533C210.291 110.491 211.123 108.454 211.781 106.439C211.891 105.004 211.721 103.57 211.271 102.137C210.814 100.683 210.068 99.2267 209.033 97.7683C208.94 97.636 208.971 97.4532 209.103 97.3582C209.235 97.2643 209.418 97.2956 209.512 97.4279C210.582 98.9358 211.353 100.446 211.829 101.96C212.1 102.818 212.274 103.678 212.352 104.537C213.235 101.351 213.724 98.2359 214.081 95.2635C213.736 94.004 213.351 92.9374 212.925 92.0658C212.501 91.1982 212.041 90.5296 211.544 90.06C211.426 89.9489 211.421 89.762 211.532 89.6448C211.643 89.5267 211.83 89.5216 211.947 89.6327C212.498 90.1529 213 90.8791 213.454 91.8093C213.737 92.389 214.002 93.0496 214.25 93.7929C214.336 93.0071 214.417 92.2335 214.496 91.4719L214.556 90.8791C214.556 90.868 214.558 90.8578 214.559 90.8467C214.977 86.8067 215.399 83.1314 216.593 80.0084Z" fill="white"/>
<path fill-rule="evenodd" clip-rule="evenodd" d="M214.777 104.492C215.798 103.941 217.029 103.652 217.743 102.736C218.585 101.657 218.415 100.072 219.122 98.9005C220.013 97.4249 221.957 97.0502 223.355 96.0432C224.724 95.0564 224.537 94.4494 225.27 92.9304C226.374 90.6397 229.545 88.5055 231.763 90.3831C234.014 92.29 232.565 94.5201 231.338 96.1391C230.464 97.2925 230.597 97.5683 230.363 98.9964C230.08 100.72 230.668 102.755 229.505 104.061C228.786 104.868 227.591 105.111 226.859 105.906C226.029 106.806 225.997 108.153 225.7 109.342C225.3 110.943 224.598 112.223 223.483 113.257C220.547 113.057 217.142 112.871 213.336 112.704C213.002 112.248 212.731 111.746 212.542 111.211C211.707 108.846 212.484 105.728 214.777 104.492Z" fill="#BCC9E7"/>
<path fill-rule="evenodd" clip-rule="evenodd" d="M229.688 91.993C229.773 91.9041 229.914 91.9021 230.003 91.987C230.091 92.0728 230.094 92.2132 230.008 92.3021C229.581 92.7455 229.174 93.2282 228.783 93.7433C228.864 93.7151 228.947 93.6888 229.03 93.6656C229.404 93.5605 229.803 93.4989 230.227 93.4828C230.351 93.4777 230.454 93.5737 230.458 93.6969C230.463 93.8201 230.367 93.9231 230.244 93.9272C229.855 93.9423 229.49 93.9979 229.151 94.0938C228.829 94.1837 228.53 94.311 228.252 94.4736C227.458 95.6129 226.715 96.8844 225.958 98.2368C226.352 97.9682 226.747 97.746 227.14 97.5672C227.825 97.2571 228.51 97.0824 229.198 97.043C229.32 97.0359 229.425 97.1289 229.432 97.2521C229.44 97.3743 229.346 97.4793 229.223 97.4864C228.593 97.5228 227.96 97.6854 227.323 97.9732C226.69 98.2591 226.056 98.6691 225.421 99.2024L225.218 99.57C224.771 100.377 224.313 101.206 223.831 102.047C223.827 102.056 223.822 102.064 223.817 102.071C223.313 102.948 222.783 103.838 222.211 104.729C222.944 104.234 223.677 103.833 224.411 103.525C225.485 103.074 226.561 102.822 227.636 102.772C227.759 102.767 227.863 102.862 227.868 102.984C227.874 103.107 227.779 103.212 227.656 103.217C226.634 103.265 225.61 103.504 224.583 103.935C223.559 104.365 222.534 104.986 221.506 105.797C220.713 106.961 219.84 108.121 218.857 109.25L218.853 109.255C218.37 109.808 217.861 110.355 217.321 110.891C218.167 110.622 219.021 110.442 219.882 110.351C221.082 110.222 222.294 110.267 223.517 110.483C223.638 110.504 223.719 110.619 223.698 110.741C223.676 110.862 223.561 110.943 223.44 110.921C222.255 110.712 221.085 110.669 219.928 110.792C218.785 110.913 217.653 111.198 216.532 111.645C216.112 112.033 215.673 112.414 215.216 112.789L214.545 112.758C216.051 111.568 217.353 110.293 218.502 108.977C219.004 108.011 219.311 106.961 219.421 105.829C219.533 104.682 219.446 103.445 219.158 102.123C219.131 102.003 219.207 101.885 219.327 101.858C219.448 101.831 219.566 101.908 219.592 102.028C219.89 103.396 219.981 104.677 219.864 105.871C219.797 106.55 219.664 107.201 219.464 107.823C221.022 105.864 222.286 103.839 223.416 101.875C223.548 100.895 223.596 100.038 223.557 99.3044C223.519 98.5742 223.397 97.9722 223.191 97.4975C223.141 97.3854 223.193 97.2541 223.305 97.2046C223.417 97.1551 223.548 97.2066 223.598 97.3187C223.827 97.8439 223.961 98.4984 224.003 99.2812C224.028 99.768 224.017 100.307 223.969 100.898C224.262 100.377 224.547 99.8609 224.828 99.3539L225.046 98.959C225.049 98.9509 225.054 98.9438 225.058 98.9378C226.548 96.2491 227.931 93.814 229.688 91.993Z" fill="#E9EFF8"/>
<path fill-rule="evenodd" clip-rule="evenodd" d="M108.174 28.3378C108.456 28.2681 108.757 28.2732 109.033 28.3641C108.811 26.6602 110.457 24.8654 112.172 25.8734C112.292 25.1078 112.669 24.3554 113.312 23.9241C113.955 23.4918 114.879 23.4494 115.482 23.9372C115.5 23.0969 116.035 22.3182 116.751 21.8758C117.467 21.4345 118.339 21.3001 119.179 21.3607C120.103 21.4274 121.019 21.7829 121.711 22.4071C122.523 23.1414 122.665 24.113 122.604 25.1795C123.042 25.0937 123.503 25.0644 123.93 25.1967C125.144 25.5734 125.361 27.2359 125.056 28.2913C125.823 28.1358 126.637 28.0055 127.373 28.2691C128.109 28.5337 128.712 29.3327 128.485 30.0821C128.918 29.9043 129.364 29.7266 129.831 29.7033C130.3 29.6791 130.803 29.8387 131.077 30.2194C131.445 30.7325 131.279 31.4728 130.911 31.9879C130.42 32.6768 129.626 33.109 128.8 33.2908C127.374 33.6049 125.806 33.1898 124.722 32.2111C124.925 32.394 123.213 33.3666 123.049 33.4201C122.362 33.6474 121.663 33.8837 120.935 33.706C120.151 33.513 119.473 32.9899 118.999 32.3364C117.35 33.6595 114.748 33.6009 113.159 32.2051C111.621 33.4716 109.137 33.3807 107.695 32.0051C107.097 32.2415 106.345 32.3455 105.868 31.9132C105.503 31.5809 105.435 30.9719 105.716 30.5669C105.998 30.1619 106.594 30.0154 107.032 30.2416C106.893 29.7013 107.071 29.0933 107.478 28.7115C107.672 28.5287 107.915 28.4014 108.174 28.3378Z" fill="white"/>
<path fill-rule="evenodd" clip-rule="evenodd" d="M122.604 25.1785C122.664 24.112 122.523 23.1403 121.711 22.4061C121.019 21.7819 120.104 21.4264 119.179 21.3597C118.339 21.2991 117.467 21.4334 116.751 21.8748C118.17 21.6708 119.736 21.7375 120.869 22.6162C121.157 22.8404 121.412 23.1141 121.585 23.4363C121.778 23.7989 121.86 24.214 121.852 24.625C121.833 25.5795 121.319 26.4905 120.571 27.0834C119.821 27.6752 118.859 27.9631 117.904 27.9843C118.878 28.2105 119.936 28.052 120.8 27.549C121.663 27.048 122.546 26.1764 122.604 25.1785Z" fill="#F7FBFD"/>
<path fill-rule="evenodd" clip-rule="evenodd" d="M115.482 23.9352C114.88 23.4484 113.955 23.4898 113.312 23.9221C112.668 24.3544 112.29 25.1068 112.172 25.8714C112.093 26.3855 112.59 26.8248 113.049 27.0703C113.508 27.3147 114.051 27.3672 114.565 27.2945C114.059 27.243 113.648 26.8299 113.45 26.3602C113.197 25.7613 113.246 25.0311 113.619 24.4988C113.992 23.9676 114.851 23.7797 115.482 23.9352Z" fill="#F7FBFD"/>
<path fill-rule="evenodd" clip-rule="evenodd" d="M109.033 28.3641C108.757 28.2742 108.456 28.2691 108.174 28.3378C107.915 28.4014 107.673 28.5287 107.478 28.7105C107.071 29.0913 106.893 29.7003 107.032 30.2407C106.594 30.0144 105.998 30.1609 105.716 30.5659C105.435 30.9699 105.503 31.5799 105.868 31.9122C106.345 32.3455 107.096 32.2404 107.695 32.0041C109.136 33.3797 111.621 33.4706 113.159 32.2041C114.748 33.5999 117.35 33.6575 118.999 32.3354C119.474 32.9889 120.151 33.512 120.935 33.705C121.662 33.8827 122.361 33.6464 123.049 33.4191C123.213 33.3656 124.925 32.393 124.722 32.2102C125.805 33.1888 127.373 33.604 128.8 33.2898C129.626 33.108 130.42 32.6747 130.911 31.9869C131.278 31.4718 131.445 30.7315 131.077 30.2184C130.804 29.8377 130.3 29.6781 129.831 29.7023C129.364 29.7266 128.918 29.9043 128.485 30.0811C128.712 29.3316 128.109 28.5327 127.373 28.2681C126.637 28.0035 125.823 28.1338 125.056 28.2903C125.361 27.2349 125.144 25.5724 123.93 25.1957C123.677 25.1169 123.414 25.0967 123.148 25.1098C123.326 26.0057 123.238 26.9804 122.73 27.7358C122.194 28.5327 121.123 29.0004 120.223 28.665C119.316 29.4862 118.04 29.8811 116.828 29.7175C115.616 29.5528 114.49 28.8317 113.835 27.7995C113.152 28.261 112.128 28.2136 111.577 27.6015C111.006 26.9672 111.289 26.3269 111.603 25.6916C111.611 25.6754 111.617 25.6593 111.623 25.6431C110.125 25.2533 108.835 26.844 109.033 28.3641Z" fill="#F6F9FC"/>
<path fill-rule="evenodd" clip-rule="evenodd" d="M108.174 28.3378C108.455 28.2681 108.756 28.2732 109.033 28.3641C108.835 26.844 110.125 25.2533 111.623 25.6431C111.057 25.6795 110.51 25.9583 110.15 26.3966C109.79 26.8339 109.603 27.4036 109.594 27.9702C109.591 28.1904 109.613 28.4146 109.696 28.6186C109.914 29.159 110.49 29.4529 111.032 29.664C110.518 29.7811 109.998 29.5074 109.575 29.1923C109.152 28.8762 108.682 28.4782 108.174 28.3378Z" fill="#EBF4F8"/>
<path fill-rule="evenodd" clip-rule="evenodd" d="M124.721 32.2102C125.804 33.1889 127.372 33.604 128.799 33.2899C129.625 33.1081 130.419 32.6748 130.91 31.987C131.277 31.4719 131.444 30.7315 131.076 30.2184C131.08 31.2214 130.103 32.0627 129.138 32.3354C128.173 32.6071 127.126 32.3738 126.223 31.9415C125.788 31.7345 125.367 31.4749 125.065 31.1002C124.763 30.7255 124.596 30.2184 124.716 29.7528C124.356 30.481 124.488 31.4315 124.721 32.2102Z" fill="#EBF4F8"/>
<path fill-rule="evenodd" clip-rule="evenodd" d="M118.998 32.3344C117.349 33.6575 114.747 33.5989 113.158 32.2031C111.62 33.4697 109.136 33.3788 107.694 32.0031C107.096 32.2395 106.344 32.3435 105.867 31.9112C105.502 31.5789 105.434 30.9699 105.716 30.5649C105.965 31.3931 107.158 31.7375 107.861 31.2315C107.646 30.9184 107.535 30.5346 107.548 30.1558C108.316 31.0275 109.533 31.482 110.685 31.3264C111.837 31.1709 112.89 30.4104 113.399 29.366C113.429 30.0488 113.332 30.7366 113.116 31.384C114.63 32.9071 117.086 33.3091 118.998 32.3344Z" fill="#EBF4F8"/>
<path fill-rule="evenodd" clip-rule="evenodd" d="M150.572 43.0212C146.849 40.9679 146.519 35.0452 150.439 33.0555C150.921 32.8111 151.638 32.4324 152.173 32.3556C152.445 32.3152 154.222 32.5445 154.202 32.9444C154.268 31.586 155.276 30.4295 156.448 29.7407C159.391 28.0096 163.595 28.9196 165.56 31.7142C167.523 34.5079 166.957 38.7721 164.331 40.9567C165.375 40.4891 166.712 40.7992 167.446 41.6769C168.179 42.5556 168.244 43.9261 167.597 44.8705C168.978 44.0726 170.95 44.5614 171.799 45.9118C173.892 45.4603 176.118 45.6452 178.109 46.436C178.554 46.6127 179.004 46.8329 179.29 47.2157C179.576 47.5985 179.641 48.1853 179.317 48.5358C179.109 48.762 178.794 48.8469 178.493 48.9065C177.344 49.1347 176.164 49.1408 174.992 49.1468C169.517 49.1731 164.041 49.1994 158.566 49.2256C158.014 49.2286 157.444 49.2266 156.941 49.0004C156.439 48.7741 156.023 48.255 156.098 47.7086C155.297 48.3419 154.354 48.8327 153.339 48.9428C152.324 49.0539 151.234 48.7438 150.544 47.9894C147.353 48.8539 143.982 49.0549 140.711 48.5732C140.173 48.4944 139.62 48.3903 139.166 48.0904C138.711 47.7914 138.375 47.248 138.476 46.7137C138.577 46.1764 139.089 45.7926 139.622 45.6765C140.155 45.5593 140.71 45.6583 141.245 45.7664C141.035 44.724 141.665 43.6454 142.555 43.0636C143.445 42.4818 144.542 42.3132 145.604 42.2798C147.286 42.2263 148.978 42.4788 150.572 43.0212Z" fill="white"/>
<path fill-rule="evenodd" clip-rule="evenodd" d="M139.622 45.6755C139.089 45.7916 138.577 46.1754 138.476 46.7128C138.375 47.247 138.711 47.7904 139.166 48.0894C139.62 48.3894 140.173 48.4934 140.712 48.5722C143.983 49.0539 147.354 48.854 150.545 47.9884C151.235 48.7418 152.325 49.0519 153.34 48.9418C154.355 48.8317 155.299 48.3419 156.099 47.7076C156.024 48.254 156.439 48.7732 156.942 48.9994C157.445 49.2256 158.015 49.2277 158.567 49.2246C164.043 49.1984 169.518 49.1721 174.993 49.1458C176.165 49.1408 177.345 49.1347 178.494 48.9055C178.795 48.8449 179.11 48.76 179.318 48.5348C179.642 48.1843 179.577 47.5975 179.291 47.2147C179.185 47.0733 179.056 46.9531 178.913 46.8501C177.248 47.3349 175.41 47.1602 173.679 46.8511C173.087 46.7461 172.456 46.6037 172.05 46.1603C171.979 46.0825 171.922 45.9926 171.875 45.8967C171.849 45.9017 171.824 45.9058 171.798 45.9118C170.949 44.5615 168.977 44.0726 167.596 44.8705C168.243 43.9272 168.178 42.5556 167.445 41.6769C166.711 40.7992 165.374 40.4901 164.33 40.9568C166.292 39.3246 167.104 36.5299 166.57 34.0554C166.318 35.7583 165.726 37.4187 164.668 38.7681C163.418 40.3629 161.465 41.4678 159.44 41.4123C159.168 39.3286 157.818 37.4147 155.947 36.4592C156.961 37.2339 156.988 38.9196 156.119 39.8559C155.251 40.7911 153.734 40.9537 152.585 40.3972C151.437 39.8407 150.656 38.6772 150.355 37.4369C149.908 35.5927 150.538 34.0413 151.502 32.5526C151.123 32.703 150.735 32.905 150.437 33.0555C146.517 35.0442 146.847 40.9669 150.57 43.0212C150.171 42.8859 149.766 42.7677 149.356 42.6687C148.007 43.0242 146.511 43.2474 145.179 43.61C143.77 43.9938 142.354 44.8634 141.927 46.2603C141.712 46.0815 141.483 45.9149 141.243 45.7654V45.7664C140.71 45.6573 140.155 45.5583 139.622 45.6755Z" fill="#F6F9FC"/>
<path fill-rule="evenodd" clip-rule="evenodd" d="M150.572 43.0212C146.849 40.9679 146.519 35.0452 150.439 33.0555C150.737 32.905 151.124 32.703 151.504 32.5526C149.543 33.506 148.528 35.7694 148.493 37.949C148.475 39.0782 148.671 40.277 149.408 41.1315C150.073 41.9011 151.103 42.2879 152.119 42.3496C153.134 42.4102 154.145 42.1789 155.119 41.885C153.966 42.9697 151.957 43.7858 150.572 43.0212Z" fill="#EBF4F8"/>
<path fill-rule="evenodd" clip-rule="evenodd" d="M167.598 44.8695C168.245 43.9262 168.18 42.5546 167.447 41.6759C166.713 40.7982 165.376 40.4892 164.332 40.9558C165.102 40.8134 165.838 41.5396 165.992 42.3082C166.146 43.0768 165.828 43.8717 165.366 44.5049C165.174 44.7685 164.95 45.018 164.665 45.1776C164.234 45.42 163.713 45.4311 163.219 45.4079C162.087 45.3533 160.805 45.0362 160.284 44.0302C160.185 44.8059 160.716 45.5594 161.402 45.9381C162.088 46.3169 162.896 46.3916 163.678 46.4078C164.418 46.4229 165.168 46.3906 165.875 46.1745C166.581 45.9583 167.18 45.4796 167.598 44.8695Z" fill="#EBF4F8"/>
<path fill-rule="evenodd" clip-rule="evenodd" d="M179.291 47.2137C179.577 47.5965 179.642 48.1833 179.318 48.5337C179.11 48.76 178.795 48.8448 178.494 48.9044C177.345 49.1327 176.165 49.1387 174.993 49.1448C169.518 49.1711 164.042 49.1973 158.567 49.2236C158.015 49.2266 157.445 49.2246 156.942 48.9983C156.44 48.7721 156.024 48.253 156.099 47.7066C156.968 48.3166 158.003 48.4368 159.064 48.4762C160.347 48.5226 161.647 48.5226 162.897 48.2227C164.146 47.9227 165.353 47.2975 166.145 46.2865C166.244 47.1258 165.827 48.0035 165.115 48.457C168.82 48.0015 172.572 48.4287 176.305 48.357C177.392 48.3378 178.889 48.2237 179.291 47.2137Z" fill="#EBF4F8"/>
<path fill-rule="evenodd" clip-rule="evenodd" d="M156.099 47.7076C155.298 48.3409 154.355 48.8317 153.34 48.9418C152.325 49.0529 151.235 48.7429 150.545 47.9884C147.354 48.8529 143.983 49.0539 140.712 48.5722C140.174 48.4934 139.62 48.3894 139.166 48.0894C138.711 47.7904 138.375 47.247 138.476 46.7128C138.912 47.5571 140.057 47.7379 141.004 47.8177C142.095 47.9096 143.2 47.8308 144.266 47.5834C143.766 47.4793 143.303 47.2147 142.958 46.838C145.876 47.5521 149.024 47.2905 151.784 46.1037C151.666 46.638 152.003 47.2016 152.48 47.4682C152.958 47.7349 153.541 47.75 154.078 47.647C155.858 47.3046 157.282 45.6159 157.317 43.804C157.603 45.1281 157.161 46.8663 156.099 47.7076Z" fill="#EBF4F8"/>
<path fill-rule="evenodd" clip-rule="evenodd" d="M116.723 58.257C115.048 58.758 113.53 60.0063 113.104 61.589C112.147 61.2123 111.077 61.0012 110.092 61.2961C109.107 61.591 108.259 62.5041 108.302 63.5312C107.424 63.3444 106.531 63.1565 105.638 63.2424C104.782 63.3252 103.848 63.7211 103.338 64.4463C103.178 64.6725 103.08 64.9553 103.132 65.227C102.446 64.7614 101.532 64.6533 100.723 64.7463C100.257 64.7998 99.7847 64.9361 99.4272 65.2412C99.0697 65.5462 98.8535 66.0451 98.9798 66.4966C99.201 67.2864 100.209 67.4854 101.027 67.5399C102.541 67.6399 104.054 67.7399 105.568 67.8399C109.767 68.1176 113.992 68.3944 118.174 67.9278C118.516 67.8894 118.915 67.8066 119.057 67.4924C119.187 67.2016 119.007 66.8471 118.738 66.6743C118.47 66.5016 118.139 66.4663 117.821 66.436C119.737 66.439 121.653 66.441 123.57 66.4431C125.104 66.4461 126.638 66.4471 128.171 66.4299C129.782 66.4117 131.428 66.3653 132.939 65.8068C133.233 65.6987 133.558 65.525 133.614 65.2169C133.667 64.92 133.425 64.6341 133.141 64.5331C132.857 64.4311 132.545 64.4675 132.246 64.5049C133.009 64.4685 133.277 63.3141 132.765 62.7475C132.254 62.1798 131.369 62.1384 130.628 62.3223C129.887 62.5061 129.193 62.8707 128.436 62.9808C127.884 61.9304 126.761 61.1547 125.569 61.0931C124.858 61.0547 122.352 61.5011 122.142 62.397C122.544 60.6891 121.354 58.8418 119.701 58.253C118.786 57.9257 117.725 57.957 116.723 58.257Z" fill="white"/>
<path fill-rule="evenodd" clip-rule="evenodd" d="M103.338 64.4463C103.178 64.6725 103.08 64.9553 103.132 65.227C102.446 64.7614 101.532 64.6533 100.723 64.7462C100.257 64.7998 99.7847 64.9361 99.4272 65.2411C99.0697 65.5462 98.8535 66.0451 98.9798 66.4966C99.201 67.2864 100.209 67.4854 101.027 67.5399C102.541 67.6399 104.054 67.7399 105.568 67.8399C109.767 68.1176 113.992 68.3944 118.174 67.9277C118.516 67.8894 118.915 67.8065 119.057 67.4924C119.187 67.2015 119.007 66.847 118.738 66.6743C118.47 66.5016 118.139 66.4663 117.821 66.436C119.737 66.439 121.653 66.441 123.57 66.443C125.104 66.4461 126.638 66.4471 128.171 66.4299C129.782 66.4117 131.428 66.3653 132.939 65.8067C133.233 65.6987 133.558 65.525 133.614 65.2169C133.667 64.92 133.425 64.6341 133.141 64.5331C132.857 64.4311 132.545 64.4675 132.246 64.5049C133.009 64.4685 133.277 63.3141 132.765 62.7475C132.254 62.1798 131.369 62.1384 130.628 62.3222C129.887 62.5061 129.193 62.8707 128.436 62.9808C128.205 62.5424 127.874 62.1526 127.481 61.8415C127.006 62.7818 126.249 63.5817 125.324 64.0857C124.041 64.7846 122.283 64.8553 120.908 64.3624C121.49 63.7908 121.936 63.0646 122.18 62.2869C122.164 62.3233 122.149 62.3596 122.141 62.397C122.29 61.7637 122.22 61.1112 121.989 60.5113C121.752 61.3557 121.426 62.1748 120.878 62.8515C120.157 63.7393 118.972 64.3332 117.863 64.0594C117.363 63.9362 116.914 63.6494 116.533 63.303C115.34 62.2192 114.832 60.4133 115.285 58.8994C114.236 59.5377 113.4 60.482 113.102 61.591H113.101C113.104 62.6656 113.552 63.7413 114.343 64.4715C112.661 64.9977 110.695 64.9705 109.027 64.3978C109.524 65.0583 110.238 65.5542 111.031 65.7875C109.353 66.3804 107.462 66.343 105.809 65.6855C105.35 65.5027 104.868 65.23 104.705 64.7624C104.54 64.2887 104.766 63.7484 105.131 63.404C105.169 63.3676 105.208 63.3333 105.25 63.3019C104.513 63.4504 103.771 63.8282 103.338 64.4463Z" fill="#F6F9FC"/>
<path fill-rule="evenodd" clip-rule="evenodd" d="M132.246 64.504C133.009 64.4676 133.277 63.3132 132.765 62.7466C132.254 62.1789 131.369 62.1375 130.628 62.3214C130.874 62.3224 131.18 62.3516 131.396 62.4698C131.612 62.587 131.788 62.795 131.821 63.0384C131.839 63.1687 131.816 63.3021 131.774 63.4273C131.592 63.9848 131.069 64.3716 130.519 64.5757C129.694 64.8807 128.788 64.8504 127.909 64.816C129.365 65.009 130.781 64.5726 132.246 64.504Z" fill="#EBF4F8"/>
<path fill-rule="evenodd" clip-rule="evenodd" d="M118.739 66.6734C119.008 66.8461 119.188 67.2006 119.058 67.4915C118.916 67.8056 118.517 67.8894 118.175 67.9268C113.993 68.3944 109.768 68.1177 105.569 67.8389C104.055 67.7389 102.541 67.6389 101.028 67.5389C100.21 67.4844 99.2009 67.2854 98.9807 66.4956C98.8545 66.0441 99.0706 65.5442 99.4282 65.2402C99.2625 65.5654 99.4049 65.9664 99.6554 66.233C99.9059 66.4996 100.257 66.6451 100.606 66.7552C102.196 67.2592 103.9 67.1945 105.567 67.1248C105.036 67.0521 104.548 66.7107 104.297 66.237C106.409 67.1774 108.79 67.2551 111.101 67.3188C112.506 67.3571 113.928 67.3945 115.297 67.0764C114.641 67.0885 113.983 66.8875 113.446 66.5108C115.226 66.8794 116.98 67.141 118.739 66.6734Z" fill="#EBF4F8"/>
<path fill-rule="evenodd" clip-rule="evenodd" d="M117.822 66.435C119.738 66.438 121.654 66.4401 123.571 66.4421C125.105 66.4451 126.639 66.4461 128.172 66.4289C129.783 66.4108 131.429 66.3643 132.94 65.8058C133.234 65.6977 133.559 65.524 133.615 65.2159C133.668 64.919 133.426 64.6332 133.142 64.5322C133.149 64.7665 132.945 64.9614 132.746 65.0877C132.548 65.2129 132.313 65.2644 132.082 65.3099C129.486 65.8219 126.819 65.8118 124.173 65.7997C123.142 65.7957 122.042 65.7704 121.188 65.1917C120.193 65.9149 119.051 66.4118 117.822 66.435Z" fill="#EBF4F8"/>
<path fill-rule="evenodd" clip-rule="evenodd" d="M207.913 46.0714C207.441 45.7401 206.789 45.6815 206.265 45.9239C206.302 44.9362 206.057 43.8898 205.365 43.1848C204.673 42.4788 203.47 42.2334 202.669 42.8132C201.991 41.6234 200.602 40.876 199.235 40.9669C197.868 41.0568 196.589 41.9779 196.072 43.2475C193.819 42.5566 191.501 44.0292 190.773 46.1815C190.199 46.1158 189.594 46.0542 189.068 46.2916C188.542 46.5279 188.157 47.1794 188.415 47.6955C188.5 47.8642 188.641 47.9975 188.787 48.1146C189.859 48.9711 191.313 49.1277 192.681 49.2246C193.586 49.2893 194.503 49.3418 195.395 49.1762C196.287 49.0095 197.165 48.6025 197.731 47.8924C198.122 48.4823 198.92 48.6095 199.625 48.6762C201.757 48.8772 203.933 49.0125 206.053 48.6227C206.779 48.4894 207.714 48.4479 208.261 47.8813C208.867 47.2531 208.564 46.5269 207.913 46.0714Z" fill="white"/>
<path fill-rule="evenodd" clip-rule="evenodd" d="M190.772 46.1804C190.198 46.1148 189.593 46.0532 189.067 46.2905C188.54 46.5269 188.156 47.1783 188.414 47.6944C188.499 47.8631 188.639 47.9964 188.786 48.1136C189.858 48.9701 191.312 49.1266 192.679 49.2236C193.584 49.2882 194.502 49.3407 195.394 49.1751C196.286 49.0084 197.164 48.6014 197.729 47.8914C198.121 48.4812 198.919 48.6085 199.624 48.6751C201.756 48.8761 203.932 49.0115 206.052 48.6216C206.778 48.4883 207.713 48.4469 208.26 47.8803C208.866 47.2531 208.563 46.5279 207.912 46.0714C207.44 45.7401 206.788 45.6815 206.264 45.9239C206.294 45.131 206.142 44.3028 205.724 43.6413C205.841 44.0453 205.855 44.4735 205.714 44.8654C205.405 45.7209 204.487 46.0299 203.712 45.6199C203.036 45.2613 202.601 44.525 202.524 43.7645C202.358 45.2371 201.094 46.5127 199.623 46.6915C198.152 46.8693 196.619 45.932 196.107 44.5412C195.982 45.2593 195.517 45.9098 194.878 46.2612C194.241 46.6127 193.442 46.6582 192.768 46.3804C192.424 46.239 192.098 45.9996 191.957 45.6542C191.758 45.1674 191.973 44.6089 192.273 44.1776C192.353 44.0635 192.44 43.9534 192.532 43.8483C191.731 44.4069 191.095 45.226 190.772 46.1804Z" fill="#F6F9FC"/>
<path fill-rule="evenodd" clip-rule="evenodd" d="M197.729 47.8914C198.121 48.4813 198.919 48.6085 199.624 48.6752C201.756 48.8762 203.932 49.0115 206.052 48.6217C206.778 48.4883 207.713 48.4469 208.26 47.8803C208.866 47.2531 208.563 46.5279 207.912 46.0714C208.046 46.6572 207.611 47.2662 207.067 47.5187C206.522 47.7712 205.895 47.7571 205.295 47.7217C205.691 47.4945 205.988 47.1006 206.097 46.6572C205.052 47.6925 203.29 47.9086 202.025 47.1551C201.833 47.5369 201.437 47.7722 201.043 47.9369C199.975 48.3843 198.756 48.4287 197.729 47.8914Z" fill="#EBF4F8"/>
<path fill-rule="evenodd" clip-rule="evenodd" d="M188.414 47.6945C188.499 47.8631 188.64 47.9965 188.786 48.1136C189.858 48.9701 191.312 49.1266 192.68 49.2236C193.584 49.2882 194.502 49.3408 195.394 49.1751C196.286 49.0085 197.164 48.6014 197.73 47.8914C197.116 47.648 196.535 47.1016 196.27 46.4976C196.394 46.9986 196.068 47.5278 195.62 47.7834C195.171 48.0389 194.633 48.0732 194.117 48.055C193.074 48.0177 191.97 47.748 191.268 46.9764C191.52 47.645 192.129 48.1348 192.8 48.3803C193.471 48.6257 194.202 48.654 194.916 48.6176C194.668 48.7812 194.366 48.8317 194.071 48.8651C192.185 49.0731 190.048 48.6631 188.414 47.6945Z" fill="#EBF4F8"/>
<path fill-rule="evenodd" clip-rule="evenodd" d="M141.66 95.4089V93.2798H142.237V95.4089H141.66ZM141.031 95.4089H140.454V93.2798H141.031V95.4089ZM142.865 93.2798H143.338V95.4089H142.865V93.2798ZM139.823 95.4089H139.247V93.2798H139.823V95.4089ZM133.465 101.142H137.83L139.351 104.842C136.387 101.895 133.465 101.142 133.465 101.142ZM122.881 99.9781V99.5569H137.001V99.9781H122.881ZM120.532 104.843L122.054 101.143H126.419C126.419 101.142 123.497 101.895 120.532 104.843ZM119.957 93.2798H120.532V95.4089H119.957V93.2798ZM121.162 93.2798H121.737V95.4089H121.162V93.2798ZM122.368 93.2798H122.945V95.4089H122.368V93.2798ZM123.574 93.2798H124.149V95.4089H123.574V93.2798ZM124.307 78.956H124.598V80.0276H124.307V78.956ZM124.779 93.2798H125.355V95.4089H124.779V93.2798ZM124.915 78.956H125.206V80.0276H124.915V78.956ZM126.562 93.2798V95.4089H125.984V93.2798H126.562ZM127.767 93.2798V95.4089H127.191V93.2798H127.767ZM128.973 93.2798V95.4089H128.397V93.2798H128.973ZM130.18 93.2798V95.4089H129.603V93.2798H130.18ZM131.385 93.2798V95.4089H130.809V93.2798H131.385ZM132.589 93.2798V95.4089H132.015V93.2798H132.589ZM133.796 93.2798V95.4089H133.22V93.2798H133.796ZM129.28 80.4578H130.606C130.9 81.3931 132.519 86.5158 134.545 92.4283H125.34C127.366 86.5158 128.985 81.3921 129.28 80.4578ZM125.522 78.956H125.812V80.0276H125.522V78.956ZM126.131 78.956H126.419V80.0276H126.131V78.956ZM126.737 78.956H127.026V80.0276H126.737V78.956ZM127.344 78.956H127.633V80.0276H127.344V78.956ZM127.951 78.956H128.241V80.0276H127.951V78.956ZM128.559 78.956H128.848V80.0276H128.559V78.956ZM129.453 78.956V80.0276H129.165V78.956H129.453ZM130.378 78.956H130.668V80.0276H130.378V78.956ZM130.06 78.956V80.0276H129.772V78.956H130.06ZM129.943 77.6591H129.453C129.453 77.6591 129.865 73.2575 129.943 69.8922C130.019 73.2575 130.431 77.6591 130.431 77.6591H129.943ZM131.274 78.956V80.0276H130.985V78.956H131.274ZM131.592 78.956H131.882V80.0276H131.592V78.956ZM132.199 78.956H132.488V80.0276H132.199V78.956ZM132.806 78.956H133.095V80.0276H132.806V78.956ZM133.413 78.956H133.702V80.0276H133.413V78.956ZM134.02 78.956H134.309V80.0276H134.02V78.956ZM135.001 93.2798V95.4089H134.426V93.2798H135.001ZM134.628 78.956H134.917V80.0276H134.628V78.956ZM135.234 78.956H135.524V80.0276H135.234V78.956ZM135.631 93.2798H136.205V95.4089H135.631V93.2798ZM136.837 93.2798H137.413V95.4089H136.837V93.2798ZM138.042 93.2798H138.619V95.4089H138.042V93.2798ZM119.328 95.4089H118.752V93.2798H119.328V95.4089ZM118.12 95.4089H117.547V93.2798H118.12V95.4089ZM116.916 95.4089H116.549V93.2798H116.916V95.4089ZM123.991 80.0276H123.702V78.956H123.991V80.0276ZM123.385 80.0276H123.199V78.956H123.385V80.0276ZM135.842 78.956H136.131V80.0276H135.842V78.956ZM136.45 78.956H136.686V80.0276H136.45V78.956ZM148.249 110.866C147.129 108.275 144.544 102.27 142.003 96.2593H143.967V92.4273H140.39C138.229 87.2703 136.357 82.6819 135.804 80.9962L137.002 80.4578V78.5287H135.006C132.937 74.1999 131.577 33.1605 131.264 22.7363L132.687 21.394H131.609C131.627 21.2648 131.639 21.1325 131.639 20.9961C131.639 19.9346 131.025 19.0549 130.222 18.8852C130.211 18.6165 130.203 18.3105 130.192 17.9772C130.335 17.8904 130.437 17.7378 130.437 17.5571C130.437 17.3641 130.324 17.2005 130.16 17.1177C130.156 16.9723 130.15 16.8228 130.145 16.6713C130.342 16.5905 130.484 16.3966 130.484 16.1703C130.484 15.9289 130.325 15.729 130.109 15.6583C130.104 15.5411 130.1 15.4229 130.095 15.3058C130.237 15.2452 130.339 15.1058 130.339 14.9391C130.339 14.7654 130.223 14.623 130.066 14.5705C130.028 13.5676 129.985 12.5454 129.943 11.6082C129.899 12.5454 129.855 13.5686 129.816 14.5705C129.66 14.623 129.544 14.7664 129.544 14.9391C129.544 15.1058 129.646 15.2452 129.789 15.3058C129.783 15.4219 129.779 15.5401 129.776 15.6583C129.558 15.729 129.399 15.9289 129.399 16.1703C129.399 16.3966 129.539 16.5905 129.737 16.6713C129.733 16.8228 129.727 16.9723 129.722 17.1177C129.559 17.1995 129.445 17.3641 129.445 17.5571C129.445 17.7368 129.547 17.8904 129.693 17.9772C129.681 18.3105 129.672 18.6165 129.66 18.8852C128.858 19.0539 128.244 19.9336 128.244 20.9961C128.244 21.1325 128.256 21.2638 128.274 21.394L127.196 21.393L128.619 22.7353C128.305 33.1575 126.947 74.1989 124.877 78.5277H122.879V80.4568L124.078 80.9952C123.528 82.6808 121.655 87.2693 119.494 92.4263H115.915V96.2583H117.88C115.339 102.269 112.753 108.274 111.636 110.865H110.267V113.046H118.518V110.865H118.073C118.439 110.195 118.835 109.391 119.252 108.471C123.947 101.405 129.941 101.882 129.941 101.882C129.941 101.881 135.934 101.405 140.628 108.471C141.045 109.391 141.44 110.195 141.808 110.865H141.361V113.046H149.613V110.865H148.249V110.866Z" fill="#99A9D4"/>
<path d="M204.258 53.7858H154.166V64.7847H204.258V53.7858Z" fill="#99A9D4"/>
<path fill-rule="evenodd" clip-rule="evenodd" d="M179.213 66.929H158.237V86.1159V112.847H167.874V86.1159C167.874 75.821 179.213 75.9987 179.213 75.9987C179.213 75.9987 190.55 75.821 190.55 86.1159V112.846H200.188V86.1149V66.929H179.213Z" fill="#99A9D4"/>
<path fill-rule="evenodd" clip-rule="evenodd" d="M179.213 62.8677H154.166V85.7785H165.675C165.675 73.4888 179.213 73.6979 179.213 73.6979C179.213 73.6979 192.749 73.4898 192.749 85.7785H204.258V62.8677H179.213Z" fill="#D0D9EE"/>
<path d="M204.258 69.1044H154.166V70.4669H204.258V69.1044Z" fill="#99A9D4"/>
<path d="M204.258 68.5086H154.166V69.1843H204.258V68.5086Z" fill="#BCC9E7"/>
<path d="M205.161 55.6744H153.151V59.7074H205.161V55.6744Z" fill="#BCC9E7"/>
<path fill-rule="evenodd" clip-rule="evenodd" d="M205.161 56.7764H179.213H153.263L150.555 58.354L179.213 59.7074L207.869 58.354L205.161 56.7764Z" fill="#99A9D4"/>
<path fill-rule="evenodd" clip-rule="evenodd" d="M179.213 58.3541H150.555L154.166 63.9949H179.213H204.258L207.869 58.3541H179.213Z" fill="#BCC9E7"/>
<path d="M165.675 85.7775H154.166V112.846H165.675V85.7775Z" fill="#99A9D4"/>
<path d="M204.258 85.7775H192.749V112.846H204.258V85.7775Z" fill="#99A9D4"/>
<path d="M163.643 88.0328H155.859V110.477H163.643V88.0328Z" fill="#BCC9E7"/>
<path d="M162.836 89.1216H156.667V109.313H162.836V89.1216Z" fill="#D0D9EE"/>
<path d="M163.643 73.2465H155.859V83.6161H163.643V73.2465Z" fill="#BCC9E7"/>
<path d="M162.836 74.3241H156.667V82.5415H162.836V74.3241Z" fill="#99A9D4"/>
<path d="M202.565 73.2465H194.781V83.6161H202.565V73.2465Z" fill="#BCC9E7"/>
<path d="M202.565 88.0328H194.781V110.477H202.565V88.0328Z" fill="#BCC9E7"/>
<path d="M166.125 85.5906H153.376V86.337H166.125V85.5906Z" fill="#AAB9DE"/>
<path d="M166.125 85.217H153.376V85.9624H166.125V85.217Z" fill="#BCC9E7"/>
<path d="M205.047 85.5906H192.298V86.337H205.047V85.5906Z" fill="#AAB9DE"/>
<path d="M205.047 85.217H192.298V85.9624H205.047V85.217Z" fill="#BCC9E7"/>
<path d="M201.758 74.3241H195.588V82.5415H201.758V74.3241Z" fill="#99A9D4"/>
<path d="M201.758 89.1216H195.588V109.313H201.758V89.1216Z" fill="#D0D9EE"/>
<path fill-rule="evenodd" clip-rule="evenodd" d="M144.983 65.1745C145.294 65.1977 145.594 64.8099 145.681 64.6948C146.011 64.2534 146.223 63.7363 146.308 63.4464C146.244 63.2535 146.176 63.0091 146.105 62.7152C144.906 61.8607 144.744 61.2284 145.614 60.8194C145.79 60.9224 146.007 61.2406 146.268 61.7738C146.476 61.7648 146.632 61.6526 146.741 61.4385C146.493 60.5386 146.333 59.8094 146.257 59.2468C146.848 58.3257 148.228 58.1944 150.057 58.4429C150.142 58.9539 150.212 59.4943 150.266 60.0659C150.59 60.378 150.548 61.5375 150.25 62.8737C150.399 63.6333 149.952 64.0484 148.91 64.117C148.9 64.2999 148.915 64.5109 148.919 64.6392C148.922 64.7564 148.925 64.9836 149.041 65.019L149.234 65.0695C149.214 67.7854 147.889 68.3085 144.983 65.1745Z" fill="#F4AE7C"/>
<path fill-rule="evenodd" clip-rule="evenodd" d="M150.057 58.4428C148.227 58.1934 146.847 58.3257 146.256 59.2468C146.331 59.8084 146.491 60.5386 146.739 61.4385C146.632 61.6526 146.474 61.7637 146.266 61.7728C146.005 61.2405 145.787 60.9224 145.613 60.8194C144.742 61.2294 144.906 61.8617 146.104 62.7151C146.175 63.0101 146.243 63.2535 146.307 63.4464C145.229 63.1929 144.327 62.1809 144.201 61.7425C142.943 59.1397 144.345 58.0419 145.096 57.6409C145.428 55.0644 149.006 57.2925 149.947 55.7189C151.917 56.8986 150.61 58.4206 150.057 58.4428Z" fill="#0F3970"/>
<path fill-rule="evenodd" clip-rule="evenodd" d="M147.707 63.8535C148 64.005 148.4 64.0928 148.909 64.1181C148.899 64.2989 148.906 64.5069 148.917 64.6362C148.405 64.5322 148.002 64.2716 147.707 63.8535Z" fill="#ED7D5B"/>
<path fill-rule="evenodd" clip-rule="evenodd" d="M142.802 116.038C141.666 115.619 141.574 115.004 140.962 114.704C140.346 114.402 140.276 113.864 140.878 113.279C141.323 113.651 141.874 114.111 142.167 113.868C142.362 113.705 143.025 113.716 143.156 113.953C143.733 115.361 144.536 114.915 144.693 115.555C144.713 116.409 143.324 116.232 142.802 116.038Z" fill="#142D4D"/>
<path fill-rule="evenodd" clip-rule="evenodd" d="M152.644 114.638C150.643 114.604 149.148 114.58 148.458 114.35C147.712 114.103 147.867 113.626 148.294 112.864C150.18 113.774 149.677 112.677 150.559 112.816C151.18 113.339 152.097 113.691 153.312 113.869C153.827 114.267 153.618 114.62 152.644 114.638Z" fill="#142D4D"/>
<path fill-rule="evenodd" clip-rule="evenodd" d="M151.645 65.4816C150.646 65.1776 149.751 64.9927 148.956 64.9281C148.812 67.2309 147.668 67.2147 145.523 64.8806C143.457 65.0624 143.052 65.0907 141.906 65.4806C139.426 67.9672 139.198 70.8366 137.902 74.1161C139.337 74.1837 139.981 74.3655 140.957 74.7301C141.168 73.9444 141.342 73.3121 141.484 72.8323C141.444 77.1562 141.429 80.1195 141.438 81.7214C146.185 83.6949 150.095 83.0192 151.692 81.481C151.714 77.6369 151.744 74.5938 151.784 72.3516C152.351 73.0545 152.877 73.5989 153.363 73.9858C154.527 72.5859 155.316 72.0213 155.975 71.1961C154.514 68.6782 152.42 66.335 151.645 65.4816Z" fill="#6998D0"/>
<path fill-rule="evenodd" clip-rule="evenodd" d="M161.212 69.6933C158.718 70.7811 156.973 71.679 155.974 72.389L155.531 71.7002C155.119 72.1345 154.647 72.5587 154.073 73.1768C154.605 73.7606 155.174 74.2403 155.838 74.6453C157.571 74.4514 159.486 73.0738 161.584 70.5144C162.236 70.3781 162.716 70.1296 163.024 69.7701C163.04 69.4398 162.882 69.1095 162.548 68.7772C163.419 68.1823 163.764 67.7572 163.587 67.5006C162.224 68.3844 161.433 69.1156 161.212 69.6933Z" fill="#F4AE7C"/>
<path fill-rule="evenodd" clip-rule="evenodd" d="M151.692 81.481C151.598 81.8547 151.987 84.0504 152.05 85.1957C152.681 89.2842 152.14 94.6059 151.801 101.45C151.193 103.861 150.295 107.074 150.353 111.597C149.294 111.937 148.911 111.972 147.956 111.716C147.287 106.996 147.742 103.216 148.346 101.471C147.96 98.7722 147.382 95.7513 146.543 91.3951C145.596 96.1431 144.33 99.667 143.781 101.965C143.672 104.528 143.179 107.987 142.921 112.343C142.135 112.591 141.645 112.663 140.829 112.559C139.771 108.555 139.948 104.199 140.397 99.4903C140.874 93.8292 140.088 87.4369 140.875 85.222C141.278 83.909 141.33 82.7435 141.438 81.7213C145.397 83.104 148.815 83.0242 151.692 81.481Z" fill="#406FB5"/>
<path fill-rule="evenodd" clip-rule="evenodd" d="M142.167 77.3279C141.913 77.3683 141.672 77.4026 141.446 77.4339C141.434 79.3418 141.431 80.7699 141.437 81.7203C141.661 81.8254 141.977 81.9466 142.223 81.9779C142.222 81.8557 142.184 81.5729 142.183 81.4517C142.167 79.9932 142.162 78.6186 142.167 77.3279ZM153.773 73.506C153.074 72.895 152.409 71.9032 151.777 70.5306C151.849 71.0083 151.876 71.6486 151.862 72.4506C152.4 73.105 152.899 73.6171 153.362 73.9848C153.504 73.8141 153.641 73.6545 153.773 73.506ZM142.365 69.7882C142.057 70.8275 141.763 71.8425 141.482 72.8323C141.474 73.6686 141.468 74.4534 141.462 75.1867C141.665 75.1665 141.905 75.1523 142.186 75.1453C142.216 73.1162 142.275 71.3295 142.365 69.7882Z" fill="#406FB5"/>
<path fill-rule="evenodd" clip-rule="evenodd" d="M138.383 74.1453C138.157 75.1069 138.063 75.9866 138.248 77.1531C138.812 78.0126 141.088 77.5319 146.948 76.5047C147.158 76.7057 147.592 76.9067 148.252 76.8168C148.865 76.6562 148.894 76.4885 149.582 75.8078C149.748 75.2776 149.714 74.8735 149.479 74.5948C148.705 75.0735 148.297 75.327 147.425 75.3573C147.658 74.7301 147.693 74.3261 147.53 74.1433C147.232 74.3938 147.04 74.7695 146.95 75.2725C142.329 75.0614 141.111 75.0897 140.496 75.428C140.562 75.123 140.621 74.8564 140.674 74.6251C139.954 74.3696 139.37 74.2201 138.383 74.1453Z" fill="#F4AE7C"/>
<path fill-rule="evenodd" clip-rule="evenodd" d="M148.428 111.827C148.475 112.239 148.482 112.609 148.449 112.935C150.026 113.656 149.759 112.824 150.389 112.804C150.23 112.511 150.128 112.137 150.081 111.683C149.392 111.889 149.002 111.935 148.428 111.827ZM141.078 112.586C141.078 112.886 141.05 113.15 140.994 113.377C141.415 113.727 141.901 114.092 142.168 113.87C142.297 113.764 142.627 113.731 142.875 113.789C142.773 113.427 142.693 112.974 142.633 112.43C142.081 112.585 141.655 112.637 141.078 112.586Z" fill="#F4AE7C"/>
<path fill-rule="evenodd" clip-rule="evenodd" d="M152.05 85.1957C149.265 87.9207 145.54 87.9298 140.875 85.222C140.087 87.4379 140.874 93.8302 140.396 99.4903C139.947 104.199 139.77 108.555 140.828 112.559C140.915 112.57 140.998 112.579 141.077 112.586C141.654 112.637 142.079 112.585 142.633 112.429C142.725 112.403 142.82 112.375 142.92 112.344C143.178 107.988 143.672 104.529 143.78 101.966C144.329 99.667 145.595 96.1431 146.542 91.3961C147.382 95.7533 147.96 98.7732 148.345 101.472C147.742 103.217 147.286 106.997 147.955 111.717C148.128 111.764 148.284 111.801 148.427 111.827C149.001 111.936 149.392 111.889 150.08 111.683C150.166 111.657 150.256 111.628 150.353 111.597C150.295 107.074 151.193 103.861 151.801 101.45C152.14 94.6049 152.681 89.2842 152.05 85.1957Z" fill="#0F3970"/>
<path fill-rule="evenodd" clip-rule="evenodd" d="M147.654 108.474C148.67 108.764 149.6 108.851 150.445 108.736C150.463 108.501 150.484 108.272 150.507 108.047C149.581 108.173 148.622 108.108 147.632 107.852C147.637 108.055 147.645 108.263 147.654 108.474ZM140.228 109.285C141.333 109.425 142.312 109.348 143.165 109.055C143.186 108.812 143.209 108.571 143.23 108.335C142.273 108.662 141.252 108.774 140.167 108.671C140.185 108.877 140.205 109.081 140.228 109.285ZM143.022 110.817C143.039 110.577 143.058 110.338 143.076 110.103C142.223 110.348 141.32 110.427 140.367 110.339C140.4 110.547 140.435 110.753 140.473 110.96C141.415 111.071 142.265 111.023 143.022 110.817ZM150.396 109.484C149.534 109.634 148.639 109.618 147.709 109.436C147.724 109.643 147.741 109.852 147.761 110.063C148.711 110.274 149.579 110.312 150.365 110.176C150.374 109.941 150.384 109.71 150.396 109.484Z" fill="#142D4D"/>
<path fill-rule="evenodd" clip-rule="evenodd" d="M148.154 59.3337C147.575 59.2408 146.632 59.9114 146.954 59.9569C147.058 59.972 147.34 59.7791 147.45 59.7418C147.67 59.667 148.105 59.6731 148.218 59.5185C148.265 59.4559 148.226 59.3458 148.154 59.3337Z" fill="#0F3970"/>
<path fill-rule="evenodd" clip-rule="evenodd" d="M149.031 59.464C149.162 59.6033 149.593 59.5468 149.82 59.5973C149.934 59.6215 150.235 59.7791 150.339 59.7508C150.653 59.669 149.636 59.1074 149.075 59.2721C148.995 59.2953 148.978 59.4064 149.031 59.464Z" fill="#0F3970"/>
<path fill-rule="evenodd" clip-rule="evenodd" d="M147.719 60.7295C147.554 60.7386 147.389 60.1164 147.79 60.0942C148.004 60.0821 147.99 60.7144 147.719 60.7295Z" fill="#0F3970"/>
<path fill-rule="evenodd" clip-rule="evenodd" d="M149.778 60.6154C149.943 60.6063 150.037 59.97 149.635 59.9932C149.422 60.0054 149.507 60.6316 149.778 60.6154Z" fill="#0F3970"/>
<path fill-rule="evenodd" clip-rule="evenodd" d="M149.166 61.7163C149.122 61.6587 149.229 61.6052 149.29 61.5597C149.516 61.3941 149.581 61.5113 149.003 60.5134C148.89 60.3185 148.806 60.2225 148.878 60.1851C148.944 60.1508 148.963 60.2397 149.091 60.4609C149.719 61.5466 149.66 61.4052 149.237 61.7254C149.215 61.7415 149.183 61.7385 149.166 61.7163Z" fill="#ED7D5B"/>
<path fill-rule="evenodd" clip-rule="evenodd" d="M148.448 62.7001C148.374 62.5809 148.551 62.6052 149.627 62.4284C149.948 62.3769 149.068 63.6899 148.448 62.7001Z" fill="#ED7D5B"/>
<path fill-rule="evenodd" clip-rule="evenodd" d="M108.927 61.3739C108.927 61.3739 107.461 62.6233 108.806 64.0615C108.806 64.0615 107.685 64.1716 107.305 63.8605C107.305 63.8605 107.38 64.012 107.45 64.0807C107.45 64.0807 106.196 64.1251 105.679 63.7343C105.162 63.3424 105.493 56.9309 108.972 57.647C108.972 57.647 111.921 57.4248 111.646 60.8366C111.37 64.2484 112.484 64.2484 112.484 64.2484C112.484 64.2484 112.174 64.4009 112.025 64.4009C112.025 64.4009 111.807 64.317 111.763 64.1968C111.763 64.1968 111.807 64.3867 111.862 64.4463C111.862 64.4463 110.66 64.5605 110.06 64.107C109.461 63.6535 108.757 62.0779 108.927 61.3739Z" fill="#0F3970"/>
<path fill-rule="evenodd" clip-rule="evenodd" d="M113.347 68.854H105.308C105.883 67.4137 106.707 66.3714 107.332 66.2441C107.665 66.1563 108.231 64.9513 108.224 63.0091L108.375 63.0394L110.899 63.5393C110.899 63.5393 110.842 64.3342 110.84 65.0826C110.838 65.7058 110.871 66.3401 111.014 66.4148C111.195 66.431 111.361 66.4643 111.361 66.4643C111.361 66.4643 112.73 67.4258 113.347 68.854Z" fill="#F4AE7C"/>
<path fill-rule="evenodd" clip-rule="evenodd" d="M110.899 63.5393C110.899 63.5393 110.842 64.3342 110.84 65.0816C109.427 65.0412 108.681 63.7534 108.375 63.0394L110.899 63.5393Z" fill="#ED7D5B"/>
<path fill-rule="evenodd" clip-rule="evenodd" d="M108.114 62.7647C108.114 62.7647 107.374 61.5951 107.197 60.5942C107.069 59.8801 107.432 57.2329 110.093 57.6147C110.093 57.6147 110.865 57.6905 111.592 58.1823C112.17 58.5722 113.003 59.4135 112.07 61.7234L111.829 62.5031L108.114 62.7647Z" fill="#0F3970"/>
<path fill-rule="evenodd" clip-rule="evenodd" d="M111.37 64.2484C111.37 64.2484 108.029 64.3029 108.027 62.2213C108.024 60.1397 107.592 58.7439 109.725 58.6207C111.859 58.4974 112.274 59.2913 112.444 59.9862C112.614 60.681 112.24 64.1797 111.37 64.2484Z" fill="#F4AE7C"/>
<path fill-rule="evenodd" clip-rule="evenodd" d="M111.247 58.5702C111.247 58.5702 110.333 61.0123 108.927 61.3739C107.523 61.7345 106.914 61.3588 106.914 61.3588C106.914 61.3588 107.991 60.5033 108.215 59.0095C108.214 59.0095 110.556 57.4077 111.247 58.5702Z" fill="#0F3970"/>
<path fill-rule="evenodd" clip-rule="evenodd" d="M111.02 58.7682C111.02 58.7682 111.703 59.3136 111.87 59.8438C112.037 60.3741 112.113 61.4649 112.43 61.4275C112.43 61.4275 113.12 59.767 112.345 58.8288C111.523 57.8329 111.02 58.7682 111.02 58.7682Z" fill="#0F3970"/>
<path fill-rule="evenodd" clip-rule="evenodd" d="M111.148 58.8509C111.148 58.8509 110.496 61.4082 108.723 62.2284C108.723 62.2284 110.496 60.6568 110.646 58.9681C110.797 57.2794 111.148 58.8509 111.148 58.8509Z" fill="#0F3970"/>
<path fill-rule="evenodd" clip-rule="evenodd" d="M120.365 74.9806C120.365 74.9806 121.48 74.0706 121.88 74.0645C122.28 74.0605 123.042 73.8605 123.012 73.9898C122.981 74.1201 122.341 74.2898 122.451 74.3504C122.561 74.411 123.492 74.1605 123.752 74.31C124.013 74.4594 124.623 75.0806 124.133 75.3513C123.642 75.621 122.171 76.0512 121.791 76.0017C121.41 75.9512 120.549 75.8916 120.549 75.8916L120.365 74.9806Z" fill="#F4AE7C"/>
<path fill-rule="evenodd" clip-rule="evenodd" d="M106.134 108.846L107.068 112.784L108.468 112.775L108.519 108.846H106.134Z" fill="#F4AE7C"/>
<path fill-rule="evenodd" clip-rule="evenodd" d="M117.909 109.015L120.569 112.784L121.605 111.453L120.004 108.496L117.909 109.015Z" fill="#F4AE7C"/>
<path fill-rule="evenodd" clip-rule="evenodd" d="M121.183 110.419L119.813 110.462L118.33 110.506C118.33 110.506 114.906 106.695 112.986 100.584C112.942 100.443 112.895 100.298 112.845 100.153C111.794 97.0885 109.615 93.2414 108.467 89.7589C108.284 89.2034 108.12 88.6822 107.973 88.1884C107.925 88.0298 107.88 87.8753 107.835 87.7217C106.989 84.7816 106.745 82.8515 106.518 80.7881L114.811 80.8547C114.81 80.8547 116.149 94.9382 121.183 110.419Z" fill="#0F3D86"/>
<path fill-rule="evenodd" clip-rule="evenodd" d="M113.649 76.0896C113.628 80.0346 114.228 81.7274 114.228 81.7274C114.228 81.7274 110.678 83.5313 106.458 82.2041C106.408 82.188 102.964 81.4022 102.964 81.4022C103.035 81.2426 103.662 78.5843 103.732 78.4368C104.623 76.5239 105.299 75.6856 105.405 75.0967C105.601 73.9989 105.605 72.8626 105.507 71.791C105.25 68.9539 104.484 66.5996 104.484 66.5996C105.634 66.338 106.71 65.8785 107.907 65.429C108.183 65.7714 109.024 66.131 109.753 66.1138C110.594 66.0956 110.866 65.7351 110.823 65.3422C111.719 65.8411 112.433 66.3118 112.433 66.3118C113.195 67.6339 114.738 68.9186 114.85 70.9456C114.878 71.4466 113.649 75.9795 113.649 76.0896Z" fill="#E7F1FA"/>
<path fill-rule="evenodd" clip-rule="evenodd" d="M107.02 112.564C107.02 112.564 107.133 113.343 106.842 114.177C106.842 114.177 106.613 115.221 107.641 115.24C108.67 115.259 108.922 115.162 108.805 114.522C108.689 113.883 108.467 112.775 108.467 112.775L107.02 112.564Z" fill="#F4AE7C"/>
<path fill-rule="evenodd" clip-rule="evenodd" d="M108.941 115.86C108.288 117.093 107.357 117.005 106.69 115.86C106.598 115.397 106.801 114.409 106.835 114.219C106.838 114.205 106.841 114.195 106.842 114.187C106.843 114.18 106.844 114.177 106.844 114.177C108.007 115.243 108.735 114.148 108.735 114.148C108.736 114.15 108.737 114.151 108.737 114.154C108.908 114.574 108.943 115.697 108.941 115.86Z" fill="#142D4D"/>
<path fill-rule="evenodd" clip-rule="evenodd" d="M124.082 114.627C124.082 114.627 122.186 112.522 121.605 111.453L120.195 112.175L123.346 115.133L124.083 115.037L124.082 114.627Z" fill="#F4AE7C"/>
<path fill-rule="evenodd" clip-rule="evenodd" d="M125.286 115.86C125.286 115.86 122.94 115.86 122.902 115.86C122.55 115.86 122.27 115.278 121.892 114.521C121.737 114.212 121.39 114.041 121.033 113.947L121.042 115.86H120.492L119.986 113.838C119.649 113.221 119.959 112.662 120.195 112.175C120.47 112.174 121.209 112.363 122.609 113.939C123.069 114.459 123.577 114.642 124.081 114.627C124.088 114.631 124.095 114.634 124.103 114.638C125.267 115.162 125.286 115.86 125.286 115.86Z" fill="#142D4D"/>
<path fill-rule="evenodd" clip-rule="evenodd" d="M119.813 110.462L118.33 110.506C118.33 110.506 114.906 106.695 112.986 100.584C112.942 100.443 112.894 100.298 112.845 100.153C111.794 97.0886 109.615 93.2415 108.467 89.759C108.284 89.2035 108.12 88.6823 107.973 88.1884C107.925 88.0299 107.88 87.8753 107.835 87.7218L109.056 86.7957C109.056 86.7957 112.723 92.7324 113.857 98.3198C114.843 103.171 118.791 109.01 119.813 110.462Z" fill="#0F3970"/>
<path fill-rule="evenodd" clip-rule="evenodd" d="M109.184 98.8378C109.205 101.555 109.068 107.801 108.714 110.386H107.401C106.675 110.386 106.313 110.376 106.313 110.376C105.426 105.881 104.794 102.161 104.335 98.954C103.958 96.3229 103.623 94.0676 103.364 92.1274C103.105 90.173 102.924 88.5368 102.86 87.1541C102.85 86.936 102.843 86.7249 102.839 86.5188C102.835 86.3118 102.834 86.1118 102.836 85.9169L110.001 85.218C109.908 89.9791 109.172 97.2582 109.184 98.8378Z" fill="#0F3D86"/>
<path fill-rule="evenodd" clip-rule="evenodd" d="M107.4 110.386C106.674 110.386 106.312 110.376 106.312 110.376C105.425 105.881 104.793 102.161 104.334 98.9539C103.957 96.3229 103.622 94.0676 103.363 92.1274C103.104 90.173 102.923 88.5368 102.859 87.1541L105.488 88.7014C105.488 88.7014 103.811 89.2933 104.451 93.7736C105.09 98.255 106.509 109.752 107.4 110.386Z" fill="#0F3970"/>
<path fill-rule="evenodd" clip-rule="evenodd" d="M107.739 87.1097C107.739 87.1097 107.234 88.9337 105.488 88.7004C103.742 88.4671 101.259 87.4197 101.259 87.4197C101.259 87.4197 102.006 85.0614 102.933 81.9647C104.056 78.2146 104.336 72.9444 104.991 69.8952C105.175 69.0408 106.412 68.764 106.459 68.253L107.907 65.4421C107.907 65.4421 110.067 70.2891 110.184 71.5122C110.3 72.7353 107.739 87.1097 107.739 87.1097Z" fill="#6998D0"/>
<path fill-rule="evenodd" clip-rule="evenodd" d="M106.517 75.1119C106.44 77.0905 105.748 80.4659 102.966 81.9496C102.956 81.9546 102.944 81.9607 102.933 81.9647C104.056 78.2146 104.042 74.617 104.697 71.5678C106.192 71.2577 106.561 74.0221 106.517 75.1119Z" fill="#406FB5"/>
<path fill-rule="evenodd" clip-rule="evenodd" d="M103.463 79.5054C103.463 79.5054 104.71 79.2358 105.032 79.5913C105.352 79.9478 105.532 80.5144 105.211 80.7124C104.891 80.9124 103.963 80.3659 103.63 80.5861C103.391 80.7437 103.316 81.1447 103.075 81.0043C102.836 80.8639 102.582 79.9448 102.582 79.9448L103.463 79.5054Z" fill="#F4AE7C"/>
<path fill-rule="evenodd" clip-rule="evenodd" d="M107.907 65.4432C107.907 65.4432 104.541 65.5907 103.732 66.3421C102.923 67.0936 98.0788 72.9001 97.999 74.4211C97.9182 75.9422 102.243 80.266 102.243 80.266C102.243 80.266 103.444 79.9761 103.964 79.2207C103.964 79.2207 101.282 74.4373 101.442 74.2292C101.602 74.0212 106.147 70.2973 106.518 71.1225C106.839 71.8345 107.907 65.4432 107.907 65.4432Z" fill="#6998D0"/>
<path fill-rule="evenodd" clip-rule="evenodd" d="M120.712 74.4867C120.712 74.4867 116.868 75.7694 116.388 75.6613C115.907 75.5552 115.222 70.3467 114.851 68.562C114.373 66.2632 112.551 65.8067 112.551 65.8067L110.823 65.3431C110.823 65.3431 112.802 70.2315 112.86 71.2213C112.919 72.2101 113.092 87.4005 113.092 87.4005C113.092 87.4005 112.976 88.0994 114.315 87.8086C115.653 87.5177 116.002 87.2258 116.002 87.2258C116.002 87.2258 115.422 82.9798 115.15 79.2104C116.513 78.9781 120.899 76.7551 120.899 76.7551C121.579 75.6865 120.712 74.4867 120.712 74.4867Z" fill="#6998D0"/>
<path fill-rule="evenodd" clip-rule="evenodd" d="M110.507 62.8404C110.989 62.9434 111.265 62.9505 111.756 62.9333C111.953 62.9262 111.277 64.2918 110.465 62.9111C110.446 62.8778 110.469 62.8313 110.507 62.8404Z" fill="#E97850"/>
<path fill-rule="evenodd" clip-rule="evenodd" d="M110.563 60.1154C110.794 60.1801 110.743 60.3639 110.561 60.373C108.621 60.4659 109.992 59.9559 110.563 60.1154Z" fill="#0F3970"/>
<path fill-rule="evenodd" clip-rule="evenodd" d="M111.75 60.176C111.514 60.2164 111.546 60.4053 111.726 60.4336C113.646 60.7215 112.335 60.075 111.75 60.176Z" fill="#0F3970"/>
<path fill-rule="evenodd" clip-rule="evenodd" d="M111.418 62.295L111.43 62.294C111.636 62.2395 111.745 62.2062 111.781 62.1254C111.815 62.0516 111.775 61.9729 111.703 61.8284C111.622 61.6699 111.501 61.4264 111.388 61.0245C111.38 60.9952 111.348 60.979 111.32 60.9861C111.291 60.9942 111.273 61.0245 111.282 61.0548C111.398 61.4668 111.522 61.7153 111.604 61.8779C111.651 61.9729 111.692 62.0547 111.68 62.0799C111.664 62.1163 111.518 62.1557 111.402 62.187C111.372 62.1951 111.355 62.2254 111.363 62.2557C111.368 62.2809 111.393 62.2971 111.418 62.295Z" fill="#E97850"/>
<path fill-rule="evenodd" clip-rule="evenodd" d="M112.104 61.4526C112.24 61.4648 112.395 60.9557 112.063 60.9254C111.888 60.9093 111.88 61.4314 112.104 61.4526Z" fill="#0F3970"/>
<path fill-rule="evenodd" clip-rule="evenodd" d="M110.255 61.3123C110.392 61.3244 110.546 60.8154 110.216 60.7861C110.039 60.7699 110.032 61.2921 110.255 61.3123Z" fill="#0F3970"/>
<path fill-rule="evenodd" clip-rule="evenodd" d="M110.534 62.8698C110.333 63.0152 111.436 63.2495 111.663 63.1121C111.689 63.097 111.776 63.0101 111.758 62.9748C111.741 62.9404 111.602 62.9677 111.565 62.9697C111.212 62.9869 110.89 62.9576 110.534 62.8698Z" fill="white"/>
</g>
<defs>
<clipPath id="clip0_380_12709">
<rect width="318" height="127" fill="white"/>
</clipPath>
</defs>
</svg>
