<svg width="318" height="127" viewBox="0 0 318 127" fill="none" xmlns="http://www.w3.org/2000/svg">
<g clip-path="url(#clip0_380_12712)">
<rect width="318" height="127" fill="#F5FAFE"/>
<path d="M251.018 85.7356C247.622 72.0768 238.875 72.0081 233.886 59.4425C233.273 57.8996 232.99 56.4164 232.954 54.9733C233.237 54.333 233.546 53.7048 233.881 53.0904C236.006 49.1956 238.951 45.8328 241.229 42.0347C243.362 38.4782 244.718 34.5525 244.647 30.3689C244.58 26.4099 243.288 22.626 240.824 19.5189C239.858 18.2998 238.752 17.2045 237.562 16.1985C233.79 10.9932 226.68 8.61727 219.348 7.98787C213.892 6.11186 207.702 6.57982 202.155 7.67347C194.589 9.16484 187.522 12.4034 180.319 15.0373C173.196 17.642 165.786 19.5372 158.15 18.7148C151.389 17.9866 144.952 15.6694 138.589 13.3899C132.139 11.0792 125.491 8.7128 118.599 8.36819C115.606 7.96257 112.569 8.07774 109.42 8.97036C109.406 8.96097 109.39 8.95502 109.374 8.95302C109.357 8.95103 109.341 8.95305 109.325 8.9589C109.128 9.03048 108.931 9.10339 108.734 9.17763C106.985 9.73368 105.38 10.4567 103.921 11.3194C96.4036 15.2257 89.9602 21.48 88.828 30.2467C88.1181 35.7439 89.3797 41.2295 90.1584 46.6473C90.9251 51.9826 91.0557 57.3037 89.1605 62.4272C88.4411 64.3719 87.4867 66.2225 86.3351 67.9409C85.9364 68.4568 85.5505 68.9814 85.1843 69.5271C83.4362 71.7663 81.3385 73.7338 78.9809 75.3254C78.5893 75.5898 78.9385 76.2094 79.3551 75.9656C80.7919 75.1246 82.1141 74.1486 83.3218 73.065C83.051 73.7739 82.8289 74.5004 82.657 75.2396C81.2958 81.0564 84.6025 106.071 95.7763 119.205L232.196 119.744C241.089 119.779 248.874 104.028 250.857 95.3581C251.593 92.1391 251.789 88.8374 251.018 85.7356ZM92.9383 33.0422C93.5839 41.8238 96.0283 44.8372 93.795 54.6764C92.9719 58.3026 91.6372 60.8737 90.1589 63.0234C91.5213 59.4468 92.1364 55.5609 91.9217 51.6587C91.6148 46.0801 90.1387 40.6396 89.8182 35.063C89.4999 29.5255 90.73 24.2815 94.1846 19.8616C95.7405 17.871 97.5636 16.1887 99.5516 14.7208C94.6537 19.6436 92.4602 26.5407 92.9383 33.0422ZM199.61 10.337C183.865 16.5529 181.405 20.9034 166.837 22.5464C149.268 24.5281 136.73 13.7363 124.101 9.65601C134.833 12.0204 144.744 17.4791 155.637 19.4119C162.766 20.6767 169.838 19.6092 176.676 17.423C183.916 15.1084 190.764 11.6881 198.044 9.50097C202.057 8.29543 206.145 7.5211 210.346 7.48732C211.903 7.47482 213.425 7.58731 214.924 7.81125C208.989 7.83535 203.324 8.87082 199.61 10.337ZM243.582 30.6684C243.577 35.0309 241.931 38.9649 239.594 42.5781C237.546 45.7446 235.112 48.6709 233.228 51.941C235.196 42.0574 246.759 33.4964 239.491 19.3954C242.173 22.5498 243.588 26.5289 243.582 30.6684Z" fill="#D1E8F6"/>
<path d="M120.258 48.6394H101.116C101.022 48.6394 100.931 48.6019 100.865 48.5351C100.798 48.4684 100.76 48.3778 100.76 48.2834V24.428C100.76 24.3335 100.798 24.243 100.865 24.1762C100.931 24.1094 101.022 24.0719 101.116 24.0719H120.258C120.353 24.0719 120.443 24.1094 120.51 24.1762C120.577 24.243 120.615 24.3335 120.615 24.428V48.2834C120.615 48.3778 120.577 48.4684 120.51 48.5351C120.443 48.6019 120.353 48.6394 120.258 48.6394Z" fill="#A0B8DB"/>
<path d="M119.848 48.2834H101.526C101.427 48.2834 101.331 48.2438 101.261 48.1732C101.19 48.1027 101.15 48.0071 101.15 47.9074V24.804C101.15 24.7043 101.19 24.6086 101.261 24.5381C101.331 24.4676 101.427 24.428 101.526 24.428H119.849C119.948 24.428 120.044 24.4676 120.114 24.5381C120.185 24.6086 120.225 24.7043 120.225 24.804V47.9074C120.225 47.9568 120.215 48.0057 120.196 48.0513C120.177 48.0969 120.149 48.1384 120.114 48.1733C120.079 48.2082 120.038 48.2359 119.992 48.2548C119.947 48.2737 119.898 48.2834 119.848 48.2834Z" fill="white"/>
<path d="M102.528 28.3411H107.621V35.5617H102.528V28.3411ZM109.123 31.9515H112.251V36.3856H109.123V31.9515ZM103.427 37.8088H108.499V44.9993H103.427V37.8088ZM113.509 28.5359H118.093V31.9513H113.509V28.5359ZM111.576 37.8088H117.733V44.9993H111.576V37.8088Z" fill="#A0B8DB"/>
<path d="M104.696 27.6355H105.174V28.6265H104.696V27.6355ZM110.448 31.456H110.926V32.4469H110.448V31.456ZM114.275 37.0477H114.753V38.0386H114.275V37.0477ZM113.07 29.1112L114.318 28.142L114.611 28.5193L113.363 29.4887L113.07 29.1112ZM103.052 38.4079L104.301 37.4386L104.594 37.8159L103.345 38.7853L103.052 38.4079ZM117.049 28.4826L117.387 28.1447L118.505 29.2624L118.167 29.6002L117.049 28.4826ZM107.494 37.776L107.831 37.4383L108.949 38.556L108.611 38.8938L107.494 37.776Z" fill="#D5E2F5"/>
<path d="M117.059 39.2517H112.251C112.241 39.2517 112.23 39.2475 112.223 39.24C112.215 39.2325 112.211 39.2224 112.211 39.2118C112.211 39.2012 112.215 39.191 112.223 39.1835C112.23 39.176 112.241 39.1718 112.251 39.1718H117.059C117.069 39.1729 117.078 39.1775 117.085 39.1849C117.091 39.1923 117.095 39.2019 117.095 39.2118C117.095 39.2217 117.091 39.2313 117.085 39.2387C117.078 39.246 117.069 39.2507 117.059 39.2517ZM117.059 39.916H112.251C112.241 39.916 112.23 39.9117 112.223 39.9043C112.215 39.8968 112.211 39.8866 112.211 39.876C112.211 39.8654 112.215 39.8552 112.223 39.8478C112.23 39.8403 112.241 39.8361 112.251 39.8361H117.059C117.064 39.8357 117.07 39.8365 117.075 39.8384C117.08 39.8402 117.085 39.8431 117.089 39.8468C117.093 39.8506 117.096 39.8551 117.098 39.8601C117.1 39.8651 117.101 39.8705 117.101 39.876C117.101 39.8815 117.1 39.8869 117.098 39.8919C117.096 39.8969 117.093 39.9014 117.089 39.9052C117.085 39.9089 117.08 39.9118 117.075 39.9136C117.07 39.9155 117.064 39.9163 117.059 39.916ZM117.059 40.58H112.251C112.241 40.58 112.23 40.5758 112.223 40.5683C112.215 40.5608 112.211 40.5507 112.211 40.5401C112.211 40.5295 112.215 40.5193 112.223 40.5118C112.23 40.5043 112.241 40.5001 112.251 40.5001H117.059C117.069 40.5012 117.078 40.5058 117.085 40.5132C117.091 40.5206 117.095 40.5301 117.095 40.5401C117.095 40.55 117.091 40.5596 117.085 40.5669C117.078 40.5743 117.069 40.579 117.059 40.58ZM117.059 41.2441H112.251C112.241 41.2441 112.23 41.2399 112.223 41.2324C112.215 41.2249 112.211 41.2147 112.211 41.2041C112.211 41.1935 112.215 41.1834 112.223 41.1759C112.23 41.1684 112.241 41.1642 112.251 41.1642H117.059C117.064 41.1639 117.07 41.1646 117.075 41.1665C117.08 41.1684 117.085 41.1712 117.089 41.175C117.093 41.1787 117.096 41.1833 117.098 41.1883C117.1 41.1933 117.101 41.1987 117.101 41.2041C117.101 41.2096 117.1 41.215 117.098 41.22C117.096 41.225 117.093 41.2296 117.089 41.2333C117.085 41.237 117.08 41.2399 117.075 41.2418C117.07 41.2436 117.064 41.2444 117.059 41.2441ZM117.059 41.9083H112.251C112.241 41.9083 112.23 41.9041 112.223 41.8966C112.215 41.8891 112.211 41.879 112.211 41.8684C112.211 41.8578 112.215 41.8476 112.223 41.8401C112.23 41.8326 112.241 41.8284 112.251 41.8284H117.059C117.069 41.8295 117.078 41.8341 117.085 41.8415C117.091 41.8489 117.095 41.8584 117.095 41.8684C117.095 41.8783 117.091 41.8879 117.085 41.8952C117.078 41.9026 117.069 41.9073 117.059 41.9083ZM117.059 42.5724H112.251C112.241 42.5724 112.23 42.5682 112.223 42.5607C112.215 42.5532 112.211 42.543 112.211 42.5324C112.211 42.5218 112.215 42.5117 112.223 42.5042C112.23 42.4967 112.241 42.4925 112.251 42.4925H117.059C117.064 42.4922 117.07 42.4929 117.075 42.4948C117.08 42.4967 117.085 42.4995 117.089 42.5033C117.093 42.507 117.096 42.5115 117.098 42.5166C117.1 42.5216 117.101 42.527 117.101 42.5324C117.101 42.5379 117.1 42.5433 117.098 42.5483C117.096 42.5533 117.093 42.5578 117.089 42.5616C117.085 42.5653 117.08 42.5682 117.075 42.5701C117.07 42.5719 117.064 42.5727 117.059 42.5724ZM106.176 40.5555H103.974C103.963 40.5555 103.953 40.5513 103.945 40.5438C103.938 40.5363 103.934 40.5261 103.934 40.5155C103.934 40.5049 103.938 40.4948 103.945 40.4873C103.953 40.4798 103.963 40.4756 103.974 40.4756H106.176C106.186 40.4756 106.197 40.4798 106.204 40.4873C106.212 40.4948 106.216 40.5049 106.216 40.5155C106.216 40.5261 106.212 40.5363 106.204 40.5438C106.197 40.5513 106.186 40.5555 106.176 40.5555ZM106.176 41.2441H103.974C103.963 41.2441 103.953 41.2399 103.945 41.2324C103.938 41.2249 103.934 41.2147 103.934 41.2041C103.934 41.1935 103.938 41.1834 103.945 41.1759C103.953 41.1684 103.963 41.1642 103.974 41.1642H106.176C106.186 41.1642 106.197 41.1684 106.204 41.1759C106.212 41.1834 106.216 41.1935 106.216 41.2041C106.216 41.2147 106.212 41.2249 106.204 41.2324C106.197 41.2399 106.186 41.2441 106.176 41.2441ZM106.176 41.9327H103.974C103.963 41.9327 103.953 41.9285 103.945 41.921C103.938 41.9135 103.934 41.9034 103.934 41.8928C103.934 41.8822 103.938 41.872 103.945 41.8645C103.953 41.857 103.963 41.8528 103.974 41.8528H106.176C106.186 41.8528 106.197 41.857 106.204 41.8645C106.212 41.872 106.216 41.8822 106.216 41.8928C106.216 41.9034 106.212 41.9135 106.204 41.921C106.197 41.9285 106.186 41.9327 106.176 41.9327ZM111.436 33.2297H109.958C109.948 33.2297 109.938 33.2255 109.93 33.218C109.923 33.2105 109.918 33.2004 109.918 33.1898C109.918 33.1792 109.923 33.169 109.93 33.1615C109.938 33.154 109.948 33.1498 109.958 33.1498H111.436C111.442 33.1495 111.447 33.1503 111.452 33.1521C111.458 33.154 111.462 33.1569 111.466 33.1606C111.47 33.1643 111.473 33.1689 111.476 33.1739C111.478 33.1789 111.479 33.1843 111.479 33.1898C111.479 33.1952 111.478 33.2006 111.476 33.2056C111.473 33.2106 111.47 33.2152 111.466 33.2189C111.462 33.2226 111.458 33.2255 111.452 33.2274C111.447 33.2293 111.442 33.23 111.436 33.2297ZM111.436 33.7091H109.958C109.948 33.7091 109.938 33.7049 109.93 33.6974C109.923 33.6899 109.918 33.6798 109.918 33.6692C109.918 33.6586 109.923 33.6484 109.93 33.6409C109.938 33.6334 109.948 33.6292 109.958 33.6292H111.436C111.446 33.6303 111.455 33.6349 111.462 33.6423C111.469 33.6497 111.472 33.6592 111.472 33.6692C111.472 33.6791 111.469 33.6887 111.462 33.696C111.455 33.7034 111.446 33.7081 111.436 33.7091ZM106.173 29.5445H103.996C103.985 29.5445 103.975 29.5403 103.968 29.5328C103.96 29.5253 103.956 29.5151 103.956 29.5046C103.956 29.494 103.96 29.4838 103.968 29.4763C103.975 29.4688 103.985 29.4646 103.996 29.4646H106.173C106.184 29.4646 106.194 29.4688 106.202 29.4763C106.209 29.4838 106.213 29.494 106.213 29.5046C106.213 29.5151 106.209 29.5253 106.202 29.5328C106.194 29.5403 106.184 29.5445 106.173 29.5445ZM107.192 29.9839H103.137C103.127 29.9839 103.116 29.9797 103.109 29.9722C103.101 29.9647 103.097 29.9545 103.097 29.9439C103.097 29.9333 103.101 29.9232 103.109 29.9157C103.116 29.9082 103.127 29.904 103.137 29.904H107.192C107.202 29.904 107.213 29.9082 107.22 29.9157C107.228 29.9232 107.232 29.9333 107.232 29.9439C107.232 29.9545 107.228 29.9647 107.22 29.9722C107.213 29.9797 107.202 29.9839 107.192 29.9839ZM107.192 30.5033H103.137C103.127 30.5033 103.116 30.4991 103.109 30.4916C103.101 30.4841 103.097 30.474 103.097 30.4634C103.097 30.4528 103.101 30.4426 103.109 30.4351C103.116 30.4276 103.127 30.4234 103.137 30.4234H107.192C107.202 30.4234 107.213 30.4276 107.22 30.4351C107.228 30.4426 107.232 30.4528 107.232 30.4634C107.232 30.474 107.228 30.4841 107.22 30.4916C107.213 30.4991 107.202 30.5033 107.192 30.5033ZM107.192 31.0226H103.137C103.127 31.0226 103.116 31.0184 103.109 31.0109C103.101 31.0034 103.097 30.9933 103.097 30.9827C103.097 30.9721 103.101 30.9619 103.109 30.9544C103.116 30.9469 103.127 30.9427 103.137 30.9427H107.192C107.202 30.9427 107.213 30.9469 107.22 30.9544C107.228 30.9619 107.232 30.9721 107.232 30.9827C107.232 30.9933 107.228 31.0034 107.22 31.0109C107.213 31.0184 107.202 31.0226 107.192 31.0226ZM117.329 29.8641H114.522C114.513 29.8631 114.503 29.8584 114.497 29.851C114.49 29.8437 114.486 29.8341 114.486 29.8242C114.486 29.8142 114.49 29.8047 114.497 29.7973C114.503 29.7899 114.513 29.7853 114.522 29.7842H117.329C117.339 29.7842 117.349 29.7884 117.357 29.7959C117.364 29.8034 117.369 29.8136 117.369 29.8242C117.369 29.8348 117.364 29.8449 117.357 29.8524C117.349 29.8599 117.339 29.8641 117.329 29.8641ZM117.329 30.4932H114.522C114.513 30.4922 114.503 30.4875 114.497 30.4801C114.49 30.4728 114.486 30.4632 114.486 30.4533C114.486 30.4433 114.49 30.4338 114.497 30.4264C114.503 30.419 114.513 30.4144 114.522 30.4133H117.329C117.339 30.4133 117.349 30.4175 117.357 30.425C117.364 30.4325 117.369 30.4427 117.369 30.4533C117.369 30.4639 117.364 30.474 117.357 30.4815C117.349 30.489 117.339 30.4932 117.329 30.4932Z" fill="white"/>
<path d="M230.804 119.809H229.665L233.097 110.341H234.236L230.804 119.809ZM248.156 119.809H249.295L245.863 110.341H244.724L248.156 119.809Z" fill="#A0B8DB"/>
<path d="M229.254 94.5077H249.27V113.111H229.254V94.5077Z" fill="#A0B8DB"/>
<path d="M230.235 95.189H248.288V101.468H230.235V95.189Z" fill="#8AA1C2"/>
<path d="M239.654 102.351H248.288V112.163H239.654V102.351ZM230.235 102.351H238.869V112.163H230.235V102.351Z" fill="white"/>
<path d="M238.28 107.551C238.28 107.681 238.228 107.806 238.136 107.898C238.044 107.99 237.919 108.042 237.789 108.042C237.659 108.042 237.534 107.99 237.442 107.898C237.35 107.806 237.299 107.681 237.299 107.551C237.299 107.421 237.35 107.296 237.442 107.204C237.534 107.112 237.659 107.061 237.789 107.061C237.919 107.061 238.044 107.112 238.136 107.204C238.228 107.296 238.28 107.421 238.28 107.551ZM241.125 107.551C241.125 107.616 241.113 107.68 241.088 107.739C241.063 107.799 241.027 107.853 240.982 107.898C240.936 107.944 240.882 107.98 240.822 108.005C240.763 108.029 240.699 108.042 240.635 108.042C240.57 108.042 240.506 108.029 240.447 108.005C240.387 107.98 240.333 107.944 240.288 107.898C240.242 107.853 240.206 107.798 240.181 107.739C240.157 107.679 240.144 107.616 240.144 107.551C240.144 107.421 240.196 107.296 240.288 107.204C240.38 107.112 240.505 107.061 240.635 107.061C240.765 107.061 240.89 107.112 240.982 107.204C241.074 107.296 241.125 107.421 241.125 107.551Z" fill="#A5BED6"/>
<path d="M215.134 80.6914L204.891 80.1163C205.478 81.5349 191.043 84.2038 189.944 88.2987C188.675 93.0257 191.171 111.402 190.324 114.895C189.914 116.589 183.712 116.944 183.118 118.459C182.144 120.95 192.154 119.591 193.761 118.678C195.085 117.925 194.148 115.829 193.966 115.452L196.29 91.2469C196.29 91.2469 211.721 90.7249 214.942 88.092C218.164 85.459 215.134 80.6914 215.134 80.6914Z" fill="#FFCABA"/>
<path d="M186.402 116.898C186.402 116.898 183.291 117.663 185.194 118.524C185.782 118.791 192.594 119.219 193.937 115.393C193.937 115.393 195.485 118.161 194.395 119.1C193.304 120.038 183.741 120.896 182.954 119.694C181.699 117.776 186.402 116.898 186.402 116.898Z" fill="#2A2F47"/>
<path d="M220.503 81.6417L210.513 84.5252C210.513 84.5252 196.305 87.3985 196.077 92.4759C195.89 96.6555 202.868 106.639 205.898 111.48C206.199 111.962 206.343 112.525 206.311 113.092C206.278 113.658 206.069 114.201 205.714 114.644C204.289 116.421 202.083 118.159 202.315 119.229C202.885 121.843 210.333 116.545 211.165 114.894C211.919 113.397 209.324 111.451 209.324 111.451L204.679 95.4998C204.679 95.4998 214.424 92.9019 218.456 89.7864C221.748 87.2426 220.503 81.6417 220.503 81.6417Z" fill="#FFD6C9"/>
<path d="M203.874 116.676C203.874 116.676 202.625 118.24 204.715 118.24C206.63 118.24 210.326 115.38 209.324 111.451C209.324 111.451 212.147 112.898 211.759 114.283C211.371 115.668 205.677 120.862 202.797 120.027C200.596 119.389 203.874 116.676 203.874 116.676Z" fill="#2A2F47"/>
<path d="M134.49 80.4562H135.503V90.2843H134.49V80.4562Z" fill="white"/>
<path d="M154.544 93.074H134.996C133.832 93.074 132.888 92.1304 132.888 90.9667C132.888 89.8029 133.832 88.8595 134.996 88.8595H154.544C155.708 88.8595 156.651 89.803 156.651 90.9667C156.651 92.1304 155.708 93.074 154.544 93.074ZM134.996 80.897C133.901 80.897 133.013 80.0092 133.013 78.9137V59.7704C133.013 58.6751 133.901 57.7871 134.996 57.7871C136.092 57.7871 136.98 58.675 136.98 59.7704V78.9137C136.98 80.0092 136.092 80.897 134.996 80.897Z" fill="#1A5799"/>
<path d="M150.174 118.579H144.217V93.0737H143.164V118.579H137.232C137.113 118.579 136.999 118.626 136.915 118.71C136.831 118.794 136.784 118.908 136.784 119.027C136.784 119.145 136.831 119.259 136.915 119.343C136.999 119.427 137.113 119.475 137.232 119.475H150.174C150.293 119.475 150.407 119.427 150.491 119.343C150.575 119.259 150.622 119.145 150.622 119.027C150.622 118.908 150.575 118.794 150.491 118.71C150.407 118.626 150.293 118.579 150.174 118.579ZM209.611 118.579H215.569V93.0737H216.622V118.579H222.554C222.673 118.579 222.787 118.626 222.871 118.71C222.955 118.794 223.002 118.908 223.002 119.027C223.002 119.145 222.955 119.259 222.871 119.343C222.787 119.427 222.673 119.475 222.554 119.475H209.611C209.493 119.475 209.379 119.427 209.295 119.343C209.211 119.259 209.163 119.145 209.163 119.027C209.163 118.908 209.211 118.794 209.295 118.71C209.379 118.626 209.493 118.579 209.611 118.579ZM225.296 90.2846H224.283V80.4564H225.296V90.2846Z" fill="white"/>
<path d="M205.242 93.074H224.79C225.954 93.074 226.897 92.1304 226.897 90.9667C226.897 89.8029 225.954 88.8595 224.79 88.8595H205.242C204.078 88.8595 203.134 89.803 203.134 90.9667C203.134 92.1304 204.078 93.074 205.242 93.074ZM224.789 80.897C225.884 80.897 226.772 80.0092 226.772 78.9137V59.7704C226.772 58.6751 225.884 57.7871 224.789 57.7871C223.694 57.7871 222.806 58.675 222.806 59.7704V78.9137C222.806 80.0092 223.694 80.897 224.789 80.897Z" fill="#1A5799"/>
<path d="M145.761 80.3635L156.004 79.7884C155.416 81.207 169.852 83.8759 170.951 87.9708C172.22 92.6978 169.724 111.074 170.57 114.567C170.981 116.261 177.183 116.616 177.776 118.131C178.751 120.623 168.741 119.263 167.134 118.35C165.81 117.597 166.747 115.501 166.929 115.124L164.605 90.919C164.605 90.919 149.174 90.397 145.952 87.7641C142.731 85.131 145.761 80.3635 145.761 80.3635Z" fill="#FFCABA"/>
<path d="M174.493 116.57C174.493 116.57 177.604 117.335 175.7 118.197C175.112 118.463 168.301 118.891 166.958 115.066C166.958 115.066 165.41 117.834 166.5 118.772C167.591 119.711 177.154 120.568 177.94 119.366C179.195 117.448 174.493 116.57 174.493 116.57Z" fill="#2A2F47"/>
<path d="M140.392 81.3137L150.382 84.1972C150.382 84.1972 164.431 86.2912 164.659 91.3684C164.847 95.548 158.027 106.311 154.997 111.152C154.696 111.634 154.552 112.197 154.585 112.763C154.617 113.33 154.826 113.873 155.181 114.316C156.606 116.093 158.812 117.831 158.58 118.901C158.011 121.515 150.562 116.217 149.73 114.566C148.976 113.069 151.571 111.123 151.571 111.123L156.216 95.1717C156.216 95.1717 146.471 92.5738 142.439 89.4583C139.147 86.9147 140.392 81.3137 140.392 81.3137Z" fill="#FFD6C9"/>
<path d="M157.021 116.348C157.021 116.348 158.269 117.913 156.18 117.913C154.265 117.913 150.569 115.052 151.57 111.123C151.57 111.123 148.748 112.57 149.136 113.955C149.524 115.341 155.218 120.534 158.098 119.699C160.299 119.061 157.021 116.348 157.021 116.348Z" fill="#2A2F47"/>
<path d="M155.59 57.1825C155.138 52.7724 149.875 54.3169 150.593 49.1395C150.58 49.1736 150.567 49.2081 150.555 49.2428C150.689 48.6165 150.871 47.8409 151.078 46.8142C151.789 43.2885 151.57 39.6268 149.163 39.9168C149.163 39.9168 147.164 38.0725 144.215 39.6268C143.181 40.1723 142.407 40.9854 141.839 41.9548C140.818 43.0879 140.177 44.5767 140.048 46.0977C139.774 47.4443 140.618 48.8448 140.092 50.1296C139.817 50.6428 139.308 50.9786 138.871 51.341C137.958 52.0903 137.309 53.1487 137.023 54.2945C136.607 55.183 136.486 56.2193 136.993 57.5051C137.482 58.7438 137.324 59.7587 137.192 60.7085C136.47 62.5623 137.41 64.8553 139.246 65.658C139.389 65.7898 141.174 66.2742 140.892 65.9114C138.865 65.8986 137.054 64.1909 137.028 62.1444C137.002 61.771 137.064 61.3758 137.152 61.0062C136.992 62.2631 137.005 63.4329 138.813 64.8978C141.25 66.8725 153.858 62.2491 153.858 62.2491C154.971 61.9914 155.515 60.493 155.421 58.7868C155.582 58.2683 155.639 57.7232 155.59 57.1825ZM140.519 49.1458C140.622 50.7632 138.462 51.9616 137.329 53.7409C137.845 52.3467 138.868 51.6011 140.028 50.5351C140.929 49.438 140.078 48.0094 140.171 46.7563C140.114 45.2246 140.646 43.7353 141.535 42.5269C140.596 44.4912 140.379 46.9542 140.519 49.1458ZM154.565 55.7423C153.733 54.2326 151.445 53.859 150.812 52.6146C150.3 51.61 150.237 50.9995 150.417 49.9475C150.344 51.1392 150.994 52.4679 151.944 53.175C152.654 53.7126 153.514 54.0219 154.17 54.6365C155.209 55.5809 155.639 57.0507 155.39 58.4048C155.292 57.5043 155.02 56.5684 154.565 55.7423Z" fill="#2A2D45"/>
<path d="M144.324 41.9246C144.324 41.9246 142.624 43.4362 142.694 44.1788C142.764 44.9214 143.044 46.2259 142.752 47.6294C142.346 49.5793 141.447 50.1846 140.5 51.3635C138.41 53.9658 137.865 56.6142 139.495 60.4906C141.872 66.1418 153.412 59.1162 153.412 59.1162C153.412 59.1162 151.131 56.3151 148.902 54.3775C147.036 52.7562 147.457 50.9766 148.31 49.9474C149.162 48.9182 144.324 41.9246 144.324 41.9246Z" fill="#171A2B"/>
<path d="M162.896 48.833C162.896 48.833 163.521 47.7951 163.521 47.1696C163.521 46.5441 163.478 45.691 163.947 45.4921C164.417 45.2932 164.414 47.0095 164.715 46.8711C165.521 46.5015 166.84 43.3027 167.38 43.7293C167.921 44.1558 167.089 47.3973 165.739 48.5772C164.98 49.2398 164.933 50.0747 164.933 50.0747L162.896 48.833Z" fill="#FFD6C9"/>
<path d="M146.471 53.4107L157.042 60.5761L162.85 48.4019L165.521 49.5422C165.521 49.5422 161.947 63.0454 158.697 64.6372C156.286 65.8177 148.668 63.498 148.668 63.498L146.471 53.4107Z" fill="white"/>
<path d="M156.27 89.4069L151.581 90.0324L147.134 54.3773L153.12 59.1541C154.049 71.1501 156.27 89.4069 156.27 89.4069Z" fill="white"/>
<path d="M139.778 82.2365C139.969 84.1366 140.624 85.7389 141.551 86.5244L154.717 86.2597C154.016 85.3315 151.835 71.1719 153.468 63.6931C153.667 62.7826 153.927 62.0757 153.927 61.4268C153.577 55.5058 144.457 56.4673 146.382 48.8331C146.404 48.7203 144.937 48.0909 144.753 47.9231C143.564 50.0324 143.293 51.5534 141.767 53.1876C135.566 58.7272 145.968 69.5184 142.788 73.3057C140.268 75.761 139.487 79.3447 139.778 82.2365Z" fill="#52A1FA"/>
<path d="M141.767 53.1876C144.029 52.0621 147.409 57.0622 149.825 56.1315C147.567 54.1442 145.896 53.9808 146.853 49.2614C146.876 49.1487 144.215 47.3462 143.795 47.1C143.163 49.8612 142.463 51.9699 141.767 53.1876Z" fill="#FFD6C9"/>
<path d="M148.615 40.2953C149.264 40.6464 150.341 42.6997 150.421 44.4551C150.474 45.5994 150.742 49.5495 148.75 50.1372C146.245 50.8764 143.795 48.1611 143.564 46.5315C142.91 46.3345 141.838 44.6696 142.933 43.8535C143.715 43.2706 144.649 45.0077 144.438 44.4208C143.713 42.4023 145.981 38.7288 148.615 40.2953Z" fill="#FFD6C9"/>
<path d="M143.785 44.6968C143.769 44.4632 143.466 43.9432 142.997 44.3006C142.528 44.658 142.812 45.2483 143.176 45.7494C143.436 46.1068 143.816 46.0979 143.794 45.8254C143.781 45.671 143.704 45.5283 143.651 45.3959C143.613 45.3005 143.814 45.1413 143.785 44.6968Z" fill="#F0BFAE"/>
<path d="M150.079 48.6855C150.554 47.6588 150.579 46.1685 150.436 44.8445C150.31 43.6689 150.053 42.6239 149.864 42.1509C149.558 41.3886 149.048 41.0551 148.818 40.9382C148.78 40.9184 148.741 40.9009 148.7 40.8858C148.662 40.5451 148.481 39.9426 149.694 40.2747C151.21 40.689 151.115 43.2887 151.229 44.8045C151.43 47.491 150.118 48.652 150.079 48.6855Z" fill="#2A2D45"/>
<path d="M150.436 44.8445C150.31 43.6689 150.053 42.6239 149.864 42.1509C149.558 41.3886 149.048 41.0552 148.818 40.9382C149.02 40.7558 149.079 40.4195 149.077 40.0187C149.362 40.4357 149.289 40.5073 149.343 40.768C149.462 41.3397 150.347 41.9247 150.463 42.7909C150.559 43.5096 150.497 44.1623 150.436 44.8445Z" fill="#171A2B"/>
<path d="M163.635 62.9076C162.675 64.4393 158.147 65.3279 158.147 65.3279C158.147 65.3279 148.277 73.9407 146.092 73.9407C143.447 73.9407 139.535 62.779 139.268 58.5872C139.128 56.395 141.031 53.7537 143.837 55.5906C146.643 57.4275 147.466 68.4801 147.466 68.4801C147.466 68.4801 153.848 65.5496 156.193 63.9489C156.677 63.6182 156.99 63.3443 157.038 63.1649C157.172 62.6707 157.778 61.0119 158.119 60.5571C158.46 60.1022 158.775 61.2685 158.574 61.8854C157.834 64.1582 165.398 60.0927 163.635 62.9076Z" fill="#FFD6C9"/>
<path d="M146.07 56.7031C146.017 56.7147 145.982 56.6544 145.977 56.4946C146.01 56.5629 146.041 56.6326 146.07 56.7031Z" fill="#171A2B"/>
<path d="M150.444 49.5081L150.418 49.4818C150.38 49.4722 150.457 49.5469 150.444 49.5081Z" fill="#47331E"/>
<path d="M149.39 51.3636C149.39 51.3636 149.38 53.949 151.702 54.9736C154.025 55.9982 154.195 58.0169 154.195 58.0169C154.195 58.0169 153.541 56.311 152.034 55.8844C150.527 55.458 148.643 54.1752 149.39 51.3636Z" fill="#171A2B"/>
<path d="M140.617 78.7531C136.67 89.5634 147.219 93.6835 156.216 95.1718C156.216 92.826 164.933 86.3627 168.277 85.1388C166.632 83.7875 154.074 79.5737 153.053 77.8433L140.617 78.7531Z" fill="#52A1FA"/>
<path d="M147.25 55.582C147.25 55.582 150.065 58.9271 148.647 64.4572C147.229 69.9873 149.959 90.0325 149.959 90.0325C146.015 91.2312 141.837 91.1385 138.811 90.8824C138.811 90.8824 135.4 82.9002 138.443 77.5788C142.964 69.6744 140.242 65.8325 139.317 59.1266C138.872 55.8958 141.767 53.0126 141.767 53.0126C143.533 53.0004 145.884 53.7999 147.25 55.582Z" fill="white"/>
<path d="M158.033 66.1202C155.66 68.2289 148.276 73.9407 146.092 73.9407C143.447 73.9407 139.535 62.779 139.268 58.5872C139.127 56.395 141.031 53.7537 143.837 55.5906C146.643 57.4275 147.466 68.4801 147.466 68.4801C147.466 68.4801 153.848 65.5496 156.193 63.9489L158.033 66.1202Z" fill="white"/>
<path d="M146.665 73.1433C144.021 73.1433 140.109 61.9816 139.842 57.7897C139.797 57.0959 139.958 56.3576 140.287 55.7301C139.581 56.4482 139.202 57.5662 139.268 58.5873C139.535 62.7793 143.447 73.9408 146.091 73.9408C148.276 73.9408 155.66 68.229 158.033 66.1204L157.885 65.9452C154.995 68.3766 148.662 73.1433 146.665 73.1433Z" fill="#E6E8F0"/>
<path d="M148.807 40.0801C148.629 39.7851 147.809 39.6848 147.115 39.6348C144.532 39.4503 143.182 43.4372 143.503 45.6479C144.127 49.9476 141.856 48.937 141.561 51.7803C141.477 52.5978 141.533 53.1915 141.691 53.6608C141.638 54.2064 141.797 54.7711 142.183 55.1786C143.229 56.1385 144.572 56.839 145.107 58.2472C144.929 57.4719 144.183 56.6415 143.511 56.1059C142.639 55.553 141.875 54.8452 141.808 53.9478C142.182 54.7268 142.885 55.1474 143.684 55.8371C145.751 57.6187 146.3 59.4578 146.3 59.4578C146.557 58.3316 146.392 57.4582 146.07 56.7032C146.041 56.6329 146.01 56.5633 145.977 56.4947C145.787 56.0915 145.557 55.7194 145.333 55.3582C144.588 54.1572 143.9 53.065 144.898 51.2688C145.279 50.5821 145.532 50.0226 145.691 49.5393C145.745 49.375 145.789 49.2196 145.823 49.0714C145.912 48.889 145.992 48.702 146.061 48.5112C146.716 47.0186 145.71 45.5357 145.821 44.0207C145.956 42.3204 147.281 41.29 148.666 40.886C146.894 41.1294 145.54 42.8508 145.691 44.628C145.784 45.7958 146.392 46.9402 146.045 48.1203C146.007 48.2658 145.962 48.4094 145.91 48.5504C146.037 47.2753 145.491 46.3837 145.466 44.1791C145.43 40.9719 148.319 40.8847 148.666 40.886H148.7C148.7 40.886 149.071 40.5176 148.807 40.0801Z" fill="#2A2D45"/>
<path d="M144.898 51.2686C143.9 53.0649 144.588 54.1569 145.333 55.3581C144.681 54.5879 143.772 53.647 143.795 52.3586C143.829 50.3974 145.644 49.5436 145.644 49.4832L145.691 49.5392C145.532 50.0225 145.279 50.5819 144.898 51.2686ZM147.637 39.7534C146.912 39.5519 145.509 39.3275 144.629 41.341C145.237 40.484 146.575 39.5969 147.637 39.7534Z" fill="#171A2B"/>
<path d="M218.106 47.224C217.832 45.5273 216.812 43.9811 214.974 43.3576C213.709 42.5248 211.849 42.5354 210.648 43.397C207.856 44.6045 208.49 48.3286 208.49 48.3286L214.653 53.2315C214.863 53.179 215.069 53.1109 215.269 53.0278C215.277 53.0286 215.285 53.027 215.293 53.0233C215.341 53.0007 215.389 52.9769 215.438 52.9526C215.78 52.7922 216.1 52.587 216.388 52.3423C217.921 51.1281 218.914 49.095 218.106 47.224ZM217.503 50.9463C218.088 49.8558 218.301 48.5367 218.115 47.2919C218.524 48.5675 218.223 49.8674 217.503 50.9463ZM210.804 43.3335C211.935 42.6877 213.37 42.6415 214.533 43.2295C214.383 43.1927 214.23 43.1623 214.077 43.1384C212.667 42.9197 211.604 43.0282 210.804 43.3335Z" fill="#2A2F47"/>
<path d="M221.232 80.7332C222.329 85.493 222.544 85.8635 219.425 90.5503L206.074 92.1236C206.074 92.1236 207.212 86.5547 206.022 84.401C205.955 84.2751 205.868 84.1605 205.765 84.0616C203.723 82.1126 202.845 79.5662 202.93 77.0492C202.951 76.4387 203.027 75.8313 203.157 75.2345C203.481 73.7554 204.134 72.3415 205.072 71.1285L205.073 71.1273C205.575 70.4773 206.156 69.8922 206.802 69.3857C207.611 68.7529 207.764 68.1175 207.664 67.4304C207.486 66.2113 206.672 65.2023 207.135 63.3728C207.863 60.4948 210.3 59.4815 211.607 58.2737C212.103 57.8141 212.413 57.2726 212.361 56.4949C212.21 54.2234 211.019 51.6706 211.019 51.6706L215.062 50.2296C215.062 50.2296 215.497 55.1688 217.922 56.1242C217.981 56.1471 218.041 56.1694 218.103 56.191C218.54 56.3423 219.047 56.4821 219.583 56.6637C221.146 57.1911 222.952 58.0667 223.939 60.5805C225.519 64.6046 218.518 68.7895 219.013 73.2135C219.027 73.3386 219.047 73.4629 219.072 73.5862C219.503 75.6491 221.124 80.2625 221.232 80.7332Z" fill="#FF6A61"/>
<path d="M211.456 67.7614C211.449 67.7932 211.048 68.6561 210.22 69.2411C208.785 70.2555 206.42 69.7009 205.073 71.1274C205.575 70.4773 206.156 69.8923 206.802 69.3858C207.611 68.7529 207.765 68.1176 207.664 67.4304L208.432 67.9776C208.495 67.9496 210.025 69.3188 211.456 67.7614ZM219.072 73.5865C219.503 75.6491 220.885 78.6692 220.885 78.6692L212.776 73.4486C218.121 74.5269 218.983 70.7097 217.827 69.3175C212.665 70.7648 212.239 68.1097 212.239 68.1097C214.331 70.5974 218.881 68.9068 217.839 65.6001C216.798 62.2934 217.676 59.5209 217.676 59.5209L219.583 56.6639C221.146 57.1913 222.952 58.0669 223.939 60.5807C225.534 64.6423 218.387 68.8679 219.029 73.3377C219.041 73.4206 219.055 73.5037 219.072 73.5865Z" fill="#EB544B"/>
<path d="M218.104 56.1914C217.961 56.2319 217.815 56.276 217.666 56.3243C215.524 57.0239 215.988 60.2013 214.08 60.9808C213.771 61.107 213.4 61.1698 212.945 61.15C210.644 61.0479 211.153 59.4254 211.607 58.2741C212.103 57.8144 212.413 57.273 212.361 56.4952C212.341 56.2012 212.306 55.9084 212.257 55.6178C211.925 53.6141 211.019 51.671 211.019 51.671L215.062 50.2299C215.062 50.2299 215.497 55.1692 217.922 56.1246C217.981 56.1476 218.042 56.1698 218.104 56.1914Z" fill="#F5CDC2"/>
<path d="M218.104 56.1914C217.961 56.2319 217.815 56.276 217.666 56.3243C215.524 57.0239 215.988 60.2013 214.08 60.9808C214.092 59.3113 218.769 55.0604 214.523 54.9869C213.41 54.9677 212.799 55.6783 212.258 55.6178C211.925 53.6141 211.02 51.671 211.02 51.671L215.062 50.2299C215.062 50.2299 215.497 55.1692 217.922 56.1246C217.981 56.1476 218.042 56.1698 218.104 56.1914Z" fill="#EBB8AC"/>
<path d="M208.191 66.871C208.866 66.9968 210.544 67.5743 210.206 68.7374C209.869 69.9006 206.438 69.4518 205.862 70.2379C205.285 71.0238 204.491 66.1807 208.191 66.871ZM216.5 48.2799C215.756 48.2883 215.854 48.9238 215.854 48.9245C215.62 47.5785 215.005 46.7981 215.005 46.7981C212.976 45.5335 210.216 44.212 209.313 45.762C207.071 49.6093 209.335 54.4332 210.996 54.6156C212.818 54.8157 215.433 53.9184 215.951 51.2963C215.97 51.1997 215.971 51.1005 215.978 51.0027C216.662 51.2328 217.055 50.4348 217.155 49.9298C217.216 49.6194 217.389 48.2701 216.5 48.2799Z" fill="#FFDED4"/>
<path d="M219.778 43.8662C219.673 43.2402 219.192 42.4636 218.627 42.2135C218.275 41.9199 217.828 41.7257 217.292 41.7034C215.433 41.6259 215.203 42.5701 215.237 43.1554C214.796 42.0317 216.154 41.5679 217.199 41.7C215.934 41.3346 214.361 42.2559 215.302 43.5501C215.312 43.5833 215.318 43.6017 215.318 43.6017L217.721 45.9021C218.45 45.9899 218.95 45.7402 219.241 45.3248C219.317 45.3074 219.454 45.0888 219.49 45.0462C219.475 46.0173 218.307 46.1604 217.567 45.9506C217.508 45.9482 217.47 46.0304 217.534 46.0583C218.318 46.3546 219.663 46.0267 219.53 44.9884C219.765 44.6637 219.851 44.2594 219.778 43.8662ZM219.616 44.5647C219.58 44.675 219.523 44.7737 219.46 44.8689C219.693 44.1129 219.472 43.1122 218.862 42.4395C219.465 42.9587 219.858 43.7892 219.616 44.5647Z" fill="#2A2F47"/>
<path d="M213.52 47.5404C213.516 47.5404 213.516 47.5465 213.52 47.5465C213.524 47.5465 213.524 47.5404 213.52 47.5404ZM213.938 47.4764C213.934 47.4764 213.934 47.4825 213.938 47.4825C213.942 47.4825 213.942 47.4764 213.938 47.4764Z" fill="#2E2011"/>
<path d="M215.761 48.0366C215.307 46.4878 213.089 43.8177 209.992 44.5342C209.992 44.5342 209.716 44.9066 209.637 45.4225C209.341 46.1513 209.621 46.975 210.205 47.4729C211.432 48.5963 213.685 48.3984 214.358 50.1396C214.238 49.1907 212.979 48.6271 212.112 48.3116C210.866 47.9463 209.682 47.1741 209.658 46.0679C209.792 46.6313 210.266 47.2448 211.487 47.712C214.692 48.9385 215.084 50.4717 214.983 52.1498C215.624 51.2592 216.228 49.629 215.761 48.0366Z" fill="#2A2F47"/>
<path d="M220.928 81.0308C224.978 92.1237 215.459 93.0772 204.679 95.4997C204.679 93.0927 197.623 87.0259 191.838 86.1063C193.656 84.7636 202.152 81.6417 203.325 80.1163L220.928 81.0308Z" fill="#FF6A61"/>
<path d="M223.297 59.0792C225.38 61.135 228.524 73.2888 226.803 76.0725C224.831 79.2598 214.647 81.1347 214.647 81.1347C210.047 86.3928 205.673 82.2269 208.255 80.9214C209.835 80.4176 211.09 80.3974 211.071 79.8974C211.062 79.6599 209.239 79.9434 209.521 79.1436C209.676 78.7019 210.736 78.4132 211.844 78.3595C212.694 78.3181 213.272 78.4685 213.818 78.2881C214.365 78.1076 222.51 74.4218 222.248 73.2247C221.987 72.0277 218.71 65.8842 217.963 61.4506C217.489 58.6425 220.548 56.3674 223.297 59.0792Z" fill="#FFDED4"/>
<path d="M217.359 76.4536C217.583 76.4939 217.851 76.4637 218.285 76.3404C219.723 75.931 222.014 74.0668 222.652 74.0278C223.457 73.9784 223.901 73.5884 223.951 73.5517C223.911 73.5722 222.631 73.843 222.488 73.3579C222.272 72.6238 220.919 69.6406 220.872 69.5613C221.532 71.3879 222.081 72.8227 222.189 73.3161C222.344 74.0293 219.666 75.4126 217.359 76.4536Z" fill="#F5CDC1"/>
<path d="M216.511 80.7333C219.377 80.2072 224.775 79.0033 226.71 77.1192C228.098 75.7677 227.109 69.2958 225.675 64.4095C225.63 65.4226 226.034 67.162 226.359 69.9592C226.79 73.6787 226.823 76.7435 223.736 78.0547C220.897 79.2603 216.577 80.7071 216.511 80.7333Z" fill="#F5CDC1"/>
<path d="M94.0259 79.053H94.8996V119.727H94.0259V79.053ZM111.676 79.053H112.55V119.727H111.676V79.053ZM180.92 79.053H181.794V119.727H180.92V79.053ZM165.534 79.053H166.408V119.727H165.534V79.053Z" fill="white"/>
<path d="M89.657 76.4703H185.916V81.6355H89.657V76.4703Z" fill="#1A5799"/>
<path d="M166.408 76.4703H185.917V81.6355H166.408V76.4703Z" fill="#164980"/>
<path d="M134.257 71.6014H113.262C112.991 71.6014 112.729 71.5059 112.522 71.3316C112.314 71.1573 112.175 70.9153 112.128 70.6484L109.873 57.7681C109.75 57.0634 110.292 56.418 111.007 56.418H132.002C132.273 56.418 132.535 56.5136 132.743 56.6879C132.95 56.8622 133.089 57.1041 133.136 57.371L135.391 70.2511C135.514 70.9558 134.972 71.6014 134.257 71.6014Z" fill="white"/>
<path d="M135.231 70.2811H121.308C116.66 70.2811 112.684 66.941 111.883 62.3626L110.847 56.448C110.846 56.442 110.846 56.4364 110.845 56.4304C110.212 56.5193 109.759 57.1179 109.873 57.7681L112.128 70.6482C112.175 70.9152 112.314 71.1571 112.521 71.3314C112.729 71.5057 112.991 71.6012 113.262 71.6012H134.257C134.966 71.6012 135.504 70.9663 135.393 70.2685C135.339 70.2766 135.285 70.2808 135.231 70.2811Z" fill="#E6E9F5"/>
<path d="M123.416 75.1278H118.275L120.351 66.9734H125.492L123.416 75.1278Z" fill="white"/>
<path d="M128.369 76.4703H114.579C114.579 75.5888 115.294 74.8743 116.175 74.8743H126.773C127.655 74.8745 128.369 75.589 128.369 76.4703ZM110.93 74.9138V76.2136H107.152C106.98 76.2135 106.814 76.1451 106.693 76.0233C106.571 75.9015 106.502 75.7363 106.502 75.564C106.502 75.2055 106.794 74.9138 107.152 74.9138H110.93Z" fill="white"/>
<path d="M107.152 74.9137C106.585 74.9137 106.185 75.644 106.843 76.2135H110.93V76.4704H100.244C100.208 76.4704 100.172 76.4632 100.138 76.4493C100.105 76.4354 100.074 76.415 100.049 76.3893C100.023 76.3637 100.003 76.3332 99.9887 76.2996C99.9748 76.266 99.9676 76.2301 99.9677 76.1938V74.9335C99.9677 74.7808 100.091 74.6569 100.244 74.6569H110.93V74.9137H107.152Z" fill="#46BDA9"/>
<path d="M107.109 74.9152C107.123 74.9143 107.137 74.9137 107.152 74.9137H110.93V74.6569H107.397C107.277 74.712 107.177 74.802 107.109 74.9152Z" fill="#036E91"/>
<path d="M106.779 76.1548H101.616C101.315 76.1548 101.027 76.0354 100.815 75.8229C100.602 75.6103 100.483 75.3221 100.483 75.0216V74.6569H100.244C100.171 74.6569 100.1 74.686 100.049 74.7378C99.9968 74.7897 99.9677 74.86 99.9677 74.9333V76.1936C99.9677 76.3463 100.091 76.4701 100.244 76.4701H110.93V76.2133H106.843C106.821 76.1945 106.8 76.175 106.779 76.1548Z" fill="#33A390"/>
<path d="M106.502 75.564C106.502 75.7363 106.57 75.9015 106.692 76.0233C106.814 76.1451 106.979 76.2136 107.152 76.2136H110.93V76.4705H107.152C106.911 76.4703 106.681 76.3747 106.511 76.2048C106.341 76.0348 106.245 75.8044 106.245 75.564C106.245 75.3236 106.341 75.093 106.511 74.923C106.681 74.753 106.911 74.6573 107.152 74.6571H110.93V74.9139H107.152C106.979 74.9141 106.814 74.9826 106.692 75.1045C106.57 75.2264 106.502 75.3916 106.502 75.564Z" fill="#33A390"/>
<path d="M103.797 74.6569H104.041V76.4702H103.797V74.6569ZM103.189 74.6569H103.432V76.4702H103.189V74.6569Z" fill="white"/>
<path d="M105.095 76.1879C105.386 76.1879 105.622 75.952 105.622 75.661C105.622 75.37 105.386 75.1341 105.095 75.1341C104.804 75.1341 104.568 75.37 104.568 75.661C104.568 75.952 104.804 76.1879 105.095 76.1879Z" fill="white"/>
<path d="M109.112 75.1759H107.125C107.112 75.1759 107.1 75.1708 107.091 75.1616C107.081 75.1525 107.076 75.1401 107.076 75.1271C107.076 75.1142 107.081 75.1018 107.091 75.0926C107.1 75.0835 107.112 75.0783 107.125 75.0783H109.112C109.119 75.0783 109.125 75.0796 109.131 75.082C109.137 75.0845 109.142 75.0881 109.147 75.0926C109.151 75.0971 109.155 75.1025 109.157 75.1084C109.16 75.1144 109.161 75.1207 109.161 75.1271C109.161 75.1335 109.16 75.1399 109.157 75.1458C109.155 75.1517 109.151 75.1571 109.147 75.1616C109.142 75.1661 109.137 75.1697 109.131 75.1722C109.125 75.1746 109.119 75.1759 109.112 75.1759ZM110.54 76.1028H108.285C108.272 76.1028 108.26 76.0976 108.251 76.0885C108.242 76.0793 108.237 76.0669 108.237 76.0539C108.237 76.041 108.242 76.0286 108.251 76.0194C108.26 76.0103 108.272 76.0052 108.285 76.0052H110.54C110.553 76.0052 110.566 76.0103 110.575 76.0194C110.584 76.0286 110.589 76.041 110.589 76.0539C110.589 76.0669 110.584 76.0793 110.575 76.0885C110.566 76.0976 110.553 76.1028 110.54 76.1028ZM109.112 75.6494H107.875C107.862 75.6494 107.85 75.6442 107.84 75.6351C107.831 75.6259 107.826 75.6135 107.826 75.6006C107.826 75.5876 107.831 75.5752 107.84 75.5661C107.85 75.5569 107.862 75.5518 107.875 75.5518H109.112C109.119 75.5518 109.125 75.553 109.131 75.5555C109.137 75.5579 109.142 75.5615 109.147 75.5661C109.151 75.5706 109.155 75.576 109.157 75.5819C109.16 75.5878 109.161 75.5942 109.161 75.6006C109.161 75.607 109.16 75.6133 109.157 75.6193C109.155 75.6252 109.151 75.6305 109.147 75.6351C109.142 75.6396 109.137 75.6432 109.131 75.6457C109.125 75.6481 109.119 75.6494 109.112 75.6494ZM107.632 75.6492H107.103C107.09 75.6492 107.078 75.6441 107.068 75.6349C107.059 75.6258 107.054 75.6134 107.054 75.6004C107.054 75.5875 107.059 75.5751 107.068 75.5659C107.078 75.5568 107.09 75.5516 107.103 75.5516H107.632C107.638 75.5516 107.645 75.5529 107.651 75.5553C107.656 75.5578 107.662 75.5614 107.666 75.5659C107.671 75.5704 107.674 75.5758 107.677 75.5818C107.679 75.5877 107.681 75.594 107.681 75.6004C107.681 75.6068 107.679 75.6132 107.677 75.6191C107.674 75.625 107.671 75.6304 107.666 75.6349C107.662 75.6395 107.656 75.6431 107.651 75.6455C107.645 75.648 107.638 75.6492 107.632 75.6492ZM110.326 75.6492H109.797C109.784 75.6492 109.772 75.6441 109.762 75.6349C109.753 75.6258 109.748 75.6134 109.748 75.6004C109.748 75.5875 109.753 75.5751 109.762 75.5659C109.772 75.5568 109.784 75.5516 109.797 75.5516H110.326C110.332 75.5516 110.339 75.5529 110.345 75.5553C110.351 75.5578 110.356 75.5614 110.36 75.5659C110.365 75.5704 110.369 75.5758 110.371 75.5818C110.373 75.5877 110.375 75.594 110.375 75.6004C110.375 75.6068 110.373 75.6132 110.371 75.6191C110.369 75.625 110.365 75.6304 110.36 75.6349C110.356 75.6395 110.351 75.6431 110.345 75.6455C110.339 75.648 110.332 75.6492 110.326 75.6492ZM109.965 75.2247H109.797C109.784 75.2247 109.771 75.2196 109.762 75.2104C109.753 75.2013 109.748 75.1889 109.748 75.1759C109.748 75.163 109.753 75.1506 109.762 75.1414C109.771 75.1323 109.784 75.1271 109.797 75.1271H109.965C109.977 75.1271 109.99 75.1323 109.999 75.1414C110.008 75.1506 110.013 75.163 110.013 75.1759C110.013 75.1889 110.008 75.2013 109.999 75.2104C109.99 75.2196 109.977 75.2247 109.965 75.2247ZM108.028 76.1028H107.86C107.847 76.1028 107.835 76.0976 107.825 76.0885C107.816 76.0793 107.811 76.0669 107.811 76.0539C107.811 76.041 107.816 76.0286 107.825 76.0194C107.835 76.0103 107.847 76.0052 107.86 76.0052H108.028C108.041 76.0052 108.053 76.0103 108.062 76.0194C108.071 76.0286 108.076 76.041 108.076 76.0539C108.076 76.0669 108.071 76.0793 108.062 76.0885C108.053 76.0976 108.041 76.1028 108.028 76.1028ZM110.806 75.6492H110.638C110.625 75.6492 110.613 75.6441 110.603 75.6349C110.594 75.6258 110.589 75.6134 110.589 75.6004C110.589 75.5875 110.594 75.5751 110.603 75.5659C110.613 75.5568 110.625 75.5516 110.638 75.5516H110.806C110.833 75.5516 110.854 75.5735 110.854 75.6004C110.854 75.6068 110.853 75.6132 110.851 75.6191C110.848 75.6251 110.845 75.6304 110.84 75.635C110.836 75.6395 110.83 75.6431 110.824 75.6456C110.818 75.648 110.812 75.6493 110.806 75.6492Z" fill="#E6E8F0"/>
<path d="M109.257 75.3789V75.9433L109.544 75.7438L109.831 75.9433V75.3789H109.257Z" fill="#C24E4E"/>
<path d="M101.964 73.1725V74.4724H105.743C105.915 74.4723 106.08 74.4039 106.202 74.2821C106.324 74.1603 106.393 73.9951 106.393 73.8228C106.393 73.4643 106.101 73.1725 105.743 73.1725H101.964Z" fill="white"/>
<path d="M105.743 73.1725C106.31 73.1725 106.71 73.9028 106.052 74.4724H101.964V74.7292H112.725C112.836 74.7292 112.927 74.6387 112.927 74.5272V73.1178C112.927 73.0062 112.836 72.9157 112.725 72.9157H101.964V73.1725H105.743Z" fill="#FFBC47"/>
<path d="M105.919 73.197C105.858 73.1245 105.782 73.0662 105.696 73.0262C105.611 72.9863 105.517 72.9656 105.422 72.9656H101.964V73.1725H105.743C105.804 73.1725 105.863 73.1812 105.919 73.197Z" fill="#FFB32E"/>
<path d="M112.725 72.9159H112.607V73.6003C112.607 73.7214 112.583 73.8413 112.536 73.9532C112.49 74.065 112.422 74.1666 112.337 74.2523C112.251 74.3379 112.149 74.4058 112.037 74.4521C111.926 74.4984 111.806 74.5223 111.685 74.5223H101.964V74.7293H112.725C112.836 74.7293 112.927 74.6388 112.927 74.5272V73.1178C112.927 73.0062 112.837 72.9159 112.725 72.9159Z" fill="#FFB129"/>
<path d="M106.393 73.8228C106.393 73.9951 106.324 74.1603 106.202 74.2821C106.08 74.4039 105.915 74.4724 105.743 74.4724H101.964V74.7293H105.743C105.983 74.7291 106.214 74.6335 106.384 74.4636C106.554 74.2936 106.649 74.0632 106.65 73.8228C106.649 73.5823 106.554 73.3518 106.384 73.1818C106.214 73.0118 105.983 72.9161 105.743 72.9159H101.964V73.1727H105.743C105.915 73.1729 106.08 73.2414 106.202 73.3633C106.324 73.4852 106.393 73.6504 106.393 73.8228Z" fill="#FFCD75"/>
<path d="M109.097 74.7291H108.854V72.9157H109.097V74.7291ZM109.705 74.7291H109.462V72.9157H109.705V74.7291ZM107.269 73.8225C107.269 73.6905 107.322 73.564 107.415 73.4707C107.508 73.3774 107.635 73.325 107.767 73.325C107.899 73.325 108.025 73.3774 108.119 73.4707C108.212 73.564 108.264 73.6905 108.264 73.8225C108.264 73.9544 108.212 74.0809 108.119 74.1742C108.025 74.2675 107.899 74.32 107.767 74.32C107.635 74.32 107.508 74.2675 107.415 74.1742C107.322 74.0809 107.269 73.9544 107.269 73.8225Z" fill="white"/>
<path d="M104.361 73.4214H102.136C102.123 73.4214 102.11 73.4163 102.101 73.4071C102.092 73.398 102.087 73.3855 102.087 73.3726C102.087 73.3597 102.092 73.3472 102.101 73.3381C102.11 73.3289 102.123 73.3238 102.136 73.3238H104.361C104.388 73.3238 104.41 73.3457 104.41 73.3726C104.41 73.379 104.409 73.3854 104.406 73.3913C104.404 73.3972 104.4 73.4026 104.396 73.4072C104.391 73.4117 104.386 73.4153 104.38 73.4177C104.374 73.4202 104.368 73.4214 104.361 73.4214ZM105.952 74.3481H103.429C103.416 74.3481 103.403 74.343 103.394 74.3338C103.385 74.3247 103.38 74.3122 103.38 74.2993C103.38 74.2864 103.385 74.2739 103.394 74.2648C103.403 74.2556 103.416 74.2505 103.429 74.2505H105.952C105.959 74.2505 105.965 74.2518 105.971 74.2542C105.977 74.2567 105.982 74.2603 105.987 74.2648C105.991 74.2693 105.995 74.2747 105.997 74.2806C106 74.2865 106.001 74.2929 106.001 74.2993C106.001 74.3057 106 74.312 105.997 74.318C105.995 74.3239 105.991 74.3293 105.987 74.3338C105.982 74.3383 105.977 74.3419 105.971 74.3444C105.965 74.3468 105.959 74.3481 105.952 74.3481ZM104.361 73.8947H102.971C102.958 73.8947 102.946 73.8896 102.937 73.8804C102.928 73.8713 102.922 73.8589 102.922 73.8459C102.922 73.833 102.928 73.8206 102.937 73.8114C102.946 73.8023 102.958 73.7971 102.971 73.7971H104.361C104.388 73.7971 104.41 73.819 104.41 73.8459C104.41 73.8523 104.409 73.8587 104.406 73.8646C104.404 73.8706 104.4 73.876 104.396 73.8805C104.391 73.8851 104.386 73.8887 104.38 73.8911C104.374 73.8935 104.368 73.8948 104.361 73.8947ZM102.711 73.8947H102.111C102.098 73.8947 102.086 73.8896 102.076 73.8804C102.067 73.8713 102.062 73.8589 102.062 73.8459C102.062 73.833 102.067 73.8206 102.076 73.8114C102.086 73.8023 102.098 73.7971 102.111 73.7971H102.711C102.724 73.7971 102.737 73.8023 102.746 73.8114C102.755 73.8206 102.76 73.833 102.76 73.8459C102.76 73.8589 102.755 73.8713 102.746 73.8804C102.737 73.8896 102.724 73.8947 102.711 73.8947ZM105.713 73.8947H105.113C105.1 73.8947 105.087 73.8896 105.078 73.8804C105.069 73.8713 105.064 73.8589 105.064 73.8459C105.064 73.833 105.069 73.8206 105.078 73.8114C105.087 73.8023 105.1 73.7971 105.113 73.7971H105.713C105.726 73.7971 105.739 73.8023 105.748 73.8114C105.757 73.8206 105.762 73.833 105.762 73.8459C105.762 73.8589 105.757 73.8713 105.748 73.8804C105.739 73.8896 105.726 73.8947 105.713 73.8947ZM105.364 73.4214H105.166C105.153 73.4214 105.141 73.4163 105.132 73.4071C105.123 73.398 105.117 73.3855 105.117 73.3726C105.117 73.3597 105.123 73.3472 105.132 73.3381C105.141 73.3289 105.153 73.3238 105.166 73.3238H105.364C105.377 73.3238 105.39 73.3289 105.399 73.3381C105.408 73.3472 105.413 73.3597 105.413 73.3726C105.413 73.3855 105.408 73.398 105.399 73.4071C105.39 73.4163 105.377 73.4214 105.364 73.4214ZM103.153 74.3481H102.955C102.942 74.3481 102.929 74.343 102.92 74.3338C102.911 74.3247 102.906 74.3122 102.906 74.2993C102.906 74.2864 102.911 74.2739 102.92 74.2648C102.929 74.2556 102.942 74.2505 102.955 74.2505H103.153C103.159 74.2505 103.165 74.2518 103.171 74.2542C103.177 74.2567 103.183 74.2603 103.187 74.2648C103.192 74.2693 103.195 74.2747 103.198 74.2806C103.2 74.2865 103.201 74.2929 103.201 74.2993C103.201 74.3057 103.2 74.312 103.198 74.318C103.195 74.3239 103.192 74.3293 103.187 74.3338C103.183 74.3383 103.177 74.3419 103.171 74.3444C103.165 74.3468 103.159 74.3481 103.153 74.3481ZM106.248 73.8947H106.05C106.037 73.8947 106.025 73.8896 106.016 73.8804C106.006 73.8713 106.001 73.8589 106.001 73.8459C106.001 73.833 106.006 73.8206 106.016 73.8114C106.025 73.8023 106.037 73.7971 106.05 73.7971H106.248C106.261 73.7971 106.273 73.8023 106.283 73.8114C106.292 73.8206 106.297 73.833 106.297 73.8459C106.297 73.8589 106.292 73.8713 106.283 73.8804C106.273 73.8896 106.261 73.8947 106.248 73.8947Z" fill="#E6E8F0"/>
<path d="M105.011 73.5385V74.1065L104.757 73.9058L104.502 74.1065V73.5385H105.011Z" fill="#C24E4E"/>
<path d="M111.001 72.8705C110.945 72.8504 101.622 72.9086 101.582 72.8507C101.354 72.7435 101.165 72.5684 101.041 72.3494H101.039V71.158H101.04C101.172 70.9251 101.377 70.742 101.624 70.6371H110.984C110.763 71.3607 110.849 72.1413 111.001 72.8705Z" fill="white"/>
<path d="M111.144 72.6246C111.169 72.6498 111.187 72.682 111.194 72.717C111.201 72.7521 111.197 72.7884 111.183 72.8214C111.17 72.8545 111.147 72.8827 111.117 72.9025C111.087 72.9224 111.052 72.9329 111.016 72.9329H101.926C101.748 72.9331 101.573 72.8941 101.412 72.8188C101.397 72.8118 101.382 72.8045 101.367 72.7967C101.355 72.7903 101.343 72.7841 101.331 72.7771C101.318 72.77 101.306 72.7626 101.294 72.7548C101.283 72.7485 101.273 72.7419 101.262 72.7351C101.251 72.7278 101.241 72.7207 101.23 72.7131L101.203 72.6932C101.185 72.6798 101.167 72.6658 101.15 72.6512C101.141 72.644 101.133 72.6367 101.124 72.6292C101.117 72.6229 101.11 72.6163 101.103 72.6097C101.095 72.6024 101.087 72.595 101.079 72.5874L101.069 72.5774C101.066 72.5741 101.063 72.5712 101.06 72.5677C101.052 72.5607 101.046 72.5533 101.039 72.5457C101.032 72.5394 101.026 72.5328 101.021 72.5259C101.014 72.5186 101.008 72.5115 101.002 72.5039C100.996 72.4976 100.99 72.4911 100.985 72.4844C100.979 72.4771 100.973 72.4697 100.968 72.4621C100.962 72.4557 100.958 72.4492 100.953 72.4425C100.947 72.4352 100.942 72.428 100.937 72.4204C100.932 72.4137 100.927 72.4072 100.923 72.4005C100.918 72.3932 100.913 72.3859 100.908 72.3785C100.904 72.3718 100.9 72.3655 100.896 72.359L100.882 72.3367C100.879 72.3301 100.875 72.3234 100.871 72.3167C100.768 72.135 100.714 71.9295 100.714 71.7207C100.714 71.5128 100.768 71.3084 100.87 71.1273L100.87 71.1255C100.874 71.1188 100.878 71.1122 100.882 71.106C100.886 71.0984 100.891 71.091 100.895 71.0837C100.899 71.0771 100.904 71.0707 100.908 71.064C100.917 71.0498 100.926 71.0358 100.936 71.0221C100.941 71.0145 100.947 71.0073 100.952 71C100.957 70.9935 100.962 70.9868 100.967 70.9804L100.984 70.9581C101.001 70.937 101.019 70.9166 101.038 70.8968C101.051 70.8825 101.064 70.8685 101.078 70.8548L101.101 70.8328C101.117 70.8183 101.133 70.8043 101.149 70.7908C101.157 70.7843 101.165 70.7776 101.173 70.7712C101.191 70.7566 101.209 70.7426 101.228 70.7292C101.239 70.7216 101.25 70.7145 101.261 70.7072C101.271 70.7007 101.281 70.694 101.292 70.6877C101.304 70.68 101.317 70.6727 101.329 70.6654C101.369 70.6425 101.411 70.622 101.454 70.6039C101.603 70.5407 101.763 70.5082 101.926 70.5084H111.017C111.067 70.5084 111.112 70.5287 111.144 70.5614C111.17 70.5866 111.187 70.6188 111.194 70.6539C111.201 70.6889 111.197 70.7253 111.184 70.7584C111.17 70.7914 111.147 70.8196 111.117 70.8395C111.087 70.8593 111.052 70.8698 111.017 70.8697H101.957C101.884 70.8695 101.81 70.8784 101.739 70.8962C101.716 70.9018 101.693 70.9085 101.671 70.916C101.607 70.9366 101.547 70.9646 101.49 70.9994C101.478 71.0064 101.467 71.0137 101.455 71.0215C101.436 71.0348 101.417 71.0488 101.398 71.0634C101.39 71.0697 101.382 71.0764 101.374 71.0831C101.366 71.0904 101.357 71.0975 101.349 71.1054C101.342 71.1116 101.335 71.1183 101.328 71.1249C101.314 71.1381 101.301 71.1521 101.289 71.1668C101.282 71.1739 101.276 71.1812 101.27 71.1889C101.264 71.1951 101.259 71.2017 101.254 71.2085C101.248 71.2158 101.243 71.2232 101.237 71.2308C101.232 71.2373 101.227 71.2439 101.223 71.2506C101.218 71.2579 101.213 71.265 101.209 71.2723C101.204 71.2789 101.2 71.2856 101.196 71.2923C101.192 71.2995 101.187 71.307 101.183 71.3146C101.179 71.3213 101.175 71.3275 101.172 71.3341C101.168 71.3413 101.165 71.3486 101.161 71.3561C101.158 71.3628 101.154 71.3693 101.152 71.376C101.148 71.3832 101.145 71.3906 101.142 71.3981C101.139 71.4046 101.136 71.411 101.134 71.4176C101.131 71.4251 101.128 71.4323 101.125 71.4399C101.123 71.4461 101.121 71.4528 101.118 71.4594C101.116 71.4666 101.113 71.4739 101.111 71.4814C101.109 71.4879 101.107 71.4946 101.105 71.5013C101.103 71.5086 101.101 71.5161 101.1 71.5234C101.098 71.5298 101.096 71.5364 101.095 71.543C101.093 71.5504 101.092 71.5578 101.091 71.5653C101.089 71.5716 101.088 71.5783 101.087 71.585C101.086 71.5922 101.085 71.5994 101.084 71.607C101.082 71.6209 101.08 71.6349 101.079 71.6489C101.078 71.6556 101.078 71.6622 101.078 71.6689C101.077 71.6762 101.077 71.6835 101.077 71.6909C101.076 71.6971 101.076 71.7038 101.076 71.7104C101.076 71.714 101.076 71.7174 101.076 71.721C101.076 71.7248 101.076 71.7288 101.076 71.7327C101.076 71.7392 101.076 71.7459 101.077 71.7523C101.077 71.7599 101.077 71.7671 101.078 71.7744C101.078 71.7811 101.078 71.7876 101.079 71.7942C101.08 71.8017 101.08 71.8089 101.081 71.8162C101.082 71.8227 101.083 71.8294 101.084 71.8358C101.085 71.8434 101.086 71.8508 101.087 71.8581C101.088 71.8648 101.089 71.8714 101.091 71.8781C101.092 71.8854 101.094 71.8925 101.095 71.8998C101.101 71.9282 101.109 71.9562 101.119 71.9836C101.12 71.9903 101.123 71.9968 101.125 72.0032C101.128 72.0108 101.131 72.0179 101.134 72.0255C101.136 72.0321 101.139 72.0385 101.142 72.0452C101.145 72.0528 101.149 72.0599 101.152 72.0672C101.155 72.0739 101.158 72.0804 101.161 72.0871C101.165 72.0947 101.169 72.1019 101.173 72.1092C101.176 72.1157 101.18 72.1221 101.183 72.1288C101.188 72.1364 101.192 72.1438 101.197 72.1511C101.201 72.1578 101.205 72.1644 101.209 72.1708C101.218 72.1853 101.227 72.1992 101.238 72.2126C101.243 72.2202 101.249 72.2273 101.254 72.2346C101.26 72.2411 101.265 72.2478 101.27 72.2542C101.276 72.2618 101.283 72.2693 101.29 72.2766C101.295 72.2835 101.301 72.2898 101.308 72.2965C101.315 72.3038 101.322 72.3112 101.329 72.3182C101.336 72.3252 101.343 72.3318 101.35 72.3382C101.358 72.3459 101.367 72.3533 101.375 72.3605C101.383 72.367 101.391 72.3737 101.399 72.38C101.409 72.3876 101.418 72.395 101.428 72.402C101.449 72.4171 101.47 72.4311 101.492 72.4439C101.503 72.4509 101.515 72.4575 101.526 72.4636C101.54 72.4718 101.555 72.4789 101.57 72.4859C101.604 72.502 101.638 72.5158 101.674 72.5274C101.697 72.5353 101.72 72.5418 101.744 72.5472C101.789 72.5584 101.836 72.5655 101.883 72.5692C101.908 72.5716 101.932 72.5725 101.957 72.5725H111.017C111.066 72.5716 111.112 72.5918 111.144 72.6246Z" fill="#FF9C61"/>
<path d="M106.51 71.3293H101.843C101.83 71.3293 101.818 71.3242 101.808 71.315C101.799 71.3059 101.794 71.2934 101.794 71.2805C101.794 71.2676 101.799 71.2551 101.808 71.246C101.818 71.2368 101.83 71.2317 101.843 71.2317H106.51C106.523 71.2317 106.536 71.2368 106.545 71.246C106.554 71.2551 106.559 71.2676 106.559 71.2805C106.559 71.2934 106.554 71.3059 106.545 71.315C106.536 71.3242 106.523 71.3293 106.51 71.3293ZM109.774 72.256H104.495C104.482 72.256 104.469 72.2509 104.46 72.2417C104.451 72.2326 104.446 72.2201 104.446 72.2072C104.446 72.1942 104.451 72.1818 104.46 72.1727C104.469 72.1635 104.482 72.1584 104.495 72.1584H109.774C109.787 72.1584 109.799 72.1635 109.809 72.1727C109.818 72.1818 109.823 72.1942 109.823 72.2072C109.823 72.2201 109.818 72.2326 109.809 72.2417C109.799 72.2509 109.787 72.256 109.774 72.256ZM106.51 71.8026H103.557C103.544 71.8026 103.532 71.7975 103.522 71.7883C103.513 71.7792 103.508 71.7668 103.508 71.7538C103.508 71.7409 103.513 71.7285 103.522 71.7193C103.532 71.7102 103.544 71.705 103.557 71.705H106.51C106.523 71.705 106.536 71.7102 106.545 71.7193C106.554 71.7285 106.559 71.7409 106.559 71.7538C106.559 71.7668 106.554 71.7792 106.545 71.7883C106.536 71.7975 106.523 71.8026 106.51 71.8026ZM103.127 71.8026H101.792C101.779 71.8026 101.767 71.7975 101.757 71.7883C101.748 71.7792 101.743 71.7668 101.743 71.7538C101.743 71.7409 101.748 71.7285 101.757 71.7193C101.767 71.7102 101.779 71.705 101.792 71.705H103.127C103.139 71.705 103.152 71.7102 103.161 71.7193C103.17 71.7285 103.175 71.7409 103.175 71.7538C103.175 71.7668 103.17 71.7792 103.161 71.7883C103.152 71.7975 103.139 71.8026 103.127 71.8026ZM109.284 71.8026H107.949C107.936 71.8026 107.924 71.7975 107.915 71.7883C107.906 71.7792 107.9 71.7668 107.9 71.7538C107.9 71.7409 107.906 71.7285 107.915 71.7193C107.924 71.7102 107.936 71.705 107.949 71.705H109.284C109.297 71.705 109.309 71.7102 109.318 71.7193C109.327 71.7285 109.333 71.7409 109.333 71.7538C109.333 71.7668 109.327 71.7792 109.318 71.7883C109.309 71.7975 109.297 71.8026 109.284 71.8026ZM108.458 71.3781H107.949C107.936 71.3781 107.924 71.373 107.915 71.3638C107.906 71.3547 107.9 71.3422 107.9 71.3293C107.9 71.3164 107.906 71.3039 107.915 71.2948C107.924 71.2856 107.936 71.2805 107.949 71.2805H108.458C108.471 71.2805 108.483 71.2856 108.492 71.2948C108.501 71.3039 108.507 71.3164 108.507 71.3293C108.507 71.3422 108.501 71.3547 108.492 71.3638C108.483 71.373 108.471 71.3781 108.458 71.3781ZM104.031 72.256H103.523C103.51 72.256 103.497 72.2509 103.488 72.2417C103.479 72.2326 103.474 72.2201 103.474 72.2072C103.474 72.1942 103.479 72.1818 103.488 72.1727C103.497 72.1635 103.51 72.1584 103.523 72.1584H104.031C104.044 72.1584 104.057 72.1635 104.066 72.1727C104.075 72.1818 104.08 72.1942 104.08 72.2072C104.08 72.2201 104.075 72.2326 104.066 72.2417C104.057 72.2509 104.044 72.256 104.031 72.256ZM110.38 71.8026H109.872C109.859 71.8026 109.846 71.7975 109.837 71.7883C109.828 71.7792 109.823 71.7668 109.823 71.7538C109.823 71.7409 109.828 71.7285 109.837 71.7193C109.846 71.7102 109.859 71.705 109.872 71.705H110.38C110.407 71.705 110.429 71.7269 110.429 71.7538C110.429 71.7602 110.428 71.7666 110.425 71.7725C110.423 71.7784 110.419 71.7838 110.415 71.7884C110.41 71.7929 110.405 71.7965 110.399 71.7989C110.393 71.8014 110.387 71.8026 110.38 71.8026Z" fill="#E6E8F0"/>
<path d="M107.438 71.97L107.133 71.7969L106.828 71.97V71.2315H107.438V71.97Z" fill="#C24E4E"/>
<path d="M86.4593 112.087C85.5232 108.062 84.9024 96.497 87.0559 88.7439C88.9199 82.0318 87.0882 78.095 87.0698 78.0558L87.4675 77.8639C87.5468 78.0286 89.394 81.9761 87.4813 88.8622C85.3482 96.544 85.9624 108 86.8899 111.987L86.4593 112.087Z" fill="#14584F"/>
<path d="M88.6788 112.415C88.3776 112.31 86.9064 111.223 87.4986 100.153C88.0952 88.9916 82.2919 87.1858 82.2332 87.169L82.3556 86.7445C82.6089 86.8179 88.5549 88.668 87.9393 100.177C87.3608 110.995 88.8304 111.998 88.8456 112.007L88.6788 112.415Z" fill="#14584F"/>
<path d="M87.9031 111.784C87.5758 110.378 88.1791 107.307 88.8176 104.054C89.2473 101.866 89.6919 99.6018 89.7812 98.0662C89.8723 96.5003 89.6281 94.6337 89.3917 92.8281C89.0603 90.2968 88.7475 87.9056 89.2722 86.2168C89.6034 85.1514 90.3773 84.3576 91.3958 84.0388C92.4915 83.6985 93.7252 83.9456 94.6976 84.7052L94.4259 85.0529C93.5675 84.3826 92.4838 84.1596 91.5279 84.4606C90.6371 84.7393 89.9858 85.4092 89.6942 86.3479C89.1981 87.9443 89.5052 90.2889 89.8296 92.7705C90.0685 94.5965 90.3157 96.4841 90.2221 98.0918C90.131 99.6573 89.6838 101.936 89.2511 104.14C88.6492 107.203 88.0272 110.37 88.3336 111.684L87.9031 111.784Z" fill="#14584F"/>
<path d="M75.1739 92.1942C76.4516 91.6673 77.9379 89.1685 79.334 89.2273C79.6526 90.8173 77.2972 90.8856 76.4128 91.8292C75.6811 92.8025 79.1546 93.3356 80.6552 92.3393C81.9134 91.576 81.3768 89.7696 82.7269 87.0666C83.8477 84.7398 84.6883 84.6636 84.7787 83.2722C84.9435 80.7263 82.3001 78.4181 82.0195 78.5843C81.9063 78.6515 82.229 79.0872 82.3701 80.2313C82.4709 80.3247 82.4714 84.8311 81.3011 83.354C80.4813 81.4843 82.6066 80.0923 81.1763 77.9727C80.1032 76.3839 77.3515 76.4437 77.293 76.6414C78.6901 76.9611 79.5894 80.5399 78.9921 81.9833C78.5624 82.8196 78.2141 82.1186 78.0885 81.2763C77.3088 78.5597 77.0862 77.074 75.0804 75.9931C72.6216 74.668 70.7044 77.013 67.6072 77.5592C67.6072 77.5592 66.9018 81.3517 68.4381 83.436C69.9167 85.4421 71.9525 83.5266 73.5754 83.9947C74.2978 84.1288 74.4863 85.0524 74.0411 85.5041C73.4197 86.4223 71.9601 86.5167 70.9067 86.5732C69.1614 86.6659 68.5369 86.2991 68.3418 86.6247C67.7969 87.4694 70.5364 89.765 72.0081 89.2215C73.8752 89.3491 75.9232 86.1789 77.8092 86.9727C77.8705 88.4547 74.177 90.1416 72.585 90.2642C71.74 90.2331 71.1634 89.859 71.0847 89.9904C71.4915 90.8089 73.9945 92.5903 75.1739 92.1942Z" fill="#00728D"/>
<path d="M78.309 91.8814C78.7372 91.8232 79.1449 91.6623 79.4973 91.4123C79.8391 91.1712 80.1083 90.8519 80.3144 90.4899C80.5396 90.0928 80.6951 89.6629 80.8618 89.2391C81.0433 88.7805 81.2485 88.3304 81.483 87.8964C81.5894 87.7007 81.6944 87.5002 81.8218 87.3174C81.9279 87.1651 82.0667 87.0192 82.2613 86.9981C82.2636 86.998 82.2642 86.9962 82.2664 86.9959C82.2963 87.013 82.3268 87.0282 82.3564 87.0463C82.4558 87.1053 82.5542 87.1669 82.65 87.2328C82.6556 87.2171 82.6628 87.2033 82.6702 87.1884C82.4956 87.0708 82.3145 86.9632 82.1277 86.866C82.1271 86.8648 82.1265 86.8636 82.1256 86.8632C82.0593 86.8017 82.0045 86.7251 81.9588 86.6464C81.9154 86.5727 81.8706 86.4861 81.8713 86.3986C81.8733 86.2683 81.9251 86.1373 81.973 86.0174C82.0218 85.8978 82.0736 85.7782 82.1277 85.6606C82.5086 84.8326 83.0035 84.0523 83.2775 83.178C83.502 82.4593 83.5797 81.6674 83.302 80.9518C83.2908 80.923 83.2465 80.9429 83.2581 80.973C83.4193 81.39 83.4593 81.8415 83.4155 82.2852C83.3297 83.1536 82.9418 83.944 82.5479 84.7106C82.3293 85.1351 82.1061 85.5578 81.9273 86.0009C81.8617 86.164 81.7849 86.355 81.8486 86.529C81.8834 86.6264 81.9402 86.7224 82.0079 86.806C81.4761 86.5473 80.908 86.3745 80.3443 86.2013C80.3184 86.193 80.2913 86.1851 80.2654 86.1768L80.2648 86.1756C79.9683 85.861 79.7838 85.4602 79.6875 85.0409C79.4905 84.1863 79.6857 83.3297 79.908 82.5008C79.969 82.274 80.0311 82.0467 80.0882 81.8186C80.1422 81.6049 80.1955 81.3878 80.219 81.167C80.2575 80.7917 80.1946 80.3805 79.9147 80.1049C79.8927 80.0833 79.8546 80.1141 79.8776 80.1359C80.2298 80.4821 80.2148 81.0085 80.1232 81.4585C79.9403 82.3524 79.5888 83.2181 79.5558 84.1398C79.5305 84.8474 79.7024 85.607 80.177 86.1497C79.6488 85.9863 79.12 85.8133 78.6275 85.5576C78.3583 85.4173 78.1071 85.2504 77.8685 85.0665C77.867 85.0648 77.8668 85.0627 77.8643 85.0608C77.8616 85.0598 77.8592 85.0578 77.8555 85.0565C77.6402 84.8881 77.4329 84.7095 77.2345 84.5214C76.9028 84.2096 76.586 83.8825 76.2579 83.5668C76.063 83.1292 75.9819 82.6483 75.9344 82.1743C75.8484 81.324 75.9114 80.4421 75.6327 79.6218C75.384 78.8919 74.7741 78.1896 73.954 78.1616C73.9224 78.1605 73.9184 78.2085 73.95 78.2097C74.406 78.2249 74.8142 78.4686 75.1132 78.8046C75.6913 79.4551 75.7833 80.3573 75.8248 81.1904C75.8627 81.9571 75.8803 82.7628 76.1712 83.4843C76.1291 83.4443 76.0871 83.4031 76.0439 83.3626C75.6148 82.9668 75.1507 82.6191 74.646 82.3258C73.6117 81.7251 72.473 81.3383 71.3449 80.9585C71.3157 80.948 71.2992 80.9935 71.3282 81.0042C71.4664 81.0503 71.6045 81.0965 71.7423 81.1435C72.8273 81.5138 73.9186 81.9153 74.8911 82.5317C74.5861 82.4703 74.2635 82.545 73.9656 82.6111C73.5924 82.6942 73.1552 82.7746 72.8227 82.5306C72.7974 82.5121 72.7696 82.5515 72.7949 82.57C73.106 82.799 73.518 82.7569 73.8741 82.681C74.2447 82.6021 74.6503 82.4813 75.0207 82.6182C75.0225 82.6188 75.0231 82.617 75.025 82.6178L75.0259 82.6181C75.5074 82.938 75.937 83.3186 76.3499 83.722C76.7451 84.1087 77.1275 84.508 77.5477 84.8687C77.5878 84.9029 77.6292 84.9366 77.6698 84.9701C77.2522 84.818 76.7724 84.8933 76.3668 85.0626C75.8978 85.2586 75.5095 85.6015 75.1302 85.9314C74.7536 86.2591 74.3652 86.5629 73.9314 86.8097C73.0927 87.2855 72.1566 87.5639 71.1943 87.6238C71.163 87.6248 71.172 87.6735 71.2029 87.6714C71.7261 87.6394 72.2432 87.5425 72.7425 87.3829C73.1905 87.2401 73.6214 87.0482 74.0272 86.8106C74.4454 86.5642 74.8195 86.2656 75.1851 85.9484C75.566 85.6172 75.9576 85.2764 76.4332 85.088C76.8724 84.9142 77.4045 84.854 77.8305 85.097C78.1811 85.3651 78.5568 85.5928 78.9639 85.7709C79.5232 86.0137 80.1121 86.1777 80.6926 86.359L80.8405 86.4067C80.5096 86.4587 80.1958 86.6089 79.9245 86.8034C79.6327 87.0121 79.3906 87.2825 79.1532 87.5491C78.9076 87.8265 78.6593 88.0996 78.3863 88.3504C77.8567 88.8373 77.2653 89.2522 76.6272 89.5845C76.5992 89.5991 76.6201 89.6438 76.6472 89.629C77.3112 89.2837 77.925 88.8493 78.4715 88.338C78.7353 88.0901 78.9754 87.8221 79.2151 87.5521C79.4558 87.2825 79.7034 87.0111 80.004 86.8065C80.2827 86.6166 80.6042 86.4745 80.9424 86.4418C80.9438 86.4412 80.943 86.4398 80.9441 86.4403C81.3768 86.5824 81.8022 86.7444 82.2018 86.9602C82.0332 86.998 81.9029 87.123 81.803 87.2612C81.6553 87.4625 81.5392 87.6909 81.4211 87.9102C81.1944 88.3357 80.9924 88.774 80.8162 89.2228C80.6462 89.6556 80.4886 90.0971 80.2531 90.4999C80.0391 90.8662 79.7588 91.1824 79.4057 91.4173C79.0736 91.6381 78.6957 91.7806 78.3006 91.8341C78.2699 91.8383 78.2785 91.8859 78.309 91.8814Z" fill="#90D7CB"/>
<path d="M103.036 81.8052C101.669 82.0122 99.6296 84.0844 98.2878 83.6944C98.3576 82.0743 100.662 82.5697 101.745 81.8642C102.688 81.0935 99.4417 79.7475 97.7471 80.3573C96.3431 80.7984 96.4335 82.6807 94.4778 84.9837C92.8343 86.9762 91.9999 86.8498 91.5803 88.1794C90.8132 90.6126 92.8299 93.4847 93.1422 93.39C93.2682 93.3518 93.0586 92.8519 93.1944 91.707C93.1188 91.5922 94.193 87.2157 94.9771 88.9293C95.3275 90.9407 92.9315 91.7857 93.815 94.1852C94.4782 95.9841 97.1648 96.5821 97.2689 96.4042C95.9882 95.7607 95.9682 92.0705 96.8927 90.8111C97.5095 90.1015 97.6806 90.8654 97.6016 91.7133C97.7109 94.5374 97.5728 96.0332 99.263 97.5614C101.335 99.4345 103.756 97.6145 106.894 97.8225C106.894 97.8225 108.484 94.3075 107.489 91.917C106.531 89.6163 104.097 90.991 102.633 90.1494C101.963 89.8471 102 88.9051 102.54 88.5725C103.363 87.829 104.803 88.0854 105.839 88.2818C107.556 88.6079 108.075 89.1131 108.342 88.8433C109.073 88.1529 106.96 85.2702 105.401 85.4472C103.618 84.8779 100.873 87.4683 99.231 86.2477C99.5249 84.7939 103.514 84.0364 105.089 84.2969C105.903 84.5286 106.373 85.0294 106.481 84.9206C106.281 84.0288 104.275 81.7018 103.036 81.8052Z" fill="#00728D"/>
<path d="M99.9162 81.3615C99.4866 81.3159 99.0523 81.375 98.6504 81.5337C98.2609 81.6863 97.9234 81.9323 97.637 82.2345C97.3235 82.5666 97.0701 82.9469 96.8071 83.3188C96.5215 83.7208 96.2149 84.1089 95.8837 84.4746C95.7337 84.6393 95.5841 84.8089 95.4167 84.9561C95.2772 85.0789 95.1076 85.1872 94.9137 85.1613C94.9115 85.161 94.9105 85.1626 94.9082 85.1623C94.8834 85.1385 94.8572 85.1164 94.8328 85.0918C94.7497 85.0108 94.6694 84.9271 94.592 84.8406C94.583 84.8545 94.5725 84.8662 94.5618 84.8789C94.7034 85.0348 94.8536 85.1825 95.0119 85.3214C95.0121 85.3229 95.0124 85.3241 95.0133 85.3247C95.0631 85.4001 95.0979 85.4876 95.1237 85.5749C95.1482 85.6568 95.1713 85.7516 95.1496 85.8364C95.1165 85.9625 95.035 86.0774 94.96 86.1825C94.8841 86.2871 94.8053 86.3908 94.7246 86.4921C94.1571 87.2054 93.4905 87.8454 93.016 88.629C92.6266 89.2734 92.3623 90.0239 92.4613 90.7851C92.4652 90.8158 92.5132 90.807 92.5089 90.775C92.4518 90.3316 92.5207 89.8836 92.669 89.4631C92.9595 88.6401 93.5246 87.9652 94.0899 87.3146C94.4034 86.9546 94.7209 86.5972 95.0003 86.2095C95.1029 86.0669 95.2229 85.8996 95.2025 85.7154C95.1902 85.6089 95.1602 85.5051 95.1137 85.4084C95.5684 85.7865 96.0789 86.0898 96.5853 86.3924C96.6084 86.4067 96.6329 86.4208 96.656 86.4351L96.6563 86.4365C96.8692 86.8126 96.953 87.2459 96.9464 87.6761C96.9339 88.5531 96.5402 89.3383 96.1266 90.0903C96.0133 90.296 95.8989 90.5018 95.7888 90.7098C95.6854 90.9045 95.5818 91.1027 95.5064 91.3114C95.3795 91.6668 95.3426 92.0813 95.5485 92.4155C95.5649 92.4417 95.6091 92.421 95.5919 92.3942C95.3324 91.974 95.4726 91.4665 95.6689 91.0512C96.0596 90.2267 96.6073 89.4696 96.8592 88.5824C97.0525 87.9012 97.0669 87.1224 96.7351 86.4823C97.2092 86.7669 97.6815 87.061 98.0988 87.4268C98.3268 87.6274 98.5308 87.8493 98.7189 88.0848C98.7199 88.0867 98.7196 88.0888 98.7215 88.0914C98.7239 88.093 98.7259 88.0954 98.7291 88.0976C98.8981 88.3126 99.0568 88.5354 99.2048 88.7653C99.4526 89.1472 99.6822 89.5403 99.9254 89.9252C100.01 90.3968 99.9745 90.8832 99.9076 91.3546C99.7883 92.2009 99.5168 93.0424 99.5918 93.9055C99.6592 94.6736 100.084 95.501 100.874 95.7239C100.904 95.7326 100.92 95.6869 100.889 95.6783C100.45 95.5546 100.112 95.2207 99.9015 94.823C99.4953 94.0534 99.621 93.1554 99.7793 92.3363C99.9253 91.5827 100.101 90.796 99.99 90.0258C100.021 90.0749 100.052 90.1248 100.085 90.1743C100.407 90.6612 100.775 91.1095 101.195 91.5147C102.056 92.3447 103.07 92.9918 104.075 93.6297C104.101 93.6469 104.128 93.6066 104.102 93.5893C103.979 93.5117 103.856 93.4337 103.733 93.3553C102.768 92.737 101.804 92.0868 101.006 91.2562C101.288 91.3888 101.619 91.3931 101.924 91.4C102.306 91.4083 102.75 91.4345 103.014 91.7508C103.035 91.7748 103.071 91.7431 103.051 91.7191C102.803 91.4224 102.393 91.3651 102.029 91.354C101.651 91.3422 101.228 91.3629 100.901 91.1415C100.899 91.1403 100.898 91.142 100.896 91.1409L100.896 91.1403C100.504 90.7148 100.178 90.2428 99.8729 89.7525C99.5813 89.2828 99.3053 88.8036 98.9831 88.3531C98.9523 88.3102 98.92 88.2677 98.8886 88.2256C99.2581 88.4729 99.742 88.5142 100.176 88.4465C100.678 88.3681 101.137 88.1275 101.584 87.8978C102.028 87.6694 102.478 87.467 102.958 87.3306C103.886 87.0686 104.861 87.0215 105.81 87.1928C105.841 87.1993 105.844 87.1498 105.813 87.1446C105.298 87.0509 104.772 87.0217 104.249 87.0575C103.781 87.0895 103.316 87.173 102.865 87.3071C102.4 87.4466 101.966 87.6475 101.535 87.8685C101.086 88.0992 100.625 88.3369 100.118 88.4064C99.65 88.4703 99.1188 88.402 98.7631 88.0646C98.4864 87.7206 98.1759 87.4099 97.8231 87.1398C97.3379 86.7707 96.8049 86.471 96.2844 86.1564L96.1521 86.0749C96.4859 86.1033 96.8265 86.0323 97.1364 85.9081C97.4697 85.7751 97.7691 85.5702 98.0634 85.3678C98.368 85.1571 98.6742 84.951 98.9992 84.7726C99.6296 84.4261 100.303 84.1641 101.002 83.9935C101.033 83.986 101.023 83.9376 100.993 83.9456C100.61 84.039 100.234 84.1597 99.8683 84.3068C99.5406 84.4386 99.2217 84.5914 98.9136 84.7643C98.5983 84.9421 98.3013 85.1451 98.0041 85.3501C97.706 85.5546 97.4008 85.7591 97.0601 85.8859C96.7441 86.0038 96.3981 86.0652 96.0617 86.0164C96.0602 86.0166 96.0605 86.018 96.0597 86.0174C95.6735 85.7764 95.299 85.5174 94.9624 85.2126C95.1351 85.2162 95.2915 85.1259 95.4214 85.0155C95.6128 84.8551 95.7802 84.661 95.9471 84.4762C96.2687 84.117 96.5694 83.7396 96.8476 83.3458C97.1159 82.966 97.3742 82.5748 97.699 82.2398C97.9941 81.9351 98.3418 81.695 98.7407 81.5509C99.1159 81.4157 99.5169 81.3675 99.9134 81.4099C99.9439 81.4127 99.9469 81.3645 99.9162 81.3615Z" fill="#90D7CB"/>
<path d="M78.7485 75.7859C79.9671 76.4379 82.8411 75.998 83.6828 77.1136C82.6573 78.3698 81.1081 76.5941 79.8174 76.5106C78.601 76.5641 80.3962 79.5852 82.1188 80.1109C83.5077 80.5976 84.5618 79.0355 87.5069 78.3608C90.016 77.748 90.6088 78.3487 91.7407 77.5345C93.8114 76.0442 93.9146 72.5363 93.6077 72.4253C93.4839 72.3805 93.3526 72.9065 92.5586 73.7425C92.5504 73.8796 89.0707 76.7431 89.468 74.901C90.3909 73.08 92.8162 73.8368 93.5444 71.3855C94.0895 69.5475 92.2951 67.4606 92.1052 67.541C92.7461 68.823 90.5539 71.7912 89.0594 72.2469C88.1407 72.4463 88.4606 71.7319 89.0314 71.0999C90.6338 68.7718 91.6396 67.6562 91.2001 65.4204C90.6612 62.6797 87.6323 62.6891 85.2428 60.6443C85.2428 60.6443 81.8659 62.509 81.2323 65.0198C80.6226 67.4361 83.3952 67.7913 84.0648 69.342C84.4203 69.9851 83.8267 70.7175 83.1951 70.6606C82.0913 70.764 81.091 69.6969 80.3782 68.9193C79.1979 67.6304 79.0843 66.9152 78.7089 66.9713C77.7105 67.0872 77.6781 70.6612 79.033 71.4524C80.1205 72.9754 83.8699 72.5427 84.4551 74.5034C83.3495 75.4923 79.7002 73.7118 78.594 72.5603C78.0811 71.8879 78.0038 71.2051 77.8522 71.2277C77.4787 72.0621 77.6934 75.1268 78.7485 75.7859Z" fill="#46BDA9"/>
<path d="M80.9817 78.0081C81.2986 78.3018 81.6819 78.5144 82.0988 78.6277C82.5022 78.7385 82.9197 78.7434 83.3301 78.6726C83.7799 78.5942 84.2107 78.4411 84.6438 78.3006C85.1132 78.148 85.5912 78.0233 86.0754 77.9272C86.2941 77.8849 86.5157 77.8386 86.7378 77.8209C86.9229 77.806 87.1236 77.8206 87.2635 77.9575C87.2651 77.959 87.2669 77.9584 87.2686 77.9599C87.2744 77.9938 87.2821 78.0271 87.287 78.0615C87.3047 78.1756 87.3196 78.2908 87.3296 78.4067C87.3452 78.4012 87.3604 78.3979 87.3766 78.3942C87.3564 78.1846 87.3245 77.9763 87.2809 77.7703C87.2815 77.769 87.2821 77.7678 87.2818 77.7669C87.287 77.6766 87.3114 77.5857 87.3431 77.5003C87.3724 77.4201 87.4108 77.3303 87.4788 77.2754C87.5807 77.194 87.7148 77.1509 87.8378 77.1116C87.9612 77.0732 88.0865 77.0372 88.2116 77.0043C89.0932 76.7725 90.0103 76.6588 90.8594 76.315C91.5571 76.0317 92.2179 75.5885 92.5942 74.9196C92.6094 74.8926 92.5658 74.8709 92.55 74.899C92.3303 75.2886 92.0071 75.6063 91.6367 75.8544C90.9115 76.3398 90.0547 76.5423 89.2126 76.7253C88.7459 76.8262 88.2777 76.9225 87.8219 77.0659C87.6542 77.1189 87.458 77.181 87.3641 77.3406C87.3102 77.4334 87.2722 77.5344 87.2514 77.6397C87.1134 77.0647 86.8859 76.5163 86.6615 75.9708C86.6515 75.9454 86.6403 75.9195 86.6304 75.8942L86.631 75.893C86.6854 75.4642 86.8777 75.067 87.1403 74.7263C87.6751 74.0311 88.4606 73.6377 89.242 73.2827C89.4558 73.1857 89.6707 73.0891 89.8833 72.9885C90.0827 72.8945 90.2843 72.7976 90.4697 72.6756C90.7841 72.467 91.0618 72.1569 91.0966 71.7659C91.0991 71.7351 91.0514 71.7252 91.0491 71.7568C91.0055 72.2487 90.5895 72.5716 90.1837 72.7867C89.3771 73.2135 88.4854 73.4922 87.7526 74.0522C87.1901 74.4823 86.7125 75.0975 86.5951 75.8091C86.3858 75.2974 86.1832 74.779 86.0679 74.2363C86.0053 73.9393 85.9745 73.6393 85.965 73.338C85.9651 73.3359 85.9667 73.3343 85.9666 73.3312C85.9657 73.3285 85.9656 73.3254 85.9642 73.3218C85.9575 73.0485 85.9637 72.775 85.9828 72.5022C86.0129 72.0481 86.0642 71.5956 86.0995 71.1417C86.3136 70.713 86.6335 70.3449 86.9693 70.0072C87.5714 69.4005 88.2923 68.8888 88.7488 68.1524C89.1545 67.4966 89.3094 66.5796 88.8099 65.9283C88.7907 65.9032 88.751 65.9306 88.7702 65.9557C89.0481 66.3176 89.1194 66.7876 89.0498 67.2321C88.9148 68.0918 88.2765 68.7358 87.6594 69.2973C87.0913 69.8138 86.4802 70.3394 86.108 71.0225C86.1121 70.9643 86.1173 70.9058 86.1212 70.8469C86.1542 70.2641 86.1277 69.6847 86.0337 69.1087C85.8406 67.9283 85.4156 66.8033 84.9923 65.6907C84.9819 65.6614 84.9362 65.6776 84.9465 65.7069C84.9987 65.8429 85.0508 65.9789 85.102 66.1152C85.5053 67.1883 85.8886 68.2861 86.0306 69.4289C85.8843 69.1544 85.6217 68.9526 85.3814 68.7647C85.0801 68.5293 84.7401 68.2427 84.7173 67.831C84.7155 67.7997 84.6675 67.8033 84.6693 67.8346C84.6901 68.2204 84.9844 68.5117 85.2692 68.7385C85.5656 68.9745 85.9166 69.2109 86.0462 69.5841C86.0468 69.5859 86.0487 69.5853 86.0493 69.5871L86.0498 69.5879C86.1087 70.163 86.0877 70.7365 86.0386 71.3117C85.991 71.8626 85.9255 72.4116 85.9141 72.9654C85.9132 73.0181 85.9135 73.0717 85.9135 73.1241C85.7656 72.7049 85.4027 72.3823 85.014 72.1767C84.5648 71.9389 84.0532 71.8571 83.5575 71.7736C83.0651 71.691 82.5837 71.584 82.1176 71.4059C81.2174 71.0604 80.4078 70.5144 79.75 69.8095C79.7293 69.786 79.6974 69.8238 79.7187 69.8463C80.0758 70.2299 80.4792 70.5677 80.9196 70.852C81.3146 71.1072 81.7365 71.3179 82.1778 71.4803C82.6337 71.6467 83.102 71.7459 83.5792 71.8266C84.0771 71.9102 84.5889 71.9962 85.0365 72.2436C85.4497 72.4725 85.8345 72.8451 85.9174 73.3284C85.9331 73.7694 85.9959 74.2042 86.117 74.6318C86.2847 75.2179 86.5325 75.7769 86.7612 76.3404L86.8185 76.4849C86.568 76.2624 86.2527 76.1154 85.9301 76.0296C85.5835 75.9369 85.221 75.9217 84.864 75.9076C84.494 75.8942 84.1253 75.876 83.7582 75.8244C83.0458 75.7247 82.3496 75.5317 81.6876 75.2502C81.6584 75.2377 81.6371 75.2823 81.6658 75.2938C82.0287 75.4481 82.402 75.5764 82.7831 75.6775C83.1246 75.7681 83.4715 75.8365 83.8217 75.8823C84.1808 75.9285 84.5401 75.9437 84.9011 75.9573C85.2622 75.9718 85.6291 75.9906 85.9781 76.0928C86.3017 76.1875 86.6156 76.3453 86.8559 76.5858C86.8571 76.5864 86.8577 76.5852 86.8582 76.5861C87.0233 77.0104 87.1684 77.4419 87.2558 77.8877C87.1195 77.7815 86.9402 77.7604 86.7699 77.7709C86.5206 77.7848 86.2706 77.8401 86.0261 77.8883C85.5535 77.9836 85.0867 78.106 84.6282 78.2551C84.1858 78.3987 83.7448 78.5575 83.2843 78.6317C82.8654 78.6991 82.4431 78.6835 82.0374 78.5601C81.6559 78.4441 81.3058 78.2428 81.0135 77.9715C80.9903 77.9505 80.9589 77.9874 80.9817 78.0081Z" fill="#DAF2EE"/>
<path d="M94.4663 103.006C94.3977 103.888 93.2341 118.706 93.1264 120.08H82.8666C82.7414 118.636 81.4676 103.95 81.3871 103.006H94.4663Z" fill="#FF6A61"/>
<path d="M81.3873 103.006L81.4899 104.194H85.4396C89.0309 104.194 91.8604 107.253 91.5793 110.834L90.8535 120.08H93.1264C93.2342 118.706 94.3978 103.888 94.4664 103.006H81.3873Z" fill="#E64A40"/>
<path d="M94.2104 103.007H81.6436C80.8004 103.007 80.1167 102.452 80.1167 101.768C80.1167 101.084 80.8003 100.53 81.6436 100.53H94.2104C95.0538 100.53 95.7373 101.084 95.7373 101.768C95.7373 102.452 95.0538 103.007 94.2104 103.007Z" fill="#FF6A61"/>
<path d="M236.217 120.259H78.0599C77.9559 120.259 77.8563 120.217 77.7828 120.144C77.7093 120.07 77.668 119.971 77.668 119.867C77.668 119.763 77.7093 119.663 77.7828 119.59C77.8563 119.516 77.9559 119.475 78.0599 119.475H236.217C236.321 119.475 236.421 119.516 236.494 119.59C236.568 119.663 236.609 119.763 236.609 119.867C236.609 119.971 236.568 120.07 236.494 120.144C236.421 120.217 236.321 120.259 236.217 120.259Z" fill="#2A2D45"/>
<path d="M183.745 42.4311H162.235C161.475 42.4311 160.856 41.8124 160.856 41.0519V27.2689C160.856 26.5084 161.475 25.8897 162.235 25.8897H183.745C184.506 25.8897 185.124 26.5084 185.124 27.2689V41.0519C185.124 41.8124 184.506 42.4311 183.745 42.4311ZM162.235 26.0852C161.583 26.0852 161.051 26.6161 161.051 27.2689V41.0519C161.051 41.7045 161.582 42.2356 162.235 42.2356H183.745C184.398 42.2356 184.929 41.7045 184.929 41.0519V27.2689C184.929 26.6163 184.398 26.0852 183.745 26.0852H162.235Z" fill="#164980"/>
<path d="M183.488 41.2623H162.492C162.356 41.2622 162.226 41.2083 162.13 41.1123C162.034 41.0163 161.98 40.8861 161.98 40.7503V27.5705C161.98 27.2878 162.21 27.0585 162.492 27.0585H183.488C183.555 27.0585 183.622 27.0717 183.684 27.0974C183.746 27.1231 183.803 27.1608 183.85 27.2084C183.898 27.2559 183.935 27.3124 183.961 27.3745C183.987 27.4366 184 27.5032 184 27.5705V40.7503C184 40.8175 183.987 40.8841 183.961 40.9462C183.935 41.0084 183.898 41.0648 183.85 41.1124C183.803 41.1599 183.746 41.1976 183.684 41.2233C183.622 41.2491 183.555 41.2623 183.488 41.2623Z" fill="white"/>
<path d="M174.978 37.3059C176.297 37.3059 177.367 36.2364 177.367 34.9171C177.367 33.5979 176.297 32.5284 174.978 32.5284C173.659 32.5284 172.589 33.5979 172.589 34.9171C172.589 36.2364 173.659 37.3059 174.978 37.3059Z" fill="#404142"/>
<path d="M180.93 39.0152C175.579 40.2357 170.099 40.1831 164.508 39.0152C165.621 36.2964 166.173 32.9031 166.497 29.2355H178.941C179.349 32.5259 179.993 35.7883 180.93 39.0152Z" fill="#98CEFF"/>
<path d="M176.701 32.6941C176.701 31.511 175.742 30.552 174.559 30.552C173.55 30.552 172.704 31.2496 172.477 32.1885C171.841 32.332 171.184 32.6435 170.588 33.1189C169.002 34.3835 168.45 36.3279 169.354 37.462C170.259 38.5962 172.278 38.4904 173.863 37.2259C174.786 36.4897 175.358 35.5231 175.497 34.6201C176.21 34.272 176.701 33.5404 176.701 32.6941Z" fill="#597FAB"/>
<path d="M178.441 30.2141H182.317V30.3288H178.441V30.2141ZM164.508 33.1786H168.384V33.2933H164.508V33.1786ZM177.756 30.7974H180.503V30.9121H177.756V30.7974ZM166.172 33.7141H168.919V33.8288H166.172V33.7141ZM178.441 37.639H181.189V37.7537H178.441V37.639ZM165.16 32.4136H166.603V32.5283H165.16V32.4136ZM168.198 30.4946H169.641V30.6093H168.198V30.4946ZM163.786 37.993H165.229V38.1077H163.786V37.993ZM180.209 38.0502H181.652V38.165H180.209V38.0502Z" fill="#C2E9FF"/>
<path d="M174.978 36.5179C175.862 36.5179 176.579 35.8012 176.579 34.917C176.579 34.0329 175.862 33.3162 174.978 33.3162C174.094 33.3162 173.377 34.0329 173.377 34.917C173.377 35.8012 174.094 36.5179 174.978 36.5179Z" fill="#6D6E71"/>
<path d="M174.978 35.8978C175.52 35.8978 175.959 35.4587 175.959 34.917C175.959 34.3754 175.52 33.9363 174.978 33.9363C174.437 33.9363 173.997 34.3754 173.997 34.917C173.997 35.4587 174.437 35.8978 174.978 35.8978Z" fill="#6D6E71"/>
<path d="M118.48 30.9123H124.327C127.523 30.9123 130.114 33.5031 130.114 36.6991C130.114 38.3842 129.393 39.9004 128.244 40.958C128.623 42.2487 129.586 43.0712 132.197 43.5831C129.356 43.9353 127.299 43.4871 125.946 42.2546C125.42 42.408 124.875 42.4858 124.327 42.4859H118.48C115.284 42.4859 112.694 39.895 112.694 36.6991C112.694 33.5031 115.285 30.9123 118.48 30.9123Z" fill="#FF6A61"/>
<path d="M127.133 36.6955C127.133 36.5336 127.069 36.3784 126.954 36.264C126.84 36.1496 126.684 36.0853 126.523 36.0853C126.361 36.0853 126.206 36.1496 126.091 36.264C125.977 36.3784 125.912 36.5336 125.912 36.6955C125.912 36.8573 125.977 37.0125 126.091 37.127C126.206 37.2414 126.361 37.3057 126.523 37.3057C126.684 37.3057 126.84 37.2414 126.954 37.127C127.069 37.0125 127.133 36.8573 127.133 36.6955ZM125.208 36.6955C125.208 36.5336 125.144 36.3784 125.029 36.264C124.915 36.1496 124.76 36.0853 124.598 36.0853C124.436 36.0853 124.281 36.1496 124.167 36.264C124.052 36.3784 123.988 36.5336 123.988 36.6955C123.988 36.8573 124.052 37.0125 124.167 37.127C124.281 37.2414 124.436 37.3057 124.598 37.3057C124.76 37.3057 124.915 37.2414 125.029 37.127C125.144 37.0125 125.208 36.8573 125.208 36.6955ZM123.284 36.6955C123.284 36.5336 123.219 36.3784 123.105 36.264C122.991 36.1496 122.835 36.0853 122.673 36.0853C122.512 36.0853 122.356 36.1496 122.242 36.264C122.128 36.3784 122.063 36.5336 122.063 36.6955C122.063 36.8573 122.128 37.0125 122.242 37.127C122.356 37.2414 122.512 37.3057 122.673 37.3057C122.835 37.3057 122.991 37.2414 123.105 37.127C123.219 37.0125 123.284 36.8573 123.284 36.6955ZM121.203 36.6955C121.203 36.5336 121.139 36.3784 121.025 36.264C120.91 36.1496 120.755 36.0853 120.593 36.0853C120.431 36.0853 120.276 36.1496 120.162 36.264C120.047 36.3784 119.983 36.5336 119.983 36.6955C119.983 36.8573 120.047 37.0125 120.162 37.127C120.276 37.2414 120.431 37.3057 120.593 37.3057C120.755 37.3057 120.91 37.2414 121.025 37.127C121.139 37.0125 121.203 36.8573 121.203 36.6955ZM119.279 36.6955C119.279 36.5336 119.215 36.3784 119.1 36.264C118.986 36.1496 118.83 36.0853 118.669 36.0853C118.507 36.0853 118.352 36.1496 118.237 36.264C118.123 36.3784 118.058 36.5336 118.058 36.6955C118.058 36.8573 118.123 37.0125 118.237 37.127C118.352 37.2414 118.507 37.3057 118.669 37.3057C118.83 37.3057 118.986 37.2414 119.1 37.127C119.215 37.0125 119.279 36.8573 119.279 36.6955ZM117.354 36.6955C117.354 36.5336 117.29 36.3784 117.175 36.264C117.061 36.1496 116.906 36.0853 116.744 36.0853C116.582 36.0853 116.427 36.1496 116.313 36.264C116.198 36.3784 116.134 36.5336 116.134 36.6955C116.134 36.8573 116.198 37.0125 116.313 37.127C116.427 37.2414 116.582 37.3057 116.744 37.3057C116.906 37.3057 117.061 37.2414 117.175 37.127C117.29 37.0125 117.354 36.8573 117.354 36.6955Z" fill="white"/>
<path d="M236.953 36.682H231.106C227.91 36.682 225.32 39.2728 225.32 42.4688C225.32 44.1539 226.04 45.6701 227.19 46.7277C226.81 48.0184 225.847 48.8409 223.237 49.3528C226.078 49.705 228.134 49.2568 229.487 48.0243C230.013 48.1777 230.558 48.2555 231.106 48.2556H236.953C240.149 48.2556 242.74 45.6648 242.74 42.4688C242.739 39.2727 240.149 36.682 236.953 36.682Z" fill="#52A1FA"/>
<path d="M228.3 42.4652C228.3 42.3033 228.365 42.1481 228.479 42.0337C228.594 41.9193 228.749 41.855 228.911 41.855C229.072 41.855 229.228 41.9193 229.342 42.0337C229.457 42.1481 229.521 42.3033 229.521 42.4652C229.521 42.627 229.457 42.7822 229.342 42.8967C229.228 43.0111 229.072 43.0754 228.911 43.0754C228.749 43.0754 228.594 43.0111 228.479 42.8967C228.365 42.7822 228.3 42.627 228.3 42.4652ZM230.225 42.4652C230.225 42.3033 230.289 42.1481 230.404 42.0337C230.518 41.9193 230.673 41.855 230.835 41.855C230.997 41.855 231.152 41.9193 231.267 42.0337C231.381 42.1481 231.445 42.3033 231.445 42.4652C231.445 42.627 231.381 42.7822 231.267 42.8967C231.152 43.0111 230.997 43.0754 230.835 43.0754C230.673 43.0754 230.518 43.0111 230.404 42.8967C230.289 42.7822 230.225 42.627 230.225 42.4652ZM232.15 42.4652C232.15 42.3033 232.214 42.1481 232.328 42.0337C232.443 41.9193 232.598 41.855 232.76 41.855C232.922 41.855 233.077 41.9193 233.191 42.0337C233.306 42.1481 233.37 42.3033 233.37 42.4652C233.37 42.627 233.306 42.7822 233.191 42.8967C233.077 43.0111 232.922 43.0754 232.76 43.0754C232.598 43.0754 232.443 43.0111 232.328 42.8967C232.214 42.7822 232.15 42.627 232.15 42.4652ZM234.23 42.4652C234.23 42.3033 234.294 42.1481 234.408 42.0337C234.523 41.9193 234.678 41.855 234.84 41.855C235.002 41.855 235.157 41.9193 235.271 42.0337C235.386 42.1481 235.45 42.3033 235.45 42.4652C235.45 42.627 235.386 42.7822 235.271 42.8967C235.157 43.0111 235.002 43.0754 234.84 43.0754C234.678 43.0754 234.523 43.0111 234.408 42.8967C234.294 42.7822 234.23 42.627 234.23 42.4652ZM236.154 42.4652C236.154 42.3033 236.219 42.1481 236.333 42.0337C236.448 41.9193 236.603 41.855 236.765 41.855C236.926 41.855 237.082 41.9193 237.196 42.0337C237.311 42.1481 237.375 42.3033 237.375 42.4652C237.375 42.627 237.311 42.7822 237.196 42.8967C237.082 43.0111 236.926 43.0754 236.765 43.0754C236.603 43.0754 236.448 43.0111 236.333 42.8967C236.219 42.7822 236.154 42.627 236.154 42.4652ZM238.079 42.4652C238.079 42.3033 238.143 42.1481 238.258 42.0337C238.372 41.9193 238.527 41.855 238.689 41.855C238.851 41.855 239.006 41.9193 239.121 42.0337C239.235 42.1481 239.299 42.3033 239.299 42.4652C239.299 42.627 239.235 42.7822 239.121 42.8967C239.006 43.0111 238.851 43.0754 238.689 43.0754C238.527 43.0754 238.372 43.0111 238.258 42.8967C238.143 42.7822 238.079 42.627 238.079 42.4652Z" fill="white"/>
<path d="M250.755 120.259H241.311C241.208 120.259 241.108 120.217 241.034 120.144C240.961 120.07 240.92 119.971 240.92 119.867C240.92 119.763 240.961 119.663 241.034 119.59C241.108 119.516 241.208 119.475 241.311 119.475H250.755C250.859 119.475 250.959 119.516 251.032 119.59C251.106 119.663 251.147 119.763 251.147 119.867C251.147 119.971 251.106 120.07 251.032 120.144C250.959 120.217 250.859 120.259 250.755 120.259Z" fill="#2A2D45"/>
<path d="M217.443 28.2972C218.183 25.6487 216.636 22.9016 213.988 22.1613C211.339 21.421 208.592 22.9678 207.852 25.6163C207.111 28.2647 208.658 31.0119 211.307 31.7522C213.955 32.4925 216.702 30.9456 217.443 28.2972Z" fill="#5C82A8"/>
<path d="M217.161 27.7991C217.622 25.3101 215.977 22.919 213.488 22.4586C210.999 21.9982 208.608 23.6427 208.148 26.1318C207.687 28.6209 209.332 31.0119 211.821 31.4723C214.31 31.9328 216.701 30.2882 217.161 27.7991Z" fill="white"/>
<path d="M217.056 26.9599C217.056 29.3946 215.083 31.3685 212.648 31.3685C210.213 31.3685 208.239 29.3946 208.239 26.9599C208.239 24.5251 210.213 22.5512 212.648 22.5512C215.083 22.5512 217.056 24.5251 217.056 26.9599Z" fill="white"/>
<path d="M217.056 26.9599C217.056 29.3946 215.083 31.3685 212.648 31.3685C210.213 31.3685 208.239 29.3946 208.239 26.9599C208.239 24.5251 210.213 22.5512 212.648 22.5512C215.083 22.5512 217.056 24.5251 217.056 26.9599Z" fill="white"/>
<path d="M212.718 23.2619C212.833 23.2619 212.926 23.1686 212.926 23.0536C212.926 22.9385 212.833 22.8453 212.718 22.8453C212.603 22.8453 212.51 22.9385 212.51 23.0536C212.51 23.1686 212.603 23.2619 212.718 23.2619Z" fill="#CCCCCC"/>
<path d="M212.51 31.0526C212.51 30.9973 212.531 30.9443 212.571 30.9052C212.61 30.8662 212.663 30.8442 212.718 30.8442C212.773 30.8442 212.826 30.8662 212.865 30.9052C212.904 30.9443 212.926 30.9973 212.926 31.0526C212.926 31.1078 212.904 31.1608 212.865 31.1998C212.826 31.2389 212.773 31.2609 212.718 31.2609C212.663 31.2609 212.61 31.2389 212.571 31.1998C212.531 31.1608 212.51 31.1078 212.51 31.0526Z" fill="#CCCCCC"/>
<path d="M216.755 27.2684C216.87 27.2684 216.963 27.1752 216.963 27.0601C216.963 26.9451 216.87 26.8518 216.755 26.8518C216.64 26.8518 216.546 26.9451 216.546 27.0601C216.546 27.1752 216.64 27.2684 216.755 27.2684Z" fill="#CCCCCC"/>
<path d="M208.674 27.278C208.789 27.278 208.882 27.1847 208.882 27.0697C208.882 26.9547 208.789 26.8614 208.674 26.8614C208.558 26.8614 208.465 26.9547 208.465 27.0697C208.465 27.1847 208.558 27.278 208.674 27.278Z" fill="#CCCCCC"/>
<path d="M214.543 25.2096L214.007 25.3591C214.002 25.3603 213.998 25.3625 213.995 25.3657C213.992 25.3688 213.99 25.3727 213.989 25.3769C213.988 25.3812 213.988 25.3857 213.989 25.3899C213.99 25.3941 213.993 25.398 213.996 25.4011L214.153 25.5557L212.955 26.7543L212.953 26.7567C212.902 26.718 212.844 26.6916 212.781 26.6795C212.719 26.6674 212.654 26.6701 212.593 26.6872C212.532 26.7043 212.476 26.7355 212.429 26.7782C212.381 26.8209 212.345 26.874 212.322 26.9333C212.299 26.9926 212.29 27.0564 212.296 27.1197C212.302 27.183 212.323 27.244 212.356 27.2979C212.39 27.3518 212.436 27.3972 212.49 27.4303C212.544 27.4635 212.606 27.4836 212.669 27.4889V29.6691H212.514C212.509 29.6691 212.504 29.6704 212.5 29.6728C212.496 29.6752 212.493 29.6787 212.49 29.6829C212.488 29.6871 212.486 29.6919 212.486 29.6968C212.486 29.7016 212.488 29.7064 212.49 29.7106L212.677 30.0339C212.688 30.0524 212.714 30.0524 212.725 30.0339L212.912 29.7106C212.914 29.7064 212.915 29.7016 212.915 29.6968C212.915 29.6919 212.914 29.6871 212.912 29.6829C212.909 29.6787 212.906 29.6752 212.901 29.6728C212.897 29.6704 212.892 29.6691 212.888 29.6691H212.739V27.4889C212.81 27.4829 212.879 27.4582 212.937 27.4173C212.996 27.3765 213.043 27.3209 213.074 27.2562C213.104 27.1915 213.117 27.1199 213.112 27.0485C213.106 26.9771 213.082 26.9086 213.041 26.8496C213.043 26.8482 213.044 26.847 213.046 26.8456L214.245 25.646L214.394 25.7913C214.397 25.7944 214.401 25.7967 214.405 25.7978C214.409 25.7989 214.414 25.7988 214.418 25.7977C214.422 25.7965 214.426 25.7942 214.429 25.7911C214.432 25.7879 214.434 25.784 214.436 25.7797L214.574 25.2401C214.575 25.2358 214.575 25.2313 214.574 25.227C214.573 25.2228 214.571 25.2189 214.568 25.2158C214.565 25.2127 214.561 25.2105 214.556 25.2094C214.552 25.2083 214.548 25.2084 214.543 25.2096Z" fill="#CCCCCC"/>
<path d="M212.648 29.8695C212.629 29.8695 212.613 29.8452 212.613 29.8155V27.3586C212.613 27.3287 212.629 27.3046 212.648 27.3046C212.667 27.3046 212.683 27.3288 212.683 27.3586V29.8155C212.683 29.8454 212.667 29.8695 212.648 29.8695Z" fill="#5C82A8"/>
<path d="M212.832 29.5475H212.458C212.453 29.5475 212.449 29.5488 212.444 29.5512C212.44 29.5537 212.437 29.5572 212.434 29.5614C212.432 29.5656 212.431 29.5704 212.431 29.5752C212.431 29.5801 212.432 29.5848 212.434 29.589L212.621 29.9124C212.632 29.9308 212.658 29.9308 212.669 29.9124L212.856 29.589C212.858 29.5848 212.859 29.58 212.859 29.5752C212.859 29.5703 212.858 29.5656 212.856 29.5614C212.853 29.5572 212.85 29.5537 212.845 29.5513C212.841 29.5488 212.837 29.5476 212.832 29.5475ZM212.944 26.7429C212.932 26.7429 212.919 26.7391 212.909 26.732C212.898 26.7249 212.89 26.7149 212.885 26.7031C212.88 26.6914 212.879 26.6784 212.881 26.6659C212.884 26.6534 212.89 26.642 212.899 26.6329L214.238 25.2936C214.244 25.2873 214.251 25.2823 214.259 25.2787C214.267 25.2752 214.275 25.2733 214.284 25.2732C214.293 25.2731 214.301 25.2746 214.309 25.2779C214.317 25.2811 214.325 25.2859 214.331 25.2921C214.337 25.2982 214.342 25.3055 214.345 25.3135C214.348 25.3215 214.35 25.3301 214.35 25.3387C214.349 25.3474 214.348 25.3559 214.344 25.3638C214.341 25.3717 214.335 25.3788 214.329 25.3847L212.99 26.724C212.984 26.73 212.977 26.7347 212.969 26.738C212.961 26.7412 212.953 26.7429 212.944 26.7429Z" fill="#5C82A8"/>
<path d="M214.487 25.0881L213.951 25.2376C213.946 25.2388 213.943 25.2411 213.939 25.2442C213.936 25.2473 213.934 25.2512 213.933 25.2555C213.932 25.2597 213.932 25.2642 213.933 25.2684C213.934 25.2727 213.937 25.2765 213.94 25.2796L214.338 25.6697C214.341 25.6728 214.345 25.675 214.349 25.6762C214.353 25.6773 214.358 25.6772 214.362 25.676C214.366 25.6749 214.37 25.6726 214.373 25.6694C214.376 25.6663 214.379 25.6624 214.38 25.6581L214.518 25.1184C214.52 25.1142 214.52 25.1097 214.518 25.1055C214.517 25.1012 214.515 25.0974 214.512 25.0943C214.509 25.0912 214.505 25.089 214.5 25.0879C214.496 25.0869 214.492 25.0869 214.487 25.0881ZM212.239 26.9599C212.239 26.8514 212.282 26.7473 212.359 26.6706C212.435 26.5939 212.539 26.5507 212.648 26.5507C212.756 26.5507 212.861 26.5939 212.937 26.6706C213.014 26.7473 213.057 26.8514 213.057 26.9599C213.057 27.0685 213.014 27.1725 212.937 27.2493C212.861 27.326 212.756 27.3691 212.648 27.3691C212.539 27.3691 212.435 27.326 212.359 27.2493C212.282 27.1725 212.239 27.0685 212.239 26.9599Z" fill="#5C82A8"/>
<path d="M212.645 23.1635C212.76 23.1635 212.853 23.0702 212.853 22.9552C212.853 22.8402 212.76 22.7469 212.645 22.7469C212.53 22.7469 212.437 22.8402 212.437 22.9552C212.437 23.0702 212.53 23.1635 212.645 23.1635Z" fill="#5C82A8"/>
<path d="M212.645 31.1626C212.76 31.1626 212.853 31.0693 212.853 30.9543C212.853 30.8392 212.76 30.746 212.645 30.746C212.53 30.746 212.437 30.8392 212.437 30.9543C212.437 31.0693 212.53 31.1626 212.645 31.1626Z" fill="#5C82A8"/>
<path d="M216.682 27.1702C216.797 27.1702 216.89 27.0769 216.89 26.9619C216.89 26.8468 216.797 26.7535 216.682 26.7535C216.567 26.7535 216.473 26.8468 216.473 26.9619C216.473 27.0769 216.567 27.1702 216.682 27.1702Z" fill="#5C82A8"/>
<path d="M208.601 27.1794C208.716 27.1794 208.809 27.0862 208.809 26.9711C208.809 26.8561 208.716 26.7628 208.601 26.7628C208.486 26.7628 208.392 26.8561 208.392 26.9711C208.392 27.0862 208.486 27.1794 208.601 27.1794Z" fill="#5C82A8"/>
<path d="M241.692 85.6216C241.165 85.7518 240.655 86.0075 240.311 86.4245C240.002 86.7983 239.847 87.2739 239.747 87.7469C239.647 88.2201 239.594 88.7039 239.457 89.1679C239.358 89.5043 239.175 89.8653 238.836 89.963L239.479 90.5341C239.966 90.3182 240.239 89.7927 240.367 89.278C240.496 88.7633 240.518 88.2232 240.691 87.7217C240.885 87.1591 241.265 86.6699 241.729 86.2951C242.194 85.9203 242.74 85.6554 243.308 85.4673C242.765 85.4763 242.218 85.4914 241.692 85.6216Z" fill="#A9BEDB"/>
<path d="M238.434 88.9925C238.165 88.6712 237.953 88.3007 237.65 88.0106C237.215 87.5945 236.606 87.3725 236.003 87.3832C235.399 87.394 234.807 87.6307 234.346 88.0173C235.23 87.6072 236.367 87.8219 237.039 88.526C237.282 88.781 237.464 89.0871 237.687 89.3601C237.909 89.6333 238.19 89.8827 238.535 89.9593L239.486 89.6164C239.066 89.5995 238.704 89.3139 238.434 88.9925Z" fill="#BACCE6"/>
<path d="M243.288 85.7203C243.343 86.6894 242.721 87.66 241.814 88.0193C241.486 88.1495 241.133 88.2042 240.795 88.3086C240.457 88.4129 240.121 88.5797 239.921 88.87L239.898 89.9371C240.07 89.555 240.461 89.2652 240.861 89.1354C241.261 89.0057 241.685 88.9476 242.069 88.7752C242.618 88.5277 243.051 88.0471 243.265 87.4859C243.479 86.9248 243.477 86.29 243.288 85.7203ZM239.044 87.8064C238.822 87.3308 238.469 86.9303 238.12 86.5377C237.826 86.2074 237.525 85.8665 237.377 85.4505C237.229 85.0346 237.27 84.5201 237.595 84.22C237.155 84.3588 236.867 84.8105 236.815 85.2673C236.763 85.7241 236.91 86.1818 237.112 86.5955C237.314 87.0091 237.571 87.3947 237.762 87.8131C237.954 88.2315 237.975 89.3872 237.89 89.8391L239.037 89.7862C239.255 89.3093 239.265 88.2819 239.044 87.8064Z" fill="#A9BEDB"/>
<path d="M239.909 86.915C240.034 85.1177 238.906 83.3011 237.234 82.608C238.417 83.8065 239.022 85.5456 238.838 87.215C238.792 87.6328 238.699 88.0484 238.714 88.4684C238.729 88.8885 238.931 89.7147 239.266 89.9706L240.242 89.9694C239.859 89.5625 239.747 89.1146 239.779 88.558C239.811 88.0012 239.87 87.4713 239.909 86.915Z" fill="#BACCE6"/>
<path d="M241.893 90.5695L241.824 91.1114L241.366 94.7109H237.332L236.826 91.1114L236.75 90.5695H241.893Z" fill="#A0B8DB"/>
<path d="M241.792 90.5698H236.851C236.519 90.5698 236.25 90.3518 236.25 90.0828C236.25 89.8138 236.519 89.5958 236.851 89.5958H241.792C242.124 89.5958 242.392 89.8138 242.392 90.0828C242.393 90.3516 242.124 90.5698 241.792 90.5698Z" fill="#A0B8DB"/>
</g>
<defs>
<clipPath id="clip0_380_12712">
<rect width="318" height="127" fill="white"/>
</clipPath>
</defs>
</svg>
