<svg width="318" height="127" viewBox="0 0 318 127" fill="none" xmlns="http://www.w3.org/2000/svg">
<g clip-path="url(#clip0_380_12706)">
<rect width="318" height="127" fill="#F5FAFE"/>
<path d="M63.8177 115.704C63.8179 115.763 63.8417 115.821 63.8838 115.863C63.926 115.905 63.9831 115.929 64.0427 115.929H252.957C253.017 115.929 253.074 115.905 253.116 115.863C253.158 115.821 253.182 115.763 253.182 115.704C253.182 115.644 253.158 115.587 253.116 115.545C253.074 115.503 253.017 115.479 252.957 115.479H64.0427C63.9831 115.479 63.926 115.503 63.8838 115.545C63.8417 115.587 63.8179 115.644 63.8177 115.704Z" fill="url(#paint0_linear_380_12706)"/>
<path d="M91.1013 94.0341C91.1015 94.0937 91.1253 94.1508 91.1674 94.193C91.2096 94.2352 91.2667 94.2589 91.3263 94.2591H225.676C225.736 94.2589 225.793 94.2352 225.835 94.193C225.877 94.1508 225.901 94.0937 225.901 94.0341C225.901 93.9745 225.877 93.9173 225.835 93.8752C225.793 93.833 225.736 93.8093 225.676 93.8091H91.3263C91.2967 93.8088 91.2673 93.8144 91.2399 93.8256C91.2124 93.8368 91.1875 93.8534 91.1666 93.8743C91.1456 93.8953 91.129 93.9202 91.1178 93.9476C91.1066 93.9751 91.101 94.0045 91.1013 94.0341Z" fill="url(#paint1_linear_380_12706)"/>
<path d="M192.961 35.2304V94.0251H121.314V35.2304C121.318 32.2469 122.504 29.3865 124.613 27.2767C126.723 25.1669 129.583 23.9798 132.566 23.9759H181.709C184.692 23.9798 187.552 25.1669 189.662 27.2767C191.771 29.3865 192.958 32.2469 192.961 35.2304Z" fill="white"/>
<path d="M181.682 23.5349H132.54C129.437 23.5388 126.462 24.7732 124.268 26.9675C122.074 29.1617 120.841 32.1365 120.837 35.2394V94.4841H193.384V35.2394C193.381 32.1365 192.147 29.1617 189.953 26.9675C187.759 24.7732 184.785 23.5388 181.682 23.5349ZM192.934 94.0341H121.287V35.2394C121.291 32.2559 122.477 29.3956 124.587 27.2857C126.696 25.1759 129.556 23.9888 132.54 23.9849H181.682C184.665 23.9888 187.525 25.1759 189.635 27.2857C191.744 29.3956 192.931 32.2559 192.934 35.2394V94.0341Z" fill="url(#paint2_linear_380_12706)"/>
<path d="M170.447 30.8654H170.092V30.7124C170.09 28.9869 169.403 27.3328 168.183 26.1129C166.962 24.893 165.308 24.207 163.583 24.2054H150.159C148.434 24.207 146.779 24.893 145.559 26.1129C144.339 27.3328 143.652 28.9869 143.65 30.7124V30.8654H143.297C142.414 30.8654 141.568 31.216 140.944 31.8401C140.319 32.4641 139.969 33.3106 139.969 34.1931C139.969 35.0757 140.319 35.9221 140.944 36.5462C141.568 37.1703 142.414 37.5209 143.297 37.5209H143.751C144.141 40.726 145.691 43.6776 148.108 45.8184C150.525 47.9592 153.642 49.1411 156.871 49.1411C160.1 49.1411 163.217 47.9592 165.634 45.8184C168.051 43.6776 169.601 40.726 169.991 37.5209H170.447C171.33 37.5209 172.176 37.1703 172.8 36.5462C173.425 35.9221 173.775 35.0757 173.775 34.1931C173.775 33.3106 173.425 32.4641 172.8 31.8401C172.176 31.216 171.33 30.8654 170.447 30.8654Z" fill="url(#paint3_linear_380_12706)"/>
<path d="M142.732 32.3616C142.685 32.3661 141.553 32.4651 141.234 33.9074C141.227 33.9362 141.226 33.966 141.232 33.9951C141.237 34.0241 141.247 34.0519 141.263 34.0768C141.279 34.1017 141.3 34.1232 141.324 34.14C141.348 34.1569 141.376 34.1688 141.405 34.1751C141.421 34.1788 141.437 34.1804 141.454 34.1796C141.505 34.1793 141.555 34.1619 141.595 34.13C141.635 34.0982 141.663 34.0539 141.675 34.0041C141.92 32.9016 142.732 32.8139 142.768 32.8116C142.797 32.8094 142.826 32.8015 142.852 32.7882C142.879 32.7749 142.902 32.7565 142.921 32.7342C142.941 32.7118 142.955 32.6859 142.964 32.6579C142.974 32.6298 142.977 32.6003 142.975 32.5709C142.97 32.511 142.942 32.4555 142.896 32.4164C142.851 32.3772 142.792 32.3575 142.732 32.3616ZM172.576 33.9074C172.257 32.4651 171.125 32.3661 171.078 32.3616C171.018 32.3568 170.959 32.376 170.913 32.4148C170.868 32.4536 170.839 32.5089 170.835 32.5686C170.83 32.6283 170.849 32.6874 170.888 32.733C170.927 32.7786 170.982 32.8068 171.042 32.8116C171.075 32.8139 171.89 32.8994 172.135 34.0041C172.146 34.0542 172.174 34.099 172.214 34.131C172.254 34.1629 172.304 34.1801 172.356 34.1796C172.372 34.1791 172.389 34.1776 172.405 34.1751C172.434 34.1688 172.461 34.1569 172.485 34.14C172.51 34.1232 172.53 34.1017 172.546 34.0768C172.562 34.0519 172.573 34.0241 172.578 33.9951C172.583 33.966 172.582 33.9362 172.576 33.9074Z" fill="#E6635D"/>
<path d="M209.67 101.646C207.377 103.234 200.697 105.718 194.777 106.749L194.757 106.751L119.251 106.749C113.32 105.718 107.301 102.933 104.923 101.286C104.576 101.048 104.316 100.704 104.181 100.306C104.047 99.9071 104.046 99.4756 104.178 99.0764C104.73 97.3956 105.344 95.7104 106.012 94.0364V94.0341C106.017 94.0251 106.019 94.0161 106.023 94.0071C106.026 94.0049 106.026 94.0026 106.028 94.0004C106.032 93.9914 106.037 93.9801 106.044 93.9644C111.696 79.7916 121.085 66.1926 127.304 58.9634C127.797 58.3919 128.269 57.8586 128.717 57.3704C130.731 55.1847 133.247 53.5227 136.047 52.5284C136.101 52.5081 136.155 52.4879 136.209 52.4699C137.062 52.1746 137.935 51.9429 138.822 51.7769L139.978 51.5654L140.048 51.5519H149.493V52.9536L156.608 58.6214L164.179 52.8636L164.055 51.5519L173.393 51.5564C173.512 51.5564 173.631 51.5586 173.751 51.5631C173.906 51.5676 174.066 51.5744 174.23 51.5834L174.331 51.5901C174.408 51.5946 174.484 51.6014 174.561 51.6104C174.97 51.6464 175.38 51.7026 175.785 51.7769C175.785 51.7777 175.786 51.7784 175.788 51.7788C175.789 51.7792 175.79 51.7793 175.791 51.7791C176.528 51.9156 177.256 52.099 177.969 52.3281C181.003 53.2919 183.732 55.0298 185.889 57.3704C192.354 64.4196 204.729 82.0754 210.414 99.4364C210.547 99.8356 210.546 100.267 210.411 100.666C210.277 101.064 210.017 101.408 209.67 101.646Z" fill="url(#paint4_linear_380_12706)"/>
<path d="M164.755 48.1364C164.51 49.3348 164.435 50.5619 164.532 51.7814C164.566 52.2854 164.627 52.8029 164.712 53.3294L164.737 53.4711L156.624 58.9116L149.007 53.9054L149.019 53.7726C149.115 52.5329 149.122 51.3179 149.1 50.3324V50.3009C149.091 49.9724 149.079 49.6709 149.068 49.4031L149.066 49.3581C149.03 48.5976 148.987 48.1229 148.985 48.1116L148.96 47.8664H164.814L164.755 48.1364Z" fill="url(#paint5_linear_380_12706)"/>
<path opacity="0.2" d="M162.588 55.2914C162.588 55.2914 161.117 58.2119 161.954 62.3429C162.445 64.7925 163.075 67.2121 163.841 69.5901C163.841 69.5901 161.861 72.7064 162.462 73.4871C162.639 73.7136 162.87 73.8917 163.134 74.005C163.398 74.1183 163.686 74.163 163.972 74.1351C163.972 74.1351 164.348 69.5879 163.972 67.8756C163.596 66.1634 162.075 57.6314 162.588 55.2914Z" fill="#03007A"/>
<path d="M173.678 51.2436C173.655 51.3368 173.603 51.4202 173.53 51.4821L173.525 51.4844C173.482 51.5197 173.433 51.5464 173.379 51.5631C164.838 54.1911 158.878 57.0351 156.578 59.0916C157.312 57.7641 156.644 56.2769 164.496 53.1764L164.658 53.0504L164.636 52.9266C164.488 51.9591 164.443 50.9787 164.501 50.0016C164.532 49.3999 164.612 48.8018 164.739 48.2129L165.684 47.4119C165.695 47.4119 165.707 47.4141 165.72 47.4141C165.745 47.4164 165.774 47.4186 165.806 47.4209H165.808C165.842 47.4231 165.878 47.4254 165.918 47.4299C166.08 47.4434 166.298 47.4681 166.564 47.5064C166.622 47.5154 166.683 47.5244 166.746 47.5334C166.791 47.5401 166.834 47.5491 166.881 47.5559L167.885 47.7651C167.977 47.7876 168.071 47.8101 168.166 47.8371L168.458 47.9181C168.546 47.9429 168.636 47.9699 168.726 47.9969L169.068 48.1094C169.965 48.4093 170.825 48.8101 171.631 49.3041V49.3064C172.335 49.735 172.984 50.2464 173.566 50.8296C173.62 50.8825 173.658 50.9487 173.678 51.0214C173.698 51.0941 173.698 51.1708 173.678 51.2436Z" fill="white"/>
<path d="M156.621 59.0084C153.667 57.2556 148.791 54.1911 140.25 51.5631C140.202 51.5472 140.156 51.5236 140.115 51.4934C140.109 51.4904 140.104 51.4866 140.099 51.4821C140.026 51.4202 139.974 51.3368 139.951 51.2436C139.931 51.1708 139.932 51.0942 139.951 51.0214C139.971 50.9487 140.01 50.8825 140.063 50.8296C140.944 49.9555 141.968 49.238 143.09 48.7079C143.091 48.708 143.092 48.7079 143.093 48.7075C143.095 48.7071 143.096 48.7065 143.096 48.7056C143.93 48.3075 144.802 47.9961 145.7 47.7764C145.769 47.7584 145.839 47.7426 145.907 47.7269C146.109 47.6796 146.303 47.6391 146.485 47.6031C146.609 47.5806 146.726 47.5604 146.836 47.5424C146.921 47.5289 147.002 47.5154 147.081 47.5041C147.104 47.5019 147.124 47.4974 147.146 47.4951C147.245 47.4816 147.335 47.4704 147.416 47.4614C147.594 47.4389 147.74 47.4276 147.844 47.4186C147.884 47.4164 147.918 47.4141 147.945 47.4119L148.89 48.2129C149.105 49.262 149.211 50.3303 149.207 51.4011C149.212 51.9937 149.188 52.5862 149.133 53.1764C155.269 56.2656 156.243 57.9261 156.621 59.0084Z" fill="white"/>
<path opacity="0.2" d="M164.532 53.2101C164.532 53.2101 167.198 51.7701 169.068 51.4844C169.068 51.4844 165.187 51.8309 164.501 52.5104L164.532 53.2101ZM149.133 53.1764C148.735 52.9761 148.301 52.7781 147.83 52.5914C147.145 52.3183 146.442 52.0906 145.727 51.9096C146.11 51.8966 146.494 51.9063 146.876 51.9389C147.65 51.9876 148.411 52.1553 149.133 52.4361V53.1764Z" fill="#03007A"/>
<path opacity="0.2" d="M173.678 51.2436C173.655 51.3368 173.603 51.4202 173.53 51.4821L173.525 51.4844C173.447 51.3696 172.434 49.0836 168.8 49.4031C167.419 49.6574 165.785 50.2514 164.519 51.5631L164.501 50.0016C164.532 49.3999 164.612 48.8018 164.739 48.2129L165.684 47.4119C165.695 47.4119 165.707 47.4141 165.72 47.4141C165.745 47.4164 165.772 47.4164 165.806 47.4209H165.808C165.842 47.4231 165.878 47.4254 165.918 47.4299C166.08 47.4434 166.298 47.4681 166.564 47.5064C166.622 47.5154 166.683 47.5244 166.746 47.5334C166.791 47.5401 166.834 47.5491 166.881 47.5559L167.885 47.7651C167.977 47.7876 168.071 47.8101 168.166 47.8371L168.458 47.9181C168.546 47.9429 168.636 47.9699 168.726 47.9969L169.068 48.1094C169.965 48.4093 170.825 48.8101 171.631 49.3041V49.3064C172.335 49.735 172.984 50.2464 173.566 50.8296C173.62 50.8825 173.658 50.9487 173.678 51.0214C173.698 51.0941 173.698 51.1708 173.678 51.2436ZM149.207 51.4011C148.46 50.7079 147.638 50.0997 146.757 49.5876C144.446 48.4109 141.933 49.7924 140.563 50.6834C139.89 51.1221 140.25 51.5631 140.25 51.5631C140.204 51.5426 140.159 51.5193 140.115 51.4934C140.109 51.4904 140.104 51.4866 140.099 51.4821C140.026 51.4202 139.974 51.3368 139.951 51.2436C139.931 51.1708 139.932 51.0942 139.951 51.0214C139.971 50.9487 140.01 50.8825 140.063 50.8296C140.944 49.9555 141.968 49.238 143.09 48.7079C143.091 48.708 143.092 48.7079 143.093 48.7075C143.095 48.7071 143.096 48.7065 143.096 48.7056C143.93 48.3075 144.802 47.9961 145.7 47.7764C145.769 47.7584 145.839 47.7426 145.907 47.7269C146.111 47.6796 146.305 47.6391 146.485 47.6031C146.609 47.5806 146.726 47.5604 146.836 47.5424C146.921 47.5289 147.002 47.5154 147.081 47.5041C147.104 47.5019 147.124 47.4974 147.146 47.4951C147.243 47.4816 147.333 47.4704 147.416 47.4614C147.594 47.4389 147.74 47.4276 147.844 47.4186C147.884 47.4164 147.918 47.4141 147.945 47.4119L148.89 48.2129C149.105 49.262 149.211 50.3303 149.207 51.4011ZM150.645 55.2914C150.645 55.2914 153.554 65.3736 151.253 68.6676C151.253 68.6676 152.393 71.3609 152.139 71.8649C151.885 72.3689 150.843 72.0066 150.843 72.0066C150.843 72.0066 150.017 70.3529 150.384 69.3764C150.749 68.3999 150.645 55.2914 150.645 55.2914Z" fill="#03007A"/>
<path d="M170.065 30.8474L169.894 31.1534L166.578 26.6849C166.264 26.2623 165.812 25.9639 165.3 25.8424C164.789 25.721 164.25 25.7843 163.781 26.0211L158.068 28.8854C157.768 29.0351 157.437 29.112 157.101 29.1101C156.766 29.1081 156.436 29.0273 156.138 28.8741L150.535 25.9829C150.089 25.751 149.577 25.6771 149.083 25.7731C148.589 25.8691 148.142 26.1294 147.815 26.5116L143.81 31.1601L143.668 30.8271C142.415 27.8796 141.767 23.3369 143.146 19.8314C144.282 16.9401 147.588 15.8286 149.174 15.2954C149.392 15.2234 149.577 15.1604 149.721 15.1064C149.745 15.0816 149.793 15.0299 149.835 14.9826C151.611 13.0499 154.155 12.0711 157.4 12.0711C160.885 12.0711 163.254 13.9814 164.267 14.7981C164.384 14.8989 164.506 14.9928 164.634 15.0794C164.733 15.0996 164.868 15.1289 165.018 15.1604C166.798 15.5406 170.961 16.4271 171.651 20.8056C172.522 26.3181 170.09 30.8046 170.065 30.8474Z" fill="url(#paint6_linear_380_12706)"/>
<path opacity="0.3" d="M164.755 48.0981C164.514 49.0589 164.44 51.3246 164.532 52.4339C162.35 53.1854 158.948 54.2181 156.578 54.0179C153.381 53.7456 149.099 49.9746 149.099 49.9746V49.9476L149.068 49.1804L149.066 49.1421L149.016 47.8686H164.813L164.755 48.0981Z" fill="#03007A"/>
<path d="M161.484 44.1561L161.443 44.0144C161.2 43.1584 160.685 42.4048 159.976 41.8673C159.267 41.3299 158.402 41.0379 157.512 41.0354H156.212C155.296 41.0349 154.407 41.3414 153.686 41.906C152.966 42.4705 152.455 43.2604 152.236 44.1494L143.65 36.0066V42.6779C143.652 43.8283 143.922 44.9625 144.439 45.9902C144.956 47.0179 145.706 47.9107 146.629 48.5976C149.804 50.9444 154.158 53.7434 156.869 53.7434C159.58 53.7434 163.934 50.9444 167.109 48.5976C168.032 47.9109 168.782 47.0181 169.299 45.9904C169.816 44.9627 170.086 43.8284 170.088 42.6779V36.0066L161.484 44.1561Z" fill="url(#paint7_linear_380_12706)"/>
<path d="M158.045 44.6556C158.028 44.5983 157.989 44.5503 157.936 44.522C157.883 44.4937 157.821 44.4876 157.764 44.5049C155.735 45.1214 155.053 43.6116 155.024 43.5441C154.999 43.4915 154.955 43.4505 154.9 43.4297C154.846 43.4089 154.786 43.41 154.732 43.4327C154.679 43.4554 154.636 43.498 154.613 43.5515C154.59 43.605 154.589 43.6652 154.61 43.7196C154.814 44.1375 155.133 44.4892 155.528 44.734C155.924 44.9788 156.381 45.1069 156.846 45.1034C157.202 45.0996 157.556 45.0427 157.895 44.9346C157.952 44.9176 158 44.8786 158.028 44.8263C158.056 44.774 158.062 44.7126 158.045 44.6556Z" fill="#E6635D"/>
<path d="M150.542 54.0944C150.177 53.9684 149.835 54.0696 149.745 54.3306C149.723 54.4064 149.721 54.4869 149.74 54.5636C149.759 54.6404 149.798 54.7107 149.853 54.7671C149.955 54.8782 150.084 54.9612 150.227 55.0079C150.325 55.0425 150.428 55.0607 150.533 55.0619C150.635 55.0715 150.738 55.0487 150.826 54.9966C150.915 54.9444 150.984 54.8657 151.025 54.7716C151.048 54.6959 151.05 54.6154 151.031 54.5387C151.012 54.4619 150.973 54.3916 150.917 54.3351C150.815 54.2245 150.685 54.1417 150.542 54.0944ZM163.556 54.3306C163.466 54.0696 163.121 53.9684 162.759 54.0944C162.616 54.1411 162.487 54.2241 162.386 54.3351C162.327 54.3899 162.286 54.4604 162.267 54.5381C162.248 54.6159 162.251 54.6975 162.278 54.7731C162.304 54.8488 162.351 54.9152 162.414 54.9645C162.477 55.0137 162.553 55.0437 162.633 55.0506C162.678 55.0589 162.723 55.0627 162.768 55.0619C162.873 55.0613 162.976 55.043 163.074 55.0079C163.439 54.8841 163.646 54.5916 163.556 54.3306Z" fill="#2E45E5"/>
<path opacity="0.2" d="M115.012 81.2541C115.012 81.2541 114.677 98.1876 116.375 103.41L119.145 104.713L115.012 81.2541ZM199.387 83.9631C199.387 83.9631 199.884 98.2529 198.185 103.475L195.416 104.778L199.387 83.9631Z" fill="#03007A"/>
<path d="M151.255 68.6676C151.112 68.5382 150.938 68.4462 150.751 68.3999C150.76 68.3234 150.769 68.2469 150.78 68.1726C151.388 64.3071 150.632 55.0529 150.598 54.6614C150.591 54.6032 150.562 54.5499 150.517 54.5128C150.472 54.4757 150.414 54.4577 150.356 54.4627C150.297 54.4677 150.243 54.4952 150.205 54.5394C150.166 54.5837 150.147 54.6412 150.15 54.6996C150.159 54.7941 150.933 64.2914 150.337 68.1051C150.326 68.1816 150.317 68.2581 150.308 68.3346C150.246 68.3312 150.185 68.3312 150.123 68.3346C149.864 68.3299 149.613 68.424 149.421 68.5979C149.351 68.6852 149.308 68.7916 149.298 68.9035C149.289 69.0153 149.313 69.1275 149.367 69.2256C149.556 69.5755 149.869 69.8415 150.245 69.9704C150.28 70.6098 150.388 71.2432 150.567 71.8581C150.58 71.9048 150.609 71.9458 150.648 71.975C150.687 72.0042 150.734 72.02 150.783 72.0201C150.804 72.0204 150.825 72.0174 150.846 72.0111C150.903 71.9941 150.951 71.9553 150.979 71.903C151.008 71.8508 151.015 71.7894 150.999 71.7321C150.825 71.1288 150.722 70.5074 150.693 69.8804C150.982 69.745 151.218 69.5191 151.368 69.2369C151.409 69.1418 151.42 69.0364 151.4 68.9347C151.38 68.833 151.329 68.7398 151.255 68.6676Z" fill="url(#paint8_linear_380_12706)"/>
<path d="M165.032 69.6554C164.861 69.4879 164.644 69.3758 164.409 69.3336C164.178 66.7813 163.806 64.2439 163.293 61.7331C162.841 59.3788 162.79 56.9654 163.14 54.5939C163.145 54.5649 163.144 54.5352 163.138 54.5064C163.132 54.4776 163.12 54.4503 163.104 54.4261C163.087 54.4019 163.066 54.3812 163.041 54.3652C163.016 54.3492 162.988 54.3382 162.96 54.3329C162.931 54.3276 162.901 54.328 162.872 54.3342C162.843 54.3403 162.816 54.3521 162.792 54.3688C162.768 54.3855 162.747 54.4069 162.731 54.4316C162.715 54.4563 162.704 54.4839 162.699 54.5129C162.339 56.9403 162.392 59.4109 162.854 61.8209C163.357 64.2868 163.725 66.7782 163.959 69.2841C163.811 69.2861 163.667 69.3249 163.538 69.3968C163.41 69.4687 163.301 69.5715 163.223 69.6959C163.144 69.8178 163.097 69.958 163.088 70.1031C163.079 70.2481 163.108 70.3931 163.171 70.5239C163.253 70.6841 163.369 70.8249 163.51 70.9366C163.652 71.0484 163.815 71.1286 163.99 71.1719C163.92 72.5466 163.754 73.8719 163.752 73.8876C163.748 73.917 163.75 73.9469 163.758 73.9755C163.766 74.0041 163.779 74.0308 163.797 74.0542C163.815 74.0776 163.838 74.0972 163.864 74.1119C163.889 74.1265 163.918 74.136 163.947 74.1396C163.956 74.1396 163.965 74.1419 163.977 74.1419C164.031 74.1421 164.084 74.1223 164.125 74.0862C164.166 74.0502 164.192 74.0003 164.199 73.9461C164.202 73.9304 164.377 72.5421 164.445 71.1269C164.748 70.9918 164.997 70.7568 165.149 70.4609C165.214 70.3308 165.238 70.1838 165.217 70.0397C165.196 69.8957 165.131 69.7616 165.032 69.6554Z" fill="url(#paint9_linear_380_12706)"/>
<path d="M170.153 31.1152L169.849 30.7844L166.514 33.8399C166.393 32.8784 165.911 31.9987 165.167 31.3783C164.422 30.7579 163.47 30.4429 162.502 30.4968C161.535 30.5508 160.624 30.9696 159.953 31.669C159.282 32.3683 158.901 33.2961 158.887 34.2652H154.184C154.171 33.3028 153.795 32.3808 153.132 31.6828C152.47 30.9849 151.568 30.5622 150.608 30.4989C149.648 30.4357 148.699 30.7365 147.95 31.3414C147.201 31.9464 146.708 32.8111 146.568 33.7634L144.046 30.8046L143.704 31.0972L146.528 34.4091C146.55 35.3832 146.942 36.3122 147.625 37.0071C148.308 37.702 149.23 38.1105 150.203 38.1495C151.177 38.1885 152.129 37.855 152.865 37.217C153.601 36.5789 154.067 35.6843 154.166 34.7152H158.903C159.003 35.6829 159.467 36.5764 160.202 37.2142C160.936 37.8521 161.886 38.1865 162.858 38.1495C163.83 38.1126 164.752 37.7071 165.436 37.0153C166.12 36.3236 166.515 35.3974 166.541 34.4249L170.153 31.1152ZM150.357 37.7009C149.688 37.7009 149.035 37.5026 148.478 37.131C147.922 36.7594 147.489 36.2312 147.233 35.6133C146.977 34.9954 146.91 34.3154 147.04 33.6594C147.171 33.0034 147.493 32.4008 147.966 31.9279C148.439 31.4549 149.041 31.1329 149.697 31.0024C150.353 30.8719 151.033 30.9389 151.651 31.1948C152.269 31.4508 152.797 31.8842 153.169 32.4403C153.541 32.9965 153.739 33.6503 153.739 34.3191C153.738 35.2158 153.382 36.0755 152.748 36.7095C152.114 37.3435 151.254 37.7001 150.357 37.7009ZM162.716 37.7009C162.048 37.7009 161.394 37.5026 160.838 37.131C160.282 36.7594 159.848 36.2312 159.592 35.6133C159.336 34.9954 159.269 34.3154 159.4 33.6594C159.53 33.0034 159.852 32.4008 160.325 31.9279C160.798 31.4549 161.401 31.1329 162.057 31.0024C162.713 30.8719 163.393 30.9389 164.011 31.1948C164.629 31.4508 165.157 31.8842 165.528 32.4403C165.9 32.9965 166.098 33.6503 166.098 34.3191C166.097 35.2158 165.741 36.0755 165.107 36.7095C164.473 37.3435 163.613 37.7001 162.716 37.7009Z" fill="url(#paint10_linear_380_12706)"/>
<path opacity="0.2" d="M134.573 76.4211L135.053 71.3406L135.696 76.4211H134.573ZM182.397 76.5966V71.0639L181.515 76.5966H182.397Z" fill="#03007A"/>
<path d="M199.004 85.3109L193.485 112.187C193.292 113.115 192.786 113.949 192.052 114.548C191.317 115.147 190.399 115.476 189.451 115.479H124.716C123.768 115.476 122.85 115.147 122.115 114.548C121.38 113.949 120.874 113.115 120.68 112.187L115.16 85.3109C114.944 84.2563 114.965 83.1667 115.221 82.1211C115.478 81.0755 115.964 80.1002 116.645 79.2659C117.325 78.4315 118.183 77.7592 119.156 77.2975C120.128 76.8358 121.192 76.5964 122.268 76.5966H191.899C192.975 76.5966 194.038 76.8362 195.011 77.298C195.983 77.7598 196.841 78.4323 197.521 79.2666C198.201 80.1009 198.687 81.0761 198.944 82.1215C199.2 83.167 199.221 84.2565 199.004 85.3109Z" fill="white"/>
<path d="M197.87 78.9816C197.149 78.0941 196.239 77.3789 195.205 76.8884C194.172 76.3979 193.043 76.1445 191.899 76.1466H122.268C121.125 76.1463 119.996 76.4006 118.963 76.8909C117.93 77.3812 117.019 78.0953 116.297 78.9813C115.574 79.8674 115.058 80.9032 114.786 82.0135C114.513 83.1239 114.491 84.281 114.722 85.4009L120.241 112.277C120.455 113.307 121.016 114.232 121.831 114.897C122.646 115.561 123.664 115.926 124.716 115.929H189.451C190.503 115.926 191.521 115.561 192.336 114.897C193.151 114.232 193.712 113.307 193.926 112.277L199.445 85.4009C199.678 84.2811 199.657 83.1237 199.384 82.013C199.112 80.9024 198.595 79.8667 197.87 78.9816ZM199.004 85.3109L193.485 112.187C193.292 113.115 192.786 113.949 192.052 114.548C191.317 115.147 190.399 115.476 189.451 115.479H124.716C123.768 115.476 122.85 115.147 122.115 114.548C121.38 113.949 120.873 113.115 120.68 112.187L115.16 85.3109C114.944 84.2562 114.965 83.1666 115.221 82.121C115.478 81.0755 115.964 80.1001 116.645 79.2658C117.325 78.4315 118.183 77.7591 119.156 77.2974C120.128 76.8358 121.192 76.5964 122.268 76.5966H191.899C192.975 76.5966 194.038 76.8362 195.011 77.298C195.983 77.7598 196.841 78.4322 197.521 79.2665C198.201 80.1008 198.687 81.0761 198.944 82.1215C199.2 83.167 199.221 84.2564 199.004 85.3109Z" fill="url(#paint11_linear_380_12706)"/>
<path d="M156.475 89.2844C155.14 89.2844 153.834 89.6804 152.724 90.4224C151.613 91.1643 150.748 92.2189 150.237 93.4527C149.726 94.6865 149.592 96.0441 149.853 97.3539C150.113 98.6638 150.756 99.8669 151.7 100.811C152.645 101.756 153.848 102.399 155.158 102.659C156.468 102.92 157.825 102.786 159.059 102.275C160.293 101.764 161.347 100.898 162.089 99.788C162.831 98.6776 163.227 97.3721 163.227 96.0366C163.225 94.2464 162.514 92.53 161.248 91.2641C159.982 89.9982 158.265 89.2862 156.475 89.2844Z" fill="#FFC062"/>
<path d="M152.736 96.6959C152.68 96.6501 152.635 96.5932 152.603 96.5289C152.571 96.4646 152.552 96.3943 152.549 96.3225C152.545 96.2507 152.557 96.1789 152.583 96.1119C152.609 96.0448 152.649 95.9839 152.7 95.9331L154.439 94.1939C154.481 94.1518 154.504 94.0948 154.504 94.0353C154.504 93.9758 154.481 93.9187 154.439 93.8766C154.397 93.8346 154.34 93.8109 154.28 93.8109C154.221 93.8109 154.164 93.8346 154.122 93.8766L152.382 95.6159C152.287 95.7109 152.213 95.8248 152.164 95.9502C152.115 96.0755 152.093 96.2097 152.099 96.3442C152.105 96.4786 152.139 96.6103 152.198 96.7309C152.258 96.8515 152.342 96.9584 152.445 97.0446L154.135 98.4531C154.175 98.4872 154.226 98.5056 154.279 98.5049C154.312 98.5051 154.345 98.4979 154.375 98.4839C154.405 98.4699 154.431 98.4494 154.452 98.4239C154.471 98.4012 154.485 98.3749 154.494 98.3466C154.503 98.3184 154.506 98.2887 154.503 98.2592C154.501 98.2297 154.492 98.2011 154.478 98.1749C154.465 98.1487 154.446 98.1255 154.423 98.1066L152.736 96.6959ZM160.399 95.6136L158.66 93.8744C158.618 93.8323 158.561 93.8087 158.501 93.8087C158.442 93.8087 158.385 93.8323 158.343 93.8744C158.3 93.9165 158.277 93.9735 158.277 94.033C158.277 94.0925 158.3 94.1496 158.343 94.1916L160.082 95.9309C160.133 95.9816 160.173 96.0424 160.198 96.1095C160.224 96.1766 160.236 96.2483 160.233 96.3201C160.23 96.3921 160.212 96.4626 160.179 96.527C160.147 96.5914 160.102 96.6482 160.046 96.6936L158.356 98.1021C158.31 98.1406 158.282 98.1954 158.276 98.2548C158.271 98.3141 158.289 98.3733 158.327 98.4194C158.348 98.4449 158.374 98.4654 158.404 98.4794C158.434 98.4934 158.467 98.5006 158.5 98.5004C158.552 98.5 158.603 98.4818 158.644 98.4486L160.334 97.0401C160.437 96.954 160.521 96.8474 160.58 96.7271C160.64 96.6068 160.674 96.4754 160.68 96.3413C160.686 96.2071 160.665 96.0731 160.616 95.9479C160.568 95.8226 160.494 95.7088 160.399 95.6136ZM157.366 92.8259C157.338 92.8174 157.308 92.8147 157.278 92.8178C157.249 92.8209 157.221 92.8299 157.195 92.8441C157.169 92.8583 157.146 92.8776 157.127 92.9007C157.109 92.9239 157.095 92.9504 157.087 92.9789L155.278 99.0966C155.27 99.125 155.267 99.1548 155.27 99.1842C155.273 99.2136 155.282 99.2422 155.296 99.2681C155.31 99.2941 155.33 99.3169 155.353 99.3354C155.376 99.3538 155.403 99.3675 155.431 99.3756C155.451 99.3819 155.473 99.385 155.494 99.3846C155.543 99.3846 155.59 99.3687 155.629 99.3395C155.668 99.3103 155.696 99.2693 155.71 99.2226L157.519 93.1049C157.536 93.0476 157.529 92.9861 157.5 92.9338C157.471 92.8815 157.423 92.8427 157.366 92.8259Z" fill="white"/>
<path opacity="0.2" d="M119.145 104.713L119.251 106.749C113.32 105.718 107.301 102.933 104.923 101.286C104.576 101.048 104.316 100.704 104.181 100.306C104.047 99.907 104.046 99.4756 104.178 99.0764C104.73 97.3956 105.344 95.7104 106.012 94.0364C106.05 99.1889 119.145 104.713 119.145 104.713ZM140.25 51.5631C140.158 51.5631 140.066 51.5631 139.978 51.5654L138.822 51.7769C138.23 51.8881 137.644 52.0293 137.067 52.1999H137.062C137.051 52.2044 137.037 52.2089 137.026 52.2134C135.854 52.5543 134.72 53.0142 133.642 53.5859C131.807 54.5729 130.144 55.8519 128.719 57.3726C128.271 57.8609 127.799 58.3941 127.306 58.9656C121.087 66.1949 111.698 79.7939 106.046 93.9666C106.836 92.2274 120.594 65.7201 133.055 55.3836C135.177 53.6461 137.622 52.3475 140.25 51.5631ZM156.612 59.0061C150.236 56.6886 139.787 56.3219 140.25 51.5631C140.25 51.5631 148.951 53.7254 156.612 59.0061Z" fill="#03007A"/>
<path opacity="0.2" d="M156.588 59.0061C160.786 55.8539 170.551 52.2651 173.303 51.5631C173.303 51.5631 177.816 54.0404 156.588 59.0061ZM195.522 104.713L195.146 106.684C201.077 105.653 207.291 103.293 209.67 101.646C210.017 101.408 210.277 101.064 210.411 100.666C210.546 100.267 210.547 99.8356 210.414 99.4364C209.863 97.7556 209.148 95.7981 208.479 94.1241C208.441 99.2766 195.522 104.713 195.522 104.713Z" fill="#03007A"/>
<path opacity="0.2" d="M187.363 58.9634C186.881 58.3829 186.398 57.8586 185.95 57.3704C184.525 55.8496 182.862 54.5707 181.027 53.5836C179.948 53.0124 178.815 52.5525 177.643 52.2111C177.632 52.2066 177.618 52.2021 177.607 52.1976H177.602C177.026 52.0289 176.441 51.8879 175.847 51.7746C175.847 51.7746 174.252 51.4821 173.305 51.5609C173.305 51.5609 178.84 51.9006 183.837 57.1544C196.142 70.0874 207.802 92.6121 208.416 93.9621C202.652 79.6881 193.548 66.4199 187.363 58.9634Z" fill="#03007A"/>
<path d="M232.136 86.2154H221.518C221.008 86.2159 220.519 86.4188 220.158 86.7794C219.798 87.1401 219.595 87.6291 219.594 88.1391V89.1426H234.062V88.1391C234.06 87.6291 233.856 87.1404 233.496 86.78C233.135 86.4195 232.646 86.2165 232.136 86.2154Z" fill="url(#paint12_linear_380_12706)"/>
<path d="M234.944 90.7199L232.275 109.316C232.181 109.954 231.861 110.536 231.374 110.958C230.887 111.38 230.265 111.613 229.62 111.616H224.031C223.387 111.613 222.765 111.38 222.278 110.958C221.791 110.536 221.472 109.953 221.379 109.316L218.708 90.7199H234.944Z" fill="white"/>
<path d="M218.188 90.2699L220.931 109.381C221.041 110.126 221.415 110.805 221.984 111.298C222.553 111.79 223.279 112.063 224.031 112.066H229.62C230.373 112.063 231.099 111.79 231.668 111.298C232.236 110.805 232.61 110.126 232.721 109.381L235.463 90.2699H218.188ZM229.62 111.616H224.031C223.387 111.613 222.765 111.38 222.278 110.958C221.791 110.536 221.472 109.953 221.378 109.316L218.708 90.7199H234.944L232.275 109.316C232.181 109.954 231.861 110.536 231.374 110.958C230.887 111.38 230.265 111.613 229.62 111.616Z" fill="black"/>
<path d="M226.826 100.71C226.43 100.71 226.043 100.828 225.714 101.048C225.385 101.268 225.129 101.581 224.977 101.946C224.826 102.312 224.787 102.715 224.864 103.103C224.942 103.491 225.132 103.847 225.412 104.127C225.692 104.407 226.049 104.597 226.437 104.674C226.826 104.751 227.228 104.712 227.594 104.56C227.959 104.408 228.272 104.151 228.492 103.822C228.711 103.493 228.828 103.106 228.828 102.71C228.827 102.179 228.616 101.671 228.241 101.296C227.865 100.921 227.356 100.71 226.826 100.71Z" fill="#2E45E5"/>
<path d="M233.549 88.6679H220.103C219.322 88.6686 218.573 88.9792 218.021 89.5313C217.469 90.0835 217.158 90.8322 217.157 91.6131V91.8381H236.492V91.6131C236.492 90.8324 236.182 90.0835 235.63 89.5311C235.078 88.9788 234.33 88.6683 233.549 88.6679Z" fill="url(#paint13_linear_380_12706)"/>
<path d="M234.021 97.2651L233.875 98.2731C231.55 98.7015 229.19 98.9177 226.826 98.9189H226.812C224.458 98.9182 222.108 98.7028 219.792 98.2754L219.646 97.2651L218.577 98.0976L218.46 98.1989L218.489 98.3069C218.483 98.338 218.482 98.3698 218.485 98.4014L219.617 105.604C219.669 105.949 219.832 106.269 220.081 106.515C220.33 106.76 220.652 106.919 220.998 106.967C222.91 107.229 224.838 107.355 226.767 107.345C228.72 107.359 230.67 107.222 232.601 106.936C232.94 106.883 233.254 106.724 233.498 106.483C233.742 106.242 233.904 105.931 233.96 105.592L235.166 98.3834C235.168 98.3692 235.169 98.3549 235.169 98.3406L235.202 98.1854L234.021 97.2651ZM226.826 104.713C226.43 104.712 226.043 104.595 225.714 104.375C225.385 104.155 225.129 103.842 224.978 103.477C224.826 103.111 224.787 102.709 224.864 102.321C224.941 101.932 225.132 101.576 225.412 101.296C225.691 101.016 226.048 100.826 226.436 100.748C226.824 100.671 227.227 100.711 227.592 100.862C227.958 101.013 228.27 101.27 228.49 101.599C228.71 101.928 228.828 102.314 228.828 102.71C228.828 103.241 228.617 103.75 228.241 104.126C227.866 104.501 227.357 104.712 226.826 104.713Z" fill="url(#paint14_linear_380_12706)"/>
<path d="M228.828 102.71C228.828 103.106 228.711 103.493 228.492 103.822C228.272 104.151 227.959 104.408 227.594 104.56C227.228 104.712 226.826 104.751 226.437 104.674C226.049 104.597 225.692 104.407 225.412 104.127C225.132 103.847 224.942 103.491 224.864 103.103C224.787 102.715 224.826 102.312 224.977 101.946C225.129 101.581 225.385 101.268 225.714 101.048C226.043 100.828 226.43 100.71 226.826 100.71C227.356 100.71 227.865 100.921 228.24 101.296C228.616 101.671 228.827 102.18 228.828 102.71Z" fill="#FFC062"/>
<path d="M105.179 103.808L97.5407 102.105C97.1175 102.031 96.6832 102.053 96.2694 102.168L72.7794 108.83C72.5567 108.927 72.3703 109.092 72.2471 109.301C72.1238 109.511 72.0699 109.754 72.0932 109.996C72.0896 110.156 72.1398 110.312 72.2357 110.44C72.3315 110.568 72.4675 110.66 72.6219 110.702L79.4394 112.133L79.4484 112.135C79.6103 112.164 79.7745 112.179 79.9389 112.178C80.2022 112.178 80.4642 112.142 80.7174 112.07L105.231 105.061C105.371 105.022 105.494 104.937 105.579 104.82C105.665 104.702 105.708 104.559 105.702 104.414C105.696 104.269 105.641 104.13 105.546 104.02C105.451 103.91 105.322 103.835 105.179 103.808ZM96.4179 103.196C96.5544 103.197 96.6907 103.209 96.8252 103.232L101.676 104.314C101.73 104.324 101.779 104.352 101.815 104.393C101.851 104.434 101.872 104.486 101.874 104.541C101.877 104.595 101.861 104.649 101.829 104.693C101.797 104.738 101.751 104.77 101.699 104.785L80.9559 110.592C80.6005 110.69 80.228 110.708 79.8647 110.646L74.3477 109.755C74.2937 109.746 74.2445 109.718 74.2081 109.677C74.1718 109.636 74.1504 109.584 74.1475 109.53C74.1446 109.475 74.1604 109.421 74.1923 109.376C74.2242 109.332 74.2702 109.3 74.3229 109.285L95.7452 103.288C95.9642 103.227 96.1905 103.196 96.4179 103.196Z" fill="url(#paint15_linear_380_12706)"/>
<path d="M101.676 104.314L96.8252 103.232C96.6907 103.209 96.5545 103.197 96.418 103.196C96.1906 103.196 95.9643 103.227 95.7452 103.288L74.323 109.285C74.2703 109.3 74.2242 109.332 74.1923 109.376C74.1605 109.421 74.1447 109.475 74.1476 109.53C74.1504 109.584 74.1718 109.636 74.2082 109.677C74.2445 109.718 74.2938 109.746 74.3477 109.755L79.8647 110.646C80.228 110.708 80.6006 110.69 80.956 110.592L101.699 104.785C101.751 104.77 101.797 104.738 101.829 104.693C101.861 104.649 101.877 104.595 101.874 104.541C101.872 104.486 101.851 104.434 101.815 104.393C101.779 104.352 101.73 104.324 101.676 104.314Z" fill="white"/>
</g>
<defs>
<linearGradient id="paint0_linear_380_12706" x1="63.8177" y1="115.704" x2="253.182" y2="115.704" gradientUnits="userSpaceOnUse">
<stop stop-color="#2E45E5"/>
<stop offset="1" stop-color="#3478E5"/>
</linearGradient>
<linearGradient id="paint1_linear_380_12706" x1="91.1013" y1="94.0341" x2="225.901" y2="94.0341" gradientUnits="userSpaceOnUse">
<stop stop-color="#2E45E5"/>
<stop offset="1" stop-color="#3478E5"/>
</linearGradient>
<linearGradient id="paint2_linear_380_12706" x1="120.837" y1="59.0095" x2="193.384" y2="59.0095" gradientUnits="userSpaceOnUse">
<stop stop-color="#2E45E5"/>
<stop offset="0.39" stop-color="#3160E5"/>
<stop offset="0.742" stop-color="#3372E5"/>
<stop offset="1" stop-color="#3478E5"/>
</linearGradient>
<linearGradient id="paint3_linear_380_12706" x1="156.872" y1="19.0776" x2="156.872" y2="73.7319" gradientUnits="userSpaceOnUse">
<stop offset="0.209" stop-color="#FFC496"/>
<stop offset="0.677" stop-color="#FF7C4B"/>
</linearGradient>
<linearGradient id="paint4_linear_380_12706" x1="157.296" y1="112.384" x2="157.296" y2="5.9518" gradientUnits="userSpaceOnUse">
<stop stop-color="#2E45E5"/>
<stop offset="0.39" stop-color="#3160E5"/>
<stop offset="0.742" stop-color="#3372E5"/>
<stop offset="1" stop-color="#3478E5"/>
</linearGradient>
<linearGradient id="paint5_linear_380_12706" x1="156.887" y1="46.738" x2="156.887" y2="72.3401" gradientUnits="userSpaceOnUse">
<stop offset="0.131" stop-color="#FFC496"/>
<stop offset="0.654" stop-color="#FF7C4B"/>
</linearGradient>
<linearGradient id="paint6_linear_380_12706" x1="157.106" y1="36.7295" x2="157.106" y2="7.26286" gradientUnits="userSpaceOnUse">
<stop/>
<stop offset="0.204" stop-color="#151213"/>
<stop offset="0.498" stop-color="#2D2628"/>
<stop offset="0.77" stop-color="#3C3235"/>
<stop offset="0.996" stop-color="#413639"/>
</linearGradient>
<linearGradient id="paint7_linear_380_12706" x1="156.869" y1="56.2535" x2="156.869" y2="29.8121" gradientUnits="userSpaceOnUse">
<stop/>
<stop offset="0.204" stop-color="#151213"/>
<stop offset="0.498" stop-color="#2D2628"/>
<stop offset="0.77" stop-color="#3C3235"/>
<stop offset="0.996" stop-color="#413639"/>
</linearGradient>
<linearGradient id="paint8_linear_380_12706" x1="149.295" y1="63.2379" x2="151.406" y2="63.2379" gradientUnits="userSpaceOnUse">
<stop/>
<stop offset="0.204" stop-color="#151213"/>
<stop offset="0.498" stop-color="#2D2628"/>
<stop offset="0.77" stop-color="#3C3235"/>
<stop offset="0.996" stop-color="#413639"/>
</linearGradient>
<linearGradient id="paint9_linear_380_12706" x1="162.462" y1="64.2356" x2="165.219" y2="64.2356" gradientUnits="userSpaceOnUse">
<stop/>
<stop offset="0.204" stop-color="#151213"/>
<stop offset="0.498" stop-color="#2D2628"/>
<stop offset="0.77" stop-color="#3C3235"/>
<stop offset="0.996" stop-color="#413639"/>
</linearGradient>
<linearGradient id="paint10_linear_380_12706" x1="143.704" y1="34.3214" x2="170.153" y2="34.3214" gradientUnits="userSpaceOnUse">
<stop/>
<stop offset="0.204" stop-color="#151213"/>
<stop offset="0.498" stop-color="#2D2628"/>
<stop offset="0.77" stop-color="#3C3235"/>
<stop offset="0.996" stop-color="#413639"/>
</linearGradient>
<linearGradient id="paint11_linear_380_12706" x1="157.084" y1="68.1179" x2="157.084" y2="153.161" gradientUnits="userSpaceOnUse">
<stop offset="0.097" stop-color="#2E45E5"/>
<stop offset="0.449" stop-color="#3160E5"/>
<stop offset="0.767" stop-color="#3372E5"/>
<stop offset="1" stop-color="#3478E5"/>
</linearGradient>
<linearGradient id="paint12_linear_380_12706" x1="226.828" y1="95.3357" x2="226.828" y2="80.8682" gradientUnits="userSpaceOnUse">
<stop offset="0.322"/>
<stop offset="0.408" stop-color="#151213"/>
<stop offset="0.531" stop-color="#2D2628"/>
<stop offset="0.645" stop-color="#3C3235"/>
<stop offset="0.741" stop-color="#413639"/>
</linearGradient>
<linearGradient id="paint13_linear_380_12706" x1="226.825" y1="100.626" x2="226.825" y2="81.744" gradientUnits="userSpaceOnUse">
<stop offset="0.347"/>
<stop offset="0.429" stop-color="#151213"/>
<stop offset="0.548" stop-color="#2D2628"/>
<stop offset="0.658" stop-color="#3C3235"/>
<stop offset="0.75" stop-color="#413639"/>
</linearGradient>
<linearGradient id="paint14_linear_380_12706" x1="226.831" y1="105.844" x2="226.831" y2="89.1014" gradientUnits="userSpaceOnUse">
<stop/>
<stop offset="0.204" stop-color="#151213"/>
<stop offset="0.498" stop-color="#2D2628"/>
<stop offset="0.77" stop-color="#3C3235"/>
<stop offset="0.996" stop-color="#413639"/>
</linearGradient>
<linearGradient id="paint15_linear_380_12706" x1="72.0902" y1="107.12" x2="105.702" y2="107.12" gradientUnits="userSpaceOnUse">
<stop/>
<stop offset="0.37" stop-color="#1E191A"/>
<stop offset="0.761" stop-color="#382E31"/>
<stop offset="0.996" stop-color="#413639"/>
</linearGradient>
<clipPath id="clip0_380_12706">
<rect width="318" height="127" fill="white"/>
</clipPath>
</defs>
</svg>
