<svg width="318" height="127" viewBox="0 0 318 127" fill="none" xmlns="http://www.w3.org/2000/svg">
<g clip-path="url(#clip0_380_12715)">
<rect width="318" height="127" fill="#F5FAFE"/>
<g clip-path="url(#clip1_380_12715)">
<path d="M62.7909 113.268H42V121.399H62.7909V113.268Z" fill="#F9E3D7"/>
<path d="M94.5916 113.268H64.6045V121.399H94.5916V113.268Z" fill="#F9E3D7"/>
<path d="M126.228 113.268H96.2412V121.399H126.228V113.268Z" fill="#F9E3D7"/>
<path d="M158.017 113.268H128.03V121.399H158.017V113.268Z" fill="#F9E3D7"/>
<path d="M189.97 113.268H159.983V121.399H189.97V113.268Z" fill="#F9E3D7"/>
<path d="M221.759 113.268H191.772V121.399H221.759V113.268Z" fill="#F9E3D7"/>
<path d="M253.407 113.268H223.42V121.399H253.407V113.268Z" fill="#F9E3D7"/>
<path d="M276 113.268H255.209V121.399H276V113.268Z" fill="#F9E3D7"/>
<path d="M47.0661 122.359H42V130.49H47.0661V122.359Z" fill="#F9E3D7"/>
<path d="M78.8667 122.359H48.8796V130.49H78.8667V122.359Z" fill="#F9E3D7"/>
<path d="M110.492 122.359H80.5048V130.49H110.492V122.359Z" fill="#F9E3D7"/>
<path d="M142.292 122.359H112.305V130.49H142.292V122.359Z" fill="#F9E3D7"/>
<path d="M174.245 122.359H144.258V130.49H174.245V122.359Z" fill="#F9E3D7"/>
<path d="M206.034 122.359H176.047V130.49H206.034V122.359Z" fill="#F9E3D7"/>
<path d="M237.671 122.359H207.684V130.49H237.671V122.359Z" fill="#F9E3D7"/>
<path d="M269.46 122.359H239.473V130.49H269.46V122.359Z" fill="#F9E3D7"/>
<path d="M276.012 122.359H270.946V130.49H276.012V122.359Z" fill="#F9E3D7"/>
<path d="M238.49 -12.4135H79.5103V108.986H238.49V-12.4135Z" fill="#CDD9FC"/>
<path d="M233.623 -8.43555H84.389V104.996H233.623V-8.43555Z" fill="url(#paint0_linear_380_12715)"/>
<path fill-rule="evenodd" clip-rule="evenodd" d="M208.573 86.5334H210.375V76.7639H220.402V86.5334H221.677V59.0384H233.599V104.996H228.042H221.665H220.39H210.363H208.561H205.273H200.921H198.979H189.712H188.367H184.202H179.358H174.795H173.566H163.54H160.849H159.632H154.039H152.015H140.771H139.8H137.893H136.349H131.762H122.367H120.448H118.752H111.018H106.502H105.496H99.6809H98.0897H84.389V78.2147V73.5113H98.0897V78.2147H99.6809V63.0164H105.484V78.2147H106.49V66.9944V39.0314H118.752V66.9944H120.448V12.6245H122.367V9.99201H137.905V12.6128H139.812V80.0165H140.783V48.8126H142.491C142.491 45.4664 144.246 42.752 146.399 42.752C148.564 42.752 150.307 45.4664 150.307 48.8126H152.015V80.0282H154.039V74.9621H159.632V80.0282H160.849V57.7514V43.5827C160.849 41.1374 162.147 39.1367 163.738 39.1367H170.677C172.268 39.1367 173.566 41.1374 173.566 43.5827V54.335H174.795V14.4029H177.31V12.566H178.843V12.5543H179.475V10.7057H180.996V8.85711H181.932V7.00851H183.453V5.15991H184.564V3.31131H186.085V1.46271H188.344V68.0474H189.701V49.1753H198.967V68.0825H200.909V57.845H208.549V86.5334H208.573Z" fill="url(#paint1_linear_380_12715)"/>
<path opacity="0.15" fill-rule="evenodd" clip-rule="evenodd" d="M228.147 -8.43555L84.389 54.8147V40.8683L196.44 -8.43555H228.147Z" fill="#62CBEC"/>
<path opacity="0.15" fill-rule="evenodd" clip-rule="evenodd" d="M233.611 -5.61578V14.4497L84.389 80.0984V60.0446L233.611 -5.61578Z" fill="#62CBEC"/>
<path d="M134.301 -10.5765H129.926V107.149H134.301V-10.5765Z" fill="#CDD9FC"/>
<path d="M188.075 -10.5765H183.699V107.149H188.075V-10.5765Z" fill="#CDD9FC"/>
<path fill-rule="evenodd" clip-rule="evenodd" d="M202.138 86.2292H156.964C153.513 86.2292 150.716 83.4329 150.716 79.9814V44.0507C150.716 40.5992 153.513 37.8029 156.964 37.8029H202.138C205.589 37.8029 208.386 40.5992 208.386 44.0507V79.9814C208.386 83.4329 205.589 86.2292 202.138 86.2292Z" fill="#84B2FE"/>
<path fill-rule="evenodd" clip-rule="evenodd" d="M203.437 87.3524H158.263C154.811 87.3524 152.015 84.5561 152.015 81.1046V45.1739C152.015 41.7224 154.811 38.9261 158.263 38.9261H203.437C206.888 38.9261 209.684 41.7224 209.684 45.1739V81.1046C209.684 84.5561 206.888 87.3524 203.437 87.3524Z" fill="white"/>
<path d="M168.524 61.8815H161.118V83.5148H168.524V61.8815Z" fill="#8DAFDC"/>
<path d="M179.756 65.5201H172.35V83.5147H179.756V65.5201Z" fill="#8DAFDC"/>
<path d="M191.339 57.8567H183.933V83.5031H191.339V57.8567Z" fill="#8DAFDC"/>
<path fill-rule="evenodd" clip-rule="evenodd" d="M183.933 47.0811C187.923 47.0811 191.163 47.1864 191.163 47.3151V48.918C191.163 49.0467 187.923 49.152 183.933 49.152C179.943 49.152 176.702 49.0467 176.702 48.918V47.3151C176.702 47.1864 179.943 47.0811 183.933 47.0811Z" fill="#2C7EFE"/>
<path fill-rule="evenodd" clip-rule="evenodd" d="M183.933 51.2579C187.923 51.2579 191.163 51.3632 191.163 51.4919V53.0948C191.163 53.2235 187.923 53.3288 183.933 53.3288C179.943 53.3288 176.702 53.2235 176.702 53.0948V51.4919C176.702 51.3632 179.943 51.2579 183.933 51.2579Z" fill="#0643A3"/>
<path d="M168.524 67.9421H161.118V83.5031H168.524V67.9421Z" fill="#2C7EFE"/>
<path d="M179.756 70.5629H172.35V83.5148H179.756V70.5629Z" fill="#2C7EFE"/>
<path d="M191.339 65.0522H183.933V83.5031H191.339V65.0522Z" fill="#2C7EFE"/>
<path d="M202.559 60.3722H195.165V83.5148H202.559V60.3722Z" fill="#2C7EFE"/>
<path fill-rule="evenodd" clip-rule="evenodd" d="M164.827 41.0438C169.893 41.0438 173.988 45.1505 173.988 50.2049C173.988 55.271 169.881 59.366 164.827 59.366C159.772 59.366 155.666 55.2593 155.666 50.2049C155.654 45.1505 159.761 41.0438 164.827 41.0438ZM164.827 45.092C167.646 45.092 169.94 47.3852 169.94 50.2049C169.94 53.0246 167.646 55.3178 164.827 55.3178C162.007 55.3178 159.714 53.0246 159.714 50.2049C159.714 47.3852 161.995 45.092 164.827 45.092Z" fill="#0643A3"/>
<path fill-rule="evenodd" clip-rule="evenodd" d="M169.413 52.4513L173.052 54.2297C171.519 57.377 168.325 59.366 164.827 59.366C159.772 59.366 155.666 55.2593 155.666 50.2049C155.666 45.1505 159.772 41.0438 164.827 41.0438V45.092C162.007 45.092 159.714 47.3852 159.714 50.2049C159.714 53.0246 162.007 55.3178 164.827 55.3178C166.839 55.3178 168.583 54.1595 169.413 52.4513Z" fill="#153663"/>
<path fill-rule="evenodd" clip-rule="evenodd" d="M160.463 52.8959L157.023 55.0253C156.134 53.5745 155.654 51.9131 155.654 50.2166C155.654 45.1622 159.761 41.0555 164.815 41.0555V45.092C161.995 45.092 159.702 47.3852 159.702 50.2049C159.702 51.1877 159.983 52.112 160.463 52.8959Z" fill="#84B2FE"/>
<path fill-rule="evenodd" clip-rule="evenodd" d="M160.111 48.2042L156.391 46.613C157.83 43.2317 161.153 41.0438 164.815 41.0438V45.092C162.709 45.092 160.895 46.379 160.111 48.2042Z" fill="#2C7EFE"/>
<path fill-rule="evenodd" clip-rule="evenodd" d="M248.353 108.307C244.106 108.307 239.859 108.307 235.612 108.307C231.376 108.307 227.129 108.307 222.894 108.307C221.887 108.307 220.951 109.161 220.823 110.214C219.863 118.018 218.916 125.705 217.98 133.287C217.055 140.763 216.143 148.146 215.242 155.411C219.887 155.435 224.52 155.458 229.165 155.481C233.81 155.505 238.466 155.517 243.111 155.552C244.199 148.263 245.311 140.868 246.434 133.368C247.569 125.775 248.727 118.053 249.897 110.238C250.049 109.173 249.359 108.307 248.353 108.307Z" fill="#BE96F8"/>
<path fill-rule="evenodd" clip-rule="evenodd" d="M246.06 108.307C241.813 108.307 237.566 108.307 233.318 108.307C229.083 108.307 224.836 108.307 220.601 108.307C219.594 108.307 218.658 109.161 218.53 110.214C217.57 118.018 216.623 125.705 215.687 133.287C214.762 140.763 213.85 148.146 212.949 155.411C217.594 155.435 222.227 155.458 226.872 155.481C231.517 155.505 236.173 155.517 240.818 155.552C241.906 148.263 243.018 140.868 244.141 133.368C245.276 125.775 246.434 118.053 247.604 110.238C247.768 109.173 247.066 108.307 246.06 108.307Z" fill="#CBB6FC"/>
<path fill-rule="evenodd" clip-rule="evenodd" d="M191.596 102.363C186.518 102.375 181.452 102.387 176.398 102.399C171.343 102.41 166.289 102.434 161.235 102.445C160.849 102.445 160.591 102.761 160.661 103.147C161.375 107.289 162.089 111.419 162.814 115.538C163.528 119.644 164.23 123.739 164.944 127.823C165.014 128.197 165.376 128.501 165.751 128.501C170.758 128.501 175.766 128.501 180.785 128.501C185.805 128.501 190.824 128.501 195.855 128.501C196.241 128.501 196.498 128.197 196.44 127.811C195.773 123.716 195.106 119.609 194.439 115.491C193.772 111.361 193.094 107.207 192.415 103.054C192.345 102.679 191.982 102.363 191.596 102.363Z" fill="#2C7EFE"/>
<path fill-rule="evenodd" clip-rule="evenodd" d="M190.298 102.363C185.22 102.375 180.154 102.387 175.099 102.399C170.045 102.41 164.99 102.434 159.948 102.445C159.562 102.445 159.304 102.761 159.374 103.147C160.088 107.289 160.802 111.419 161.527 115.538C162.241 119.644 162.943 123.739 163.657 127.823C163.727 128.197 164.09 128.501 164.464 128.501C169.472 128.501 174.479 128.501 179.498 128.501C184.518 128.501 189.537 128.501 194.568 128.501C194.954 128.501 195.212 128.197 195.153 127.811C194.486 123.716 193.819 119.609 193.152 115.491C192.485 111.361 191.807 107.207 191.128 103.054C191.035 102.679 190.672 102.363 190.298 102.363Z" fill="#84B2FE"/>
<path fill-rule="evenodd" clip-rule="evenodd" d="M177.673 113.818C177.591 113.806 177.521 113.783 177.439 113.783C177.463 113.958 177.463 114.134 177.428 114.309C177.24 115.152 176.304 115.655 175.333 115.432C175.216 115.409 175.111 115.374 175.017 115.339C174.842 116.368 175.626 117.398 176.819 117.667C178.048 117.936 179.229 117.304 179.463 116.24C179.686 115.175 178.89 114.087 177.673 113.818Z" fill="white"/>
<path d="M246.282 112.39L244.82 116.953L244.036 121.692C244.784 122.757 245.276 120.264 245.896 119.551C246.212 120.943 246.224 120.978 246.551 122.37C246.914 124.348 251.828 121.984 251.547 120.487L248.95 115.315L246.282 112.39Z" fill="#FCB790"/>
<path fill-rule="evenodd" clip-rule="evenodd" d="M211.884 109.407L205.566 121.177L198.64 153.949L200.044 185.597L207.426 185.586L209.965 154.838L215.534 139.043L219.349 154.815L231.622 184.685L238.923 182.637L231.177 153.785L230.405 121.388L211.884 109.407Z" fill="#262B62"/>
<path fill-rule="evenodd" clip-rule="evenodd" d="M192.205 76.8107L195.761 76.7756L195.937 73.5581L197.119 71.1245C197.317 70.6448 197.212 70.2119 196.966 69.8141C195.387 67.439 193.433 63.5195 192.52 63.8588C191.725 64.0694 193.901 67.4858 194.591 69.2993C193.995 69.6503 193.386 69.9896 192.79 70.3406C192.392 70.8203 192.357 71.3 192.439 71.7563L192.883 73.3007L192.205 76.8107Z" fill="#FCB790"/>
<path fill-rule="evenodd" clip-rule="evenodd" d="M246.107 99.614C237.507 84.5561 232.722 80.4143 218.565 79.8176C211.135 79.7006 203.097 84.2753 196.58 86.4281C196.323 82.0172 196.463 78.7997 196.405 74.9855L192.053 74.7749C191.315 79.841 190.976 84.9071 190.239 89.9732C189.572 94.4075 191.854 95.7881 194.931 95.0861L207.286 92.2313L205.625 121.084C211.053 124.441 223.011 127.027 230.382 121.411L230.417 93.2492L238.724 103.124L244.539 116.053L249.394 114.637L246.107 99.614Z" fill="#8183F1"/>
<path fill-rule="evenodd" clip-rule="evenodd" d="M218.939 84.7901L219.384 85.9016L220.671 116.556L218.342 119.059L216.143 116.649L218.494 85.9133L218.939 84.7901Z" fill="white"/>
<path fill-rule="evenodd" clip-rule="evenodd" d="M218.962 82.532L218.003 83.6552L217.032 84.7784L218.003 85.9016L218.962 87.0248L219.922 85.9016L220.869 84.7784L219.922 83.6552L218.962 82.532Z" fill="#DFE6FF"/>
<path fill-rule="evenodd" clip-rule="evenodd" d="M236.899 100.913L229.89 90.4996C229.645 103.428 229.247 113.584 227.796 122.967C228.708 122.534 229.586 122.008 230.405 121.388L230.44 93.2257L236.899 100.913Z" fill="#4747FF"/>
<path fill-rule="evenodd" clip-rule="evenodd" d="M218.986 82.649L222.87 79.2326L224.848 80.6015L220.694 87.3407C220.214 86.0303 219.735 84.7082 219.255 83.3978C219.091 82.9649 218.857 82.9649 218.693 83.3978L217.254 87.3407L213.054 80.6015L215.09 79.2443L218.974 82.6607L218.963 82.6841H218.998L218.986 82.649Z" fill="#4747FF"/>
<path fill-rule="evenodd" clip-rule="evenodd" d="M218.986 82.1342L222.87 79.2326L224.848 80.3909L220.694 86.1122C220.214 85.0007 219.735 83.8775 219.255 82.766C219.091 82.4033 218.857 82.4033 218.693 82.766L217.254 86.1122L213.054 80.3909L215.09 79.2326L218.974 82.1342L218.963 82.1576H218.998L218.986 82.1342Z" fill="#8183F1"/>
<path fill-rule="evenodd" clip-rule="evenodd" d="M216.178 70.2002L223.198 69.8258L222.578 79.4081C221.63 80.2271 220.472 82.5203 218.693 82.7543C217.617 82.4852 215.932 80.3207 215.511 79.6889L216.178 70.2002Z" fill="#F69668"/>
<path fill-rule="evenodd" clip-rule="evenodd" d="M223.818 64.3033L211.697 65.4148C211.311 69.4279 211.369 77.302 211.744 77.5009C214.704 79.3261 219.454 78.3433 222.121 75.6289C223.525 72.0019 224.824 66.4912 223.818 64.3033Z" fill="#F1AE8E"/>
<path fill-rule="evenodd" clip-rule="evenodd" d="M222.788 66.0116C224.485 68.0357 223.233 70.8788 222.859 73.6985C225.316 71.2766 225.889 66.9827 226.638 63.3323C226.486 61.6007 224.391 61.7528 223.338 62.1506C223.689 61.0859 223.525 59.4596 221.56 59.0735C214.072 58.2896 209.86 62.6771 211.673 65.8478C217.219 64.3385 222.859 64.2098 222.788 66.0116Z" fill="#1B174F"/>
<path fill-rule="evenodd" clip-rule="evenodd" d="M211.732 77.501C211.03 75.6524 211.24 74.7047 211.428 72.7508C211.439 70.6097 214.47 74.5877 218.377 74.0729C220.027 73.055 222.379 67.088 222.613 63.4259L224.239 64.4204C221.841 68.8547 223.268 75.1493 220.366 76.9628C217.722 78.7529 212.598 79.5017 211.732 77.501Z" fill="#1B174F"/>
<path fill-rule="evenodd" clip-rule="evenodd" d="M222.812 69.9896L222.929 67.7199C223.256 66.5265 224.602 65.7075 224.941 67.1349C225.222 68.3985 223.28 70.6331 222.812 69.9896Z" fill="#F1AE8E"/>
<path fill-rule="evenodd" clip-rule="evenodd" d="M213.031 74.9387C213.358 75.6875 214.13 76.2608 215.043 76.3544C215.921 76.448 216.704 76.0853 217.137 75.4652C216.307 75.5237 215.921 75.4535 215.148 75.3833C214.376 75.3131 213.815 75.2312 213.031 74.9387Z" fill="white"/>
<path fill-rule="evenodd" clip-rule="evenodd" d="M94.4393 108.986L106.607 114.555L111.72 179.934L104.443 180.835L97.025 138.364L93.5267 156.254L81.5108 179.209L74.2451 177.021L83.1605 153.914L83.7338 117.433L94.4393 108.986Z" fill="#153663"/>
<path fill-rule="evenodd" clip-rule="evenodd" d="M128.709 89.9264L127.047 86.1356L129.539 84.8252C129.773 83.5967 129.621 81.6779 130.253 81.1631C131.505 80.3558 130.581 83.1638 131.564 83.6552C133.412 83.2457 134.243 81.1163 135.799 80.4026C139.438 79.1975 138.595 83.1287 136.852 85.223C135.974 86.4983 133.892 87.329 131.751 87.9608L128.709 89.9264Z" fill="#FCCCAD"/>
<path fill-rule="evenodd" clip-rule="evenodd" d="M89.3265 68.8196C89.4084 76.6937 86.1207 72.9614 84.8805 79.5017C84.1083 83.6201 84.8103 83.0234 89.4084 83.9828C90.3912 84.1934 96.5337 83.5382 98.5695 85.223C100.605 86.8844 102.325 83.9243 102.594 82.2395C103.191 78.3785 106.315 75.044 105.519 71.183C105.25 69.8492 106.561 65.7191 106.069 65.4617C99.0492 61.8113 93.48 65.5436 89.3265 68.8196Z" fill="#1A164F"/>
<path fill-rule="evenodd" clip-rule="evenodd" d="M103.507 79.2326L115.125 90.956L128.299 85.106L131.154 88.8968C126.334 91.9739 124.871 92.8982 120.051 95.987C115.464 99.2513 114.177 97.8707 112.095 97.0283L94.4746 85.5623L103.507 79.2326Z" fill="#F182B0"/>
<path fill-rule="evenodd" clip-rule="evenodd" d="M102.664 78.7062C95.6679 76.5183 88.0746 75.9684 86.3781 81.8535C87.3375 94.899 87.3726 107.055 83.7339 117.433C92.4738 121.657 102.501 117.258 106.607 114.859C106.327 104.271 108.585 79.9347 102.664 78.7062Z" fill="#F182B0"/>
<path fill-rule="evenodd" clip-rule="evenodd" d="M92.778 67.5327L98.7918 74.8686C98.7684 76.1088 98.7333 77.3256 98.7216 78.5658C98.5812 82.6374 94.4277 79.4667 92.6727 78.6945L92.778 67.5327Z" fill="#F8A989"/>
<path fill-rule="evenodd" clip-rule="evenodd" d="M90.7773 64.8416L103.144 63.5663C103.004 68.0006 106.83 78.3785 98.2302 76.916C91.8771 75.9098 91.491 69.6971 90.7773 64.8416Z" fill="#FCCCAD"/>
<path fill-rule="evenodd" clip-rule="evenodd" d="M104.384 68.1293C107.216 65.8361 106.806 67.3571 108.433 63.7184C109.439 61.472 108.339 58.6757 101.085 59.0735C96.0423 59.3543 91.4208 55.7741 91.4208 61.2731C91.4208 63.0866 87.1854 62.3963 88.4724 68.5739C88.9755 70.9724 90.9411 68.6207 91.5963 72.6221C91.9824 74.9855 93.012 68.3048 93.0237 68.2814C94.884 65.9531 101.331 64.0226 103.191 66.1403C103.203 66.1754 104.244 68.2346 104.384 68.1293Z" fill="#1A164F"/>
<path fill-rule="evenodd" clip-rule="evenodd" d="M101.459 73.5582C100.968 74.7165 100.126 75.5004 99.1311 75.5589C98.1366 75.6174 97.224 74.9271 96.6156 73.8156C97.3527 74.1315 98.1834 74.2836 99.0726 74.2251C99.9501 74.1783 100.746 73.9326 101.459 73.5582Z" fill="white"/>
<path fill-rule="evenodd" clip-rule="evenodd" d="M110.071 100.117C105.04 97.0283 100.009 93.9512 94.9776 90.8624C92.6259 97.3793 86.0271 104.212 83.1957 110.085L98.2887 119.34C101.003 112.718 106.912 107.336 110.071 100.117Z" fill="#4B76BA"/>
<path fill-rule="evenodd" clip-rule="evenodd" d="M110.41 98.8184C105.578 95.8583 100.746 92.8982 95.9253 89.9381C93.3279 96.7592 86.5185 104.083 83.4648 110.261L97.9494 119.141C100.921 112.192 106.982 106.388 110.41 98.8184Z" fill="#D9CAE1"/>
<path fill-rule="evenodd" clip-rule="evenodd" d="M111.451 98.2451C106.549 95.2382 101.646 92.2313 96.7442 89.2244C93.9947 96.3146 86.9396 103.99 83.7455 110.425L98.4524 119.445C101.565 112.203 107.836 106.119 111.451 98.2451Z" fill="white"/>
<path fill-rule="evenodd" clip-rule="evenodd" d="M84.8805 106.236L87.9576 104.329L91.5144 106.154C93.8076 106.915 96.6273 106.845 98.3589 108.436C100.945 111.56 94.3575 116.134 91.9473 111.957L89.9934 109.149L84.8805 106.236Z" fill="#FCCCAD"/>
<path fill-rule="evenodd" clip-rule="evenodd" d="M94.0883 88.265L82.9031 98.7014L90.9527 105.686L88.5425 108.904C82.5287 106.271 78.4454 103.522 77.0882 101.521C74.7365 98.0462 77.2637 94.9808 78.3635 92.8982L88.0511 79.022C89.6891 77.9105 92.0759 85.1879 94.0883 88.265Z" fill="#F182B0"/>
<path fill-rule="evenodd" clip-rule="evenodd" d="M94.9425 21.1889H55.8177C54.6828 21.1889 53.7468 22.1249 53.7468 23.2598V45.8993C53.7468 47.0342 54.6711 47.9702 55.8177 47.9702H83.6988L90.9411 55.3178C91.4676 55.8209 91.9239 55.6805 91.9356 55.4582V47.9702H94.9425C96.0774 47.9702 97.0134 47.0342 97.0134 45.8993V23.2598C97.0134 22.1249 96.0774 21.1889 94.9425 21.1889Z" fill="#8DAFDB"/>
<path fill-rule="evenodd" clip-rule="evenodd" d="M96.4284 19.9487H57.3036C56.1687 19.9487 55.2327 20.8847 55.2327 22.0196V44.6591C55.2327 45.794 56.1687 46.73 57.3036 46.73H85.1847L92.427 54.0776C92.9535 54.5924 93.4098 54.452 93.4215 54.218V46.73H96.4284C97.5633 46.73 98.4993 45.794 98.4993 44.6591V22.0196C98.4993 20.8847 97.5633 19.9487 96.4284 19.9487Z" fill="white"/>
<path fill-rule="evenodd" clip-rule="evenodd" d="M86.8227 35.6618C88.098 35.6618 89.1393 34.6205 89.1393 33.3452C89.1393 32.0699 88.098 31.0286 86.8227 31.0286C85.5474 31.0286 84.5061 32.0699 84.5061 33.3452C84.5061 34.6205 85.5474 35.6618 86.8227 35.6618Z" fill="#8DAFDB"/>
<path fill-rule="evenodd" clip-rule="evenodd" d="M77.0299 35.6618C78.3052 35.6618 79.3465 34.6205 79.3465 33.3452C79.3465 32.0699 78.3052 31.0286 77.0299 31.0286C75.7546 31.0286 74.7133 32.0699 74.7133 33.3452C74.7133 34.6205 75.7546 35.6618 77.0299 35.6618Z" fill="#8DAFDB"/>
<path fill-rule="evenodd" clip-rule="evenodd" d="M66.9093 35.6618C68.1846 35.6618 69.2259 34.6205 69.2259 33.3452C69.2259 32.0699 68.1846 31.0286 66.9093 31.0286C65.634 31.0286 64.5927 32.0699 64.5927 33.3452C64.5927 34.6205 65.634 35.6618 66.9093 35.6618Z" fill="#8DAFDB"/>
<path fill-rule="evenodd" clip-rule="evenodd" d="M223.724 22.9088H260.275C261.34 22.9088 262.206 23.7746 262.206 24.8393V45.9812C262.206 47.0459 261.34 47.9117 260.275 47.9117H234.231L227.468 54.7796C226.977 55.2476 226.556 55.1189 226.544 54.9083V47.9117H223.736C222.671 47.9117 221.806 47.0459 221.806 45.9812V24.8393C221.782 23.7746 222.66 22.9088 223.724 22.9088Z" fill="#FFDABB"/>
<path fill-rule="evenodd" clip-rule="evenodd" d="M222.332 21.7505H258.883C259.947 21.7505 260.813 22.628 260.813 23.681V44.8229C260.813 45.8876 259.947 46.7534 258.883 46.7534H232.839L226.076 53.6213C225.585 54.101 225.163 53.9723 225.152 53.75V46.7534H222.344C221.279 46.7534 220.413 45.8876 220.413 44.8229V23.681C220.402 22.628 221.267 21.7505 222.332 21.7505Z" fill="white"/>
<path fill-rule="evenodd" clip-rule="evenodd" d="M231.306 36.4223C230.113 36.4223 229.142 35.4512 229.142 34.2578C229.142 33.0644 230.113 32.0933 231.306 32.0933C232.5 32.0933 233.471 33.0644 233.471 34.2578C233.471 35.4512 232.5 36.4223 231.306 36.4223Z" fill="#FFDABB"/>
<path fill-rule="evenodd" clip-rule="evenodd" d="M240.455 36.4223C239.262 36.4223 238.291 35.4512 238.291 34.2578C238.291 33.0644 239.262 32.0933 240.455 32.0933C241.649 32.0933 242.62 33.0644 242.62 34.2578C242.62 35.4512 241.649 36.4223 240.455 36.4223Z" fill="#FFDABB"/>
<path fill-rule="evenodd" clip-rule="evenodd" d="M249.909 36.4223C248.716 36.4223 247.745 35.4512 247.745 34.2578C247.745 33.0644 248.716 32.0933 249.909 32.0933C251.102 32.0933 252.074 33.0644 252.074 34.2578C252.074 35.4512 251.102 36.4223 249.909 36.4223Z" fill="#FFDABB"/>
</g>
</g>
<defs>
<linearGradient id="paint0_linear_380_12715" x1="159" y1="104.996" x2="159" y2="-8.43625" gradientUnits="userSpaceOnUse">
<stop stop-color="white"/>
<stop offset="1" stop-color="#D5F0FF"/>
</linearGradient>
<linearGradient id="paint1_linear_380_12715" x1="159" y1="1.4909" x2="159" y2="104.996" gradientUnits="userSpaceOnUse">
<stop stop-color="#84B2FE"/>
<stop offset="1" stop-color="white"/>
</linearGradient>
<clipPath id="clip0_380_12715">
<rect width="318" height="127" fill="white"/>
</clipPath>
<clipPath id="clip1_380_12715">
<rect width="234" height="234" fill="white" transform="translate(42 -34)"/>
</clipPath>
</defs>
</svg>
