<svg width="40" height="40" viewBox="0 0 40 40" fill="none" xmlns="http://www.w3.org/2000/svg">
<path fill-rule="evenodd" clip-rule="evenodd" d="M20.0005 0.078125C8.99656 0.078125 0.078125 8.99719 0.078125 20C0.078125 31.0028 8.99656 39.9219 20.0005 39.9219C31.0026 39.9219 39.9219 31.0028 39.9219 20C39.9219 8.99719 31.0026 0.078125 20.0005 0.078125Z" fill="#1A1C21"/>
<path d="M33.665 28.6044C33.665 29.0831 33.2575 29.4906 32.7787 29.4906C32.6906 29.4906 32.6019 29.4725 32.5312 29.4538C32.3712 29.4181 32.23 29.3306 32.1237 29.2063C29.2725 26.2131 25.8337 23.7681 21.9912 22.0844C21.5125 21.8719 21.0144 21.6769 20.5194 21.4812C20.0225 21.6769 19.5269 21.8719 19.0312 22.0844C15.2225 23.7675 11.8037 26.1775 8.95062 29.1706C8.79187 29.3662 8.54311 29.4906 8.27811 29.4906C7.78124 29.4906 7.375 29.0831 7.375 28.6044C7.375 22.9525 8.79249 17.8331 11.0944 14.1119C13.4869 10.2675 16.8169 7.875 20.5194 7.875C24.2413 7.875 27.5544 10.2669 29.9456 14.1119C32.2475 17.8331 33.665 22.9525 33.665 28.6044ZM17.9325 20.6319C16.745 20.295 15.5231 20.0287 14.2994 19.8519C12.9712 21.4462 11.8188 23.165 10.845 25.0081C13.0069 23.2712 15.3812 21.7831 17.9325 20.6319ZM20.5181 19.5869C22.0781 19.0375 23.7081 18.5944 25.3744 18.275C23.9031 16.7156 22.2737 15.3169 20.5181 14.0762C18.765 15.3162 17.1344 16.7156 15.6644 18.275C17.3294 18.5944 18.9594 19.0375 20.5181 19.5869ZM27.4819 17.9387C28.2425 17.8494 29.0225 17.7788 29.8025 17.7431C29.395 16.7688 28.9344 15.8656 28.4194 15.05C27.4819 13.5262 26.4006 12.2862 25.1969 11.365C24.1337 11.8619 23.1056 12.4281 22.1131 13.0306C23.7962 14.2531 25.3381 15.635 26.7556 17.1412C27.0025 17.4075 27.2331 17.6731 27.4819 17.9387ZM30.4762 19.4981C29.9275 19.515 29.3781 19.5519 28.8287 19.5875C29.8031 20.8631 30.6887 22.2269 31.4856 23.6269C31.2381 22.1725 30.9012 20.7906 30.4762 19.4981ZM26.7556 19.835C25.5156 20.0294 24.2925 20.295 23.1056 20.6319C25.6569 21.8012 28.0481 23.2712 30.1919 25.0081C29.2181 23.1831 28.0669 21.4462 26.7556 19.835ZM12.21 19.5869C11.6606 19.5512 11.1287 19.515 10.5619 19.4975C10.1369 20.79 9.79999 22.1719 9.55249 23.6256C10.3494 22.2262 11.2356 20.8625 12.21 19.5869ZM13.5562 17.9387C13.8037 17.6725 14.035 17.4069 14.2825 17.1419C15.7 15.6356 17.2587 14.2537 18.9237 13.0312C17.9325 12.4288 16.905 11.8625 15.8412 11.3656C14.6362 12.2875 13.5563 13.5275 12.6175 15.0506C12.1038 15.8662 11.6419 16.7694 11.2356 17.7438C12.0144 17.7794 12.7944 17.85 13.5562 17.9387ZM20.5181 11.9331C21.44 11.33 22.3969 10.7812 23.3706 10.285C22.4675 9.87749 21.5112 9.66499 20.5181 9.66499C19.5425 9.66499 18.57 9.87749 17.6663 10.285C18.6406 10.7812 19.5962 11.33 20.5181 11.9331Z" fill="#78909C"/>
</svg>
