<svg width="184" height="193" viewBox="0 0 184 193" fill="none" xmlns="http://www.w3.org/2000/svg">
<g clip-path="url(#clip0_108_2761)">
<path d="M71.2367 193C110.48 193 142.294 187.357 142.294 180.396C142.294 173.434 110.48 167.791 71.2367 167.791C31.993 167.791 0.179688 173.434 0.179688 180.396C0.179688 187.357 31.993 193 71.2367 193Z" fill="#3F3D56"/>
<path d="M114.423 139.46C152.776 139.46 183.868 108.24 183.868 69.7298C183.868 31.2191 152.776 0 114.423 0C76.0699 0 44.9785 31.2191 44.9785 69.7298C44.9785 108.24 76.0699 139.46 114.423 139.46Z" fill="#3F3D56"/>
<path opacity="0.05" d="M114.424 127.293C146.086 127.293 171.753 101.521 171.753 69.7292C171.753 37.9374 146.086 12.165 114.424 12.165C82.7627 12.165 57.0957 37.9374 57.0957 69.7292C57.0957 101.521 82.7627 127.293 114.424 127.293Z" fill="black"/>
<path opacity="0.05" d="M114.423 116.908C140.373 116.908 161.409 95.7856 161.409 69.7294C161.409 43.6732 140.373 22.5505 114.423 22.5505C88.4738 22.5505 67.4375 43.6732 67.4375 69.7294C67.4375 95.7856 88.4738 116.908 114.423 116.908Z" fill="black"/>
<path opacity="0.05" d="M114.424 103.556C133.03 103.556 148.112 88.4112 148.112 69.7294C148.112 51.0477 133.03 35.9031 114.424 35.9031C95.819 35.9031 80.7363 51.0477 80.7363 69.7294C80.7363 88.4112 95.819 103.556 114.424 103.556Z" fill="black"/>
<path d="M45.5943 75.97C45.5943 75.97 40.1346 91.4012 42.5611 96.8834C44.9877 102.366 48.8297 107.645 48.8297 107.645C48.8297 107.645 47.4142 76.9852 45.5943 75.97Z" fill="#D0CDE1"/>
<path opacity="0.1" d="M45.5943 75.97C45.5943 75.97 40.1346 91.4012 42.5611 96.8834C44.9877 102.366 48.8297 107.645 48.8297 107.645C48.8297 107.645 47.4142 76.9852 45.5943 75.97Z" fill="black"/>
<path d="M49.436 111.705C49.436 111.705 49.0316 115.563 48.8294 115.766C48.6272 115.969 49.0316 116.375 48.8294 116.984C48.6272 117.594 48.425 118.406 48.8294 118.609C49.2338 118.812 46.6051 136.68 46.6051 136.68C46.6051 136.68 40.1343 145.207 42.763 158.608L43.5719 172.212C43.5719 172.212 49.8405 172.618 49.8405 170.385C49.8405 170.385 49.436 167.745 49.436 166.527C49.436 165.309 50.4471 165.309 49.8405 164.7C49.2338 164.09 49.2338 163.684 49.2338 163.684C49.2338 163.684 50.2449 162.872 50.0427 162.669C49.8405 162.466 51.8626 148.05 51.8626 148.05C51.8626 148.05 54.0869 145.817 54.0869 144.598V143.38C54.0869 143.38 55.098 140.741 55.098 140.537C55.098 140.334 60.5577 127.949 60.5577 127.949L62.7821 136.883L65.2086 149.674C65.2086 149.674 66.4219 161.248 68.8485 165.715C68.8485 165.715 73.0949 180.334 73.0949 179.928C73.0949 179.522 80.1724 178.507 79.9701 176.679C79.7679 174.852 75.7237 149.268 75.7237 149.268L76.7348 111.299L49.436 111.705Z" fill="#2F2E41"/>
<path d="M43.9754 171.197C43.9754 171.197 38.5157 181.958 42.1555 182.364C45.7953 182.77 47.2108 182.77 48.8285 181.146C49.7129 180.258 51.5039 179.067 52.9458 178.169C53.8002 177.646 54.4904 176.891 54.9373 175.992C55.3841 175.093 55.5696 174.085 55.4723 173.085C55.3657 172.092 54.996 171.273 54.086 171.197C51.6595 170.994 48.8285 168.76 48.8285 168.76L43.9754 171.197Z" fill="#2F2E41"/>
<path d="M74.1063 179.116C74.1063 179.116 68.6465 189.877 72.2863 190.283C75.9262 190.689 77.3417 190.689 78.9594 189.065C79.8438 188.177 81.6347 186.986 83.0767 186.088C83.9311 185.565 84.6213 184.81 85.0681 183.911C85.515 183.012 85.7004 182.004 85.6032 181.004C85.4965 180.011 85.1268 179.192 84.2169 179.116C81.7903 178.913 78.9594 176.679 78.9594 176.679L74.1063 179.116Z" fill="#2F2E41"/>
<path d="M68.3381 58.3594C73.0327 58.3594 76.8384 54.5381 76.8384 49.8242C76.8384 45.1104 73.0327 41.2891 68.3381 41.2891C63.6436 41.2891 59.8379 45.1104 59.8379 49.8242C59.8379 54.5381 63.6436 58.3594 68.3381 58.3594Z" fill="#FFB8B8"/>
<path d="M62.8712 52.6287C62.8712 52.6287 56.7996 63.8463 56.3139 63.8463C55.8282 63.8463 67.2428 67.5042 67.2428 67.5042C67.2428 67.5042 70.4 56.7743 70.8858 55.7989L62.8712 52.6287Z" fill="#FFB8B8"/>
<path d="M72.1878 64.9042C72.1878 64.9042 60.055 58.2038 58.8417 58.4069C57.6285 58.6099 44.6868 69.9803 44.8891 74.6503C45.0913 79.3203 46.709 87.0359 46.709 87.0359C46.709 87.0359 47.3156 108.558 48.5289 108.762C49.7422 108.965 48.3267 112.619 48.7311 112.619C49.1355 112.619 77.0409 112.619 77.2431 112.01C77.4453 111.401 72.1878 64.9042 72.1878 64.9042Z" fill="#D0CDE1"/>
<path d="M78.9622 113.127C78.9622 113.127 82.8043 124.903 79.5689 124.497C76.3335 124.091 74.918 114.345 74.918 114.345L78.9622 113.127Z" fill="#FFB8B8"/>
<path d="M68.6458 64.1934C68.6458 64.1934 61.1639 65.8177 62.3772 75.9699C63.5905 86.122 65.8148 96.2741 65.8148 96.2741L73.2967 112.721L74.1056 115.766L79.5653 114.345L75.5211 90.792C75.5211 90.792 74.1056 65.6147 72.2856 64.8025C71.138 64.3112 69.8901 64.1024 68.6458 64.1934Z" fill="#D0CDE1"/>
<path opacity="0.1" d="M64.0977 95.97L73.3996 112.619L65.5626 95.0754L64.0977 95.97Z" fill="black"/>
<path d="M76.7996 47.311L76.8277 46.6588L78.1198 46.9817C78.106 46.7723 78.0471 46.5685 77.9471 46.3842C77.8471 46.1999 77.7085 46.0396 77.5408 45.9144L78.9172 45.8371C77.7623 44.1891 76.2866 42.7932 74.5794 41.7338C72.8722 40.6744 70.9689 39.9735 68.9844 39.6733C66.0071 39.24 62.6921 39.867 60.6505 42.0856C59.6603 43.1617 59.0381 44.5302 58.5955 45.9263C57.7803 48.4977 57.6142 51.563 59.314 53.6531C61.0416 55.7774 64.0593 56.1936 66.7781 56.4565C67.7347 56.549 68.7372 56.635 69.6237 56.2624C69.7224 55.2414 69.5922 54.2112 69.2428 53.2472C69.0972 52.9489 69.0277 52.6189 69.0404 52.2869C69.1612 51.4747 70.2401 51.2701 71.0506 51.3798C71.8611 51.4896 72.8356 51.6574 73.3682 51.0342C73.735 50.605 73.7134 49.9798 73.762 49.4163C73.8943 47.8821 76.7857 47.6327 76.7996 47.311Z" fill="#2F2E41"/>
<path d="M128.935 182.13C134.405 182.13 138.84 177.678 138.84 172.185C138.84 166.693 134.405 162.24 128.935 162.24C123.466 162.24 119.031 166.693 119.031 172.185C119.031 177.678 123.466 182.13 128.935 182.13Z" fill="#50B0F9"/>
<path d="M12.6191 178.661C18.089 178.661 22.5233 174.208 22.5233 168.716C22.5233 163.223 18.089 158.771 12.6191 158.771C7.14911 158.771 2.71484 163.223 2.71484 168.716C2.71484 174.208 7.14911 178.661 12.6191 178.661Z" fill="#50B0F9"/>
<path d="M12.6168 162.703C16.5603 162.703 19.7571 159.493 19.7571 155.533C19.7571 151.573 16.5603 148.364 12.6168 148.364C8.67336 148.364 5.47656 151.573 5.47656 155.533C5.47656 159.493 8.67336 162.703 12.6168 162.703Z" fill="#50B0F9"/>
<path d="M12.6181 149.52C15.4166 149.52 17.6853 147.242 17.6853 144.432C17.6853 141.622 15.4166 139.344 12.6181 139.344C9.81948 139.344 7.55078 141.622 7.55078 144.432C7.55078 147.242 9.81948 149.52 12.6181 149.52Z" fill="#50B0F9"/>
</g>
<defs>
<clipPath id="clip0_108_2761">
<rect width="183.689" height="193" fill="white" transform="translate(0.179688)"/>
</clipPath>
</defs>
</svg>
