<svg width="543" height="103" viewBox="0 0 543 103" fill="none" xmlns="http://www.w3.org/2000/svg">
<path d="M293.571 44.9244C293.571 38.8615 291.773 32.9347 288.405 27.8936C285.037 22.8524 280.249 18.9233 274.648 16.6031C269.046 14.2829 262.882 13.6759 256.936 14.8587C250.99 16.0415 245.527 18.9611 241.24 23.2482C236.953 27.5354 234.034 32.9975 232.851 38.944C231.668 44.8904 232.275 51.0541 234.595 56.6555C236.915 62.2569 240.844 67.0445 245.886 70.4129C250.927 73.7813 256.854 75.5792 262.916 75.5792C271.044 75.57 278.836 72.3374 284.583 66.5905C290.329 60.8436 293.562 53.0518 293.571 44.9244ZM262.916 73.1268C257.339 73.1268 251.886 71.4727 247.248 68.3738C242.61 65.2749 238.995 60.8703 236.861 55.717C234.726 50.5637 234.168 44.8931 235.256 39.4224C236.344 33.9517 239.03 28.9265 242.974 24.9823C246.919 21.0382 251.944 18.3521 257.414 17.2639C262.885 16.1758 268.556 16.7343 273.709 18.8688C278.862 21.0034 283.267 24.6182 286.366 29.256C289.465 33.8939 291.119 39.3465 291.119 44.9244C291.11 52.4015 288.136 59.57 282.849 64.8571C277.562 70.1442 270.394 73.1183 262.916 73.1268Z" fill="#3E4D53"/>
<path d="M262.915 23.4661C258.671 23.4661 254.523 24.7246 250.994 27.0824C247.465 29.4403 244.715 32.7916 243.09 36.7126C241.466 40.6336 241.041 44.9482 241.869 49.1107C242.697 53.2732 244.741 57.0967 247.742 60.0977C250.743 63.0987 254.567 65.1424 258.729 65.9704C262.892 66.7984 267.206 66.3734 271.127 64.7493C275.048 63.1252 278.399 60.3748 280.757 56.846C283.115 53.3172 284.374 49.1685 284.374 44.9244C284.367 39.2353 282.104 33.781 278.082 29.7582C274.059 25.7354 268.604 23.4725 262.915 23.4661ZM262.915 63.9303C259.156 63.9303 255.482 62.8157 252.356 60.7273C249.231 58.6389 246.795 55.6705 245.356 52.1977C243.918 48.7248 243.541 44.9033 244.275 41.2165C245.008 37.5297 246.818 34.1432 249.476 31.4852C252.134 28.8271 255.521 27.017 259.207 26.2836C262.894 25.5503 266.716 25.9267 270.189 27.3652C273.662 28.8037 276.63 31.2397 278.718 34.3653C280.807 37.4908 281.921 41.1654 281.921 44.9244C281.916 49.9633 279.911 54.7942 276.348 58.3573C272.785 61.9204 267.954 63.9246 262.915 63.9303Z" fill="#1CD0AF"/>
<path d="M272.473 36.6989L258.573 50.5504L253.359 45.3544C253.245 45.2403 253.11 45.1499 252.961 45.0882C252.812 45.0266 252.652 44.9949 252.491 44.995C252.33 44.9951 252.17 45.027 252.021 45.0889C251.872 45.1508 251.737 45.2414 251.623 45.3556C251.509 45.4698 251.419 45.6053 251.358 45.7544C251.297 45.9035 251.265 46.0632 251.266 46.2244C251.266 46.3856 251.298 46.5452 251.36 46.6939C251.423 46.8427 251.514 46.9777 251.628 47.0913L257.708 53.1501C257.938 53.3792 258.249 53.5078 258.573 53.5078C258.898 53.5078 259.209 53.3792 259.439 53.1501L274.204 38.4358C274.319 38.3221 274.409 38.187 274.471 38.0384C274.533 37.8897 274.565 37.7303 274.565 37.5692C274.565 37.4082 274.534 37.2487 274.472 37.0998C274.411 36.9509 274.321 36.8156 274.207 36.7016C274.093 36.5875 273.958 36.497 273.81 36.4351C273.661 36.3733 273.502 36.3413 273.341 36.3411C273.18 36.3408 273.02 36.3723 272.871 36.4337C272.722 36.4951 272.587 36.5852 272.473 36.6989Z" fill="#1CD0AF"/>
<path d="M295.205 29.2904C295.569 29.2904 295.925 29.1825 296.227 28.9804C296.53 28.7783 296.766 28.4911 296.905 28.155C297.044 27.8189 297.08 27.4491 297.009 27.0923C296.938 26.7355 296.763 26.4078 296.506 26.1506C296.249 25.8933 295.921 25.7182 295.564 25.6472C295.207 25.5762 294.838 25.6126 294.502 25.7518C294.166 25.8911 293.878 26.1268 293.676 26.4293C293.474 26.7317 293.366 27.0873 293.366 27.4511C293.367 27.9388 293.561 28.4063 293.905 28.7511C294.25 29.0959 294.718 29.2899 295.205 29.2904ZM295.205 26.5315C295.387 26.5315 295.565 26.5854 295.716 26.6865C295.868 26.7875 295.985 26.9312 296.055 27.0992C296.125 27.2672 296.143 27.4521 296.107 27.6305C296.072 27.8089 295.984 27.9728 295.856 28.1014C295.727 28.23 295.563 28.3176 295.385 28.3531C295.206 28.3886 295.022 28.3704 294.854 28.3008C294.685 28.2312 294.542 28.1133 294.441 27.9621C294.34 27.8108 294.286 27.633 294.286 27.4511C294.286 27.2073 294.383 26.9735 294.555 26.8011C294.728 26.6287 294.962 26.5317 295.205 26.5315ZM314.211 29.3926C313.969 29.3926 313.732 29.4645 313.53 29.5992C313.329 29.734 313.171 29.9255 313.079 30.1495C312.986 30.3736 312.961 30.6201 313.009 30.858C313.056 31.0959 313.173 31.3143 313.344 31.4858C313.516 31.6573 313.734 31.7741 313.972 31.8214C314.21 31.8687 314.457 31.8444 314.681 31.7516C314.905 31.6588 315.096 31.5017 315.231 31.3C315.366 31.0984 315.438 30.8613 315.438 30.6188C315.437 30.2937 315.308 29.982 315.078 29.7522C314.848 29.5223 314.536 29.393 314.211 29.3926ZM314.211 31.2319C314.09 31.2319 313.972 31.1959 313.871 31.1286C313.77 31.0612 313.691 30.9654 313.645 30.8534C313.599 30.7414 313.586 30.6181 313.61 30.4992C313.634 30.3802 313.692 30.271 313.778 30.1853C313.864 30.0995 313.973 30.0411 314.092 30.0175C314.211 29.9938 314.334 30.006 314.446 30.0524C314.558 30.0988 314.654 30.1773 314.721 30.2782C314.789 30.379 314.824 30.4975 314.824 30.6188C314.824 30.7813 314.76 30.9372 314.645 31.0521C314.53 31.1671 314.374 31.2317 314.211 31.2319ZM254.332 3.6426C254.09 3.6426 253.853 3.71451 253.651 3.84925C253.45 3.98398 253.292 4.17549 253.2 4.39954C253.107 4.6236 253.082 4.87015 253.13 5.108C253.177 5.34586 253.294 5.56435 253.465 5.73583C253.637 5.90732 253.855 6.0241 254.093 6.07142C254.331 6.11873 254.578 6.09445 254.802 6.00164C255.026 5.90883 255.217 5.75167 255.352 5.55002C255.487 5.34838 255.559 5.1113 255.559 4.86879C255.558 4.54369 255.429 4.23202 255.199 4.00215C254.969 3.77227 254.658 3.64297 254.332 3.6426ZM254.332 5.48188C254.211 5.48188 254.093 5.44592 253.992 5.37856C253.891 5.31119 253.812 5.21544 253.766 5.10341C253.72 4.99138 253.707 4.86811 253.731 4.74918C253.755 4.63025 253.813 4.52101 253.899 4.43526C253.985 4.34952 254.094 4.29113 254.213 4.26747C254.332 4.24382 254.455 4.25596 254.567 4.30236C254.679 4.34876 254.775 4.42735 254.842 4.52817C254.91 4.62899 254.946 4.74753 254.946 4.86879C254.945 5.03134 254.881 5.18719 254.766 5.30213C254.651 5.41707 254.495 5.48172 254.332 5.48188ZM300.706 2.21204C300.463 2.21204 300.226 2.28395 300.024 2.41869C299.823 2.55342 299.666 2.74493 299.573 2.96898C299.48 3.19304 299.456 3.43959 299.503 3.67744C299.55 3.9153 299.667 4.13379 299.839 4.30527C300.01 4.47676 300.229 4.59354 300.467 4.64086C300.704 4.68817 300.951 4.66389 301.175 4.57108C301.399 4.47827 301.591 4.32111 301.725 4.11946C301.86 3.91782 301.932 3.68074 301.932 3.43823C301.932 3.11313 301.802 2.80146 301.572 2.57159C301.342 2.34171 301.031 2.21241 300.706 2.21204ZM300.706 4.05132C300.584 4.05132 300.466 4.01536 300.365 3.948C300.264 3.88063 300.186 3.78488 300.139 3.67285C300.093 3.56082 300.081 3.43755 300.104 3.31862C300.128 3.19969 300.186 3.09045 300.272 3.0047C300.358 2.91896 300.467 2.86057 300.586 2.83691C300.705 2.81326 300.828 2.8254 300.94 2.8718C301.052 2.9182 301.148 2.99679 301.215 3.09761C301.283 3.19843 301.319 3.31697 301.319 3.43823C301.319 3.60078 301.254 3.75663 301.139 3.87157C301.024 3.98651 300.868 4.05116 300.706 4.05132ZM234.509 18.5612C234.509 18.3187 234.437 18.0817 234.302 17.88C234.168 17.6784 233.976 17.5212 233.752 17.4284C233.528 17.3356 233.281 17.3113 233.044 17.3586C232.806 17.4059 232.587 17.5227 232.416 17.6942C232.244 17.8657 232.128 18.0842 232.08 18.322C232.033 18.5599 232.057 18.8064 232.15 19.0305C232.243 19.2545 232.4 19.4461 232.602 19.5808C232.803 19.7155 233.04 19.7874 233.283 19.7874C233.608 19.7871 233.92 19.6578 234.149 19.4279C234.379 19.198 234.509 18.8863 234.509 18.5612ZM232.67 18.5612C232.67 18.44 232.706 18.3215 232.773 18.2206C232.84 18.1198 232.936 18.0412 233.048 17.9948C233.16 17.9484 233.284 17.9363 233.402 17.9599C233.521 17.9836 233.631 18.042 233.716 18.1277C233.802 18.2135 233.86 18.3227 233.884 18.4416C233.908 18.5606 233.896 18.6838 233.849 18.7959C233.803 18.9079 233.724 19.0036 233.623 19.071C233.523 19.1384 233.404 19.1743 233.283 19.1743C233.12 19.1742 232.964 19.1095 232.849 18.9946C232.735 18.8796 232.67 18.7238 232.67 18.5612Z" fill="#3E4D53"/>
<path d="M226.676 41.8658L227.588 40.6672L227.012 40.3411L226.427 41.6837H226.408L225.813 40.3503L225.228 40.6862L226.129 41.8566V41.8756L224.719 41.6935V42.3453L226.139 42.1632V42.1828L225.228 43.3526L225.774 43.6984L226.398 42.3453H226.417L226.993 43.6886L227.597 43.3434L226.676 42.192V42.173L228.124 42.3453V41.6935L226.676 41.8848V41.8658Z" fill="#1CD0AF"/>
<path d="M224.375 2.73131L223.85 3.4051L224.164 3.60436L224.524 2.82511H224.535L224.866 3.59884L225.214 3.39958L224.684 2.73683V2.72579L225.518 2.82511V2.4499L224.684 2.56026V2.54922L225.209 1.85887L224.877 1.67065L224.541 2.44377H224.529L224.187 1.67617L223.85 1.8693L224.369 2.5437V2.55474L223.557 2.4499V2.82511L224.375 2.72027V2.73131Z" fill="#1CD0AF"/>
<path d="M320.938 13.2765V12.6364L319.517 12.8246V12.8063L320.412 11.6297L319.847 11.3103L319.273 12.6272H319.254L318.671 11.3195L318.096 11.6487L318.981 12.7971V12.8155L317.598 12.6364V13.2765L318.991 13.0981V13.1165L318.096 14.2642L318.633 14.6032L319.244 13.2765H319.263L319.827 14.594L320.421 14.255L319.517 13.1257V13.1073L320.938 13.2765Z" fill="#1CD0AF"/>
<path d="M279.267 11.8205L280.039 10.8058L279.552 10.5299L279.056 11.666H279.04L278.537 10.5379L278.042 10.8217L278.805 11.8125V11.8284L277.611 11.6739V12.2257L278.813 12.0718V12.0884L278.042 13.0779L278.504 13.3704L279.032 12.2257H279.048L279.535 13.3624L280.047 13.07L279.267 12.0964V12.0798L280.493 12.2257V11.6739L279.267 11.8364V11.8205Z" fill="#1CD0AF"/>
<path d="M221.226 92.746C221.903 92.746 222.452 92.197 222.452 91.5198C222.452 90.8426 221.903 90.2936 221.226 90.2936C220.549 90.2936 220 90.8426 220 91.5198C220 92.197 220.549 92.746 221.226 92.746Z" fill="#3E4D53"/>
<path d="M226.743 90.2935H224.904C224.579 90.2935 224.267 90.4226 224.037 90.6526C223.807 90.8826 223.678 91.1944 223.678 91.5196C223.678 91.8449 223.807 92.1567 224.037 92.3867C224.267 92.6167 224.579 92.7458 224.904 92.7458H226.743C227.068 92.7458 227.38 92.6167 227.61 92.3867C227.84 92.1567 227.969 91.8449 227.969 91.5196C227.969 91.1944 227.84 90.8826 227.61 90.6526C227.38 90.4226 227.068 90.2935 226.743 90.2935ZM318.094 90.2935H316.255C315.93 90.2935 315.618 90.4226 315.388 90.6526C315.158 90.8826 315.029 91.1944 315.029 91.5196C315.029 91.8449 315.158 92.1567 315.388 92.3867C315.618 92.6167 315.93 92.7458 316.255 92.7458H318.094C318.42 92.7458 318.731 92.6167 318.961 92.3867C319.191 92.1567 319.321 91.8449 319.321 91.5196C319.321 91.1944 319.191 90.8826 318.961 90.6526C318.731 90.4226 318.42 90.2935 318.094 90.2935Z" fill="#3E4D53"/>
<path d="M321.773 92.746C322.45 92.746 322.999 92.197 322.999 91.5198C322.999 90.8426 322.45 90.2936 321.773 90.2936C321.096 90.2936 320.547 90.8426 320.547 91.5198C320.547 92.197 321.096 92.746 321.773 92.746Z" fill="#3E4D53"/>
<path d="M292.439 95.1982H287.345C287.037 95.2229 286.749 95.3628 286.54 95.5901C286.33 95.8173 286.213 96.1152 286.213 96.4244C286.213 96.7337 286.33 97.0316 286.54 97.2588C286.749 97.486 287.037 97.6259 287.345 97.6506H292.439C292.747 97.6259 293.035 97.486 293.244 97.2588C293.454 97.0316 293.571 96.7337 293.571 96.4244C293.571 96.1152 293.454 95.8173 293.244 95.5901C293.035 95.3628 292.747 95.2229 292.439 95.1982ZM255.653 95.1982H250.56C250.251 95.2229 249.964 95.3628 249.754 95.5901C249.544 95.8173 249.428 96.1152 249.428 96.4244C249.428 96.7337 249.544 97.0316 249.754 97.2588C249.964 97.486 250.251 97.6259 250.56 97.6506H255.653C255.961 97.6259 256.249 97.486 256.459 97.2588C256.668 97.0316 256.785 96.7337 256.785 96.4244C256.785 96.1152 256.668 95.8173 256.459 95.5901C256.249 95.3628 255.961 95.2229 255.653 95.1982ZM283.761 95.1982H259.237C258.912 95.1982 258.6 95.3274 258.37 95.5574C258.14 95.7873 258.011 96.0992 258.011 96.4244C258.011 96.7496 258.14 97.0615 258.37 97.2915C258.6 97.5214 258.912 97.6506 259.237 97.6506H269.01V98.8768H264.142C263.817 98.8768 263.505 99.006 263.275 99.236C263.045 99.4659 262.916 99.7778 262.916 100.103C262.916 100.428 263.045 100.74 263.275 100.97C263.505 101.2 263.817 101.329 264.142 101.329H279.469C279.795 101.329 280.107 101.2 280.336 100.97C280.566 100.74 280.696 100.428 280.696 100.103C280.696 99.7778 280.566 99.4659 280.336 99.236C280.107 99.006 279.795 98.8768 279.469 98.8768H273.988V97.6506H283.761C284.086 97.6506 284.398 97.5214 284.628 97.2915C284.858 97.0615 284.987 96.7496 284.987 96.4244C284.987 96.0992 284.858 95.7873 284.628 95.5574C284.398 95.3274 284.086 95.1982 283.761 95.1982Z" fill="#1CD0AF"/>
<path d="M312.407 90.2934H309.349C310.329 89.0556 310.82 87.5009 310.728 85.9249C310.636 84.349 309.968 82.8617 308.852 81.7459L296.046 68.9402C295.641 68.5338 295.106 68.283 294.535 68.2317C293.963 68.1804 293.392 68.3319 292.921 68.6596L289.238 64.976C288.739 65.6293 288.216 66.263 287.67 66.8769L291.156 70.3622L288.355 73.1627L284.87 69.6774C284.256 70.2226 283.622 70.745 282.969 71.2447L286.652 74.9277C286.324 75.3987 286.173 75.97 286.225 76.5413C286.276 77.1127 286.527 77.6477 286.933 78.0527L299.174 90.2934H230.594C230.42 90.2706 230.242 90.2853 230.074 90.3365C229.906 90.3877 229.75 90.4742 229.618 90.5903C229.486 90.7063 229.38 90.8493 229.307 91.0095C229.235 91.1698 229.197 91.3437 229.197 91.5196C229.197 91.6955 229.235 91.8694 229.307 92.0297C229.38 92.19 229.486 92.3329 229.618 92.449C229.75 92.565 229.906 92.6515 230.074 92.7027C230.242 92.7539 230.42 92.7686 230.594 92.7458H312.407C312.582 92.7686 312.759 92.7539 312.927 92.7027C313.095 92.6515 313.251 92.565 313.383 92.449C313.515 92.3329 313.621 92.19 313.694 92.0297C313.766 91.8694 313.804 91.6955 313.804 91.5196C313.804 91.3437 313.766 91.1698 313.694 91.0095C313.621 90.8493 313.515 90.7063 313.383 90.5903C313.251 90.4742 313.095 90.3877 312.927 90.3365C312.759 90.2853 312.582 90.2706 312.407 90.2934ZM301.473 89.1243L288.667 76.3187L294.312 70.6742L307.118 83.4799C307.488 83.8506 307.782 84.2906 307.983 84.7749C308.183 85.2592 308.286 85.7782 308.286 86.3024C308.286 86.8265 308.183 87.3456 307.982 87.8298C307.782 88.3141 307.488 88.754 307.117 89.1246C306.368 89.873 305.353 90.2935 304.295 90.2934C303.236 90.2933 302.221 89.8728 301.473 89.1243Z" fill="#3E4D53"/>
</svg>
