<svg width="251" height="251" viewBox="0 0 251 251" fill="none" xmlns="http://www.w3.org/2000/svg">
<path d="M190.183 85.7401L125.488 47.6822L60.1027 85.693L56.1573 78.9121L123.527 39.7522C124.129 39.4016 124.813 39.2179 125.509 39.22C126.206 39.2221 126.889 39.4098 127.488 39.764L194.16 78.9827L190.183 85.7401ZM87.1401 155.404L58.8281 120.013L30.5161 155.404L24.3901 150.506L55.7651 111.287C57.2594 109.424 60.4008 109.424 61.8911 111.287L93.2661 150.506L87.1401 155.404ZM86.2812 184.328H94.125V207.859H86.2812V184.328ZM220.484 155.404L192.172 120.013L163.86 155.404L157.734 150.506L189.109 111.287C190.603 109.424 193.745 109.424 195.235 111.287L226.61 150.506L220.484 155.404ZM156.875 184.328H164.719V207.859H156.875V184.328ZM219.625 184.328H227.469V207.859H219.625V184.328ZM23.5312 184.328H31.375V207.859H23.5312V184.328Z" fill="#666666"/>
<path d="M47.0625 203.938H7.84375V243.156H47.0625V203.938Z" fill="#289EF8"/>
<path d="M70.5938 243.156H109.812V203.938H70.5938V243.156Z" fill="#96D0FB"/>
<path d="M141.188 243.156H180.406V203.938H141.188V243.156Z" fill="#1CD0AF"/>
<path d="M203.938 243.156H243.156V203.938H203.938V243.156Z" fill="#97F1E1"/>
<path d="M47.0625 149.031H7.84375V188.25H47.0625V149.031Z" fill="#289EF8"/>
<path d="M70.5938 188.25H109.812V149.031H70.5938V188.25Z" fill="#96D0FB"/>
<path d="M78.4375 78.4375H39.2188V117.656H78.4375V78.4375Z" fill="#289EF8"/>
<path d="M125.402 43.1404H125.598L125.5 43.0815L125.402 43.1404Z" fill="#E8EDED"/>
<path d="M145.109 7.84375H105.891V47.0625H125.378L125.5 46.9919L125.622 47.0625H145.109V7.84375ZM211.781 78.4375H172.562V117.656H211.781V78.4375ZM141.188 188.25H180.406V149.031H141.188V188.25Z" fill="#1CD0AF"/>
<path d="M203.938 149.031V188.25H243.156V149.031H223.547H203.938Z" fill="#97F1E1"/>
</svg>
