<svg width="40" height="40" viewBox="0 0 40 40" fill="none" xmlns="http://www.w3.org/2000/svg">
<rect width="40" height="40" rx="4" fill="white"/>
<path d="M34.4199 5.33325L21.9277 14.6113L24.2378 9.1374L34.4199 5.33325Z" fill="#E2761B" stroke="#E2761B" stroke-width="0.126805" stroke-linecap="round" stroke-linejoin="round"/>
<path d="M5.58301 5.33325L17.9747 14.6992L15.7776 9.13739L5.58301 5.33325Z" fill="#E4761B" stroke="#E4761B" stroke-width="0.126805" stroke-linecap="round" stroke-linejoin="round"/>
<path d="M29.9257 26.8398L26.5986 31.9371L33.7173 33.8957L35.7637 26.9528L29.9257 26.8398Z" fill="#E4761B" stroke="#E4761B" stroke-width="0.126805" stroke-linecap="round" stroke-linejoin="round"/>
<path d="M4.26367 26.9528L6.29757 33.8957L13.4162 31.9371L10.0892 26.8398L4.26367 26.9528Z" fill="#E4761B" stroke="#E4761B" stroke-width="0.126805" stroke-linecap="round" stroke-linejoin="round"/>
<path d="M13.014 18.227L11.0303 21.2277L18.0987 21.5415L17.8476 13.9458L13.014 18.227Z" fill="#E4761B" stroke="#E4761B" stroke-width="0.126805" stroke-linecap="round" stroke-linejoin="round"/>
<path d="M26.9883 18.2273L22.0919 13.8582L21.9287 21.5418L28.9846 21.2279L26.9883 18.2273Z" fill="#E4761B" stroke="#E4761B" stroke-width="0.126805" stroke-linecap="round" stroke-linejoin="round"/>
<path d="M13.417 31.9373L17.6606 29.8657L13.9945 27.0032L13.417 31.9373Z" fill="#E4761B" stroke="#E4761B" stroke-width="0.126805" stroke-linecap="round" stroke-linejoin="round"/>
<path d="M22.3428 29.8657L26.5989 31.9373L26.0088 27.0032L22.3428 29.8657Z" fill="#E4761B" stroke="#E4761B" stroke-width="0.126805" stroke-linecap="round" stroke-linejoin="round"/>
<path d="M26.5989 31.9373L22.3428 29.8657L22.6818 32.6404L22.6441 33.808L26.5989 31.9373Z" fill="#D7C1B3" stroke="#D7C1B3" stroke-width="0.126805" stroke-linecap="round" stroke-linejoin="round"/>
<path d="M13.417 31.9373L17.3718 33.808L17.3467 32.6404L17.6606 29.8657L13.417 31.9373Z" fill="#D7C1B3" stroke="#D7C1B3" stroke-width="0.126805" stroke-linecap="round" stroke-linejoin="round"/>
<path d="M17.4331 25.1702L13.8926 24.1281L16.391 22.9856L17.4331 25.1702Z" fill="#233447" stroke="#233447" stroke-width="0.126805" stroke-linecap="round" stroke-linejoin="round"/>
<path d="M22.5684 25.1702L23.6104 22.9856L26.1214 24.1281L22.5684 25.1702Z" fill="#233447" stroke="#233447" stroke-width="0.126805" stroke-linecap="round" stroke-linejoin="round"/>
<path d="M13.4179 31.9371L14.0205 26.8398L10.0908 26.9528L13.4179 31.9371Z" fill="#CD6116" stroke="#CD6116" stroke-width="0.126805" stroke-linecap="round" stroke-linejoin="round"/>
<path d="M25.9961 26.8398L26.5987 31.9371L29.9258 26.9528L25.9961 26.8398Z" fill="#CD6116" stroke="#CD6116" stroke-width="0.126805" stroke-linecap="round" stroke-linejoin="round"/>
<path d="M28.9846 21.2278L21.9287 21.5417L22.5816 25.17L23.6236 22.9855L26.1346 24.128L28.9846 21.2278Z" fill="#CD6116" stroke="#CD6116" stroke-width="0.126805" stroke-linecap="round" stroke-linejoin="round"/>
<path d="M13.8947 24.128L16.4057 22.9855L17.4352 25.17L18.1007 21.5417L11.0322 21.2278L13.8947 24.128Z" fill="#CD6116" stroke="#CD6116" stroke-width="0.126805" stroke-linecap="round" stroke-linejoin="round"/>
<path d="M11.0312 21.2278L13.9942 27.003L13.8938 24.128L11.0312 21.2278Z" fill="#E4751F" stroke="#E4751F" stroke-width="0.126805" stroke-linecap="round" stroke-linejoin="round"/>
<path d="M26.1353 24.128L26.0098 27.003L28.9853 21.2278L26.1353 24.128Z" fill="#E4751F" stroke="#E4751F" stroke-width="0.126805" stroke-linecap="round" stroke-linejoin="round"/>
<path d="M18.099 21.5415L17.4336 25.1699L18.2622 29.4511L18.4505 23.8139L18.099 21.5415Z" fill="#E4751F" stroke="#E4751F" stroke-width="0.126805" stroke-linecap="round" stroke-linejoin="round"/>
<path d="M21.9298 21.5415L21.5908 23.8014L21.7415 29.4511L22.5827 25.1699L21.9298 21.5415Z" fill="#E4751F" stroke="#E4751F" stroke-width="0.126805" stroke-linecap="round" stroke-linejoin="round"/>
<path d="M22.5804 25.1702L21.7393 29.4515L22.3419 29.8658L26.0079 27.0033L26.1335 24.1282L22.5804 25.1702Z" fill="#F6851B" stroke="#F6851B" stroke-width="0.126805" stroke-linecap="round" stroke-linejoin="round"/>
<path d="M13.8926 24.1282L13.993 27.0033L17.6591 29.8658L18.2617 29.4515L17.4331 25.1702L13.8926 24.1282Z" fill="#F6851B" stroke="#F6851B" stroke-width="0.126805" stroke-linecap="round" stroke-linejoin="round"/>
<path d="M22.6449 33.8079L22.6825 32.6403L22.3687 32.3641H17.6354L17.3467 32.6403L17.3718 33.8079L13.417 31.9373L14.798 33.0672L17.5978 35.0132H22.4063L25.2186 33.0672L26.5997 31.9373L22.6449 33.8079Z" fill="#C0AD9E" stroke="#C0AD9E" stroke-width="0.126805" stroke-linecap="round" stroke-linejoin="round"/>
<path d="M22.3435 29.8655L21.7409 29.4512H18.2632L17.6606 29.8655L17.3467 32.6401L17.6354 32.3639H22.3687L22.6825 32.6401L22.3435 29.8655Z" fill="#161616" stroke="#161616" stroke-width="0.126805" stroke-linecap="round" stroke-linejoin="round"/>
<path d="M34.9469 15.214L36.0141 10.0916L34.4196 5.33325L22.3418 14.2975L26.9871 18.2272L33.5533 20.1481L35.0097 18.4532L34.382 18.0012L35.3864 17.0847L34.608 16.482L35.6124 15.7162L34.9469 15.214Z" fill="#763D16" stroke="#763D16" stroke-width="0.126805" stroke-linecap="round" stroke-linejoin="round"/>
<path d="M4 10.0916L5.06717 15.214L4.3892 15.7162L5.3936 16.482L4.62775 17.0847L5.63214 18.0012L5.00439 18.4532L6.44821 20.1481L13.0144 18.2272L17.6598 14.2975L5.58192 5.33325L4 10.0916Z" fill="#763D16" stroke="#763D16" stroke-width="0.126805" stroke-linecap="round" stroke-linejoin="round"/>
<path d="M33.5553 20.1482L26.989 18.2273L28.9853 21.2279L26.0098 27.0032L29.9269 26.953H35.7649L33.5553 20.1482Z" fill="#F6851B" stroke="#F6851B" stroke-width="0.126805" stroke-linecap="round" stroke-linejoin="round"/>
<path d="M13.0145 18.2273L6.44823 20.1482L4.26367 26.953H10.0892L13.9937 27.0032L11.0308 21.2279L13.0145 18.2273Z" fill="#F6851B" stroke="#F6851B" stroke-width="0.126805" stroke-linecap="round" stroke-linejoin="round"/>
<path d="M21.9273 21.5417L22.3416 14.2975L24.25 9.13745H15.7754L17.6586 14.2975L18.0981 21.5417L18.2487 23.8267L18.2613 29.4513H21.739L21.7641 23.8267L21.9273 21.5417Z" fill="#F6851B" stroke="#F6851B" stroke-width="0.126805" stroke-linecap="round" stroke-linejoin="round"/>
</svg>
