<svg width="206" height="73" viewBox="0 0 206 73" fill="none" xmlns="http://www.w3.org/2000/svg">
<path d="M11.1328 51.4968V17.5889H24.2491C25.9007 17.5889 27.3743 17.848 28.6697 18.3661C29.9652 18.8519 31.0501 19.5644 31.9245 20.5036C32.8313 21.4428 33.5114 22.5763 33.9648 23.9041C34.4182 25.2319 34.6449 26.7217 34.6449 28.3733C34.6449 30.025 34.4182 31.5148 33.9648 32.8426C33.5114 34.1704 32.8313 35.3039 31.9245 36.2431C31.0501 37.1823 29.9652 37.911 28.6697 38.4291C27.3743 38.9149 25.9007 39.1578 24.2491 39.1578H18.4682V51.4968H11.1328ZM18.4682 33.2798H22.4031C24.1195 33.2798 25.3016 32.9559 25.9493 32.3082C26.6294 31.6605 26.9695 30.5918 26.9695 29.102V27.6447C26.9695 26.1549 26.6294 25.0862 25.9493 24.4385C25.3016 23.7907 24.1195 23.4669 22.4031 23.4669H18.4682V33.2798Z" fill="#1A1C21"/>
<path d="M38.7065 45.9103H44.4874V32.0167H38.7065V26.4302H51.6771V33.5227H52.0171C52.2438 32.6159 52.5515 31.7415 52.9401 30.8994C53.3611 30.025 53.8793 29.264 54.4946 28.6162C55.1423 27.9361 55.9196 27.4018 56.8264 27.0131C57.7332 26.6245 58.8019 26.4302 60.0326 26.4302H62.413V33.0369H57.0693C55.2881 33.0369 53.9441 33.5713 53.0373 34.64C52.1305 35.6763 51.6771 36.9556 51.6771 38.4777V45.9103H59.9354V51.4968H38.7065V45.9103Z" fill="#1A1C21"/>
<path d="M98.2872 51.4968V26.4302H104.068V30.1222H104.408C104.797 28.9563 105.347 27.9523 106.06 27.1103C106.805 26.2683 107.841 25.8472 109.169 25.8472C111.598 25.8472 113.088 27.2722 113.638 30.1222H113.93C114.124 29.5392 114.367 28.9887 114.658 28.4705C114.95 27.9523 115.306 27.4989 115.727 27.1103C116.148 26.7217 116.65 26.414 117.233 26.1873C117.816 25.9606 118.496 25.8472 119.273 25.8472C122.771 25.8472 124.52 28.4219 124.52 33.5713V51.4968H118.739V34.2999C118.739 33.1341 118.528 32.3244 118.107 31.871C117.719 31.3852 117.201 31.1423 116.553 31.1423C115.937 31.1423 115.403 31.3528 114.95 31.7739C114.529 32.1625 114.318 32.7778 114.318 33.6198V51.4968H108.489V34.2999C108.489 33.1341 108.294 32.3244 107.906 31.871C107.55 31.3852 107.048 31.1423 106.4 31.1423C105.752 31.1423 105.202 31.3528 104.748 31.7739C104.295 32.1625 104.068 32.7778 104.068 33.6198V51.4968H98.2872Z" fill="#1A1C21"/>
<path d="M127.367 26.4302H134.557V30.9966H134.897C135.512 29.5068 136.402 28.2762 137.568 27.3046C138.734 26.333 140.321 25.8472 142.329 25.8472C143.722 25.8472 144.985 26.1063 146.118 26.6245C147.284 27.1427 148.272 27.9361 149.082 29.0049C149.924 30.0736 150.571 31.4338 151.025 33.0855C151.51 34.7372 151.753 36.6965 151.753 38.9635C151.753 41.2305 151.51 43.1898 151.025 44.8415C150.571 46.4932 149.924 47.8534 149.082 48.9221C148.272 49.9909 147.284 50.7843 146.118 51.3025C144.985 51.8207 143.722 52.0798 142.329 52.0798C140.321 52.0798 138.734 51.6102 137.568 50.671C136.402 49.6994 135.512 48.4525 134.897 46.9304H134.557V61.2126H127.367V26.4302ZM139.22 46.4932C140.839 46.4932 142.086 46.0074 142.961 45.0358C143.835 44.0319 144.272 42.6555 144.272 40.9066V37.0204C144.272 35.2715 143.835 33.9113 142.961 32.9397C142.086 31.9358 140.839 31.4338 139.22 31.4338C137.957 31.4338 136.856 31.7415 135.917 32.3568C135.01 32.9721 134.557 33.9437 134.557 35.2715V42.6555C134.557 43.9833 135.01 44.9549 135.917 45.5702C136.856 46.1855 137.957 46.4932 139.22 46.4932Z" fill="#1A1C21"/>
<path d="M168.688 51.4968C166.098 51.4968 164.171 50.8167 162.907 49.4565C161.644 48.0963 161.013 46.3637 161.013 44.2586V32.0167H154.212V26.4302H158.633C159.701 26.4302 160.462 26.2197 160.916 25.7987C161.369 25.3777 161.596 24.6004 161.596 23.4669V17.5889H168.203V26.4302H177.967V32.0167H168.203V45.9103H177.967V51.4968H168.688Z" fill="#1A1C21"/>
<path d="M183.189 46.2726C184.741 46.2726 185.865 45.9782 186.561 45.3894C187.284 44.8006 187.645 44.078 187.645 43.2216V42.9406C187.645 41.9236 187.297 41.1207 186.601 40.5319C185.932 39.9163 184.969 39.6086 183.711 39.6086C182.56 39.6086 181.476 39.903 180.459 40.4918C179.469 41.0538 178.626 41.8701 177.93 42.9406L174.116 39.4078C174.652 38.712 175.24 38.0831 175.883 37.521C176.525 36.9322 177.234 36.4371 178.01 36.0357C178.787 35.6075 179.656 35.2863 180.62 35.0722C181.61 34.8313 182.721 34.7109 183.952 34.7109C185.477 34.7109 186.856 34.8848 188.087 35.2328C189.318 35.5807 190.362 36.0892 191.218 36.7583C192.101 37.4006 192.784 38.1767 193.265 39.0867C193.747 39.9966 193.988 41.0136 193.988 42.1377C193.988 43.0209 193.841 43.8238 193.546 44.5464C193.252 45.269 192.851 45.8979 192.342 46.4332C191.86 46.9685 191.285 47.4101 190.616 47.758C189.974 48.0791 189.278 48.3066 188.528 48.4404V48.6813C190.241 48.9757 191.66 49.6983 192.784 50.8491C193.935 51.9732 194.51 53.4987 194.51 55.4257C194.51 56.6835 194.242 57.821 193.707 58.838C193.199 59.855 192.463 60.7248 191.499 61.4474C190.562 62.17 189.412 62.732 188.047 63.1335C186.708 63.5082 185.21 63.6955 183.55 63.6955C182.132 63.6955 180.874 63.5483 179.777 63.2539C178.706 62.9595 177.756 62.5715 176.926 62.0897C176.097 61.5812 175.374 61.0058 174.759 60.3635C174.17 59.6944 173.648 59.0119 173.193 58.3161L177.649 54.8636C178.265 56.0145 179.027 56.9646 179.937 57.7139C180.874 58.4365 182.119 58.7978 183.671 58.7978C185.116 58.7978 186.227 58.4633 187.003 57.7942C187.779 57.1251 188.167 56.2018 188.167 55.0242V54.7432C188.167 53.5924 187.725 52.736 186.842 52.1739C185.959 51.5851 184.728 51.2907 183.149 51.2907H180.54V46.2726H183.189Z" fill="#1A1C21"/>
<path d="M11.1328 51.4968H10.7993V51.8304H11.1328V51.4968ZM11.1328 17.5889V17.2553H10.7993V17.5889H11.1328ZM28.6697 18.3661L28.5458 18.6759L28.5526 18.6784L28.6697 18.3661ZM31.9245 20.5036L31.6803 20.7309L31.6845 20.7353L31.9245 20.5036ZM33.9648 32.8426L34.2805 32.9504L33.9648 32.8426ZM31.9245 36.2431L31.6845 36.0114L31.6804 36.0158L31.9245 36.2431ZM28.6697 38.4291L28.7869 38.7415L28.7936 38.7388L28.6697 38.4291ZM18.4682 39.1578V38.8243H18.1346V39.1578H18.4682ZM18.4682 51.4968V51.8304H18.8018V51.4968H18.4682ZM18.4682 33.2798H18.1346V33.6133H18.4682V33.2798ZM25.9493 32.3082L25.7192 32.0666L25.7135 32.0724L25.9493 32.3082ZM25.9493 24.4385L25.7134 24.6744L25.7193 24.68L25.9493 24.4385ZM18.4682 23.4669V23.1333H18.1346V23.4669H18.4682ZM38.7065 45.9103V45.5767H38.373V45.9103H38.7065ZM44.4874 45.9103V46.2438H44.821V45.9103H44.4874ZM44.4874 32.0167H44.821V31.6832H44.4874V32.0167ZM38.7065 32.0167H38.373V32.3503H38.7065V32.0167ZM38.7065 26.4302V26.0966H38.373V26.4302H38.7065ZM51.6771 26.4302H52.0106V26.0966H51.6771V26.4302ZM51.6771 33.5227H51.3435V33.8562H51.6771V33.5227ZM52.0171 33.5227V33.8562H52.2775L52.3407 33.6036L52.0171 33.5227ZM52.9401 30.8994L52.6395 30.7547L52.6373 30.7597L52.9401 30.8994ZM54.4946 28.6162L54.2531 28.3862L54.2528 28.3865L54.4946 28.6162ZM56.8264 27.0131L56.9578 27.3197L56.8264 27.0131ZM62.413 26.4302H62.7465V26.0966H62.413V26.4302ZM62.413 33.0369V33.3705H62.7465V33.0369H62.413ZM53.0373 34.64L53.2883 34.8597L53.2916 34.8558L53.0373 34.64ZM51.6771 45.9103H51.3435V46.2438H51.6771V45.9103ZM59.9354 45.9103H60.269V45.5767H59.9354V45.9103ZM59.9354 51.4968V51.8304H60.269V51.4968H59.9354ZM38.7065 51.4968H38.373V51.8304H38.7065V51.4968ZM98.2872 51.4968H97.9536V51.8304H98.2872V51.4968ZM98.2872 26.4302V26.0966H97.9536V26.4302H98.2872ZM104.068 26.4302H104.402V26.0966H104.068V26.4302ZM104.068 30.1222H103.735V30.4557H104.068V30.1222ZM104.408 30.1222V30.4557H104.649L104.725 30.2277L104.408 30.1222ZM106.06 27.1103L105.81 26.8892L105.805 26.8948L106.06 27.1103ZM113.638 30.1222L113.311 30.1854L113.363 30.4557H113.638V30.1222ZM113.93 30.1222V30.4557H114.17L114.246 30.2277L113.93 30.1222ZM114.658 28.4705L114.368 28.307H114.367L114.658 28.4705ZM115.727 27.1103L115.501 26.8652L115.727 27.1103ZM117.233 26.1873L117.112 25.8764V25.8764L117.233 26.1873ZM124.52 51.4968V51.8304H124.853V51.4968H124.52ZM118.739 51.4968H118.405V51.8304H118.739V51.4968ZM118.107 31.871L117.847 32.0794L117.855 32.089L117.863 32.098L118.107 31.871ZM114.95 31.7739L115.176 32.0189L115.177 32.0183L114.95 31.7739ZM114.318 51.4968V51.8304H114.652V51.4968H114.318ZM108.489 51.4968H108.155V51.8304H108.489V51.4968ZM107.906 31.871L107.637 32.0683L107.644 32.0785L107.653 32.0881L107.906 31.871ZM104.748 31.7739L104.965 32.0273L104.975 32.0183L104.748 31.7739ZM104.068 51.4968V51.8304H104.402V51.4968H104.068ZM127.367 26.4302V26.0966H127.033V26.4302H127.367ZM134.557 26.4302H134.89V26.0966H134.557V26.4302ZM134.557 30.9966H134.223V31.3301H134.557V30.9966ZM134.897 30.9966V31.3301H135.12L135.205 31.1239L134.897 30.9966ZM137.568 27.3046L137.355 27.0484L137.568 27.3046ZM146.118 26.6245L145.98 26.9279L145.983 26.9293L146.118 26.6245ZM149.082 29.0049L148.816 29.2063L148.82 29.2113L149.082 29.0049ZM151.025 33.0855L150.703 33.1738L150.705 33.1796L151.025 33.0855ZM151.025 44.8415L150.705 44.7474L150.703 44.7532L151.025 44.8415ZM149.082 48.9221L148.82 48.7157L148.816 48.7207L149.082 48.9221ZM146.118 51.3025L145.983 50.9977L145.98 50.9991L146.118 51.3025ZM137.568 50.671L137.355 50.9272L137.359 50.9307L137.568 50.671ZM134.897 46.9304L135.206 46.8054L135.121 46.5969H134.897V46.9304ZM134.557 46.9304V46.5969H134.223V46.9304H134.557ZM134.557 61.2126V61.5461H134.89V61.2126H134.557ZM127.367 61.2126H127.033V61.5461H127.367V61.2126ZM142.961 45.0358L143.209 45.259L143.212 45.2549L142.961 45.0358ZM142.961 32.9397L142.709 33.1588L142.713 33.1629L142.961 32.9397ZM135.917 32.3568L135.734 32.0778L135.729 32.0808L135.917 32.3568ZM135.917 45.5702L135.729 45.8463L135.734 45.8492L135.917 45.5702ZM161.013 32.0167H161.346V31.6832H161.013V32.0167ZM154.212 32.0167H153.878V32.3503H154.212V32.0167ZM154.212 26.4302V26.0966H153.878V26.4302H154.212ZM161.596 17.5889V17.2553H161.262V17.5889H161.596ZM168.203 17.5889H168.536V17.2553H168.203V17.5889ZM168.203 26.4302H167.869V26.7637H168.203V26.4302ZM177.967 26.4302H178.3V26.0966H177.967V26.4302ZM177.967 32.0167V32.3503H178.3V32.0167H177.967ZM168.203 32.0167V31.6832H167.869V32.0167H168.203ZM168.203 45.9103H167.869V46.2438H168.203V45.9103ZM177.967 45.9103H178.3V45.5767H177.967V45.9103ZM177.967 51.4968V51.8304H178.3V51.4968H177.967ZM186.561 45.3894L186.351 45.1308L186.346 45.1348L186.561 45.3894ZM186.601 40.5319L186.375 40.7776L186.386 40.7865L186.601 40.5319ZM180.459 40.4918L180.624 40.7818L180.626 40.7804L180.459 40.4918ZM177.93 42.9406L177.703 43.1853L177.994 43.4544L178.21 43.1224L177.93 42.9406ZM174.116 39.4078L173.852 39.2045L173.666 39.4457L173.89 39.6525L174.116 39.4078ZM175.883 37.521L176.102 37.7721L176.108 37.7669L175.883 37.521ZM178.01 36.0357L178.164 36.332L178.172 36.3277L178.01 36.0357ZM180.62 35.0722L180.692 35.3979L180.699 35.3963L180.62 35.0722ZM191.218 36.7583L191.013 37.0213L191.022 37.028L191.218 36.7583ZM193.265 39.0867L192.971 39.2427L193.265 39.0867ZM193.546 44.5464L193.238 44.4205L193.546 44.5464ZM192.342 46.4332L192.1 46.2034L192.094 46.2101L192.342 46.4332ZM190.616 47.758L190.765 48.0564L190.77 48.0539L190.616 47.758ZM188.528 48.4404L188.47 48.1121L188.195 48.1612V48.4404H188.528ZM188.528 48.6813H188.195V48.9624L188.472 49.01L188.528 48.6813ZM192.784 50.8491L192.545 51.0823L192.551 51.0878L192.784 50.8491ZM193.707 58.838L193.412 58.6826L193.409 58.6888L193.707 58.838ZM191.499 61.4474L191.299 61.1805L191.295 61.1833L191.499 61.4474ZM188.047 63.1335L188.137 63.4547L188.141 63.4535L188.047 63.1335ZM179.777 63.2539L179.688 63.5755L179.69 63.5761L179.777 63.2539ZM176.926 62.0897L176.752 62.3742L176.759 62.3782L176.926 62.0897ZM174.759 60.3635L174.508 60.5838L174.513 60.5892L174.518 60.5943L174.759 60.3635ZM173.193 58.3161L172.989 58.0524L172.745 58.241L172.914 58.4986L173.193 58.3161ZM177.649 54.8636L177.943 54.7063L177.757 54.3581L177.445 54.6L177.649 54.8636ZM179.937 57.7139L179.725 57.9715L179.734 57.978L179.937 57.7139ZM187.003 57.7942L187.221 58.0468L187.003 57.7942ZM186.842 52.1739L186.657 52.4515L186.663 52.4553L186.842 52.1739ZM180.54 51.2907H180.206V51.6243H180.54V51.2907ZM180.54 46.2726V45.9391H180.206V46.2726H180.54ZM11.4664 51.4968V17.5889H10.7993V51.4968H11.4664ZM11.1328 17.9224H24.2491V17.2553H11.1328V17.9224ZM24.2491 17.9224C25.866 17.9224 27.2963 18.176 28.5458 18.6758L28.7936 18.0564C27.4522 17.5199 25.9355 17.2553 24.2491 17.2553V17.9224ZM28.5526 18.6784C29.8036 19.1475 30.8438 19.8324 31.6804 20.7309L32.1686 20.2763C31.2563 19.2964 30.1268 18.5563 28.7868 18.0538L28.5526 18.6784ZM31.6845 20.7353C32.5548 21.6366 33.2104 22.7269 33.6491 24.0119L34.2805 23.7963C33.8124 22.4257 33.1078 21.2489 32.1645 20.2719L31.6845 20.7353ZM33.6491 24.0119C34.0888 25.2995 34.3114 26.752 34.3114 28.3733H34.9785C34.9785 26.6913 34.7476 25.1644 34.2805 23.7963L33.6491 24.0119ZM34.3114 28.3733C34.3114 29.9947 34.0888 31.4472 33.6491 32.7348L34.2805 32.9504C34.7476 31.5823 34.9785 30.0553 34.9785 28.3733H34.3114ZM33.6491 32.7348C33.2104 34.0198 32.5548 35.11 31.6845 36.0114L32.1645 36.4748C33.1078 35.4978 33.8124 34.321 34.2805 32.9504L33.6491 32.7348ZM31.6804 36.0158C30.8423 36.9159 29.7997 37.6179 28.5458 38.1194L28.7936 38.7388C30.1307 38.204 31.2578 37.4486 32.1686 36.4704L31.6804 36.0158ZM28.5526 38.1168C27.3011 38.5861 25.8683 38.8243 24.2491 38.8243V39.4914C25.9332 39.4914 27.4475 39.2437 28.7868 38.7415L28.5526 38.1168ZM24.2491 38.8243H18.4682V39.4914H24.2491V38.8243ZM18.1346 39.1578V51.4968H18.8018V39.1578H18.1346ZM18.4682 51.1633H11.1328V51.8304H18.4682V51.1633ZM18.4682 33.6133H22.4031V32.9462H18.4682V33.6133ZM22.4031 33.6133C24.1387 33.6133 25.4388 33.2904 26.1852 32.5441L25.7135 32.0724C25.1644 32.6214 24.1003 32.9462 22.4031 32.9462V33.6133ZM26.1794 32.5498C26.9556 31.8105 27.303 30.631 27.303 29.102H26.6359C26.6359 30.5526 26.3032 31.5105 25.7193 32.0667L26.1794 32.5498ZM27.303 29.102V27.6447H26.6359V29.102H27.303ZM27.303 27.6447C27.303 26.1157 26.9556 24.9362 26.1794 24.1969L25.7193 24.68C26.3032 25.2361 26.6359 26.1941 26.6359 27.6447H27.303ZM26.1852 24.2026C25.4388 23.4562 24.1387 23.1333 22.4031 23.1333V23.8004C24.1003 23.8004 25.1644 24.1253 25.7135 24.6743L26.1852 24.2026ZM22.4031 23.1333H18.4682V23.8004H22.4031V23.1333ZM18.1346 23.4669V33.2798H18.8018V23.4669H18.1346ZM38.7065 46.2438H44.4874V45.5767H38.7065V46.2438ZM44.821 45.9103V32.0167H44.1539V45.9103H44.821ZM44.4874 31.6832H38.7065V32.3503H44.4874V31.6832ZM39.0401 32.0167V26.4302H38.373V32.0167H39.0401ZM38.7065 26.7637H51.6771V26.0966H38.7065V26.7637ZM51.3435 26.4302V33.5227H52.0106V26.4302H51.3435ZM51.6771 33.8562H52.0171V33.1891H51.6771V33.8562ZM52.3407 33.6036C52.5624 32.7169 52.8631 31.8622 53.243 31.0392L52.6373 30.7597C52.2398 31.6208 51.9252 32.5149 51.6935 33.4418L52.3407 33.6036ZM53.2406 31.0441C53.6479 30.1983 54.147 29.4665 54.7365 28.846L54.2528 28.3865C53.6116 29.0614 53.0743 29.8518 52.6396 30.7547L53.2406 31.0441ZM54.7362 28.8463C55.3512 28.2005 56.0904 27.6915 56.9578 27.3197L56.695 26.7066C55.7488 27.1121 54.9335 27.6717 54.2531 28.3862L54.7362 28.8463ZM56.9578 27.3197C57.8142 26.9527 58.8363 26.7637 60.0326 26.7637V26.0966C58.7676 26.0966 57.6522 26.2963 56.695 26.7066L56.9578 27.3197ZM60.0326 26.7637H62.413V26.0966H60.0326V26.7637ZM62.0794 26.4302V33.0369H62.7465V26.4302H62.0794ZM62.413 32.7033H57.0693V33.3705H62.413V32.7033ZM57.0693 32.7033C55.2188 32.7033 53.7695 33.2614 52.7829 34.4242L53.2916 34.8558C54.1186 33.8811 55.3574 33.3705 57.0693 33.3705V32.7033ZM52.7862 34.4203C51.8205 35.5241 51.3435 36.8839 51.3435 38.4777H52.0106C52.0106 37.0272 52.4404 35.8286 53.2883 34.8596L52.7862 34.4203ZM51.3435 38.4777V45.9103H52.0106V38.4777H51.3435ZM51.6771 46.2438H59.9354V45.5767H51.6771V46.2438ZM59.6019 45.9103V51.4968H60.269V45.9103H59.6019ZM59.9354 51.1633H38.7065V51.8304H59.9354V51.1633ZM39.0401 51.4968V45.9103H38.373V51.4968H39.0401ZM98.6207 51.4968V26.4302H97.9536V51.4968H98.6207ZM98.2872 26.7637H104.068V26.0966H98.2872V26.7637ZM103.735 26.4302V30.1222H104.402V26.4302H103.735ZM104.068 30.4557H104.408V29.7886H104.068V30.4557ZM104.725 30.2277C105.101 29.0974 105.632 28.1319 106.314 27.3258L105.805 26.8948C105.062 27.7728 104.492 28.8151 104.092 30.0167L104.725 30.2277ZM106.31 27.3313C106.98 26.5739 107.918 26.1808 109.169 26.1808V25.5137C107.764 25.5137 106.63 25.9626 105.81 26.8893L106.31 27.3313ZM109.169 26.1808C110.314 26.1808 111.205 26.5143 111.877 27.157C112.556 27.8058 113.043 28.8015 113.311 30.1854L113.966 30.0589C113.682 28.5929 113.15 27.4511 112.338 26.6749C111.521 25.8927 110.453 25.5137 109.169 25.5137V26.1808ZM113.638 30.4557H113.93V29.7886H113.638V30.4557ZM114.246 30.2277C114.434 29.6642 114.668 29.1331 114.949 28.634L114.367 28.307C114.065 28.8442 113.814 29.4143 113.613 30.0167L114.246 30.2277ZM114.949 28.634C115.224 28.1451 115.559 27.7195 115.953 27.3554L115.501 26.8652C115.053 27.2784 114.675 27.7596 114.368 28.307L114.949 28.634ZM115.953 27.3554C116.341 26.9976 116.806 26.7111 117.354 26.4982L117.112 25.8764C116.494 26.1169 115.955 26.4457 115.501 26.8652L115.953 27.3554ZM117.354 26.4982C117.89 26.2896 118.528 26.1808 119.273 26.1808V25.5137C118.464 25.5137 117.742 25.6316 117.112 25.8764L117.354 26.4982ZM119.273 26.1808C120.928 26.1808 122.128 26.7822 122.932 27.9657C123.752 29.1722 124.186 31.0239 124.186 33.5713H124.853C124.853 30.9693 124.413 28.959 123.484 27.5908C122.539 26.1996 121.117 25.5137 119.273 25.5137V26.1808ZM124.186 33.5713V51.4968H124.853V33.5713H124.186ZM124.52 51.1633H118.739V51.8304H124.52V51.1633ZM119.072 51.4968V34.2999H118.405V51.4968H119.072ZM119.072 34.2999C119.072 33.1157 118.863 32.1946 118.352 31.644L117.863 32.098C118.194 32.4542 118.405 33.1524 118.405 34.2999H119.072ZM118.368 31.6626C117.913 31.094 117.297 30.8088 116.553 30.8088V31.4759C117.104 31.4759 117.524 31.6764 117.847 32.0794L118.368 31.6626ZM116.553 30.8088C115.853 30.8088 115.237 31.0515 114.723 31.5294L115.177 32.0183C115.569 31.6542 116.022 31.4759 116.553 31.4759V30.8088ZM114.723 31.5288C114.207 32.0053 113.985 32.7288 113.985 33.6198H114.652C114.652 32.8268 114.85 32.3197 115.176 32.0189L114.723 31.5288ZM113.985 33.6198V51.4968H114.652V33.6198H113.985ZM114.318 51.1633H108.489V51.8304H114.318V51.1633ZM108.822 51.4968V34.2999H108.155V51.4968H108.822ZM108.822 34.2999C108.822 33.1197 108.63 32.2036 108.159 31.6539L107.653 32.0881C107.959 32.4452 108.155 33.1485 108.155 34.2999H108.822ZM108.175 31.6738C107.75 31.095 107.144 30.8088 106.4 30.8088V31.4759C106.951 31.4759 107.349 31.6754 107.637 32.0683L108.175 31.6738ZM106.4 30.8088C105.672 30.8088 105.039 31.0482 104.521 31.5294L104.975 32.0183C105.364 31.6574 105.832 31.4759 106.4 31.4759V30.8088ZM104.531 31.5206C103.977 31.9953 103.735 32.7219 103.735 33.6198H104.402C104.402 32.8337 104.612 32.3296 104.965 32.0271L104.531 31.5206ZM103.735 33.6198V51.4968H104.402V33.6198H103.735ZM104.068 51.1633H98.2872V51.8304H104.068V51.1633ZM127.367 26.7637H134.557V26.0966H127.367V26.7637ZM134.223 26.4302V30.9966H134.89V26.4302H134.223ZM134.557 31.3301H134.897V30.663H134.557V31.3301ZM135.205 31.1239C135.801 29.681 136.66 28.4956 137.782 27.5609L137.355 27.0484C136.145 28.0567 135.223 29.3327 134.588 30.8693L135.205 31.1239ZM137.782 27.5609C138.871 26.6534 140.374 26.1808 142.329 26.1808V25.5137C140.269 25.5137 138.598 26.0127 137.355 27.0484L137.782 27.5609ZM142.329 26.1808C143.679 26.1808 144.894 26.4318 145.98 26.9279L146.257 26.3211C145.075 25.7809 143.764 25.5137 142.329 25.5137V26.1808ZM145.983 26.9293C147.095 27.4234 148.038 28.1801 148.816 29.2063L149.347 28.8034C148.506 27.6922 147.474 26.8619 146.254 26.3197L145.983 26.9293ZM148.82 29.2113C149.628 30.2372 150.258 31.5543 150.703 33.1738L151.346 32.9972C150.884 31.3133 150.219 29.91 149.344 28.7984L148.82 29.2113ZM150.705 33.1796C151.179 34.7928 151.42 36.7189 151.42 38.9635H152.087C152.087 36.6741 151.842 34.6815 151.345 32.9914L150.705 33.1796ZM151.42 38.9635C151.42 41.2081 151.179 43.1342 150.705 44.7474L151.345 44.9356C151.842 43.2455 152.087 41.2529 152.087 38.9635H151.42ZM150.703 44.7532C150.258 46.3727 149.628 47.6898 148.82 48.7157L149.344 49.1286C150.219 48.017 150.884 46.6137 151.346 44.9298L150.703 44.7532ZM148.816 48.7207C148.038 49.7469 147.095 50.5036 145.983 50.9977L146.254 51.6073C147.474 51.0651 148.506 50.2348 149.347 49.1236L148.816 48.7207ZM145.98 50.9991C144.894 51.4952 143.679 51.7462 142.329 51.7462V52.4133C143.764 52.4133 145.075 52.1461 146.257 51.6059L145.98 50.9991ZM142.329 51.7462C140.371 51.7462 138.867 51.2886 137.778 50.4112L137.359 50.9307C138.602 51.9318 140.271 52.4133 142.329 52.4133V51.7462ZM137.782 50.4147C136.662 49.4812 135.802 48.2808 135.206 46.8054L134.587 47.0554C135.222 48.6242 136.143 49.9176 137.355 50.9272L137.782 50.4147ZM134.897 46.5969H134.557V47.264H134.897V46.5969ZM134.223 46.9304V61.2126H134.89V46.9304H134.223ZM134.557 60.879H127.367V61.5461H134.557V60.879ZM127.7 61.2126V26.4302H127.033V61.2126H127.7ZM139.22 46.8268C140.91 46.8268 142.256 46.3171 143.209 45.259L142.713 44.8127C141.916 45.6977 140.769 46.1596 139.22 46.1596V46.8268ZM143.212 45.2549C144.154 44.1733 144.606 42.7103 144.606 40.9066H143.939C143.939 42.6006 143.516 43.8905 142.709 44.8168L143.212 45.2549ZM144.606 40.9066V37.0204H143.939V40.9066H144.606ZM144.606 37.0204C144.606 35.2174 144.154 33.7676 143.209 32.7166L142.713 33.1629C143.516 34.055 143.939 35.3256 143.939 37.0204H144.606ZM143.212 32.7207C142.261 31.6284 140.913 31.1002 139.22 31.1002V31.7674C140.766 31.7674 141.912 32.2431 142.709 33.1588L143.212 32.7207ZM139.22 31.1002C137.9 31.1002 136.734 31.4225 135.734 32.0778L136.1 32.6358C136.978 32.0604 138.014 31.7674 139.22 31.7674V31.1002ZM135.729 32.0808C134.711 32.7718 134.223 33.8599 134.223 35.2715H134.89C134.89 34.0275 135.309 33.1724 136.104 32.6328L135.729 32.0808ZM134.223 35.2715V42.6555H134.89V35.2715H134.223ZM134.223 42.6555C134.223 44.0671 134.711 45.1552 135.729 45.8462L136.104 45.2942C135.309 44.7546 134.89 43.8995 134.89 42.6555H134.223ZM135.734 45.8492C136.734 46.5045 137.9 46.8268 139.22 46.8268V46.1596C138.014 46.1596 136.978 45.8666 136.1 45.2912L135.734 45.8492ZM168.688 51.1633C166.153 51.1633 164.33 50.4983 163.152 49.2295L162.663 49.6835C164.011 51.1351 166.042 51.8304 168.688 51.8304V51.1633ZM163.152 49.2295C161.954 47.9394 161.346 46.2916 161.346 44.2586H160.679C160.679 46.4357 161.335 48.2532 162.663 49.6835L163.152 49.2295ZM161.346 44.2586V32.0167H160.679V44.2586H161.346ZM161.013 31.6832H154.212V32.3503H161.013V31.6832ZM154.545 32.0167V26.4302H153.878V32.0167H154.545ZM154.212 26.7637H158.633V26.0966H154.212V26.7637ZM158.633 26.7637C159.729 26.7637 160.596 26.5508 161.143 26.0431L160.689 25.5542C160.329 25.8886 159.673 26.0966 158.633 26.0966V26.7637ZM161.143 26.0431C161.703 25.5232 161.929 24.6225 161.929 23.4669H161.262C161.262 24.5783 161.036 25.2322 160.689 25.5542L161.143 26.0431ZM161.929 23.4669V17.5889H161.262V23.4669H161.929ZM161.596 17.9224H168.203V17.2553H161.596V17.9224ZM167.869 17.5889V26.4302H168.536V17.5889H167.869ZM168.203 26.7637H177.967V26.0966H168.203V26.7637ZM177.633 26.4302V32.0167H178.3V26.4302H177.633ZM177.967 31.6832H168.203V32.3503H177.967V31.6832ZM167.869 32.0167V45.9103H168.536V32.0167H167.869ZM168.203 46.2438H177.967V45.5767H168.203V46.2438ZM177.633 45.9103V51.4968H178.3V45.9103H177.633ZM177.967 51.1633H168.688V51.8304H177.967V51.1633ZM183.189 46.6062C184.77 46.6062 185.991 46.3091 186.777 45.6441L186.346 45.1348C185.74 45.6474 184.713 45.9391 183.189 45.9391V46.6062ZM186.772 45.648C187.564 45.0023 187.979 44.188 187.979 43.2216H187.312C187.312 43.9681 187.003 44.599 186.351 45.1308L186.772 45.648ZM187.979 43.2216V42.9406H187.312V43.2216H187.979ZM187.979 42.9406C187.979 41.8382 187.597 40.9372 186.817 40.2773L186.386 40.7865C186.998 41.3041 187.312 42.0089 187.312 42.9406H187.979ZM186.827 40.2864C186.076 39.5956 185.02 39.275 183.711 39.275V39.9421C184.917 39.9421 185.788 40.2371 186.376 40.7774L186.827 40.2864ZM183.711 39.275C182.5 39.275 181.359 39.5855 180.292 40.2031L180.626 40.7804C181.594 40.2204 182.62 39.9421 183.711 39.9421V39.275ZM180.295 40.2017C179.252 40.7931 178.372 41.649 177.65 42.7588L178.21 43.1224C178.88 42.0911 179.685 41.3144 180.624 40.7818L180.295 40.2017ZM178.157 42.6959L174.343 39.1631L173.89 39.6525L177.703 43.1853L178.157 42.6959ZM174.381 39.6112C174.903 38.9322 175.477 38.3193 176.102 37.7721L175.663 37.27C175.004 37.8468 174.4 38.4918 173.852 39.2045L174.381 39.6112ZM176.108 37.7669C176.729 37.1981 177.414 36.7199 178.164 36.3319L177.857 35.7394C177.055 36.1543 176.321 36.6664 175.657 37.2751L176.108 37.7669ZM178.172 36.3277C178.917 35.9165 179.756 35.6058 180.692 35.3978L180.547 34.7466C179.556 34.9668 178.656 35.2984 177.849 35.7436L178.172 36.3277ZM180.699 35.3963C181.658 35.1628 182.742 35.0444 183.952 35.0444V34.3773C182.699 34.3773 181.562 34.4998 180.541 34.7481L180.699 35.3963ZM183.952 35.0444C185.452 35.0444 186.799 35.2156 187.996 35.5538L188.177 34.9118C186.912 34.5541 185.502 34.3773 183.952 34.3773V35.0444ZM187.996 35.5538C189.193 35.892 190.196 36.3829 191.013 37.0211L191.423 36.4954C190.527 35.7954 189.443 35.2694 188.177 34.9118L187.996 35.5538ZM191.022 37.028C191.867 37.6423 192.514 38.3804 192.971 39.2427L193.56 38.9306C193.053 37.973 192.336 37.1589 191.414 36.4885L191.022 37.028ZM192.971 39.2427C193.425 40.1003 193.654 41.0629 193.654 42.1377H194.322C194.322 40.9643 194.07 39.893 193.56 38.9306L192.971 39.2427ZM193.654 42.1377C193.654 42.9834 193.514 43.7428 193.238 44.4205L193.855 44.6722C194.168 43.9047 194.322 43.0584 194.322 42.1377H193.654ZM193.238 44.4205C192.958 45.1069 192.579 45.7 192.1 46.2035L192.584 46.6629C193.123 46.0958 193.546 45.4311 193.855 44.6722L193.238 44.4205ZM192.094 46.2101C191.64 46.7142 191.097 47.1317 190.462 47.462L190.77 48.0539C191.473 47.6884 192.08 47.2227 192.59 46.6563L192.094 46.2101ZM190.467 47.4596C189.855 47.7657 189.19 47.9835 188.47 48.1121L188.587 48.7688C189.366 48.6297 190.092 48.3926 190.765 48.0563L190.467 47.4596ZM188.195 48.4404V48.6813H188.862V48.4404H188.195ZM188.472 49.01C190.121 49.2935 191.474 49.9858 192.545 51.0822L193.022 50.6161C191.845 49.4109 190.361 48.6579 188.585 48.3526L188.472 49.01ZM192.551 51.0878C193.625 52.1369 194.176 53.5694 194.176 55.4257H194.843C194.843 53.428 194.244 51.8095 193.017 50.6105L192.551 51.0878ZM194.176 55.4257C194.176 56.6346 193.92 57.7179 193.412 58.6826L194.002 58.9933C194.565 57.924 194.843 56.7324 194.843 55.4257H194.176ZM193.409 58.6888C192.925 59.6568 192.224 60.4871 191.299 61.1806L191.699 61.7142C192.702 60.9625 193.472 60.0532 194.005 58.9871L193.409 58.6888ZM191.295 61.1833C190.397 61.8761 189.286 62.4214 187.952 62.8135L188.141 63.4535C189.538 63.0427 190.727 62.4639 191.703 61.7115L191.295 61.1833ZM187.957 62.8123C186.653 63.1774 185.185 63.362 183.55 63.362V64.0291C185.234 64.0291 186.764 63.839 188.137 63.4547L187.957 62.8123ZM183.55 63.362C182.154 63.362 180.926 63.217 179.863 62.9318L179.69 63.5761C180.822 63.8796 182.11 64.0291 183.55 64.0291V63.362ZM179.865 62.9323C178.818 62.6443 177.895 62.2665 177.094 61.8013L176.759 62.3782C177.617 62.8764 178.594 63.2747 179.688 63.5755L179.865 62.9323ZM177.101 61.8053C176.293 61.3104 175.593 60.7525 174.999 60.1327L174.518 60.5943C175.155 61.2591 175.9 61.852 176.752 62.3741L177.101 61.8053ZM175.009 60.1431C174.43 59.4851 173.918 58.8152 173.472 58.1336L172.914 58.4986C173.378 59.2087 173.91 59.9037 174.508 60.5838L175.009 60.1431ZM173.397 58.5798L177.853 55.1273L177.445 54.6L172.989 58.0524L173.397 58.5798ZM177.355 55.021C177.989 56.2061 178.778 57.1915 179.725 57.9714L180.149 57.4564C179.277 56.7376 178.54 55.8228 177.943 54.7063L177.355 55.021ZM179.734 57.978C180.745 58.758 182.068 59.1314 183.671 59.1314V58.4643C182.169 58.4643 181.003 58.1151 180.141 57.4498L179.734 57.978ZM183.671 59.1314C185.163 59.1314 186.363 58.786 187.221 58.0468L186.785 57.5416C186.09 58.1406 185.069 58.4643 183.671 58.4643V59.1314ZM187.221 58.0468C188.082 57.3046 188.501 56.2827 188.501 55.0242H187.833C187.833 56.1208 187.476 56.9457 186.785 57.5416L187.221 58.0468ZM188.501 55.0242V54.7432H187.833V55.0242H188.501ZM188.501 54.7432C188.501 53.4918 188.012 52.5227 187.021 51.8925L186.663 52.4553C187.439 52.9492 187.833 53.6929 187.833 54.7432H188.501ZM187.027 51.8964C186.069 51.2573 184.764 50.9572 183.149 50.9572V51.6243C184.692 51.6243 185.85 51.913 186.657 52.4515L187.027 51.8964ZM183.149 50.9572H180.54V51.6243H183.149V50.9572ZM180.873 51.2907V46.2726H180.206V51.2907H180.873ZM180.54 46.6062H183.189V45.9391H180.54V46.6062Z" fill="#1A1C21"/>
<path d="M67.1883 39.8C67.0622 39.8 66.9413 39.7499 66.8522 39.6608C66.763 39.5716 66.7129 39.4507 66.7129 39.3247V33.1456C66.713 33.0195 66.7631 32.8986 66.8522 32.8095L74.4572 25.2045C74.5464 25.1153 74.6672 25.0652 74.7933 25.0652H78.5958C78.7219 25.0652 78.8428 25.1153 78.9319 25.2044C79.0211 25.2936 79.0711 25.4145 79.0711 25.5405C79.0711 25.6666 79.0211 25.7875 78.9319 25.8766C78.8428 25.9658 78.7219 26.0158 78.5958 26.0158H74.9901L67.6636 33.3423V39.3247C67.6636 39.4507 67.6135 39.5716 67.5244 39.6608C67.4352 39.7499 67.3143 39.8 67.1883 39.8Z" fill="url(#paint0_linear_368_7822)"/>
<path d="M86.5368 49.9208L80.497 43.881V40.703C81.0741 40.5852 81.5868 40.2574 81.9359 39.783C82.285 39.3086 82.4454 38.7216 82.3862 38.1356C82.3271 37.5496 82.0524 37.0065 81.6155 36.6115C81.1786 36.2166 80.6107 35.9979 80.0217 35.9979C79.4328 35.9979 78.8648 36.2166 78.4279 36.6115C77.991 37.0065 77.7164 37.5496 77.6572 38.1356C77.598 38.7216 77.7585 39.3086 78.1075 39.783C78.4566 40.2574 78.9693 40.5852 79.5464 40.703V44.0777C79.5464 44.2038 79.5965 44.3247 79.6857 44.4138L85.8648 50.5929C85.9544 50.6795 86.0745 50.7274 86.1991 50.7263C86.3237 50.7252 86.4429 50.6752 86.5311 50.5871C86.6192 50.499 86.6692 50.3798 86.6703 50.2551C86.6713 50.1305 86.6234 50.0104 86.5368 49.9208Z" fill="url(#paint1_linear_368_7822)"/>
<path d="M76.6945 27.4418C76.2651 27.4411 75.8436 27.5569 75.4748 27.777C75.1061 27.997 74.8039 28.313 74.6007 28.6912C74.3974 29.0694 74.3005 29.4958 74.3205 29.9247C74.3404 30.3536 74.4764 30.7691 74.7139 31.1269L70.1794 35.6614C70.0902 35.7505 70.0401 35.8714 70.0401 35.9974V42.1765H67.1882C67.0621 42.1765 66.9412 42.2266 66.8521 42.3157C66.763 42.4049 66.7129 42.5258 66.7129 42.6518C66.7129 42.7779 66.763 42.8988 66.8521 42.9879C66.9412 43.0771 67.0621 43.1272 67.1882 43.1272H70.5154C70.6415 43.1272 70.7624 43.0771 70.8515 42.9879C70.9406 42.8988 70.9907 42.7779 70.9907 42.6518V36.1942L75.386 31.799C75.6951 32.004 76.048 32.1338 76.4163 32.178C76.7846 32.2222 77.1582 32.1795 77.5071 32.0535C77.8559 31.9274 78.1705 31.7214 78.4255 31.452C78.6805 31.1826 78.8689 30.8572 78.9756 30.5019C79.0823 30.1466 79.1043 29.7713 79.0399 29.4059C78.9756 29.0406 78.8266 28.6954 78.6049 28.398C78.3832 28.1006 78.0949 27.8592 77.7632 27.6931C77.4315 27.5271 77.0655 27.441 76.6945 27.4418Z" fill="url(#paint2_linear_368_7822)"/>
<path d="M92.8552 36.9481C92.7292 36.9481 92.6083 36.9981 92.5191 37.0873C92.43 37.1764 92.3799 37.2973 92.3799 37.4234V43.4057L90.8366 44.949C90.3439 44.6229 89.7476 44.4914 89.1634 44.58C88.5793 44.6686 88.0488 44.971 87.675 45.4286C87.3012 45.8861 87.1106 46.4662 87.1402 47.0563C87.1699 47.6464 87.4176 48.2045 87.8354 48.6223C88.2532 49.0401 88.8113 49.2878 89.4014 49.3175C89.9915 49.3471 90.5716 49.1565 91.0291 48.7827C91.4867 48.4089 91.7891 47.8784 91.8777 47.2943C91.9663 46.7101 91.8348 46.1138 91.5087 45.6211L93.1913 43.9385C93.2804 43.8494 93.3305 43.7285 93.3306 43.6025V37.4234C93.3306 37.2973 93.2805 37.1764 93.1913 37.0873C93.1022 36.9981 92.9813 36.9481 92.8552 36.9481Z" fill="url(#paint3_linear_368_7822)"/>
<path d="M89.528 42.1765C89.4019 42.1765 89.281 42.1264 89.1919 42.0373C89.1028 41.9482 89.0527 41.8273 89.0527 41.7012V34.0962C89.0527 33.9701 89.1028 33.8492 89.1919 33.7601C89.281 33.6709 89.4019 33.6209 89.528 33.6209H92.8552C92.9813 33.6209 93.1022 33.6709 93.1913 33.7601C93.2804 33.8492 93.3305 33.9701 93.3305 34.0962C93.3305 34.2222 93.2804 34.3431 93.1913 34.4323C93.1022 34.5214 92.9813 34.5715 92.8552 34.5715H90.0033V41.7012C90.0033 41.8273 89.9532 41.9482 89.8641 42.0373C89.775 42.1264 89.6541 42.1765 89.528 42.1765Z" fill="url(#paint4_linear_368_7822)"/>
<path d="M89.0527 26.9664C88.587 26.9664 88.1317 27.1042 87.7441 27.3624L85.5862 25.2045C85.4971 25.1153 85.3762 25.0652 85.2502 25.0652H81.4476C81.3216 25.0652 81.2007 25.1153 81.1116 25.2044C81.0224 25.2935 80.9723 25.4144 80.9723 25.5405V29.343C80.9724 29.4691 81.0225 29.5899 81.1116 29.6791L85.7255 34.2929V40.5538L83.4882 42.7911C83.4428 42.8349 83.4066 42.8874 83.3817 42.9454C83.3567 43.0034 83.3436 43.0657 83.3431 43.1289C83.3425 43.192 83.3546 43.2546 83.3785 43.313C83.4024 43.3714 83.4377 43.4245 83.4823 43.4691C83.5269 43.5137 83.58 43.549 83.6384 43.5729C83.6968 43.5968 83.7594 43.6088 83.8225 43.6083C83.8856 43.6077 83.948 43.5946 84.006 43.5697C84.064 43.5448 84.1164 43.5086 84.1603 43.4632L86.5368 41.0866C86.626 40.9975 86.6761 40.8766 86.6761 40.7506V34.0962C86.6761 33.9701 86.626 33.8492 86.5368 33.7601L81.923 29.1462V26.0158H85.0534L87.0721 28.0345C86.7806 28.4764 86.645 29.0029 86.6868 29.5306C86.7286 30.0583 86.9453 30.557 87.3027 30.9475C87.6601 31.338 88.1376 31.598 88.6596 31.6863C89.1815 31.7746 89.718 31.6861 90.1839 31.4348C90.6499 31.1836 91.0186 30.784 91.2316 30.2994C91.4446 29.8148 91.4897 29.2729 91.3598 28.7598C91.2299 28.2466 90.9324 27.7915 90.5144 27.4666C90.0965 27.1417 89.582 26.9657 89.0527 26.9664Z" fill="url(#paint5_linear_368_7822)"/>
<path d="M82.7344 50.8715L74.318 42.4551V38.0955L77.842 34.5715H81.4478C81.5738 34.5715 81.6947 34.5214 81.7839 34.4323C81.873 34.3431 81.9231 34.2222 81.9231 34.0962C81.9231 33.9701 81.873 33.8492 81.7839 33.7601C81.6947 33.6709 81.5738 33.6209 81.4478 33.6209H77.6452C77.5192 33.6209 77.3983 33.671 77.3092 33.7601L73.5067 37.5626C73.4175 37.6518 73.3674 37.7726 73.3674 37.8987V42.6518C73.3674 42.7779 73.4175 42.8988 73.5067 42.9879L81.251 50.7322H74.9897L72.9681 48.7202C73.2981 48.2273 73.4332 47.6295 73.3472 47.0426C73.2613 46.4558 72.9604 45.9218 72.5029 45.5443C72.0455 45.1668 71.4641 44.9726 70.8716 44.9996C70.2791 45.0265 69.7177 45.2726 69.2964 45.69C68.8751 46.1075 68.6239 46.6666 68.5915 47.2588C68.5592 47.851 68.7479 48.4341 69.1212 48.895C69.4945 49.3559 70.0257 49.6617 70.6118 49.7531C71.1978 49.8444 71.7968 49.7148 72.2927 49.3894L74.4606 51.5445C74.5491 51.6325 74.6686 51.6822 74.7934 51.6828H82.3984C82.4924 51.6828 82.5843 51.6549 82.6624 51.6027C82.7406 51.5504 82.8015 51.4762 82.8374 51.3894C82.8734 51.3025 82.8828 51.207 82.8645 51.1148C82.8461 51.0226 82.8009 50.9379 82.7344 50.8715Z" fill="url(#paint6_linear_368_7822)"/>
<path d="M67.1883 39.8C67.0622 39.8 66.9413 39.7499 66.8522 39.6608C66.763 39.5716 66.7129 39.4507 66.7129 39.3247V33.1456C66.713 33.0195 66.7631 32.8986 66.8522 32.8095L74.4572 25.2045C74.5464 25.1153 74.6672 25.0652 74.7933 25.0652H78.5958C78.7219 25.0652 78.8428 25.1153 78.9319 25.2044C79.0211 25.2936 79.0711 25.4145 79.0711 25.5405C79.0711 25.6666 79.0211 25.7875 78.9319 25.8766C78.8428 25.9658 78.7219 26.0158 78.5958 26.0158H74.9901L67.6636 33.3423V39.3247C67.6636 39.4507 67.6135 39.5716 67.5244 39.6608C67.4352 39.7499 67.3143 39.8 67.1883 39.8Z" stroke="url(#paint7_linear_368_7822)" stroke-width="0.667108"/>
<path d="M86.5368 49.9208L80.497 43.881V40.703C81.0741 40.5852 81.5868 40.2574 81.9359 39.783C82.285 39.3086 82.4454 38.7216 82.3862 38.1356C82.3271 37.5496 82.0524 37.0065 81.6155 36.6115C81.1786 36.2166 80.6107 35.9979 80.0217 35.9979C79.4328 35.9979 78.8648 36.2166 78.4279 36.6115C77.991 37.0065 77.7164 37.5496 77.6572 38.1356C77.598 38.7216 77.7585 39.3086 78.1075 39.783C78.4566 40.2574 78.9693 40.5852 79.5464 40.703V44.0777C79.5464 44.2038 79.5965 44.3247 79.6857 44.4138L85.8648 50.5929C85.9544 50.6795 86.0745 50.7274 86.1991 50.7263C86.3237 50.7252 86.4429 50.6752 86.5311 50.5871C86.6192 50.499 86.6692 50.3798 86.6703 50.2551C86.6713 50.1305 86.6234 50.0104 86.5368 49.9208Z" stroke="url(#paint8_linear_368_7822)" stroke-width="0.667108"/>
<path d="M76.6945 27.4418C76.2651 27.4411 75.8436 27.5569 75.4748 27.777C75.1061 27.997 74.8039 28.313 74.6007 28.6912C74.3974 29.0694 74.3005 29.4958 74.3205 29.9247C74.3404 30.3536 74.4764 30.7691 74.7139 31.1269L70.1794 35.6614C70.0902 35.7505 70.0401 35.8714 70.0401 35.9974V42.1765H67.1882C67.0621 42.1765 66.9412 42.2266 66.8521 42.3157C66.763 42.4049 66.7129 42.5258 66.7129 42.6518C66.7129 42.7779 66.763 42.8988 66.8521 42.9879C66.9412 43.0771 67.0621 43.1272 67.1882 43.1272H70.5154C70.6415 43.1272 70.7624 43.0771 70.8515 42.9879C70.9406 42.8988 70.9907 42.7779 70.9907 42.6518V36.1942L75.386 31.799C75.6951 32.004 76.048 32.1338 76.4163 32.178C76.7846 32.2222 77.1582 32.1795 77.5071 32.0535C77.8559 31.9274 78.1705 31.7214 78.4255 31.452C78.6805 31.1826 78.8689 30.8572 78.9756 30.5019C79.0823 30.1466 79.1043 29.7713 79.0399 29.4059C78.9756 29.0406 78.8266 28.6954 78.6049 28.398C78.3832 28.1006 78.0949 27.8592 77.7632 27.6931C77.4315 27.5271 77.0655 27.441 76.6945 27.4418Z" stroke="url(#paint9_linear_368_7822)" stroke-width="0.667108"/>
<path d="M92.8552 36.9481C92.7292 36.9481 92.6083 36.9981 92.5191 37.0873C92.43 37.1764 92.3799 37.2973 92.3799 37.4234V43.4057L90.8366 44.949C90.3439 44.6229 89.7476 44.4914 89.1634 44.58C88.5793 44.6686 88.0488 44.971 87.675 45.4286C87.3012 45.8861 87.1106 46.4662 87.1402 47.0563C87.1699 47.6464 87.4176 48.2045 87.8354 48.6223C88.2532 49.0401 88.8113 49.2878 89.4014 49.3175C89.9915 49.3471 90.5716 49.1565 91.0291 48.7827C91.4867 48.4089 91.7891 47.8784 91.8777 47.2943C91.9663 46.7101 91.8348 46.1138 91.5087 45.6211L93.1913 43.9385C93.2804 43.8494 93.3305 43.7285 93.3306 43.6025V37.4234C93.3306 37.2973 93.2805 37.1764 93.1913 37.0873C93.1022 36.9981 92.9813 36.9481 92.8552 36.9481Z" stroke="url(#paint10_linear_368_7822)" stroke-width="0.667108"/>
<path d="M89.528 42.1765C89.4019 42.1765 89.281 42.1264 89.1919 42.0373C89.1028 41.9482 89.0527 41.8273 89.0527 41.7012V34.0962C89.0527 33.9701 89.1028 33.8492 89.1919 33.7601C89.281 33.6709 89.4019 33.6209 89.528 33.6209H92.8552C92.9813 33.6209 93.1022 33.6709 93.1913 33.7601C93.2804 33.8492 93.3305 33.9701 93.3305 34.0962C93.3305 34.2222 93.2804 34.3431 93.1913 34.4323C93.1022 34.5214 92.9813 34.5715 92.8552 34.5715H90.0033V41.7012C90.0033 41.8273 89.9532 41.9482 89.8641 42.0373C89.775 42.1264 89.6541 42.1765 89.528 42.1765Z" stroke="url(#paint11_linear_368_7822)" stroke-width="0.667108"/>
<path d="M89.0527 26.9664C88.587 26.9664 88.1317 27.1042 87.7441 27.3624L85.5862 25.2045C85.4971 25.1153 85.3762 25.0652 85.2502 25.0652H81.4476C81.3216 25.0652 81.2007 25.1153 81.1116 25.2044C81.0224 25.2935 80.9723 25.4144 80.9723 25.5405V29.343C80.9724 29.4691 81.0225 29.5899 81.1116 29.6791L85.7255 34.2929V40.5538L83.4882 42.7911C83.4428 42.8349 83.4066 42.8874 83.3817 42.9454C83.3567 43.0034 83.3436 43.0657 83.3431 43.1289C83.3425 43.192 83.3546 43.2546 83.3785 43.313C83.4024 43.3714 83.4377 43.4245 83.4823 43.4691C83.5269 43.5137 83.58 43.549 83.6384 43.5729C83.6968 43.5968 83.7594 43.6088 83.8225 43.6083C83.8856 43.6077 83.948 43.5946 84.006 43.5697C84.064 43.5448 84.1164 43.5086 84.1603 43.4632L86.5368 41.0866C86.626 40.9975 86.6761 40.8766 86.6761 40.7506V34.0962C86.6761 33.9701 86.626 33.8492 86.5368 33.7601L81.923 29.1462V26.0158H85.0534L87.0721 28.0345C86.7806 28.4764 86.645 29.0029 86.6868 29.5306C86.7286 30.0583 86.9453 30.557 87.3027 30.9475C87.6601 31.338 88.1376 31.598 88.6596 31.6863C89.1815 31.7746 89.718 31.6861 90.1839 31.4348C90.6499 31.1836 91.0186 30.784 91.2316 30.2994C91.4446 29.8148 91.4897 29.2729 91.3598 28.7598C91.2299 28.2466 90.9324 27.7915 90.5144 27.4666C90.0965 27.1417 89.582 26.9657 89.0527 26.9664Z" stroke="url(#paint12_linear_368_7822)" stroke-width="0.667108"/>
<path d="M82.7344 50.8715L74.318 42.4551V38.0955L77.842 34.5715H81.4478C81.5738 34.5715 81.6947 34.5214 81.7839 34.4323C81.873 34.3431 81.9231 34.2222 81.9231 34.0962C81.9231 33.9701 81.873 33.8492 81.7839 33.7601C81.6947 33.6709 81.5738 33.6209 81.4478 33.6209H77.6452C77.5192 33.6209 77.3983 33.671 77.3092 33.7601L73.5067 37.5626C73.4175 37.6518 73.3674 37.7726 73.3674 37.8987V42.6518C73.3674 42.7779 73.4175 42.8988 73.5067 42.9879L81.251 50.7322H74.9897L72.9681 48.7202C73.2981 48.2273 73.4332 47.6295 73.3472 47.0426C73.2613 46.4558 72.9604 45.9218 72.5029 45.5443C72.0455 45.1668 71.4641 44.9726 70.8716 44.9996C70.2791 45.0265 69.7177 45.2726 69.2964 45.69C68.8751 46.1075 68.6239 46.6666 68.5915 47.2588C68.5592 47.851 68.7479 48.4341 69.1212 48.895C69.4945 49.3559 70.0257 49.6617 70.6118 49.7531C71.1978 49.8444 71.7968 49.7148 72.2927 49.3894L74.4606 51.5445C74.5491 51.6325 74.6686 51.6822 74.7934 51.6828H82.3984C82.4924 51.6828 82.5843 51.6549 82.6624 51.6027C82.7406 51.5504 82.8015 51.4762 82.8374 51.3894C82.8734 51.3025 82.8828 51.207 82.8645 51.1148C82.8461 51.0226 82.8009 50.9379 82.7344 50.8715Z" stroke="url(#paint13_linear_368_7822)" stroke-width="0.667108"/>
<defs>
<linearGradient id="paint0_linear_368_7822" x1="66.7129" y1="25.0652" x2="93.3305" y2="51.6828" gradientUnits="userSpaceOnUse">
<stop offset="0.270833" stop-color="#52E8CD"/>
<stop offset="1" stop-color="#50B0F9"/>
</linearGradient>
<linearGradient id="paint1_linear_368_7822" x1="66.7129" y1="25.0652" x2="93.3305" y2="51.6828" gradientUnits="userSpaceOnUse">
<stop offset="0.270833" stop-color="#52E8CD"/>
<stop offset="1" stop-color="#50B0F9"/>
</linearGradient>
<linearGradient id="paint2_linear_368_7822" x1="66.7129" y1="25.0652" x2="93.3305" y2="51.6828" gradientUnits="userSpaceOnUse">
<stop offset="0.270833" stop-color="#52E8CD"/>
<stop offset="1" stop-color="#50B0F9"/>
</linearGradient>
<linearGradient id="paint3_linear_368_7822" x1="66.7129" y1="25.0652" x2="93.3305" y2="51.6828" gradientUnits="userSpaceOnUse">
<stop offset="0.270833" stop-color="#52E8CD"/>
<stop offset="1" stop-color="#50B0F9"/>
</linearGradient>
<linearGradient id="paint4_linear_368_7822" x1="66.7129" y1="25.0652" x2="93.3305" y2="51.6828" gradientUnits="userSpaceOnUse">
<stop offset="0.270833" stop-color="#52E8CD"/>
<stop offset="1" stop-color="#50B0F9"/>
</linearGradient>
<linearGradient id="paint5_linear_368_7822" x1="66.7129" y1="25.0652" x2="93.3305" y2="51.6828" gradientUnits="userSpaceOnUse">
<stop offset="0.270833" stop-color="#52E8CD"/>
<stop offset="1" stop-color="#50B0F9"/>
</linearGradient>
<linearGradient id="paint6_linear_368_7822" x1="66.7129" y1="25.0652" x2="93.3305" y2="51.6828" gradientUnits="userSpaceOnUse">
<stop offset="0.270833" stop-color="#52E8CD"/>
<stop offset="1" stop-color="#50B0F9"/>
</linearGradient>
<linearGradient id="paint7_linear_368_7822" x1="66.7129" y1="25.0652" x2="93.3305" y2="51.6828" gradientUnits="userSpaceOnUse">
<stop offset="0.270833" stop-color="#52E8CD"/>
<stop offset="1" stop-color="#50B0F9"/>
</linearGradient>
<linearGradient id="paint8_linear_368_7822" x1="66.7129" y1="25.0652" x2="93.3305" y2="51.6828" gradientUnits="userSpaceOnUse">
<stop offset="0.270833" stop-color="#52E8CD"/>
<stop offset="1" stop-color="#50B0F9"/>
</linearGradient>
<linearGradient id="paint9_linear_368_7822" x1="66.7129" y1="25.0652" x2="93.3305" y2="51.6828" gradientUnits="userSpaceOnUse">
<stop offset="0.270833" stop-color="#52E8CD"/>
<stop offset="1" stop-color="#50B0F9"/>
</linearGradient>
<linearGradient id="paint10_linear_368_7822" x1="66.7129" y1="25.0652" x2="93.3305" y2="51.6828" gradientUnits="userSpaceOnUse">
<stop offset="0.270833" stop-color="#52E8CD"/>
<stop offset="1" stop-color="#50B0F9"/>
</linearGradient>
<linearGradient id="paint11_linear_368_7822" x1="66.7129" y1="25.0652" x2="93.3305" y2="51.6828" gradientUnits="userSpaceOnUse">
<stop offset="0.270833" stop-color="#52E8CD"/>
<stop offset="1" stop-color="#50B0F9"/>
</linearGradient>
<linearGradient id="paint12_linear_368_7822" x1="66.7129" y1="25.0652" x2="93.3305" y2="51.6828" gradientUnits="userSpaceOnUse">
<stop offset="0.270833" stop-color="#52E8CD"/>
<stop offset="1" stop-color="#50B0F9"/>
</linearGradient>
<linearGradient id="paint13_linear_368_7822" x1="66.7129" y1="25.0652" x2="93.3305" y2="51.6828" gradientUnits="userSpaceOnUse">
<stop offset="0.270833" stop-color="#52E8CD"/>
<stop offset="1" stop-color="#50B0F9"/>
</linearGradient>
</defs>
</svg>
