<svg width="95" height="95" viewBox="0 0 95 95" fill="none" xmlns="http://www.w3.org/2000/svg">
<path d="M3.62666 52.4206C3.19529 52.4206 2.78159 52.2493 2.47657 51.9443C2.17155 51.6392 2.00019 51.2255 2.00019 50.7942V29.6501C2.00028 29.2187 2.1717 28.8051 2.47675 28.5002L28.5002 2.47665C28.8052 2.17161 29.2188 2.00019 29.6502 2.0001H42.6619C43.0933 2.0001 43.507 2.17146 43.812 2.47648C44.117 2.7815 44.2884 3.1952 44.2884 3.62657C44.2884 4.05793 44.117 4.47163 43.812 4.77665C43.507 5.08167 43.0933 5.25303 42.6619 5.25303H30.3235L5.25313 30.3234V50.7942C5.25313 51.2255 5.08177 51.6392 4.77675 51.9443C4.47172 52.2493 4.05803 52.4206 3.62666 52.4206Z" fill="url(#paint0_linear_380_12430)"/>
<path d="M69.8352 87.0528L49.1676 66.3853V55.5107C51.1422 55.1077 52.8968 53.9858 54.0913 52.3626C55.2857 50.7393 55.8349 48.7304 55.6323 46.7253C55.4298 44.7202 54.4899 42.8617 52.9949 41.5102C51.5 40.1587 49.5565 39.4103 47.5411 39.4103C45.5258 39.4103 43.5823 40.1587 42.0873 41.5102C40.5924 42.8617 39.6525 44.7202 39.45 46.7253C39.2474 48.7304 39.7966 50.7393 40.991 52.3626C42.1855 53.9858 43.9401 55.1077 45.9147 55.5107V67.0587C45.9148 67.49 46.0862 67.9036 46.3912 68.2086L67.5353 89.3527C67.8421 89.649 68.2529 89.8129 68.6794 89.8092C69.1058 89.8055 69.5138 89.6344 69.8153 89.3329C70.1169 89.0313 70.288 88.6234 70.2917 88.1969C70.2954 87.7705 70.1314 87.3596 69.8352 87.0528Z" fill="url(#paint1_linear_380_12430)"/>
<path d="M36.1558 10.1324C34.6865 10.13 33.244 10.5264 31.9822 11.2794C30.7204 12.0323 29.6866 13.1135 28.991 14.4078C28.2953 15.7021 27.964 17.1609 28.0322 18.6287C28.1004 20.0964 28.5657 21.5182 29.3784 22.7424L13.8618 38.2589C13.5568 38.5638 13.3854 38.9775 13.3853 39.4088V60.5529H3.62647C3.1951 60.5529 2.7814 60.7243 2.47638 61.0293C2.17136 61.3343 2 61.748 2 62.1794C2 62.6107 2.17136 63.0244 2.47638 63.3295C2.7814 63.6345 3.1951 63.8058 3.62647 63.8058H15.0118C15.4431 63.8058 15.8568 63.6345 16.1618 63.3295C16.4669 63.0244 16.6382 62.6107 16.6382 62.1794V40.0822L31.6782 25.0422C32.7361 25.7438 33.9435 26.1879 35.2039 26.3391C36.4642 26.4903 37.7425 26.3444 38.9363 25.913C40.1302 25.4816 41.2065 24.7768 42.079 23.8548C42.9516 22.9329 43.5962 21.8195 43.9614 20.6038C44.3265 19.388 44.4019 18.1037 44.1816 16.8535C43.9614 15.6034 43.4515 14.4222 42.6929 13.4045C41.9342 12.3867 40.9479 11.5607 39.8127 10.9925C38.6776 10.4243 37.4252 10.1297 36.1558 10.1324Z" fill="url(#paint2_linear_380_12430)"/>
<path d="M91.4559 42.6617C91.0246 42.6617 90.6109 42.8331 90.3058 43.1381C90.0008 43.4431 89.8295 43.8568 89.8295 44.2882V64.7589L84.5483 70.0401C82.8623 68.9242 80.822 68.4742 78.8231 68.7774C76.8241 69.0806 75.009 70.1154 73.7298 71.6811C72.4506 73.2468 71.7984 75.2317 71.8998 77.251C72.0013 79.2703 72.849 81.1799 74.2786 82.6096C75.7083 84.0392 77.6179 84.8869 79.6372 84.9884C81.6565 85.0898 83.6414 84.4376 85.2071 83.1584C86.7728 81.8792 87.8076 80.0641 88.1108 78.0651C88.414 76.0662 87.964 74.0259 86.8481 72.3399L92.6058 66.5822C92.9109 66.2773 93.0823 65.8636 93.0824 65.4323V44.2882C93.0824 43.8568 92.911 43.4431 92.606 43.1381C92.301 42.8331 91.8873 42.6617 91.4559 42.6617Z" fill="url(#paint3_linear_380_12430)"/>
<path d="M80.0705 60.5529C79.6392 60.5529 79.2254 60.3815 78.9204 60.0765C78.6154 59.7715 78.444 59.3578 78.444 58.9264V32.9029C78.444 32.4715 78.6154 32.0578 78.9204 31.7528C79.2254 31.4478 79.6392 31.2764 80.0705 31.2764H91.4558C91.8872 31.2764 92.3009 31.4478 92.6059 31.7528C92.9109 32.0578 93.0823 32.4715 93.0823 32.9029C93.0823 33.3343 92.9109 33.748 92.6059 34.053C92.3009 34.358 91.8872 34.5294 91.4558 34.5294H81.697V58.9264C81.697 59.3578 81.5256 59.7715 81.2206 60.0765C80.9156 60.3815 80.5019 60.5529 80.0705 60.5529Z" fill="url(#paint4_linear_380_12430)"/>
<path d="M78.444 8.50588C76.8505 8.50571 75.2925 8.97712 73.9664 9.86072L66.5822 2.47656C66.2773 2.17151 65.8636 2.00009 65.4323 2H52.4205C51.9892 2 51.5755 2.17136 51.2705 2.47638C50.9654 2.7814 50.7941 3.1951 50.7941 3.62647V16.6382C50.7942 17.0696 50.9656 17.4832 51.2706 17.7881L67.0588 33.5763V55.0001L59.403 62.6559C59.2476 62.8059 59.1237 62.9854 59.0385 63.1839C58.9532 63.3823 58.9084 63.5957 58.9065 63.8117C58.9046 64.0276 58.9458 64.2418 59.0275 64.4417C59.1093 64.6416 59.2301 64.8232 59.3828 64.9759C59.5355 65.1286 59.7171 65.2494 59.917 65.3312C60.1169 65.4129 60.3311 65.4541 60.547 65.4522C60.763 65.4503 60.9764 65.4055 61.1749 65.3202C61.3733 65.235 61.5528 65.1111 61.7028 64.9557L69.8351 56.8234C70.1402 56.5184 70.3116 56.1048 70.3117 55.6735V32.9029C70.3116 32.4716 70.1402 32.0579 69.8351 31.753L54.047 15.9649V5.25294H64.7589L71.6665 12.1606C70.6692 13.6726 70.2052 15.4744 70.3482 17.2802C70.4912 19.0859 71.233 20.7922 72.4559 22.1285C73.6788 23.4648 75.3129 24.3546 77.0989 24.6567C78.8849 24.9588 80.7207 24.6559 82.315 23.7962C83.9094 22.9365 85.1711 21.569 85.9 19.9108C86.6289 18.2525 86.7834 16.3983 86.3388 14.6423C85.8943 12.8864 84.8762 11.329 83.446 10.2174C82.0158 9.10574 80.2554 8.50339 78.444 8.50588Z" fill="url(#paint5_linear_380_12430)"/>
<path d="M56.8238 90.3059L28.0239 61.506V46.588L40.0825 34.5294H52.4209C52.8523 34.5294 53.266 34.358 53.571 34.053C53.876 33.748 54.0474 33.3343 54.0474 32.9029C54.0474 32.4715 53.876 32.0578 53.571 31.7528C53.266 31.4478 52.8523 31.2764 52.4209 31.2764H39.4092C38.9778 31.2765 38.5642 31.448 38.2592 31.753L25.2475 44.7647C24.9424 45.0697 24.771 45.4833 24.7709 45.9147V62.1794C24.771 62.6107 24.9424 63.0243 25.2475 63.3293L51.7476 89.8293H30.3221L23.4047 82.9445C24.5337 81.258 24.996 79.2122 24.7019 77.2041C24.4077 75.196 23.3781 73.3688 21.8128 72.0769C20.2474 70.7851 18.258 70.1208 16.2306 70.213C14.2032 70.3051 12.2822 71.1472 10.8406 72.5756C9.39888 74.0041 8.53925 75.9172 8.42847 77.9437C8.31769 79.9703 8.96366 81.9657 10.241 83.5428C11.5184 85.1199 13.3361 86.1663 15.3414 86.4789C17.3467 86.7915 19.3967 86.348 21.0935 85.2346L28.5118 92.609C28.8145 92.91 29.2234 93.08 29.6503 93.0823H55.6738C55.9955 93.0822 56.3099 92.9868 56.5773 92.808C56.8447 92.6293 57.0531 92.3753 57.1762 92.0782C57.2993 91.781 57.3315 91.454 57.2687 91.1386C57.206 90.8231 57.0512 90.5333 56.8238 90.3059Z" fill="url(#paint6_linear_380_12430)"/>
<path d="M3.62666 52.4206C3.19529 52.4206 2.78159 52.2493 2.47657 51.9443C2.17155 51.6392 2.00019 51.2255 2.00019 50.7942V29.6501C2.00028 29.2187 2.1717 28.8051 2.47675 28.5002L28.5002 2.47665C28.8052 2.17161 29.2188 2.00019 29.6502 2.0001H42.6619C43.0933 2.0001 43.507 2.17146 43.812 2.47648C44.117 2.7815 44.2884 3.1952 44.2884 3.62657C44.2884 4.05793 44.117 4.47163 43.812 4.77665C43.507 5.08167 43.0933 5.25303 42.6619 5.25303H30.3235L5.25313 30.3234V50.7942C5.25313 51.2255 5.08177 51.6392 4.77675 51.9443C4.47172 52.2493 4.05803 52.4206 3.62666 52.4206Z" stroke="url(#paint7_linear_380_12430)" stroke-width="2.28276"/>
<path d="M69.8352 87.0528L49.1676 66.3853V55.5107C51.1422 55.1077 52.8968 53.9858 54.0913 52.3626C55.2857 50.7393 55.8349 48.7304 55.6323 46.7253C55.4298 44.7202 54.4899 42.8617 52.9949 41.5102C51.5 40.1587 49.5565 39.4103 47.5411 39.4103C45.5258 39.4103 43.5823 40.1587 42.0873 41.5102C40.5924 42.8617 39.6525 44.7202 39.45 46.7253C39.2474 48.7304 39.7966 50.7393 40.991 52.3626C42.1855 53.9858 43.9401 55.1077 45.9147 55.5107V67.0587C45.9148 67.49 46.0862 67.9036 46.3912 68.2086L67.5353 89.3527C67.8421 89.649 68.2529 89.8129 68.6794 89.8092C69.1058 89.8055 69.5138 89.6344 69.8153 89.3329C70.1169 89.0313 70.288 88.6234 70.2917 88.1969C70.2954 87.7705 70.1314 87.3596 69.8352 87.0528Z" stroke="url(#paint8_linear_380_12430)" stroke-width="2.28276"/>
<path d="M36.1558 10.1324C34.6865 10.13 33.244 10.5264 31.9822 11.2794C30.7204 12.0323 29.6866 13.1135 28.991 14.4078C28.2953 15.7021 27.964 17.1609 28.0322 18.6287C28.1004 20.0964 28.5657 21.5182 29.3784 22.7424L13.8618 38.2589C13.5568 38.5638 13.3854 38.9775 13.3853 39.4088V60.5529H3.62647C3.1951 60.5529 2.7814 60.7243 2.47638 61.0293C2.17136 61.3343 2 61.748 2 62.1794C2 62.6107 2.17136 63.0244 2.47638 63.3295C2.7814 63.6345 3.1951 63.8058 3.62647 63.8058H15.0118C15.4431 63.8058 15.8568 63.6345 16.1618 63.3295C16.4669 63.0244 16.6382 62.6107 16.6382 62.1794V40.0822L31.6782 25.0422C32.7361 25.7438 33.9435 26.1879 35.2039 26.3391C36.4642 26.4903 37.7425 26.3444 38.9363 25.913C40.1302 25.4816 41.2065 24.7768 42.079 23.8548C42.9516 22.9329 43.5962 21.8195 43.9614 20.6038C44.3265 19.388 44.4019 18.1037 44.1816 16.8535C43.9614 15.6034 43.4515 14.4222 42.6929 13.4045C41.9342 12.3867 40.9479 11.5607 39.8127 10.9925C38.6776 10.4243 37.4252 10.1297 36.1558 10.1324Z" stroke="url(#paint9_linear_380_12430)" stroke-width="2.28276"/>
<path d="M91.4559 42.6617C91.0246 42.6617 90.6109 42.8331 90.3058 43.1381C90.0008 43.4431 89.8295 43.8568 89.8295 44.2882V64.7589L84.5483 70.0401C82.8623 68.9242 80.822 68.4742 78.8231 68.7774C76.8241 69.0806 75.009 70.1154 73.7298 71.6811C72.4506 73.2468 71.7984 75.2317 71.8998 77.251C72.0013 79.2703 72.849 81.1799 74.2786 82.6096C75.7083 84.0392 77.6179 84.8869 79.6372 84.9884C81.6565 85.0898 83.6414 84.4376 85.2071 83.1584C86.7728 81.8792 87.8076 80.0641 88.1108 78.0651C88.414 76.0662 87.964 74.0259 86.8481 72.3399L92.6058 66.5822C92.9109 66.2773 93.0823 65.8636 93.0824 65.4323V44.2882C93.0824 43.8568 92.911 43.4431 92.606 43.1381C92.301 42.8331 91.8873 42.6617 91.4559 42.6617Z" stroke="url(#paint10_linear_380_12430)" stroke-width="2.28276"/>
<path d="M80.0705 60.5529C79.6392 60.5529 79.2254 60.3815 78.9204 60.0765C78.6154 59.7715 78.444 59.3578 78.444 58.9264V32.9029C78.444 32.4715 78.6154 32.0578 78.9204 31.7528C79.2254 31.4478 79.6392 31.2764 80.0705 31.2764H91.4558C91.8872 31.2764 92.3009 31.4478 92.6059 31.7528C92.9109 32.0578 93.0823 32.4715 93.0823 32.9029C93.0823 33.3343 92.9109 33.748 92.6059 34.053C92.3009 34.358 91.8872 34.5294 91.4558 34.5294H81.697V58.9264C81.697 59.3578 81.5256 59.7715 81.2206 60.0765C80.9156 60.3815 80.5019 60.5529 80.0705 60.5529Z" stroke="url(#paint11_linear_380_12430)" stroke-width="2.28276"/>
<path d="M78.444 8.50588C76.8505 8.50571 75.2925 8.97712 73.9664 9.86072L66.5822 2.47656C66.2773 2.17151 65.8636 2.00009 65.4323 2H52.4205C51.9892 2 51.5755 2.17136 51.2705 2.47638C50.9654 2.7814 50.7941 3.1951 50.7941 3.62647V16.6382C50.7942 17.0696 50.9656 17.4832 51.2706 17.7881L67.0588 33.5763V55.0001L59.403 62.6559C59.2476 62.8059 59.1237 62.9854 59.0385 63.1839C58.9532 63.3823 58.9084 63.5957 58.9065 63.8117C58.9046 64.0276 58.9458 64.2418 59.0275 64.4417C59.1093 64.6416 59.2301 64.8232 59.3828 64.9759C59.5355 65.1286 59.7171 65.2494 59.917 65.3312C60.1169 65.4129 60.3311 65.4541 60.547 65.4522C60.763 65.4503 60.9764 65.4055 61.1749 65.3202C61.3733 65.235 61.5528 65.1111 61.7028 64.9557L69.8351 56.8234C70.1402 56.5184 70.3116 56.1048 70.3117 55.6735V32.9029C70.3116 32.4716 70.1402 32.0579 69.8351 31.753L54.047 15.9649V5.25294H64.7589L71.6665 12.1606C70.6692 13.6726 70.2052 15.4744 70.3482 17.2802C70.4912 19.0859 71.233 20.7922 72.4559 22.1285C73.6788 23.4648 75.3129 24.3546 77.0989 24.6567C78.8849 24.9588 80.7207 24.6559 82.315 23.7962C83.9094 22.9365 85.1711 21.569 85.9 19.9108C86.6289 18.2525 86.7834 16.3983 86.3388 14.6423C85.8943 12.8864 84.8762 11.329 83.446 10.2174C82.0158 9.10574 80.2554 8.50339 78.444 8.50588Z" stroke="url(#paint12_linear_380_12430)" stroke-width="2.28276"/>
<path d="M56.8238 90.3059L28.0239 61.506V46.588L40.0825 34.5294H52.4209C52.8523 34.5294 53.266 34.358 53.571 34.053C53.876 33.748 54.0474 33.3343 54.0474 32.9029C54.0474 32.4715 53.876 32.0578 53.571 31.7528C53.266 31.4478 52.8523 31.2764 52.4209 31.2764H39.4092C38.9778 31.2765 38.5642 31.448 38.2592 31.753L25.2475 44.7647C24.9424 45.0697 24.771 45.4833 24.7709 45.9147V62.1794C24.771 62.6107 24.9424 63.0243 25.2475 63.3293L51.7476 89.8293H30.3221L23.4047 82.9445C24.5337 81.258 24.996 79.2122 24.7019 77.2041C24.4077 75.196 23.3781 73.3688 21.8128 72.0769C20.2474 70.7851 18.258 70.1208 16.2306 70.213C14.2032 70.3051 12.2822 71.1472 10.8406 72.5756C9.39888 74.0041 8.53925 75.9172 8.42847 77.9437C8.31769 79.9703 8.96366 81.9657 10.241 83.5428C11.5184 85.1199 13.3361 86.1663 15.3414 86.4789C17.3467 86.7915 19.3967 86.348 21.0935 85.2346L28.5118 92.609C28.8145 92.91 29.2234 93.08 29.6503 93.0823H55.6738C55.9955 93.0822 56.3099 92.9868 56.5773 92.808C56.8447 92.6293 57.0531 92.3753 57.1762 92.0782C57.2993 91.781 57.3315 91.454 57.2687 91.1386C57.206 90.8231 57.0512 90.5333 56.8238 90.3059Z" stroke="url(#paint13_linear_380_12430)" stroke-width="2.28276"/>
<defs>
<linearGradient id="paint0_linear_380_12430" x1="2" y1="2" x2="93.0823" y2="93.0824" gradientUnits="userSpaceOnUse">
<stop offset="0.270833" stop-color="#52E8CD"/>
<stop offset="1" stop-color="#50B0F9"/>
</linearGradient>
<linearGradient id="paint1_linear_380_12430" x1="2" y1="2" x2="93.0823" y2="93.0824" gradientUnits="userSpaceOnUse">
<stop offset="0.270833" stop-color="#52E8CD"/>
<stop offset="1" stop-color="#50B0F9"/>
</linearGradient>
<linearGradient id="paint2_linear_380_12430" x1="2" y1="2" x2="93.0823" y2="93.0824" gradientUnits="userSpaceOnUse">
<stop offset="0.270833" stop-color="#52E8CD"/>
<stop offset="1" stop-color="#50B0F9"/>
</linearGradient>
<linearGradient id="paint3_linear_380_12430" x1="2" y1="2" x2="93.0823" y2="93.0824" gradientUnits="userSpaceOnUse">
<stop offset="0.270833" stop-color="#52E8CD"/>
<stop offset="1" stop-color="#50B0F9"/>
</linearGradient>
<linearGradient id="paint4_linear_380_12430" x1="2" y1="2" x2="93.0823" y2="93.0824" gradientUnits="userSpaceOnUse">
<stop offset="0.270833" stop-color="#52E8CD"/>
<stop offset="1" stop-color="#50B0F9"/>
</linearGradient>
<linearGradient id="paint5_linear_380_12430" x1="2" y1="2" x2="93.0823" y2="93.0824" gradientUnits="userSpaceOnUse">
<stop offset="0.270833" stop-color="#52E8CD"/>
<stop offset="1" stop-color="#50B0F9"/>
</linearGradient>
<linearGradient id="paint6_linear_380_12430" x1="2" y1="2" x2="93.0823" y2="93.0824" gradientUnits="userSpaceOnUse">
<stop offset="0.270833" stop-color="#52E8CD"/>
<stop offset="1" stop-color="#50B0F9"/>
</linearGradient>
<linearGradient id="paint7_linear_380_12430" x1="2" y1="2" x2="93.0823" y2="93.0824" gradientUnits="userSpaceOnUse">
<stop offset="0.270833" stop-color="#52E8CD"/>
<stop offset="1" stop-color="#50B0F9"/>
</linearGradient>
<linearGradient id="paint8_linear_380_12430" x1="2" y1="2" x2="93.0823" y2="93.0824" gradientUnits="userSpaceOnUse">
<stop offset="0.270833" stop-color="#52E8CD"/>
<stop offset="1" stop-color="#50B0F9"/>
</linearGradient>
<linearGradient id="paint9_linear_380_12430" x1="2" y1="2" x2="93.0823" y2="93.0824" gradientUnits="userSpaceOnUse">
<stop offset="0.270833" stop-color="#52E8CD"/>
<stop offset="1" stop-color="#50B0F9"/>
</linearGradient>
<linearGradient id="paint10_linear_380_12430" x1="2" y1="2" x2="93.0823" y2="93.0824" gradientUnits="userSpaceOnUse">
<stop offset="0.270833" stop-color="#52E8CD"/>
<stop offset="1" stop-color="#50B0F9"/>
</linearGradient>
<linearGradient id="paint11_linear_380_12430" x1="2" y1="2" x2="93.0823" y2="93.0824" gradientUnits="userSpaceOnUse">
<stop offset="0.270833" stop-color="#52E8CD"/>
<stop offset="1" stop-color="#50B0F9"/>
</linearGradient>
<linearGradient id="paint12_linear_380_12430" x1="2" y1="2" x2="93.0823" y2="93.0824" gradientUnits="userSpaceOnUse">
<stop offset="0.270833" stop-color="#52E8CD"/>
<stop offset="1" stop-color="#50B0F9"/>
</linearGradient>
<linearGradient id="paint13_linear_380_12430" x1="2" y1="2" x2="93.0823" y2="93.0824" gradientUnits="userSpaceOnUse">
<stop offset="0.270833" stop-color="#52E8CD"/>
<stop offset="1" stop-color="#50B0F9"/>
</linearGradient>
</defs>
</svg>
